M48
; DRILL file {KiCad (5.1.10)-1} date 08/24/21 00:39:08
; FORMAT={-:-/ absolute / inch / decimal}
; #@! TF.CreationDate,2021-08-24T00:39:08-04:00
; #@! TF.GenerationSoftware,Kicad,Pcbnew,(5.1.10)-1
FMAT,2
INCH
T1C0.1772
%
G90
G05
T1
X3.9Y-2.2783
X3.9Y-2.5617
X3.9Y-3.0783
X3.9Y-3.3617
X3.9Y-3.8783
X3.9Y-4.1617
X3.9Y-4.6783
X3.9Y-4.9617
X4.55Y-2.2783
X4.55Y-2.5617
X4.55Y-3.0783
X4.55Y-3.3617
X4.55Y-4.6783
X4.55Y-4.9617
X4.5579Y-3.8783
X4.5579Y-4.1617
X4.6083Y-1.72
X4.8917Y-1.72
X5.4083Y-1.72
X5.6917Y-1.72
X5.75Y-2.2783
X5.75Y-2.5617
X5.75Y-3.0783
X5.75Y-3.3617
X5.75Y-3.8783
X5.75Y-4.1617
X5.75Y-4.6783
X5.75Y-4.9617
X6.4Y-2.2783
X6.4Y-2.5617
X6.4Y-3.0783
X6.4Y-3.3617
X6.4Y-3.8783
X6.4Y-4.1617
X6.4Y-4.6783
X6.4Y-4.9617
T0
M30
