%TF.GenerationSoftware,KiCad,Pcbnew,(5.1.10)-1*%
%TF.CreationDate,2021-08-24T00:39:05-04:00*%
%TF.ProjectId,PDBV2,50444256-322e-46b6-9963-61645f706362,rev?*%
%TF.SameCoordinates,Original*%
%TF.FileFunction,Copper,L2,Bot*%
%TF.FilePolarity,Positive*%
%FSLAX46Y46*%
G04 Gerber Fmt 4.6, Leading zero omitted, Abs format (unit mm)*
G04 Created by KiCad (PCBNEW (5.1.10)-1) date 2021-08-24 00:39:05*
%MOMM*%
%LPD*%
G01*
G04 APERTURE LIST*
%TA.AperFunction,ComponentPad*%
%ADD10O,8.000000X5.500000*%
%TD*%
%TA.AperFunction,ComponentPad*%
%ADD11O,5.500000X8.000000*%
%TD*%
%TA.AperFunction,Conductor*%
%ADD12C,0.254000*%
%TD*%
%TA.AperFunction,Conductor*%
%ADD13C,0.100000*%
%TD*%
G04 APERTURE END LIST*
D10*
%TO.P,U10,2*%
%TO.N,GND*%
X146050000Y-126028000D03*
%TO.P,U10,1*%
%TO.N,Net-(U1-Pad1)*%
X146050000Y-118828000D03*
%TD*%
%TO.P,U16,2*%
%TO.N,GND*%
X146050000Y-105708000D03*
%TO.P,U16,1*%
%TO.N,Net-(U1-Pad1)*%
X146050000Y-98508000D03*
%TD*%
D11*
%TO.P,U15,2*%
%TO.N,GND*%
X124250000Y-43688000D03*
%TO.P,U15,1*%
%TO.N,Net-(U1-Pad1)*%
X117050000Y-43688000D03*
%TD*%
D10*
%TO.P,U1,2*%
%TO.N,GND*%
X99060000Y-65068000D03*
%TO.P,U1,1*%
%TO.N,Net-(U1-Pad1)*%
X99060000Y-57868000D03*
%TD*%
%TO.P,U2,2*%
%TO.N,GND*%
X99060000Y-85388000D03*
%TO.P,U2,1*%
%TO.N,Net-(U1-Pad1)*%
X99060000Y-78188000D03*
%TD*%
%TO.P,U3,2*%
%TO.N,GND*%
X115570000Y-65068000D03*
%TO.P,U3,1*%
%TO.N,Net-(U1-Pad1)*%
X115570000Y-57868000D03*
%TD*%
%TO.P,U4,2*%
%TO.N,GND*%
X99060000Y-105708000D03*
%TO.P,U4,1*%
%TO.N,Net-(U1-Pad1)*%
X99060000Y-98508000D03*
%TD*%
%TO.P,U5,2*%
%TO.N,GND*%
X115570000Y-85388000D03*
%TO.P,U5,1*%
%TO.N,Net-(U1-Pad1)*%
X115570000Y-78188000D03*
%TD*%
%TO.P,U8,2*%
%TO.N,GND*%
X115770000Y-105708000D03*
%TO.P,U8,1*%
%TO.N,Net-(U1-Pad1)*%
X115770000Y-98508000D03*
%TD*%
%TO.P,U9,2*%
%TO.N,GND*%
X146050000Y-85388000D03*
%TO.P,U9,1*%
%TO.N,Net-(U1-Pad1)*%
X146050000Y-78188000D03*
%TD*%
%TO.P,U11,2*%
%TO.N,GND*%
X99060000Y-126028000D03*
%TO.P,U11,1*%
%TO.N,Net-(U1-Pad1)*%
X99060000Y-118828000D03*
%TD*%
%TO.P,U13,2*%
%TO.N,GND*%
X115570000Y-126028000D03*
%TO.P,U13,1*%
%TO.N,Net-(U1-Pad1)*%
X115570000Y-118828000D03*
%TD*%
%TO.P,U14,2*%
%TO.N,GND*%
X146050000Y-65068000D03*
%TO.P,U14,1*%
%TO.N,Net-(U1-Pad1)*%
X146050000Y-57868000D03*
%TD*%
%TO.P,U6,2*%
%TO.N,GND24*%
X162560000Y-126028000D03*
%TO.P,U6,1*%
%TO.N,Net-(U12-Pad1)*%
X162560000Y-118828000D03*
%TD*%
D11*
%TO.P,U7,2*%
%TO.N,GND24*%
X144570000Y-43688000D03*
%TO.P,U7,1*%
%TO.N,Net-(U12-Pad1)*%
X137370000Y-43688000D03*
%TD*%
D10*
%TO.P,U12,2*%
%TO.N,GND24*%
X162560000Y-65068000D03*
%TO.P,U12,1*%
%TO.N,Net-(U12-Pad1)*%
X162560000Y-57868000D03*
%TD*%
%TO.P,U17,2*%
%TO.N,GND24*%
X162560000Y-105708000D03*
%TO.P,U17,1*%
%TO.N,Net-(U12-Pad1)*%
X162560000Y-98508000D03*
%TD*%
%TO.P,U18,2*%
%TO.N,GND24*%
X162560000Y-85388000D03*
%TO.P,U18,1*%
%TO.N,Net-(U12-Pad1)*%
X162560000Y-78188000D03*
%TD*%
D12*
%TO.N,GND24*%
X172060001Y-140310000D02*
X89560000Y-140310000D01*
X89560000Y-135694034D01*
X95780866Y-135694034D01*
X95780866Y-136339966D01*
X95906882Y-136973488D01*
X96154069Y-137570252D01*
X96512931Y-138107326D01*
X96969674Y-138564069D01*
X97506748Y-138922931D01*
X98103512Y-139170118D01*
X98737034Y-139296134D01*
X99382966Y-139296134D01*
X100016488Y-139170118D01*
X100613252Y-138922931D01*
X101150326Y-138564069D01*
X101607069Y-138107326D01*
X101965931Y-137570252D01*
X102213118Y-136973488D01*
X102339134Y-136339966D01*
X102339134Y-135694034D01*
X159280866Y-135694034D01*
X159280866Y-136339966D01*
X159406882Y-136973488D01*
X159654069Y-137570252D01*
X160012931Y-138107326D01*
X160469674Y-138564069D01*
X161006748Y-138922931D01*
X161603512Y-139170118D01*
X162237034Y-139296134D01*
X162882966Y-139296134D01*
X163516488Y-139170118D01*
X164113252Y-138922931D01*
X164650326Y-138564069D01*
X165107069Y-138107326D01*
X165465931Y-137570252D01*
X165713118Y-136973488D01*
X165839134Y-136339966D01*
X165839134Y-135694034D01*
X165713118Y-135060512D01*
X165465931Y-134463748D01*
X165107069Y-133926674D01*
X164650326Y-133469931D01*
X164113252Y-133111069D01*
X163516488Y-132863882D01*
X162882966Y-132737866D01*
X162237034Y-132737866D01*
X161603512Y-132863882D01*
X161006748Y-133111069D01*
X160469674Y-133469931D01*
X160012931Y-133926674D01*
X159654069Y-134463748D01*
X159406882Y-135060512D01*
X159280866Y-135694034D01*
X102339134Y-135694034D01*
X102213118Y-135060512D01*
X101965931Y-134463748D01*
X101607069Y-133926674D01*
X101150326Y-133469931D01*
X100613252Y-133111069D01*
X100016488Y-132863882D01*
X99382966Y-132737866D01*
X98737034Y-132737866D01*
X98103512Y-132863882D01*
X97506748Y-133111069D01*
X96969674Y-133469931D01*
X96512931Y-133926674D01*
X96154069Y-134463748D01*
X95906882Y-135060512D01*
X95780866Y-135694034D01*
X89560000Y-135694034D01*
X89560000Y-126028000D01*
X94408622Y-126028000D01*
X94473979Y-126691576D01*
X94667536Y-127329651D01*
X94981858Y-127917704D01*
X95404863Y-128433137D01*
X95920296Y-128856142D01*
X96508349Y-129170464D01*
X97146424Y-129364021D01*
X97643713Y-129413000D01*
X100476287Y-129413000D01*
X100973576Y-129364021D01*
X101611651Y-129170464D01*
X102199704Y-128856142D01*
X102715137Y-128433137D01*
X103138142Y-127917704D01*
X103452464Y-127329651D01*
X103646021Y-126691576D01*
X103711378Y-126028000D01*
X110918622Y-126028000D01*
X110983979Y-126691576D01*
X111177536Y-127329651D01*
X111491858Y-127917704D01*
X111914863Y-128433137D01*
X112430296Y-128856142D01*
X113018349Y-129170464D01*
X113656424Y-129364021D01*
X114153713Y-129413000D01*
X116986287Y-129413000D01*
X117483576Y-129364021D01*
X118121651Y-129170464D01*
X118709704Y-128856142D01*
X119225137Y-128433137D01*
X119648142Y-127917704D01*
X119962464Y-127329651D01*
X120156021Y-126691576D01*
X120221378Y-126028000D01*
X120156021Y-125364424D01*
X119962464Y-124726349D01*
X119648142Y-124138296D01*
X119225137Y-123622863D01*
X118709704Y-123199858D01*
X118121651Y-122885536D01*
X117483576Y-122691979D01*
X116986287Y-122643000D01*
X114153713Y-122643000D01*
X113656424Y-122691979D01*
X113018349Y-122885536D01*
X112430296Y-123199858D01*
X111914863Y-123622863D01*
X111491858Y-124138296D01*
X111177536Y-124726349D01*
X110983979Y-125364424D01*
X110918622Y-126028000D01*
X103711378Y-126028000D01*
X103646021Y-125364424D01*
X103452464Y-124726349D01*
X103138142Y-124138296D01*
X102715137Y-123622863D01*
X102199704Y-123199858D01*
X101611651Y-122885536D01*
X100973576Y-122691979D01*
X100476287Y-122643000D01*
X97643713Y-122643000D01*
X97146424Y-122691979D01*
X96508349Y-122885536D01*
X95920296Y-123199858D01*
X95404863Y-123622863D01*
X94981858Y-124138296D01*
X94667536Y-124726349D01*
X94473979Y-125364424D01*
X94408622Y-126028000D01*
X89560000Y-126028000D01*
X89560000Y-118828000D01*
X94408622Y-118828000D01*
X94473979Y-119491576D01*
X94667536Y-120129651D01*
X94981858Y-120717704D01*
X95404863Y-121233137D01*
X95920296Y-121656142D01*
X96508349Y-121970464D01*
X97146424Y-122164021D01*
X97643713Y-122213000D01*
X100476287Y-122213000D01*
X100973576Y-122164021D01*
X101611651Y-121970464D01*
X102199704Y-121656142D01*
X102715137Y-121233137D01*
X103138142Y-120717704D01*
X103452464Y-120129651D01*
X103646021Y-119491576D01*
X103711378Y-118828000D01*
X110918622Y-118828000D01*
X110983979Y-119491576D01*
X111177536Y-120129651D01*
X111491858Y-120717704D01*
X111914863Y-121233137D01*
X112430296Y-121656142D01*
X113018349Y-121970464D01*
X113656424Y-122164021D01*
X114153713Y-122213000D01*
X116986287Y-122213000D01*
X117483576Y-122164021D01*
X118121651Y-121970464D01*
X118709704Y-121656142D01*
X119225137Y-121233137D01*
X119648142Y-120717704D01*
X119962464Y-120129651D01*
X120156021Y-119491576D01*
X120221378Y-118828000D01*
X120156021Y-118164424D01*
X119962464Y-117526349D01*
X119648142Y-116938296D01*
X119225137Y-116422863D01*
X118709704Y-115999858D01*
X118121651Y-115685536D01*
X117483576Y-115491979D01*
X116986287Y-115443000D01*
X114153713Y-115443000D01*
X113656424Y-115491979D01*
X113018349Y-115685536D01*
X112430296Y-115999858D01*
X111914863Y-116422863D01*
X111491858Y-116938296D01*
X111177536Y-117526349D01*
X110983979Y-118164424D01*
X110918622Y-118828000D01*
X103711378Y-118828000D01*
X103646021Y-118164424D01*
X103452464Y-117526349D01*
X103138142Y-116938296D01*
X102715137Y-116422863D01*
X102199704Y-115999858D01*
X101611651Y-115685536D01*
X100973576Y-115491979D01*
X100476287Y-115443000D01*
X97643713Y-115443000D01*
X97146424Y-115491979D01*
X96508349Y-115685536D01*
X95920296Y-115999858D01*
X95404863Y-116422863D01*
X94981858Y-116938296D01*
X94667536Y-117526349D01*
X94473979Y-118164424D01*
X94408622Y-118828000D01*
X89560000Y-118828000D01*
X89560000Y-105708000D01*
X94408622Y-105708000D01*
X94473979Y-106371576D01*
X94667536Y-107009651D01*
X94981858Y-107597704D01*
X95404863Y-108113137D01*
X95920296Y-108536142D01*
X96508349Y-108850464D01*
X97146424Y-109044021D01*
X97643713Y-109093000D01*
X100476287Y-109093000D01*
X100973576Y-109044021D01*
X101611651Y-108850464D01*
X102199704Y-108536142D01*
X102715137Y-108113137D01*
X103138142Y-107597704D01*
X103452464Y-107009651D01*
X103646021Y-106371576D01*
X103711378Y-105708000D01*
X111118622Y-105708000D01*
X111183979Y-106371576D01*
X111377536Y-107009651D01*
X111691858Y-107597704D01*
X112114863Y-108113137D01*
X112630296Y-108536142D01*
X113218349Y-108850464D01*
X113856424Y-109044021D01*
X114353713Y-109093000D01*
X117186287Y-109093000D01*
X117683576Y-109044021D01*
X118321651Y-108850464D01*
X118909704Y-108536142D01*
X119425137Y-108113137D01*
X119848142Y-107597704D01*
X120162464Y-107009651D01*
X120356021Y-106371576D01*
X120421378Y-105708000D01*
X120356021Y-105044424D01*
X120162464Y-104406349D01*
X119848142Y-103818296D01*
X119425137Y-103302863D01*
X118909704Y-102879858D01*
X118321651Y-102565536D01*
X117683576Y-102371979D01*
X117186287Y-102323000D01*
X114353713Y-102323000D01*
X113856424Y-102371979D01*
X113218349Y-102565536D01*
X112630296Y-102879858D01*
X112114863Y-103302863D01*
X111691858Y-103818296D01*
X111377536Y-104406349D01*
X111183979Y-105044424D01*
X111118622Y-105708000D01*
X103711378Y-105708000D01*
X103646021Y-105044424D01*
X103452464Y-104406349D01*
X103138142Y-103818296D01*
X102715137Y-103302863D01*
X102199704Y-102879858D01*
X101611651Y-102565536D01*
X100973576Y-102371979D01*
X100476287Y-102323000D01*
X97643713Y-102323000D01*
X97146424Y-102371979D01*
X96508349Y-102565536D01*
X95920296Y-102879858D01*
X95404863Y-103302863D01*
X94981858Y-103818296D01*
X94667536Y-104406349D01*
X94473979Y-105044424D01*
X94408622Y-105708000D01*
X89560000Y-105708000D01*
X89560000Y-98508000D01*
X94408622Y-98508000D01*
X94473979Y-99171576D01*
X94667536Y-99809651D01*
X94981858Y-100397704D01*
X95404863Y-100913137D01*
X95920296Y-101336142D01*
X96508349Y-101650464D01*
X97146424Y-101844021D01*
X97643713Y-101893000D01*
X100476287Y-101893000D01*
X100973576Y-101844021D01*
X101611651Y-101650464D01*
X102199704Y-101336142D01*
X102715137Y-100913137D01*
X103138142Y-100397704D01*
X103452464Y-99809651D01*
X103646021Y-99171576D01*
X103711378Y-98508000D01*
X111118622Y-98508000D01*
X111183979Y-99171576D01*
X111377536Y-99809651D01*
X111691858Y-100397704D01*
X112114863Y-100913137D01*
X112630296Y-101336142D01*
X113218349Y-101650464D01*
X113856424Y-101844021D01*
X114353713Y-101893000D01*
X117186287Y-101893000D01*
X117683576Y-101844021D01*
X118321651Y-101650464D01*
X118909704Y-101336142D01*
X119425137Y-100913137D01*
X119848142Y-100397704D01*
X120162464Y-99809651D01*
X120356021Y-99171576D01*
X120421378Y-98508000D01*
X120356021Y-97844424D01*
X120162464Y-97206349D01*
X119848142Y-96618296D01*
X119425137Y-96102863D01*
X118909704Y-95679858D01*
X118321651Y-95365536D01*
X117683576Y-95171979D01*
X117186287Y-95123000D01*
X114353713Y-95123000D01*
X113856424Y-95171979D01*
X113218349Y-95365536D01*
X112630296Y-95679858D01*
X112114863Y-96102863D01*
X111691858Y-96618296D01*
X111377536Y-97206349D01*
X111183979Y-97844424D01*
X111118622Y-98508000D01*
X103711378Y-98508000D01*
X103646021Y-97844424D01*
X103452464Y-97206349D01*
X103138142Y-96618296D01*
X102715137Y-96102863D01*
X102199704Y-95679858D01*
X101611651Y-95365536D01*
X100973576Y-95171979D01*
X100476287Y-95123000D01*
X97643713Y-95123000D01*
X97146424Y-95171979D01*
X96508349Y-95365536D01*
X95920296Y-95679858D01*
X95404863Y-96102863D01*
X94981858Y-96618296D01*
X94667536Y-97206349D01*
X94473979Y-97844424D01*
X94408622Y-98508000D01*
X89560000Y-98508000D01*
X89560000Y-85388000D01*
X94408622Y-85388000D01*
X94473979Y-86051576D01*
X94667536Y-86689651D01*
X94981858Y-87277704D01*
X95404863Y-87793137D01*
X95920296Y-88216142D01*
X96508349Y-88530464D01*
X97146424Y-88724021D01*
X97643713Y-88773000D01*
X100476287Y-88773000D01*
X100973576Y-88724021D01*
X101611651Y-88530464D01*
X102199704Y-88216142D01*
X102715137Y-87793137D01*
X103138142Y-87277704D01*
X103452464Y-86689651D01*
X103646021Y-86051576D01*
X103711378Y-85388000D01*
X110918622Y-85388000D01*
X110983979Y-86051576D01*
X111177536Y-86689651D01*
X111491858Y-87277704D01*
X111914863Y-87793137D01*
X112430296Y-88216142D01*
X113018349Y-88530464D01*
X113656424Y-88724021D01*
X114153713Y-88773000D01*
X116986287Y-88773000D01*
X117483576Y-88724021D01*
X118121651Y-88530464D01*
X118709704Y-88216142D01*
X119225137Y-87793137D01*
X119648142Y-87277704D01*
X119962464Y-86689651D01*
X120156021Y-86051576D01*
X120221378Y-85388000D01*
X120156021Y-84724424D01*
X119962464Y-84086349D01*
X119648142Y-83498296D01*
X119225137Y-82982863D01*
X118709704Y-82559858D01*
X118121651Y-82245536D01*
X117483576Y-82051979D01*
X116986287Y-82003000D01*
X114153713Y-82003000D01*
X113656424Y-82051979D01*
X113018349Y-82245536D01*
X112430296Y-82559858D01*
X111914863Y-82982863D01*
X111491858Y-83498296D01*
X111177536Y-84086349D01*
X110983979Y-84724424D01*
X110918622Y-85388000D01*
X103711378Y-85388000D01*
X103646021Y-84724424D01*
X103452464Y-84086349D01*
X103138142Y-83498296D01*
X102715137Y-82982863D01*
X102199704Y-82559858D01*
X101611651Y-82245536D01*
X100973576Y-82051979D01*
X100476287Y-82003000D01*
X97643713Y-82003000D01*
X97146424Y-82051979D01*
X96508349Y-82245536D01*
X95920296Y-82559858D01*
X95404863Y-82982863D01*
X94981858Y-83498296D01*
X94667536Y-84086349D01*
X94473979Y-84724424D01*
X94408622Y-85388000D01*
X89560000Y-85388000D01*
X89560000Y-78188000D01*
X94408622Y-78188000D01*
X94473979Y-78851576D01*
X94667536Y-79489651D01*
X94981858Y-80077704D01*
X95404863Y-80593137D01*
X95920296Y-81016142D01*
X96508349Y-81330464D01*
X97146424Y-81524021D01*
X97643713Y-81573000D01*
X100476287Y-81573000D01*
X100973576Y-81524021D01*
X101611651Y-81330464D01*
X102199704Y-81016142D01*
X102715137Y-80593137D01*
X103138142Y-80077704D01*
X103452464Y-79489651D01*
X103646021Y-78851576D01*
X103711378Y-78188000D01*
X110918622Y-78188000D01*
X110983979Y-78851576D01*
X111177536Y-79489651D01*
X111491858Y-80077704D01*
X111914863Y-80593137D01*
X112430296Y-81016142D01*
X113018349Y-81330464D01*
X113656424Y-81524021D01*
X114153713Y-81573000D01*
X116986287Y-81573000D01*
X117483576Y-81524021D01*
X118121651Y-81330464D01*
X118709704Y-81016142D01*
X119225137Y-80593137D01*
X119648142Y-80077704D01*
X119962464Y-79489651D01*
X120156021Y-78851576D01*
X120221378Y-78188000D01*
X120156021Y-77524424D01*
X119962464Y-76886349D01*
X119648142Y-76298296D01*
X119225137Y-75782863D01*
X118709704Y-75359858D01*
X118121651Y-75045536D01*
X117483576Y-74851979D01*
X116986287Y-74803000D01*
X114153713Y-74803000D01*
X113656424Y-74851979D01*
X113018349Y-75045536D01*
X112430296Y-75359858D01*
X111914863Y-75782863D01*
X111491858Y-76298296D01*
X111177536Y-76886349D01*
X110983979Y-77524424D01*
X110918622Y-78188000D01*
X103711378Y-78188000D01*
X103646021Y-77524424D01*
X103452464Y-76886349D01*
X103138142Y-76298296D01*
X102715137Y-75782863D01*
X102199704Y-75359858D01*
X101611651Y-75045536D01*
X100973576Y-74851979D01*
X100476287Y-74803000D01*
X97643713Y-74803000D01*
X97146424Y-74851979D01*
X96508349Y-75045536D01*
X95920296Y-75359858D01*
X95404863Y-75782863D01*
X94981858Y-76298296D01*
X94667536Y-76886349D01*
X94473979Y-77524424D01*
X94408622Y-78188000D01*
X89560000Y-78188000D01*
X89560000Y-65068000D01*
X94408622Y-65068000D01*
X94473979Y-65731576D01*
X94667536Y-66369651D01*
X94981858Y-66957704D01*
X95404863Y-67473137D01*
X95920296Y-67896142D01*
X96508349Y-68210464D01*
X97146424Y-68404021D01*
X97643713Y-68453000D01*
X100476287Y-68453000D01*
X100973576Y-68404021D01*
X101611651Y-68210464D01*
X102199704Y-67896142D01*
X102715137Y-67473137D01*
X103138142Y-66957704D01*
X103452464Y-66369651D01*
X103646021Y-65731576D01*
X103711378Y-65068000D01*
X110918622Y-65068000D01*
X110983979Y-65731576D01*
X111177536Y-66369651D01*
X111491858Y-66957704D01*
X111914863Y-67473137D01*
X112430296Y-67896142D01*
X113018349Y-68210464D01*
X113656424Y-68404021D01*
X114153713Y-68453000D01*
X116986287Y-68453000D01*
X117483576Y-68404021D01*
X118121651Y-68210464D01*
X118709704Y-67896142D01*
X119225137Y-67473137D01*
X119648142Y-66957704D01*
X119962464Y-66369651D01*
X120156021Y-65731576D01*
X120221378Y-65068000D01*
X120156021Y-64404424D01*
X119962464Y-63766349D01*
X119648142Y-63178296D01*
X119225137Y-62662863D01*
X118709704Y-62239858D01*
X118121651Y-61925536D01*
X117483576Y-61731979D01*
X116986287Y-61683000D01*
X114153713Y-61683000D01*
X113656424Y-61731979D01*
X113018349Y-61925536D01*
X112430296Y-62239858D01*
X111914863Y-62662863D01*
X111491858Y-63178296D01*
X111177536Y-63766349D01*
X110983979Y-64404424D01*
X110918622Y-65068000D01*
X103711378Y-65068000D01*
X103646021Y-64404424D01*
X103452464Y-63766349D01*
X103138142Y-63178296D01*
X102715137Y-62662863D01*
X102199704Y-62239858D01*
X101611651Y-61925536D01*
X100973576Y-61731979D01*
X100476287Y-61683000D01*
X97643713Y-61683000D01*
X97146424Y-61731979D01*
X96508349Y-61925536D01*
X95920296Y-62239858D01*
X95404863Y-62662863D01*
X94981858Y-63178296D01*
X94667536Y-63766349D01*
X94473979Y-64404424D01*
X94408622Y-65068000D01*
X89560000Y-65068000D01*
X89560000Y-57868000D01*
X94408622Y-57868000D01*
X94473979Y-58531576D01*
X94667536Y-59169651D01*
X94981858Y-59757704D01*
X95404863Y-60273137D01*
X95920296Y-60696142D01*
X96508349Y-61010464D01*
X97146424Y-61204021D01*
X97643713Y-61253000D01*
X100476287Y-61253000D01*
X100973576Y-61204021D01*
X101611651Y-61010464D01*
X102199704Y-60696142D01*
X102715137Y-60273137D01*
X103138142Y-59757704D01*
X103452464Y-59169651D01*
X103646021Y-58531576D01*
X103711378Y-57868000D01*
X110918622Y-57868000D01*
X110983979Y-58531576D01*
X111177536Y-59169651D01*
X111491858Y-59757704D01*
X111914863Y-60273137D01*
X112430296Y-60696142D01*
X113018349Y-61010464D01*
X113656424Y-61204021D01*
X114153713Y-61253000D01*
X116986287Y-61253000D01*
X117483576Y-61204021D01*
X118121651Y-61010464D01*
X118709704Y-60696142D01*
X119225137Y-60273137D01*
X119648142Y-59757704D01*
X119962464Y-59169651D01*
X120156021Y-58531576D01*
X120221378Y-57868000D01*
X120156021Y-57204424D01*
X119962464Y-56566349D01*
X119648142Y-55978296D01*
X119225137Y-55462863D01*
X118709704Y-55039858D01*
X118121651Y-54725536D01*
X117483576Y-54531979D01*
X116986287Y-54483000D01*
X114153713Y-54483000D01*
X113656424Y-54531979D01*
X113018349Y-54725536D01*
X112430296Y-55039858D01*
X111914863Y-55462863D01*
X111491858Y-55978296D01*
X111177536Y-56566349D01*
X110983979Y-57204424D01*
X110918622Y-57868000D01*
X103711378Y-57868000D01*
X103646021Y-57204424D01*
X103452464Y-56566349D01*
X103138142Y-55978296D01*
X102715137Y-55462863D01*
X102199704Y-55039858D01*
X101611651Y-54725536D01*
X100973576Y-54531979D01*
X100476287Y-54483000D01*
X97643713Y-54483000D01*
X97146424Y-54531979D01*
X96508349Y-54725536D01*
X95920296Y-55039858D01*
X95404863Y-55462863D01*
X94981858Y-55978296D01*
X94667536Y-56566349D01*
X94473979Y-57204424D01*
X94408622Y-57868000D01*
X89560000Y-57868000D01*
X89560000Y-53213000D01*
X122476635Y-53213000D01*
X122480001Y-53247176D01*
X122480000Y-130648834D01*
X122476635Y-130683000D01*
X122480000Y-130717166D01*
X122480000Y-130717876D01*
X122490273Y-130822183D01*
X122530872Y-130956019D01*
X122596800Y-131079362D01*
X122685525Y-131187474D01*
X122793637Y-131276200D01*
X122916980Y-131342128D01*
X123050816Y-131382727D01*
X123190000Y-131396435D01*
X123225588Y-131392930D01*
X138394412Y-131392930D01*
X138430000Y-131396435D01*
X138569184Y-131382727D01*
X138703020Y-131342128D01*
X138826363Y-131276200D01*
X138934475Y-131187475D01*
X139023200Y-131079363D01*
X139089128Y-130956020D01*
X139129727Y-130822184D01*
X139140000Y-130717877D01*
X139140000Y-130717166D01*
X139143365Y-130683000D01*
X139140000Y-130648834D01*
X139140000Y-126028000D01*
X141398622Y-126028000D01*
X141463979Y-126691576D01*
X141657536Y-127329651D01*
X141971858Y-127917704D01*
X142394863Y-128433137D01*
X142910296Y-128856142D01*
X143498349Y-129170464D01*
X144136424Y-129364021D01*
X144633713Y-129413000D01*
X147466287Y-129413000D01*
X147963576Y-129364021D01*
X148601651Y-129170464D01*
X149189704Y-128856142D01*
X149705137Y-128433137D01*
X150128142Y-127917704D01*
X150442464Y-127329651D01*
X150636021Y-126691576D01*
X150636905Y-126682594D01*
X157988896Y-126682594D01*
X158134067Y-127206052D01*
X158424918Y-127803010D01*
X158826641Y-128331755D01*
X159323798Y-128771968D01*
X159897284Y-129106732D01*
X160525060Y-129323182D01*
X161183000Y-129413000D01*
X162433000Y-129413000D01*
X162433000Y-126155000D01*
X162687000Y-126155000D01*
X162687000Y-129413000D01*
X163937000Y-129413000D01*
X164594940Y-129323182D01*
X165222716Y-129106732D01*
X165796202Y-128771968D01*
X166293359Y-128331755D01*
X166695082Y-127803010D01*
X166985933Y-127206052D01*
X167131104Y-126682594D01*
X167033749Y-126155000D01*
X162687000Y-126155000D01*
X162433000Y-126155000D01*
X158086251Y-126155000D01*
X157988896Y-126682594D01*
X150636905Y-126682594D01*
X150701378Y-126028000D01*
X150636906Y-125373406D01*
X157988896Y-125373406D01*
X158086251Y-125901000D01*
X162433000Y-125901000D01*
X162433000Y-122643000D01*
X162687000Y-122643000D01*
X162687000Y-125901000D01*
X167033749Y-125901000D01*
X167131104Y-125373406D01*
X166985933Y-124849948D01*
X166695082Y-124252990D01*
X166293359Y-123724245D01*
X165796202Y-123284032D01*
X165222716Y-122949268D01*
X164594940Y-122732818D01*
X163937000Y-122643000D01*
X162687000Y-122643000D01*
X162433000Y-122643000D01*
X161183000Y-122643000D01*
X160525060Y-122732818D01*
X159897284Y-122949268D01*
X159323798Y-123284032D01*
X158826641Y-123724245D01*
X158424918Y-124252990D01*
X158134067Y-124849948D01*
X157988896Y-125373406D01*
X150636906Y-125373406D01*
X150636021Y-125364424D01*
X150442464Y-124726349D01*
X150128142Y-124138296D01*
X149705137Y-123622863D01*
X149189704Y-123199858D01*
X148601651Y-122885536D01*
X147963576Y-122691979D01*
X147466287Y-122643000D01*
X144633713Y-122643000D01*
X144136424Y-122691979D01*
X143498349Y-122885536D01*
X142910296Y-123199858D01*
X142394863Y-123622863D01*
X141971858Y-124138296D01*
X141657536Y-124726349D01*
X141463979Y-125364424D01*
X141398622Y-126028000D01*
X139140000Y-126028000D01*
X139140000Y-118828000D01*
X141398622Y-118828000D01*
X141463979Y-119491576D01*
X141657536Y-120129651D01*
X141971858Y-120717704D01*
X142394863Y-121233137D01*
X142910296Y-121656142D01*
X143498349Y-121970464D01*
X144136424Y-122164021D01*
X144633713Y-122213000D01*
X147466287Y-122213000D01*
X147963576Y-122164021D01*
X148601651Y-121970464D01*
X149189704Y-121656142D01*
X149705137Y-121233137D01*
X150128142Y-120717704D01*
X150442464Y-120129651D01*
X150636021Y-119491576D01*
X150701378Y-118828000D01*
X157908622Y-118828000D01*
X157973979Y-119491576D01*
X158167536Y-120129651D01*
X158481858Y-120717704D01*
X158904863Y-121233137D01*
X159420296Y-121656142D01*
X160008349Y-121970464D01*
X160646424Y-122164021D01*
X161143713Y-122213000D01*
X163976287Y-122213000D01*
X164473576Y-122164021D01*
X165111651Y-121970464D01*
X165699704Y-121656142D01*
X166215137Y-121233137D01*
X166638142Y-120717704D01*
X166952464Y-120129651D01*
X167146021Y-119491576D01*
X167211378Y-118828000D01*
X167146021Y-118164424D01*
X166952464Y-117526349D01*
X166638142Y-116938296D01*
X166215137Y-116422863D01*
X165699704Y-115999858D01*
X165111651Y-115685536D01*
X164473576Y-115491979D01*
X163976287Y-115443000D01*
X161143713Y-115443000D01*
X160646424Y-115491979D01*
X160008349Y-115685536D01*
X159420296Y-115999858D01*
X158904863Y-116422863D01*
X158481858Y-116938296D01*
X158167536Y-117526349D01*
X157973979Y-118164424D01*
X157908622Y-118828000D01*
X150701378Y-118828000D01*
X150636021Y-118164424D01*
X150442464Y-117526349D01*
X150128142Y-116938296D01*
X149705137Y-116422863D01*
X149189704Y-115999858D01*
X148601651Y-115685536D01*
X147963576Y-115491979D01*
X147466287Y-115443000D01*
X144633713Y-115443000D01*
X144136424Y-115491979D01*
X143498349Y-115685536D01*
X142910296Y-115999858D01*
X142394863Y-116422863D01*
X141971858Y-116938296D01*
X141657536Y-117526349D01*
X141463979Y-118164424D01*
X141398622Y-118828000D01*
X139140000Y-118828000D01*
X139140000Y-105708000D01*
X141398622Y-105708000D01*
X141463979Y-106371576D01*
X141657536Y-107009651D01*
X141971858Y-107597704D01*
X142394863Y-108113137D01*
X142910296Y-108536142D01*
X143498349Y-108850464D01*
X144136424Y-109044021D01*
X144633713Y-109093000D01*
X147466287Y-109093000D01*
X147963576Y-109044021D01*
X148601651Y-108850464D01*
X149189704Y-108536142D01*
X149705137Y-108113137D01*
X150128142Y-107597704D01*
X150442464Y-107009651D01*
X150636021Y-106371576D01*
X150636905Y-106362594D01*
X157988896Y-106362594D01*
X158134067Y-106886052D01*
X158424918Y-107483010D01*
X158826641Y-108011755D01*
X159323798Y-108451968D01*
X159897284Y-108786732D01*
X160525060Y-109003182D01*
X161183000Y-109093000D01*
X162433000Y-109093000D01*
X162433000Y-105835000D01*
X162687000Y-105835000D01*
X162687000Y-109093000D01*
X163937000Y-109093000D01*
X164594940Y-109003182D01*
X165222716Y-108786732D01*
X165796202Y-108451968D01*
X166293359Y-108011755D01*
X166695082Y-107483010D01*
X166985933Y-106886052D01*
X167131104Y-106362594D01*
X167033749Y-105835000D01*
X162687000Y-105835000D01*
X162433000Y-105835000D01*
X158086251Y-105835000D01*
X157988896Y-106362594D01*
X150636905Y-106362594D01*
X150701378Y-105708000D01*
X150636906Y-105053406D01*
X157988896Y-105053406D01*
X158086251Y-105581000D01*
X162433000Y-105581000D01*
X162433000Y-102323000D01*
X162687000Y-102323000D01*
X162687000Y-105581000D01*
X167033749Y-105581000D01*
X167131104Y-105053406D01*
X166985933Y-104529948D01*
X166695082Y-103932990D01*
X166293359Y-103404245D01*
X165796202Y-102964032D01*
X165222716Y-102629268D01*
X164594940Y-102412818D01*
X163937000Y-102323000D01*
X162687000Y-102323000D01*
X162433000Y-102323000D01*
X161183000Y-102323000D01*
X160525060Y-102412818D01*
X159897284Y-102629268D01*
X159323798Y-102964032D01*
X158826641Y-103404245D01*
X158424918Y-103932990D01*
X158134067Y-104529948D01*
X157988896Y-105053406D01*
X150636906Y-105053406D01*
X150636021Y-105044424D01*
X150442464Y-104406349D01*
X150128142Y-103818296D01*
X149705137Y-103302863D01*
X149189704Y-102879858D01*
X148601651Y-102565536D01*
X147963576Y-102371979D01*
X147466287Y-102323000D01*
X144633713Y-102323000D01*
X144136424Y-102371979D01*
X143498349Y-102565536D01*
X142910296Y-102879858D01*
X142394863Y-103302863D01*
X141971858Y-103818296D01*
X141657536Y-104406349D01*
X141463979Y-105044424D01*
X141398622Y-105708000D01*
X139140000Y-105708000D01*
X139140000Y-98508000D01*
X141398622Y-98508000D01*
X141463979Y-99171576D01*
X141657536Y-99809651D01*
X141971858Y-100397704D01*
X142394863Y-100913137D01*
X142910296Y-101336142D01*
X143498349Y-101650464D01*
X144136424Y-101844021D01*
X144633713Y-101893000D01*
X147466287Y-101893000D01*
X147963576Y-101844021D01*
X148601651Y-101650464D01*
X149189704Y-101336142D01*
X149705137Y-100913137D01*
X150128142Y-100397704D01*
X150442464Y-99809651D01*
X150636021Y-99171576D01*
X150701378Y-98508000D01*
X157908622Y-98508000D01*
X157973979Y-99171576D01*
X158167536Y-99809651D01*
X158481858Y-100397704D01*
X158904863Y-100913137D01*
X159420296Y-101336142D01*
X160008349Y-101650464D01*
X160646424Y-101844021D01*
X161143713Y-101893000D01*
X163976287Y-101893000D01*
X164473576Y-101844021D01*
X165111651Y-101650464D01*
X165699704Y-101336142D01*
X166215137Y-100913137D01*
X166638142Y-100397704D01*
X166952464Y-99809651D01*
X167146021Y-99171576D01*
X167211378Y-98508000D01*
X167146021Y-97844424D01*
X166952464Y-97206349D01*
X166638142Y-96618296D01*
X166215137Y-96102863D01*
X165699704Y-95679858D01*
X165111651Y-95365536D01*
X164473576Y-95171979D01*
X163976287Y-95123000D01*
X161143713Y-95123000D01*
X160646424Y-95171979D01*
X160008349Y-95365536D01*
X159420296Y-95679858D01*
X158904863Y-96102863D01*
X158481858Y-96618296D01*
X158167536Y-97206349D01*
X157973979Y-97844424D01*
X157908622Y-98508000D01*
X150701378Y-98508000D01*
X150636021Y-97844424D01*
X150442464Y-97206349D01*
X150128142Y-96618296D01*
X149705137Y-96102863D01*
X149189704Y-95679858D01*
X148601651Y-95365536D01*
X147963576Y-95171979D01*
X147466287Y-95123000D01*
X144633713Y-95123000D01*
X144136424Y-95171979D01*
X143498349Y-95365536D01*
X142910296Y-95679858D01*
X142394863Y-96102863D01*
X141971858Y-96618296D01*
X141657536Y-97206349D01*
X141463979Y-97844424D01*
X141398622Y-98508000D01*
X139140000Y-98508000D01*
X139140000Y-85388000D01*
X141398622Y-85388000D01*
X141463979Y-86051576D01*
X141657536Y-86689651D01*
X141971858Y-87277704D01*
X142394863Y-87793137D01*
X142910296Y-88216142D01*
X143498349Y-88530464D01*
X144136424Y-88724021D01*
X144633713Y-88773000D01*
X147466287Y-88773000D01*
X147963576Y-88724021D01*
X148601651Y-88530464D01*
X149189704Y-88216142D01*
X149705137Y-87793137D01*
X150128142Y-87277704D01*
X150442464Y-86689651D01*
X150636021Y-86051576D01*
X150636905Y-86042594D01*
X157988896Y-86042594D01*
X158134067Y-86566052D01*
X158424918Y-87163010D01*
X158826641Y-87691755D01*
X159323798Y-88131968D01*
X159897284Y-88466732D01*
X160525060Y-88683182D01*
X161183000Y-88773000D01*
X162433000Y-88773000D01*
X162433000Y-85515000D01*
X162687000Y-85515000D01*
X162687000Y-88773000D01*
X163937000Y-88773000D01*
X164594940Y-88683182D01*
X165222716Y-88466732D01*
X165796202Y-88131968D01*
X166293359Y-87691755D01*
X166695082Y-87163010D01*
X166985933Y-86566052D01*
X167131104Y-86042594D01*
X167033749Y-85515000D01*
X162687000Y-85515000D01*
X162433000Y-85515000D01*
X158086251Y-85515000D01*
X157988896Y-86042594D01*
X150636905Y-86042594D01*
X150701378Y-85388000D01*
X150636906Y-84733406D01*
X157988896Y-84733406D01*
X158086251Y-85261000D01*
X162433000Y-85261000D01*
X162433000Y-82003000D01*
X162687000Y-82003000D01*
X162687000Y-85261000D01*
X167033749Y-85261000D01*
X167131104Y-84733406D01*
X166985933Y-84209948D01*
X166695082Y-83612990D01*
X166293359Y-83084245D01*
X165796202Y-82644032D01*
X165222716Y-82309268D01*
X164594940Y-82092818D01*
X163937000Y-82003000D01*
X162687000Y-82003000D01*
X162433000Y-82003000D01*
X161183000Y-82003000D01*
X160525060Y-82092818D01*
X159897284Y-82309268D01*
X159323798Y-82644032D01*
X158826641Y-83084245D01*
X158424918Y-83612990D01*
X158134067Y-84209948D01*
X157988896Y-84733406D01*
X150636906Y-84733406D01*
X150636021Y-84724424D01*
X150442464Y-84086349D01*
X150128142Y-83498296D01*
X149705137Y-82982863D01*
X149189704Y-82559858D01*
X148601651Y-82245536D01*
X147963576Y-82051979D01*
X147466287Y-82003000D01*
X144633713Y-82003000D01*
X144136424Y-82051979D01*
X143498349Y-82245536D01*
X142910296Y-82559858D01*
X142394863Y-82982863D01*
X141971858Y-83498296D01*
X141657536Y-84086349D01*
X141463979Y-84724424D01*
X141398622Y-85388000D01*
X139140000Y-85388000D01*
X139140000Y-78188000D01*
X141398622Y-78188000D01*
X141463979Y-78851576D01*
X141657536Y-79489651D01*
X141971858Y-80077704D01*
X142394863Y-80593137D01*
X142910296Y-81016142D01*
X143498349Y-81330464D01*
X144136424Y-81524021D01*
X144633713Y-81573000D01*
X147466287Y-81573000D01*
X147963576Y-81524021D01*
X148601651Y-81330464D01*
X149189704Y-81016142D01*
X149705137Y-80593137D01*
X150128142Y-80077704D01*
X150442464Y-79489651D01*
X150636021Y-78851576D01*
X150701378Y-78188000D01*
X157908622Y-78188000D01*
X157973979Y-78851576D01*
X158167536Y-79489651D01*
X158481858Y-80077704D01*
X158904863Y-80593137D01*
X159420296Y-81016142D01*
X160008349Y-81330464D01*
X160646424Y-81524021D01*
X161143713Y-81573000D01*
X163976287Y-81573000D01*
X164473576Y-81524021D01*
X165111651Y-81330464D01*
X165699704Y-81016142D01*
X166215137Y-80593137D01*
X166638142Y-80077704D01*
X166952464Y-79489651D01*
X167146021Y-78851576D01*
X167211378Y-78188000D01*
X167146021Y-77524424D01*
X166952464Y-76886349D01*
X166638142Y-76298296D01*
X166215137Y-75782863D01*
X165699704Y-75359858D01*
X165111651Y-75045536D01*
X164473576Y-74851979D01*
X163976287Y-74803000D01*
X161143713Y-74803000D01*
X160646424Y-74851979D01*
X160008349Y-75045536D01*
X159420296Y-75359858D01*
X158904863Y-75782863D01*
X158481858Y-76298296D01*
X158167536Y-76886349D01*
X157973979Y-77524424D01*
X157908622Y-78188000D01*
X150701378Y-78188000D01*
X150636021Y-77524424D01*
X150442464Y-76886349D01*
X150128142Y-76298296D01*
X149705137Y-75782863D01*
X149189704Y-75359858D01*
X148601651Y-75045536D01*
X147963576Y-74851979D01*
X147466287Y-74803000D01*
X144633713Y-74803000D01*
X144136424Y-74851979D01*
X143498349Y-75045536D01*
X142910296Y-75359858D01*
X142394863Y-75782863D01*
X141971858Y-76298296D01*
X141657536Y-76886349D01*
X141463979Y-77524424D01*
X141398622Y-78188000D01*
X139140000Y-78188000D01*
X139140000Y-65068000D01*
X141398622Y-65068000D01*
X141463979Y-65731576D01*
X141657536Y-66369651D01*
X141971858Y-66957704D01*
X142394863Y-67473137D01*
X142910296Y-67896142D01*
X143498349Y-68210464D01*
X144136424Y-68404021D01*
X144633713Y-68453000D01*
X147466287Y-68453000D01*
X147963576Y-68404021D01*
X148601651Y-68210464D01*
X149189704Y-67896142D01*
X149705137Y-67473137D01*
X150128142Y-66957704D01*
X150442464Y-66369651D01*
X150636021Y-65731576D01*
X150636905Y-65722594D01*
X157988896Y-65722594D01*
X158134067Y-66246052D01*
X158424918Y-66843010D01*
X158826641Y-67371755D01*
X159323798Y-67811968D01*
X159897284Y-68146732D01*
X160525060Y-68363182D01*
X161183000Y-68453000D01*
X162433000Y-68453000D01*
X162433000Y-65195000D01*
X162687000Y-65195000D01*
X162687000Y-68453000D01*
X163937000Y-68453000D01*
X164594940Y-68363182D01*
X165222716Y-68146732D01*
X165796202Y-67811968D01*
X166293359Y-67371755D01*
X166695082Y-66843010D01*
X166985933Y-66246052D01*
X167131104Y-65722594D01*
X167033749Y-65195000D01*
X162687000Y-65195000D01*
X162433000Y-65195000D01*
X158086251Y-65195000D01*
X157988896Y-65722594D01*
X150636905Y-65722594D01*
X150701378Y-65068000D01*
X150636906Y-64413406D01*
X157988896Y-64413406D01*
X158086251Y-64941000D01*
X162433000Y-64941000D01*
X162433000Y-61683000D01*
X162687000Y-61683000D01*
X162687000Y-64941000D01*
X167033749Y-64941000D01*
X167131104Y-64413406D01*
X166985933Y-63889948D01*
X166695082Y-63292990D01*
X166293359Y-62764245D01*
X165796202Y-62324032D01*
X165222716Y-61989268D01*
X164594940Y-61772818D01*
X163937000Y-61683000D01*
X162687000Y-61683000D01*
X162433000Y-61683000D01*
X161183000Y-61683000D01*
X160525060Y-61772818D01*
X159897284Y-61989268D01*
X159323798Y-62324032D01*
X158826641Y-62764245D01*
X158424918Y-63292990D01*
X158134067Y-63889948D01*
X157988896Y-64413406D01*
X150636906Y-64413406D01*
X150636021Y-64404424D01*
X150442464Y-63766349D01*
X150128142Y-63178296D01*
X149705137Y-62662863D01*
X149189704Y-62239858D01*
X148601651Y-61925536D01*
X147963576Y-61731979D01*
X147466287Y-61683000D01*
X144633713Y-61683000D01*
X144136424Y-61731979D01*
X143498349Y-61925536D01*
X142910296Y-62239858D01*
X142394863Y-62662863D01*
X141971858Y-63178296D01*
X141657536Y-63766349D01*
X141463979Y-64404424D01*
X141398622Y-65068000D01*
X139140000Y-65068000D01*
X139140000Y-57868000D01*
X141398622Y-57868000D01*
X141463979Y-58531576D01*
X141657536Y-59169651D01*
X141971858Y-59757704D01*
X142394863Y-60273137D01*
X142910296Y-60696142D01*
X143498349Y-61010464D01*
X144136424Y-61204021D01*
X144633713Y-61253000D01*
X147466287Y-61253000D01*
X147963576Y-61204021D01*
X148601651Y-61010464D01*
X149189704Y-60696142D01*
X149705137Y-60273137D01*
X150128142Y-59757704D01*
X150442464Y-59169651D01*
X150636021Y-58531576D01*
X150701378Y-57868000D01*
X157908622Y-57868000D01*
X157973979Y-58531576D01*
X158167536Y-59169651D01*
X158481858Y-59757704D01*
X158904863Y-60273137D01*
X159420296Y-60696142D01*
X160008349Y-61010464D01*
X160646424Y-61204021D01*
X161143713Y-61253000D01*
X163976287Y-61253000D01*
X164473576Y-61204021D01*
X165111651Y-61010464D01*
X165699704Y-60696142D01*
X166215137Y-60273137D01*
X166638142Y-59757704D01*
X166952464Y-59169651D01*
X167146021Y-58531576D01*
X167211378Y-57868000D01*
X167146021Y-57204424D01*
X166952464Y-56566349D01*
X166638142Y-55978296D01*
X166215137Y-55462863D01*
X165699704Y-55039858D01*
X165111651Y-54725536D01*
X164473576Y-54531979D01*
X163976287Y-54483000D01*
X161143713Y-54483000D01*
X160646424Y-54531979D01*
X160008349Y-54725536D01*
X159420296Y-55039858D01*
X158904863Y-55462863D01*
X158481858Y-55978296D01*
X158167536Y-56566349D01*
X157973979Y-57204424D01*
X157908622Y-57868000D01*
X150701378Y-57868000D01*
X150636021Y-57204424D01*
X150442464Y-56566349D01*
X150128142Y-55978296D01*
X149705137Y-55462863D01*
X149189704Y-55039858D01*
X148601651Y-54725536D01*
X147963576Y-54531979D01*
X147466287Y-54483000D01*
X144633713Y-54483000D01*
X144136424Y-54531979D01*
X143498349Y-54725536D01*
X142910296Y-55039858D01*
X142394863Y-55462863D01*
X141971858Y-55978296D01*
X141657536Y-56566349D01*
X141463979Y-57204424D01*
X141398622Y-57868000D01*
X139140000Y-57868000D01*
X139140000Y-53247166D01*
X139143365Y-53213000D01*
X139140000Y-53178834D01*
X139140000Y-53178123D01*
X139129727Y-53073816D01*
X139089128Y-52939980D01*
X139023200Y-52816637D01*
X138934474Y-52708525D01*
X138826362Y-52619800D01*
X138703019Y-52553872D01*
X138569183Y-52513273D01*
X138430000Y-52499565D01*
X138394412Y-52503070D01*
X123225588Y-52503070D01*
X123190000Y-52499565D01*
X123050817Y-52513273D01*
X122916981Y-52553872D01*
X122793638Y-52619800D01*
X122685526Y-52708525D01*
X122596801Y-52816637D01*
X122530873Y-52939980D01*
X122490274Y-53073816D01*
X122480001Y-53178123D01*
X122480001Y-53178824D01*
X122476635Y-53213000D01*
X89560000Y-53213000D01*
X89560000Y-43365034D01*
X95780866Y-43365034D01*
X95780866Y-44010966D01*
X95906882Y-44644488D01*
X96154069Y-45241252D01*
X96512931Y-45778326D01*
X96969674Y-46235069D01*
X97506748Y-46593931D01*
X98103512Y-46841118D01*
X98737034Y-46967134D01*
X99382966Y-46967134D01*
X100016488Y-46841118D01*
X100613252Y-46593931D01*
X101150326Y-46235069D01*
X101607069Y-45778326D01*
X101965931Y-45241252D01*
X102213118Y-44644488D01*
X102339134Y-44010966D01*
X102339134Y-43365034D01*
X102213118Y-42731512D01*
X102022665Y-42271714D01*
X113665000Y-42271714D01*
X113665000Y-45104287D01*
X113713979Y-45601576D01*
X113907536Y-46239651D01*
X114221859Y-46827704D01*
X114644864Y-47343137D01*
X115160297Y-47766142D01*
X115748350Y-48080464D01*
X116386425Y-48274021D01*
X117050000Y-48339378D01*
X117713576Y-48274021D01*
X118351651Y-48080464D01*
X118939704Y-47766142D01*
X119455137Y-47343137D01*
X119878142Y-46827704D01*
X120192464Y-46239651D01*
X120386021Y-45601576D01*
X120435000Y-45104287D01*
X120435000Y-42271714D01*
X120865000Y-42271714D01*
X120865000Y-45104287D01*
X120913979Y-45601576D01*
X121107536Y-46239651D01*
X121421859Y-46827704D01*
X121844864Y-47343137D01*
X122360297Y-47766142D01*
X122948350Y-48080464D01*
X123586425Y-48274021D01*
X124250000Y-48339378D01*
X124913576Y-48274021D01*
X125551651Y-48080464D01*
X126139704Y-47766142D01*
X126655137Y-47343137D01*
X127078142Y-46827704D01*
X127392464Y-46239651D01*
X127586021Y-45601576D01*
X127635000Y-45104287D01*
X127635000Y-42271714D01*
X133985000Y-42271714D01*
X133985000Y-45104287D01*
X134033979Y-45601576D01*
X134227536Y-46239651D01*
X134541859Y-46827704D01*
X134964864Y-47343137D01*
X135480297Y-47766142D01*
X136068350Y-48080464D01*
X136706425Y-48274021D01*
X137370000Y-48339378D01*
X138033576Y-48274021D01*
X138671651Y-48080464D01*
X139259704Y-47766142D01*
X139775137Y-47343137D01*
X140198142Y-46827704D01*
X140512464Y-46239651D01*
X140706021Y-45601576D01*
X140755000Y-45104287D01*
X140755000Y-43815000D01*
X141185000Y-43815000D01*
X141185000Y-45065000D01*
X141274818Y-45722940D01*
X141491268Y-46350716D01*
X141826032Y-46924202D01*
X142266245Y-47421359D01*
X142794990Y-47823082D01*
X143391948Y-48113933D01*
X143915406Y-48259104D01*
X144443000Y-48161749D01*
X144443000Y-43815000D01*
X144697000Y-43815000D01*
X144697000Y-48161749D01*
X145224594Y-48259104D01*
X145748052Y-48113933D01*
X146345010Y-47823082D01*
X146873755Y-47421359D01*
X147313968Y-46924202D01*
X147648732Y-46350716D01*
X147865182Y-45722940D01*
X147955000Y-45065000D01*
X147955000Y-43815000D01*
X144697000Y-43815000D01*
X144443000Y-43815000D01*
X141185000Y-43815000D01*
X140755000Y-43815000D01*
X140755000Y-42311000D01*
X141185000Y-42311000D01*
X141185000Y-43561000D01*
X144443000Y-43561000D01*
X144443000Y-39214251D01*
X144697000Y-39214251D01*
X144697000Y-43561000D01*
X147955000Y-43561000D01*
X147955000Y-43365034D01*
X159280866Y-43365034D01*
X159280866Y-44010966D01*
X159406882Y-44644488D01*
X159654069Y-45241252D01*
X160012931Y-45778326D01*
X160469674Y-46235069D01*
X161006748Y-46593931D01*
X161603512Y-46841118D01*
X162237034Y-46967134D01*
X162882966Y-46967134D01*
X163516488Y-46841118D01*
X164113252Y-46593931D01*
X164650326Y-46235069D01*
X165107069Y-45778326D01*
X165465931Y-45241252D01*
X165713118Y-44644488D01*
X165839134Y-44010966D01*
X165839134Y-43365034D01*
X165713118Y-42731512D01*
X165465931Y-42134748D01*
X165107069Y-41597674D01*
X164650326Y-41140931D01*
X164113252Y-40782069D01*
X163516488Y-40534882D01*
X162882966Y-40408866D01*
X162237034Y-40408866D01*
X161603512Y-40534882D01*
X161006748Y-40782069D01*
X160469674Y-41140931D01*
X160012931Y-41597674D01*
X159654069Y-42134748D01*
X159406882Y-42731512D01*
X159280866Y-43365034D01*
X147955000Y-43365034D01*
X147955000Y-42311000D01*
X147865182Y-41653060D01*
X147648732Y-41025284D01*
X147313968Y-40451798D01*
X146873755Y-39954641D01*
X146345010Y-39552918D01*
X145748052Y-39262067D01*
X145224594Y-39116896D01*
X144697000Y-39214251D01*
X144443000Y-39214251D01*
X143915406Y-39116896D01*
X143391948Y-39262067D01*
X142794990Y-39552918D01*
X142266245Y-39954641D01*
X141826032Y-40451798D01*
X141491268Y-41025284D01*
X141274818Y-41653060D01*
X141185000Y-42311000D01*
X140755000Y-42311000D01*
X140755000Y-42271713D01*
X140706021Y-41774424D01*
X140512464Y-41136349D01*
X140198142Y-40548296D01*
X139775137Y-40032863D01*
X139259703Y-39609858D01*
X138671650Y-39295536D01*
X138033575Y-39101979D01*
X137370000Y-39036622D01*
X136706424Y-39101979D01*
X136068349Y-39295536D01*
X135480296Y-39609858D01*
X134964863Y-40032863D01*
X134541858Y-40548297D01*
X134227536Y-41136350D01*
X134033979Y-41774425D01*
X133985000Y-42271714D01*
X127635000Y-42271714D01*
X127635000Y-42271713D01*
X127586021Y-41774424D01*
X127392464Y-41136349D01*
X127078142Y-40548296D01*
X126655137Y-40032863D01*
X126139703Y-39609858D01*
X125551650Y-39295536D01*
X124913575Y-39101979D01*
X124250000Y-39036622D01*
X123586424Y-39101979D01*
X122948349Y-39295536D01*
X122360296Y-39609858D01*
X121844863Y-40032863D01*
X121421858Y-40548297D01*
X121107536Y-41136350D01*
X120913979Y-41774425D01*
X120865000Y-42271714D01*
X120435000Y-42271714D01*
X120435000Y-42271713D01*
X120386021Y-41774424D01*
X120192464Y-41136349D01*
X119878142Y-40548296D01*
X119455137Y-40032863D01*
X118939703Y-39609858D01*
X118351650Y-39295536D01*
X117713575Y-39101979D01*
X117050000Y-39036622D01*
X116386424Y-39101979D01*
X115748349Y-39295536D01*
X115160296Y-39609858D01*
X114644863Y-40032863D01*
X114221858Y-40548297D01*
X113907536Y-41136350D01*
X113713979Y-41774425D01*
X113665000Y-42271714D01*
X102022665Y-42271714D01*
X101965931Y-42134748D01*
X101607069Y-41597674D01*
X101150326Y-41140931D01*
X100613252Y-40782069D01*
X100016488Y-40534882D01*
X99382966Y-40408866D01*
X98737034Y-40408866D01*
X98103512Y-40534882D01*
X97506748Y-40782069D01*
X96969674Y-41140931D01*
X96512931Y-41597674D01*
X96154069Y-42134748D01*
X95906882Y-42731512D01*
X95780866Y-43365034D01*
X89560000Y-43365034D01*
X89560000Y-36220000D01*
X172060000Y-36220000D01*
X172060001Y-140310000D01*
%TA.AperFunction,Conductor*%
D13*
G36*
X172060001Y-140310000D02*
G01*
X89560000Y-140310000D01*
X89560000Y-135694034D01*
X95780866Y-135694034D01*
X95780866Y-136339966D01*
X95906882Y-136973488D01*
X96154069Y-137570252D01*
X96512931Y-138107326D01*
X96969674Y-138564069D01*
X97506748Y-138922931D01*
X98103512Y-139170118D01*
X98737034Y-139296134D01*
X99382966Y-139296134D01*
X100016488Y-139170118D01*
X100613252Y-138922931D01*
X101150326Y-138564069D01*
X101607069Y-138107326D01*
X101965931Y-137570252D01*
X102213118Y-136973488D01*
X102339134Y-136339966D01*
X102339134Y-135694034D01*
X159280866Y-135694034D01*
X159280866Y-136339966D01*
X159406882Y-136973488D01*
X159654069Y-137570252D01*
X160012931Y-138107326D01*
X160469674Y-138564069D01*
X161006748Y-138922931D01*
X161603512Y-139170118D01*
X162237034Y-139296134D01*
X162882966Y-139296134D01*
X163516488Y-139170118D01*
X164113252Y-138922931D01*
X164650326Y-138564069D01*
X165107069Y-138107326D01*
X165465931Y-137570252D01*
X165713118Y-136973488D01*
X165839134Y-136339966D01*
X165839134Y-135694034D01*
X165713118Y-135060512D01*
X165465931Y-134463748D01*
X165107069Y-133926674D01*
X164650326Y-133469931D01*
X164113252Y-133111069D01*
X163516488Y-132863882D01*
X162882966Y-132737866D01*
X162237034Y-132737866D01*
X161603512Y-132863882D01*
X161006748Y-133111069D01*
X160469674Y-133469931D01*
X160012931Y-133926674D01*
X159654069Y-134463748D01*
X159406882Y-135060512D01*
X159280866Y-135694034D01*
X102339134Y-135694034D01*
X102213118Y-135060512D01*
X101965931Y-134463748D01*
X101607069Y-133926674D01*
X101150326Y-133469931D01*
X100613252Y-133111069D01*
X100016488Y-132863882D01*
X99382966Y-132737866D01*
X98737034Y-132737866D01*
X98103512Y-132863882D01*
X97506748Y-133111069D01*
X96969674Y-133469931D01*
X96512931Y-133926674D01*
X96154069Y-134463748D01*
X95906882Y-135060512D01*
X95780866Y-135694034D01*
X89560000Y-135694034D01*
X89560000Y-126028000D01*
X94408622Y-126028000D01*
X94473979Y-126691576D01*
X94667536Y-127329651D01*
X94981858Y-127917704D01*
X95404863Y-128433137D01*
X95920296Y-128856142D01*
X96508349Y-129170464D01*
X97146424Y-129364021D01*
X97643713Y-129413000D01*
X100476287Y-129413000D01*
X100973576Y-129364021D01*
X101611651Y-129170464D01*
X102199704Y-128856142D01*
X102715137Y-128433137D01*
X103138142Y-127917704D01*
X103452464Y-127329651D01*
X103646021Y-126691576D01*
X103711378Y-126028000D01*
X110918622Y-126028000D01*
X110983979Y-126691576D01*
X111177536Y-127329651D01*
X111491858Y-127917704D01*
X111914863Y-128433137D01*
X112430296Y-128856142D01*
X113018349Y-129170464D01*
X113656424Y-129364021D01*
X114153713Y-129413000D01*
X116986287Y-129413000D01*
X117483576Y-129364021D01*
X118121651Y-129170464D01*
X118709704Y-128856142D01*
X119225137Y-128433137D01*
X119648142Y-127917704D01*
X119962464Y-127329651D01*
X120156021Y-126691576D01*
X120221378Y-126028000D01*
X120156021Y-125364424D01*
X119962464Y-124726349D01*
X119648142Y-124138296D01*
X119225137Y-123622863D01*
X118709704Y-123199858D01*
X118121651Y-122885536D01*
X117483576Y-122691979D01*
X116986287Y-122643000D01*
X114153713Y-122643000D01*
X113656424Y-122691979D01*
X113018349Y-122885536D01*
X112430296Y-123199858D01*
X111914863Y-123622863D01*
X111491858Y-124138296D01*
X111177536Y-124726349D01*
X110983979Y-125364424D01*
X110918622Y-126028000D01*
X103711378Y-126028000D01*
X103646021Y-125364424D01*
X103452464Y-124726349D01*
X103138142Y-124138296D01*
X102715137Y-123622863D01*
X102199704Y-123199858D01*
X101611651Y-122885536D01*
X100973576Y-122691979D01*
X100476287Y-122643000D01*
X97643713Y-122643000D01*
X97146424Y-122691979D01*
X96508349Y-122885536D01*
X95920296Y-123199858D01*
X95404863Y-123622863D01*
X94981858Y-124138296D01*
X94667536Y-124726349D01*
X94473979Y-125364424D01*
X94408622Y-126028000D01*
X89560000Y-126028000D01*
X89560000Y-118828000D01*
X94408622Y-118828000D01*
X94473979Y-119491576D01*
X94667536Y-120129651D01*
X94981858Y-120717704D01*
X95404863Y-121233137D01*
X95920296Y-121656142D01*
X96508349Y-121970464D01*
X97146424Y-122164021D01*
X97643713Y-122213000D01*
X100476287Y-122213000D01*
X100973576Y-122164021D01*
X101611651Y-121970464D01*
X102199704Y-121656142D01*
X102715137Y-121233137D01*
X103138142Y-120717704D01*
X103452464Y-120129651D01*
X103646021Y-119491576D01*
X103711378Y-118828000D01*
X110918622Y-118828000D01*
X110983979Y-119491576D01*
X111177536Y-120129651D01*
X111491858Y-120717704D01*
X111914863Y-121233137D01*
X112430296Y-121656142D01*
X113018349Y-121970464D01*
X113656424Y-122164021D01*
X114153713Y-122213000D01*
X116986287Y-122213000D01*
X117483576Y-122164021D01*
X118121651Y-121970464D01*
X118709704Y-121656142D01*
X119225137Y-121233137D01*
X119648142Y-120717704D01*
X119962464Y-120129651D01*
X120156021Y-119491576D01*
X120221378Y-118828000D01*
X120156021Y-118164424D01*
X119962464Y-117526349D01*
X119648142Y-116938296D01*
X119225137Y-116422863D01*
X118709704Y-115999858D01*
X118121651Y-115685536D01*
X117483576Y-115491979D01*
X116986287Y-115443000D01*
X114153713Y-115443000D01*
X113656424Y-115491979D01*
X113018349Y-115685536D01*
X112430296Y-115999858D01*
X111914863Y-116422863D01*
X111491858Y-116938296D01*
X111177536Y-117526349D01*
X110983979Y-118164424D01*
X110918622Y-118828000D01*
X103711378Y-118828000D01*
X103646021Y-118164424D01*
X103452464Y-117526349D01*
X103138142Y-116938296D01*
X102715137Y-116422863D01*
X102199704Y-115999858D01*
X101611651Y-115685536D01*
X100973576Y-115491979D01*
X100476287Y-115443000D01*
X97643713Y-115443000D01*
X97146424Y-115491979D01*
X96508349Y-115685536D01*
X95920296Y-115999858D01*
X95404863Y-116422863D01*
X94981858Y-116938296D01*
X94667536Y-117526349D01*
X94473979Y-118164424D01*
X94408622Y-118828000D01*
X89560000Y-118828000D01*
X89560000Y-105708000D01*
X94408622Y-105708000D01*
X94473979Y-106371576D01*
X94667536Y-107009651D01*
X94981858Y-107597704D01*
X95404863Y-108113137D01*
X95920296Y-108536142D01*
X96508349Y-108850464D01*
X97146424Y-109044021D01*
X97643713Y-109093000D01*
X100476287Y-109093000D01*
X100973576Y-109044021D01*
X101611651Y-108850464D01*
X102199704Y-108536142D01*
X102715137Y-108113137D01*
X103138142Y-107597704D01*
X103452464Y-107009651D01*
X103646021Y-106371576D01*
X103711378Y-105708000D01*
X111118622Y-105708000D01*
X111183979Y-106371576D01*
X111377536Y-107009651D01*
X111691858Y-107597704D01*
X112114863Y-108113137D01*
X112630296Y-108536142D01*
X113218349Y-108850464D01*
X113856424Y-109044021D01*
X114353713Y-109093000D01*
X117186287Y-109093000D01*
X117683576Y-109044021D01*
X118321651Y-108850464D01*
X118909704Y-108536142D01*
X119425137Y-108113137D01*
X119848142Y-107597704D01*
X120162464Y-107009651D01*
X120356021Y-106371576D01*
X120421378Y-105708000D01*
X120356021Y-105044424D01*
X120162464Y-104406349D01*
X119848142Y-103818296D01*
X119425137Y-103302863D01*
X118909704Y-102879858D01*
X118321651Y-102565536D01*
X117683576Y-102371979D01*
X117186287Y-102323000D01*
X114353713Y-102323000D01*
X113856424Y-102371979D01*
X113218349Y-102565536D01*
X112630296Y-102879858D01*
X112114863Y-103302863D01*
X111691858Y-103818296D01*
X111377536Y-104406349D01*
X111183979Y-105044424D01*
X111118622Y-105708000D01*
X103711378Y-105708000D01*
X103646021Y-105044424D01*
X103452464Y-104406349D01*
X103138142Y-103818296D01*
X102715137Y-103302863D01*
X102199704Y-102879858D01*
X101611651Y-102565536D01*
X100973576Y-102371979D01*
X100476287Y-102323000D01*
X97643713Y-102323000D01*
X97146424Y-102371979D01*
X96508349Y-102565536D01*
X95920296Y-102879858D01*
X95404863Y-103302863D01*
X94981858Y-103818296D01*
X94667536Y-104406349D01*
X94473979Y-105044424D01*
X94408622Y-105708000D01*
X89560000Y-105708000D01*
X89560000Y-98508000D01*
X94408622Y-98508000D01*
X94473979Y-99171576D01*
X94667536Y-99809651D01*
X94981858Y-100397704D01*
X95404863Y-100913137D01*
X95920296Y-101336142D01*
X96508349Y-101650464D01*
X97146424Y-101844021D01*
X97643713Y-101893000D01*
X100476287Y-101893000D01*
X100973576Y-101844021D01*
X101611651Y-101650464D01*
X102199704Y-101336142D01*
X102715137Y-100913137D01*
X103138142Y-100397704D01*
X103452464Y-99809651D01*
X103646021Y-99171576D01*
X103711378Y-98508000D01*
X111118622Y-98508000D01*
X111183979Y-99171576D01*
X111377536Y-99809651D01*
X111691858Y-100397704D01*
X112114863Y-100913137D01*
X112630296Y-101336142D01*
X113218349Y-101650464D01*
X113856424Y-101844021D01*
X114353713Y-101893000D01*
X117186287Y-101893000D01*
X117683576Y-101844021D01*
X118321651Y-101650464D01*
X118909704Y-101336142D01*
X119425137Y-100913137D01*
X119848142Y-100397704D01*
X120162464Y-99809651D01*
X120356021Y-99171576D01*
X120421378Y-98508000D01*
X120356021Y-97844424D01*
X120162464Y-97206349D01*
X119848142Y-96618296D01*
X119425137Y-96102863D01*
X118909704Y-95679858D01*
X118321651Y-95365536D01*
X117683576Y-95171979D01*
X117186287Y-95123000D01*
X114353713Y-95123000D01*
X113856424Y-95171979D01*
X113218349Y-95365536D01*
X112630296Y-95679858D01*
X112114863Y-96102863D01*
X111691858Y-96618296D01*
X111377536Y-97206349D01*
X111183979Y-97844424D01*
X111118622Y-98508000D01*
X103711378Y-98508000D01*
X103646021Y-97844424D01*
X103452464Y-97206349D01*
X103138142Y-96618296D01*
X102715137Y-96102863D01*
X102199704Y-95679858D01*
X101611651Y-95365536D01*
X100973576Y-95171979D01*
X100476287Y-95123000D01*
X97643713Y-95123000D01*
X97146424Y-95171979D01*
X96508349Y-95365536D01*
X95920296Y-95679858D01*
X95404863Y-96102863D01*
X94981858Y-96618296D01*
X94667536Y-97206349D01*
X94473979Y-97844424D01*
X94408622Y-98508000D01*
X89560000Y-98508000D01*
X89560000Y-85388000D01*
X94408622Y-85388000D01*
X94473979Y-86051576D01*
X94667536Y-86689651D01*
X94981858Y-87277704D01*
X95404863Y-87793137D01*
X95920296Y-88216142D01*
X96508349Y-88530464D01*
X97146424Y-88724021D01*
X97643713Y-88773000D01*
X100476287Y-88773000D01*
X100973576Y-88724021D01*
X101611651Y-88530464D01*
X102199704Y-88216142D01*
X102715137Y-87793137D01*
X103138142Y-87277704D01*
X103452464Y-86689651D01*
X103646021Y-86051576D01*
X103711378Y-85388000D01*
X110918622Y-85388000D01*
X110983979Y-86051576D01*
X111177536Y-86689651D01*
X111491858Y-87277704D01*
X111914863Y-87793137D01*
X112430296Y-88216142D01*
X113018349Y-88530464D01*
X113656424Y-88724021D01*
X114153713Y-88773000D01*
X116986287Y-88773000D01*
X117483576Y-88724021D01*
X118121651Y-88530464D01*
X118709704Y-88216142D01*
X119225137Y-87793137D01*
X119648142Y-87277704D01*
X119962464Y-86689651D01*
X120156021Y-86051576D01*
X120221378Y-85388000D01*
X120156021Y-84724424D01*
X119962464Y-84086349D01*
X119648142Y-83498296D01*
X119225137Y-82982863D01*
X118709704Y-82559858D01*
X118121651Y-82245536D01*
X117483576Y-82051979D01*
X116986287Y-82003000D01*
X114153713Y-82003000D01*
X113656424Y-82051979D01*
X113018349Y-82245536D01*
X112430296Y-82559858D01*
X111914863Y-82982863D01*
X111491858Y-83498296D01*
X111177536Y-84086349D01*
X110983979Y-84724424D01*
X110918622Y-85388000D01*
X103711378Y-85388000D01*
X103646021Y-84724424D01*
X103452464Y-84086349D01*
X103138142Y-83498296D01*
X102715137Y-82982863D01*
X102199704Y-82559858D01*
X101611651Y-82245536D01*
X100973576Y-82051979D01*
X100476287Y-82003000D01*
X97643713Y-82003000D01*
X97146424Y-82051979D01*
X96508349Y-82245536D01*
X95920296Y-82559858D01*
X95404863Y-82982863D01*
X94981858Y-83498296D01*
X94667536Y-84086349D01*
X94473979Y-84724424D01*
X94408622Y-85388000D01*
X89560000Y-85388000D01*
X89560000Y-78188000D01*
X94408622Y-78188000D01*
X94473979Y-78851576D01*
X94667536Y-79489651D01*
X94981858Y-80077704D01*
X95404863Y-80593137D01*
X95920296Y-81016142D01*
X96508349Y-81330464D01*
X97146424Y-81524021D01*
X97643713Y-81573000D01*
X100476287Y-81573000D01*
X100973576Y-81524021D01*
X101611651Y-81330464D01*
X102199704Y-81016142D01*
X102715137Y-80593137D01*
X103138142Y-80077704D01*
X103452464Y-79489651D01*
X103646021Y-78851576D01*
X103711378Y-78188000D01*
X110918622Y-78188000D01*
X110983979Y-78851576D01*
X111177536Y-79489651D01*
X111491858Y-80077704D01*
X111914863Y-80593137D01*
X112430296Y-81016142D01*
X113018349Y-81330464D01*
X113656424Y-81524021D01*
X114153713Y-81573000D01*
X116986287Y-81573000D01*
X117483576Y-81524021D01*
X118121651Y-81330464D01*
X118709704Y-81016142D01*
X119225137Y-80593137D01*
X119648142Y-80077704D01*
X119962464Y-79489651D01*
X120156021Y-78851576D01*
X120221378Y-78188000D01*
X120156021Y-77524424D01*
X119962464Y-76886349D01*
X119648142Y-76298296D01*
X119225137Y-75782863D01*
X118709704Y-75359858D01*
X118121651Y-75045536D01*
X117483576Y-74851979D01*
X116986287Y-74803000D01*
X114153713Y-74803000D01*
X113656424Y-74851979D01*
X113018349Y-75045536D01*
X112430296Y-75359858D01*
X111914863Y-75782863D01*
X111491858Y-76298296D01*
X111177536Y-76886349D01*
X110983979Y-77524424D01*
X110918622Y-78188000D01*
X103711378Y-78188000D01*
X103646021Y-77524424D01*
X103452464Y-76886349D01*
X103138142Y-76298296D01*
X102715137Y-75782863D01*
X102199704Y-75359858D01*
X101611651Y-75045536D01*
X100973576Y-74851979D01*
X100476287Y-74803000D01*
X97643713Y-74803000D01*
X97146424Y-74851979D01*
X96508349Y-75045536D01*
X95920296Y-75359858D01*
X95404863Y-75782863D01*
X94981858Y-76298296D01*
X94667536Y-76886349D01*
X94473979Y-77524424D01*
X94408622Y-78188000D01*
X89560000Y-78188000D01*
X89560000Y-65068000D01*
X94408622Y-65068000D01*
X94473979Y-65731576D01*
X94667536Y-66369651D01*
X94981858Y-66957704D01*
X95404863Y-67473137D01*
X95920296Y-67896142D01*
X96508349Y-68210464D01*
X97146424Y-68404021D01*
X97643713Y-68453000D01*
X100476287Y-68453000D01*
X100973576Y-68404021D01*
X101611651Y-68210464D01*
X102199704Y-67896142D01*
X102715137Y-67473137D01*
X103138142Y-66957704D01*
X103452464Y-66369651D01*
X103646021Y-65731576D01*
X103711378Y-65068000D01*
X110918622Y-65068000D01*
X110983979Y-65731576D01*
X111177536Y-66369651D01*
X111491858Y-66957704D01*
X111914863Y-67473137D01*
X112430296Y-67896142D01*
X113018349Y-68210464D01*
X113656424Y-68404021D01*
X114153713Y-68453000D01*
X116986287Y-68453000D01*
X117483576Y-68404021D01*
X118121651Y-68210464D01*
X118709704Y-67896142D01*
X119225137Y-67473137D01*
X119648142Y-66957704D01*
X119962464Y-66369651D01*
X120156021Y-65731576D01*
X120221378Y-65068000D01*
X120156021Y-64404424D01*
X119962464Y-63766349D01*
X119648142Y-63178296D01*
X119225137Y-62662863D01*
X118709704Y-62239858D01*
X118121651Y-61925536D01*
X117483576Y-61731979D01*
X116986287Y-61683000D01*
X114153713Y-61683000D01*
X113656424Y-61731979D01*
X113018349Y-61925536D01*
X112430296Y-62239858D01*
X111914863Y-62662863D01*
X111491858Y-63178296D01*
X111177536Y-63766349D01*
X110983979Y-64404424D01*
X110918622Y-65068000D01*
X103711378Y-65068000D01*
X103646021Y-64404424D01*
X103452464Y-63766349D01*
X103138142Y-63178296D01*
X102715137Y-62662863D01*
X102199704Y-62239858D01*
X101611651Y-61925536D01*
X100973576Y-61731979D01*
X100476287Y-61683000D01*
X97643713Y-61683000D01*
X97146424Y-61731979D01*
X96508349Y-61925536D01*
X95920296Y-62239858D01*
X95404863Y-62662863D01*
X94981858Y-63178296D01*
X94667536Y-63766349D01*
X94473979Y-64404424D01*
X94408622Y-65068000D01*
X89560000Y-65068000D01*
X89560000Y-57868000D01*
X94408622Y-57868000D01*
X94473979Y-58531576D01*
X94667536Y-59169651D01*
X94981858Y-59757704D01*
X95404863Y-60273137D01*
X95920296Y-60696142D01*
X96508349Y-61010464D01*
X97146424Y-61204021D01*
X97643713Y-61253000D01*
X100476287Y-61253000D01*
X100973576Y-61204021D01*
X101611651Y-61010464D01*
X102199704Y-60696142D01*
X102715137Y-60273137D01*
X103138142Y-59757704D01*
X103452464Y-59169651D01*
X103646021Y-58531576D01*
X103711378Y-57868000D01*
X110918622Y-57868000D01*
X110983979Y-58531576D01*
X111177536Y-59169651D01*
X111491858Y-59757704D01*
X111914863Y-60273137D01*
X112430296Y-60696142D01*
X113018349Y-61010464D01*
X113656424Y-61204021D01*
X114153713Y-61253000D01*
X116986287Y-61253000D01*
X117483576Y-61204021D01*
X118121651Y-61010464D01*
X118709704Y-60696142D01*
X119225137Y-60273137D01*
X119648142Y-59757704D01*
X119962464Y-59169651D01*
X120156021Y-58531576D01*
X120221378Y-57868000D01*
X120156021Y-57204424D01*
X119962464Y-56566349D01*
X119648142Y-55978296D01*
X119225137Y-55462863D01*
X118709704Y-55039858D01*
X118121651Y-54725536D01*
X117483576Y-54531979D01*
X116986287Y-54483000D01*
X114153713Y-54483000D01*
X113656424Y-54531979D01*
X113018349Y-54725536D01*
X112430296Y-55039858D01*
X111914863Y-55462863D01*
X111491858Y-55978296D01*
X111177536Y-56566349D01*
X110983979Y-57204424D01*
X110918622Y-57868000D01*
X103711378Y-57868000D01*
X103646021Y-57204424D01*
X103452464Y-56566349D01*
X103138142Y-55978296D01*
X102715137Y-55462863D01*
X102199704Y-55039858D01*
X101611651Y-54725536D01*
X100973576Y-54531979D01*
X100476287Y-54483000D01*
X97643713Y-54483000D01*
X97146424Y-54531979D01*
X96508349Y-54725536D01*
X95920296Y-55039858D01*
X95404863Y-55462863D01*
X94981858Y-55978296D01*
X94667536Y-56566349D01*
X94473979Y-57204424D01*
X94408622Y-57868000D01*
X89560000Y-57868000D01*
X89560000Y-53213000D01*
X122476635Y-53213000D01*
X122480001Y-53247176D01*
X122480000Y-130648834D01*
X122476635Y-130683000D01*
X122480000Y-130717166D01*
X122480000Y-130717876D01*
X122490273Y-130822183D01*
X122530872Y-130956019D01*
X122596800Y-131079362D01*
X122685525Y-131187474D01*
X122793637Y-131276200D01*
X122916980Y-131342128D01*
X123050816Y-131382727D01*
X123190000Y-131396435D01*
X123225588Y-131392930D01*
X138394412Y-131392930D01*
X138430000Y-131396435D01*
X138569184Y-131382727D01*
X138703020Y-131342128D01*
X138826363Y-131276200D01*
X138934475Y-131187475D01*
X139023200Y-131079363D01*
X139089128Y-130956020D01*
X139129727Y-130822184D01*
X139140000Y-130717877D01*
X139140000Y-130717166D01*
X139143365Y-130683000D01*
X139140000Y-130648834D01*
X139140000Y-126028000D01*
X141398622Y-126028000D01*
X141463979Y-126691576D01*
X141657536Y-127329651D01*
X141971858Y-127917704D01*
X142394863Y-128433137D01*
X142910296Y-128856142D01*
X143498349Y-129170464D01*
X144136424Y-129364021D01*
X144633713Y-129413000D01*
X147466287Y-129413000D01*
X147963576Y-129364021D01*
X148601651Y-129170464D01*
X149189704Y-128856142D01*
X149705137Y-128433137D01*
X150128142Y-127917704D01*
X150442464Y-127329651D01*
X150636021Y-126691576D01*
X150636905Y-126682594D01*
X157988896Y-126682594D01*
X158134067Y-127206052D01*
X158424918Y-127803010D01*
X158826641Y-128331755D01*
X159323798Y-128771968D01*
X159897284Y-129106732D01*
X160525060Y-129323182D01*
X161183000Y-129413000D01*
X162433000Y-129413000D01*
X162433000Y-126155000D01*
X162687000Y-126155000D01*
X162687000Y-129413000D01*
X163937000Y-129413000D01*
X164594940Y-129323182D01*
X165222716Y-129106732D01*
X165796202Y-128771968D01*
X166293359Y-128331755D01*
X166695082Y-127803010D01*
X166985933Y-127206052D01*
X167131104Y-126682594D01*
X167033749Y-126155000D01*
X162687000Y-126155000D01*
X162433000Y-126155000D01*
X158086251Y-126155000D01*
X157988896Y-126682594D01*
X150636905Y-126682594D01*
X150701378Y-126028000D01*
X150636906Y-125373406D01*
X157988896Y-125373406D01*
X158086251Y-125901000D01*
X162433000Y-125901000D01*
X162433000Y-122643000D01*
X162687000Y-122643000D01*
X162687000Y-125901000D01*
X167033749Y-125901000D01*
X167131104Y-125373406D01*
X166985933Y-124849948D01*
X166695082Y-124252990D01*
X166293359Y-123724245D01*
X165796202Y-123284032D01*
X165222716Y-122949268D01*
X164594940Y-122732818D01*
X163937000Y-122643000D01*
X162687000Y-122643000D01*
X162433000Y-122643000D01*
X161183000Y-122643000D01*
X160525060Y-122732818D01*
X159897284Y-122949268D01*
X159323798Y-123284032D01*
X158826641Y-123724245D01*
X158424918Y-124252990D01*
X158134067Y-124849948D01*
X157988896Y-125373406D01*
X150636906Y-125373406D01*
X150636021Y-125364424D01*
X150442464Y-124726349D01*
X150128142Y-124138296D01*
X149705137Y-123622863D01*
X149189704Y-123199858D01*
X148601651Y-122885536D01*
X147963576Y-122691979D01*
X147466287Y-122643000D01*
X144633713Y-122643000D01*
X144136424Y-122691979D01*
X143498349Y-122885536D01*
X142910296Y-123199858D01*
X142394863Y-123622863D01*
X141971858Y-124138296D01*
X141657536Y-124726349D01*
X141463979Y-125364424D01*
X141398622Y-126028000D01*
X139140000Y-126028000D01*
X139140000Y-118828000D01*
X141398622Y-118828000D01*
X141463979Y-119491576D01*
X141657536Y-120129651D01*
X141971858Y-120717704D01*
X142394863Y-121233137D01*
X142910296Y-121656142D01*
X143498349Y-121970464D01*
X144136424Y-122164021D01*
X144633713Y-122213000D01*
X147466287Y-122213000D01*
X147963576Y-122164021D01*
X148601651Y-121970464D01*
X149189704Y-121656142D01*
X149705137Y-121233137D01*
X150128142Y-120717704D01*
X150442464Y-120129651D01*
X150636021Y-119491576D01*
X150701378Y-118828000D01*
X157908622Y-118828000D01*
X157973979Y-119491576D01*
X158167536Y-120129651D01*
X158481858Y-120717704D01*
X158904863Y-121233137D01*
X159420296Y-121656142D01*
X160008349Y-121970464D01*
X160646424Y-122164021D01*
X161143713Y-122213000D01*
X163976287Y-122213000D01*
X164473576Y-122164021D01*
X165111651Y-121970464D01*
X165699704Y-121656142D01*
X166215137Y-121233137D01*
X166638142Y-120717704D01*
X166952464Y-120129651D01*
X167146021Y-119491576D01*
X167211378Y-118828000D01*
X167146021Y-118164424D01*
X166952464Y-117526349D01*
X166638142Y-116938296D01*
X166215137Y-116422863D01*
X165699704Y-115999858D01*
X165111651Y-115685536D01*
X164473576Y-115491979D01*
X163976287Y-115443000D01*
X161143713Y-115443000D01*
X160646424Y-115491979D01*
X160008349Y-115685536D01*
X159420296Y-115999858D01*
X158904863Y-116422863D01*
X158481858Y-116938296D01*
X158167536Y-117526349D01*
X157973979Y-118164424D01*
X157908622Y-118828000D01*
X150701378Y-118828000D01*
X150636021Y-118164424D01*
X150442464Y-117526349D01*
X150128142Y-116938296D01*
X149705137Y-116422863D01*
X149189704Y-115999858D01*
X148601651Y-115685536D01*
X147963576Y-115491979D01*
X147466287Y-115443000D01*
X144633713Y-115443000D01*
X144136424Y-115491979D01*
X143498349Y-115685536D01*
X142910296Y-115999858D01*
X142394863Y-116422863D01*
X141971858Y-116938296D01*
X141657536Y-117526349D01*
X141463979Y-118164424D01*
X141398622Y-118828000D01*
X139140000Y-118828000D01*
X139140000Y-105708000D01*
X141398622Y-105708000D01*
X141463979Y-106371576D01*
X141657536Y-107009651D01*
X141971858Y-107597704D01*
X142394863Y-108113137D01*
X142910296Y-108536142D01*
X143498349Y-108850464D01*
X144136424Y-109044021D01*
X144633713Y-109093000D01*
X147466287Y-109093000D01*
X147963576Y-109044021D01*
X148601651Y-108850464D01*
X149189704Y-108536142D01*
X149705137Y-108113137D01*
X150128142Y-107597704D01*
X150442464Y-107009651D01*
X150636021Y-106371576D01*
X150636905Y-106362594D01*
X157988896Y-106362594D01*
X158134067Y-106886052D01*
X158424918Y-107483010D01*
X158826641Y-108011755D01*
X159323798Y-108451968D01*
X159897284Y-108786732D01*
X160525060Y-109003182D01*
X161183000Y-109093000D01*
X162433000Y-109093000D01*
X162433000Y-105835000D01*
X162687000Y-105835000D01*
X162687000Y-109093000D01*
X163937000Y-109093000D01*
X164594940Y-109003182D01*
X165222716Y-108786732D01*
X165796202Y-108451968D01*
X166293359Y-108011755D01*
X166695082Y-107483010D01*
X166985933Y-106886052D01*
X167131104Y-106362594D01*
X167033749Y-105835000D01*
X162687000Y-105835000D01*
X162433000Y-105835000D01*
X158086251Y-105835000D01*
X157988896Y-106362594D01*
X150636905Y-106362594D01*
X150701378Y-105708000D01*
X150636906Y-105053406D01*
X157988896Y-105053406D01*
X158086251Y-105581000D01*
X162433000Y-105581000D01*
X162433000Y-102323000D01*
X162687000Y-102323000D01*
X162687000Y-105581000D01*
X167033749Y-105581000D01*
X167131104Y-105053406D01*
X166985933Y-104529948D01*
X166695082Y-103932990D01*
X166293359Y-103404245D01*
X165796202Y-102964032D01*
X165222716Y-102629268D01*
X164594940Y-102412818D01*
X163937000Y-102323000D01*
X162687000Y-102323000D01*
X162433000Y-102323000D01*
X161183000Y-102323000D01*
X160525060Y-102412818D01*
X159897284Y-102629268D01*
X159323798Y-102964032D01*
X158826641Y-103404245D01*
X158424918Y-103932990D01*
X158134067Y-104529948D01*
X157988896Y-105053406D01*
X150636906Y-105053406D01*
X150636021Y-105044424D01*
X150442464Y-104406349D01*
X150128142Y-103818296D01*
X149705137Y-103302863D01*
X149189704Y-102879858D01*
X148601651Y-102565536D01*
X147963576Y-102371979D01*
X147466287Y-102323000D01*
X144633713Y-102323000D01*
X144136424Y-102371979D01*
X143498349Y-102565536D01*
X142910296Y-102879858D01*
X142394863Y-103302863D01*
X141971858Y-103818296D01*
X141657536Y-104406349D01*
X141463979Y-105044424D01*
X141398622Y-105708000D01*
X139140000Y-105708000D01*
X139140000Y-98508000D01*
X141398622Y-98508000D01*
X141463979Y-99171576D01*
X141657536Y-99809651D01*
X141971858Y-100397704D01*
X142394863Y-100913137D01*
X142910296Y-101336142D01*
X143498349Y-101650464D01*
X144136424Y-101844021D01*
X144633713Y-101893000D01*
X147466287Y-101893000D01*
X147963576Y-101844021D01*
X148601651Y-101650464D01*
X149189704Y-101336142D01*
X149705137Y-100913137D01*
X150128142Y-100397704D01*
X150442464Y-99809651D01*
X150636021Y-99171576D01*
X150701378Y-98508000D01*
X157908622Y-98508000D01*
X157973979Y-99171576D01*
X158167536Y-99809651D01*
X158481858Y-100397704D01*
X158904863Y-100913137D01*
X159420296Y-101336142D01*
X160008349Y-101650464D01*
X160646424Y-101844021D01*
X161143713Y-101893000D01*
X163976287Y-101893000D01*
X164473576Y-101844021D01*
X165111651Y-101650464D01*
X165699704Y-101336142D01*
X166215137Y-100913137D01*
X166638142Y-100397704D01*
X166952464Y-99809651D01*
X167146021Y-99171576D01*
X167211378Y-98508000D01*
X167146021Y-97844424D01*
X166952464Y-97206349D01*
X166638142Y-96618296D01*
X166215137Y-96102863D01*
X165699704Y-95679858D01*
X165111651Y-95365536D01*
X164473576Y-95171979D01*
X163976287Y-95123000D01*
X161143713Y-95123000D01*
X160646424Y-95171979D01*
X160008349Y-95365536D01*
X159420296Y-95679858D01*
X158904863Y-96102863D01*
X158481858Y-96618296D01*
X158167536Y-97206349D01*
X157973979Y-97844424D01*
X157908622Y-98508000D01*
X150701378Y-98508000D01*
X150636021Y-97844424D01*
X150442464Y-97206349D01*
X150128142Y-96618296D01*
X149705137Y-96102863D01*
X149189704Y-95679858D01*
X148601651Y-95365536D01*
X147963576Y-95171979D01*
X147466287Y-95123000D01*
X144633713Y-95123000D01*
X144136424Y-95171979D01*
X143498349Y-95365536D01*
X142910296Y-95679858D01*
X142394863Y-96102863D01*
X141971858Y-96618296D01*
X141657536Y-97206349D01*
X141463979Y-97844424D01*
X141398622Y-98508000D01*
X139140000Y-98508000D01*
X139140000Y-85388000D01*
X141398622Y-85388000D01*
X141463979Y-86051576D01*
X141657536Y-86689651D01*
X141971858Y-87277704D01*
X142394863Y-87793137D01*
X142910296Y-88216142D01*
X143498349Y-88530464D01*
X144136424Y-88724021D01*
X144633713Y-88773000D01*
X147466287Y-88773000D01*
X147963576Y-88724021D01*
X148601651Y-88530464D01*
X149189704Y-88216142D01*
X149705137Y-87793137D01*
X150128142Y-87277704D01*
X150442464Y-86689651D01*
X150636021Y-86051576D01*
X150636905Y-86042594D01*
X157988896Y-86042594D01*
X158134067Y-86566052D01*
X158424918Y-87163010D01*
X158826641Y-87691755D01*
X159323798Y-88131968D01*
X159897284Y-88466732D01*
X160525060Y-88683182D01*
X161183000Y-88773000D01*
X162433000Y-88773000D01*
X162433000Y-85515000D01*
X162687000Y-85515000D01*
X162687000Y-88773000D01*
X163937000Y-88773000D01*
X164594940Y-88683182D01*
X165222716Y-88466732D01*
X165796202Y-88131968D01*
X166293359Y-87691755D01*
X166695082Y-87163010D01*
X166985933Y-86566052D01*
X167131104Y-86042594D01*
X167033749Y-85515000D01*
X162687000Y-85515000D01*
X162433000Y-85515000D01*
X158086251Y-85515000D01*
X157988896Y-86042594D01*
X150636905Y-86042594D01*
X150701378Y-85388000D01*
X150636906Y-84733406D01*
X157988896Y-84733406D01*
X158086251Y-85261000D01*
X162433000Y-85261000D01*
X162433000Y-82003000D01*
X162687000Y-82003000D01*
X162687000Y-85261000D01*
X167033749Y-85261000D01*
X167131104Y-84733406D01*
X166985933Y-84209948D01*
X166695082Y-83612990D01*
X166293359Y-83084245D01*
X165796202Y-82644032D01*
X165222716Y-82309268D01*
X164594940Y-82092818D01*
X163937000Y-82003000D01*
X162687000Y-82003000D01*
X162433000Y-82003000D01*
X161183000Y-82003000D01*
X160525060Y-82092818D01*
X159897284Y-82309268D01*
X159323798Y-82644032D01*
X158826641Y-83084245D01*
X158424918Y-83612990D01*
X158134067Y-84209948D01*
X157988896Y-84733406D01*
X150636906Y-84733406D01*
X150636021Y-84724424D01*
X150442464Y-84086349D01*
X150128142Y-83498296D01*
X149705137Y-82982863D01*
X149189704Y-82559858D01*
X148601651Y-82245536D01*
X147963576Y-82051979D01*
X147466287Y-82003000D01*
X144633713Y-82003000D01*
X144136424Y-82051979D01*
X143498349Y-82245536D01*
X142910296Y-82559858D01*
X142394863Y-82982863D01*
X141971858Y-83498296D01*
X141657536Y-84086349D01*
X141463979Y-84724424D01*
X141398622Y-85388000D01*
X139140000Y-85388000D01*
X139140000Y-78188000D01*
X141398622Y-78188000D01*
X141463979Y-78851576D01*
X141657536Y-79489651D01*
X141971858Y-80077704D01*
X142394863Y-80593137D01*
X142910296Y-81016142D01*
X143498349Y-81330464D01*
X144136424Y-81524021D01*
X144633713Y-81573000D01*
X147466287Y-81573000D01*
X147963576Y-81524021D01*
X148601651Y-81330464D01*
X149189704Y-81016142D01*
X149705137Y-80593137D01*
X150128142Y-80077704D01*
X150442464Y-79489651D01*
X150636021Y-78851576D01*
X150701378Y-78188000D01*
X157908622Y-78188000D01*
X157973979Y-78851576D01*
X158167536Y-79489651D01*
X158481858Y-80077704D01*
X158904863Y-80593137D01*
X159420296Y-81016142D01*
X160008349Y-81330464D01*
X160646424Y-81524021D01*
X161143713Y-81573000D01*
X163976287Y-81573000D01*
X164473576Y-81524021D01*
X165111651Y-81330464D01*
X165699704Y-81016142D01*
X166215137Y-80593137D01*
X166638142Y-80077704D01*
X166952464Y-79489651D01*
X167146021Y-78851576D01*
X167211378Y-78188000D01*
X167146021Y-77524424D01*
X166952464Y-76886349D01*
X166638142Y-76298296D01*
X166215137Y-75782863D01*
X165699704Y-75359858D01*
X165111651Y-75045536D01*
X164473576Y-74851979D01*
X163976287Y-74803000D01*
X161143713Y-74803000D01*
X160646424Y-74851979D01*
X160008349Y-75045536D01*
X159420296Y-75359858D01*
X158904863Y-75782863D01*
X158481858Y-76298296D01*
X158167536Y-76886349D01*
X157973979Y-77524424D01*
X157908622Y-78188000D01*
X150701378Y-78188000D01*
X150636021Y-77524424D01*
X150442464Y-76886349D01*
X150128142Y-76298296D01*
X149705137Y-75782863D01*
X149189704Y-75359858D01*
X148601651Y-75045536D01*
X147963576Y-74851979D01*
X147466287Y-74803000D01*
X144633713Y-74803000D01*
X144136424Y-74851979D01*
X143498349Y-75045536D01*
X142910296Y-75359858D01*
X142394863Y-75782863D01*
X141971858Y-76298296D01*
X141657536Y-76886349D01*
X141463979Y-77524424D01*
X141398622Y-78188000D01*
X139140000Y-78188000D01*
X139140000Y-65068000D01*
X141398622Y-65068000D01*
X141463979Y-65731576D01*
X141657536Y-66369651D01*
X141971858Y-66957704D01*
X142394863Y-67473137D01*
X142910296Y-67896142D01*
X143498349Y-68210464D01*
X144136424Y-68404021D01*
X144633713Y-68453000D01*
X147466287Y-68453000D01*
X147963576Y-68404021D01*
X148601651Y-68210464D01*
X149189704Y-67896142D01*
X149705137Y-67473137D01*
X150128142Y-66957704D01*
X150442464Y-66369651D01*
X150636021Y-65731576D01*
X150636905Y-65722594D01*
X157988896Y-65722594D01*
X158134067Y-66246052D01*
X158424918Y-66843010D01*
X158826641Y-67371755D01*
X159323798Y-67811968D01*
X159897284Y-68146732D01*
X160525060Y-68363182D01*
X161183000Y-68453000D01*
X162433000Y-68453000D01*
X162433000Y-65195000D01*
X162687000Y-65195000D01*
X162687000Y-68453000D01*
X163937000Y-68453000D01*
X164594940Y-68363182D01*
X165222716Y-68146732D01*
X165796202Y-67811968D01*
X166293359Y-67371755D01*
X166695082Y-66843010D01*
X166985933Y-66246052D01*
X167131104Y-65722594D01*
X167033749Y-65195000D01*
X162687000Y-65195000D01*
X162433000Y-65195000D01*
X158086251Y-65195000D01*
X157988896Y-65722594D01*
X150636905Y-65722594D01*
X150701378Y-65068000D01*
X150636906Y-64413406D01*
X157988896Y-64413406D01*
X158086251Y-64941000D01*
X162433000Y-64941000D01*
X162433000Y-61683000D01*
X162687000Y-61683000D01*
X162687000Y-64941000D01*
X167033749Y-64941000D01*
X167131104Y-64413406D01*
X166985933Y-63889948D01*
X166695082Y-63292990D01*
X166293359Y-62764245D01*
X165796202Y-62324032D01*
X165222716Y-61989268D01*
X164594940Y-61772818D01*
X163937000Y-61683000D01*
X162687000Y-61683000D01*
X162433000Y-61683000D01*
X161183000Y-61683000D01*
X160525060Y-61772818D01*
X159897284Y-61989268D01*
X159323798Y-62324032D01*
X158826641Y-62764245D01*
X158424918Y-63292990D01*
X158134067Y-63889948D01*
X157988896Y-64413406D01*
X150636906Y-64413406D01*
X150636021Y-64404424D01*
X150442464Y-63766349D01*
X150128142Y-63178296D01*
X149705137Y-62662863D01*
X149189704Y-62239858D01*
X148601651Y-61925536D01*
X147963576Y-61731979D01*
X147466287Y-61683000D01*
X144633713Y-61683000D01*
X144136424Y-61731979D01*
X143498349Y-61925536D01*
X142910296Y-62239858D01*
X142394863Y-62662863D01*
X141971858Y-63178296D01*
X141657536Y-63766349D01*
X141463979Y-64404424D01*
X141398622Y-65068000D01*
X139140000Y-65068000D01*
X139140000Y-57868000D01*
X141398622Y-57868000D01*
X141463979Y-58531576D01*
X141657536Y-59169651D01*
X141971858Y-59757704D01*
X142394863Y-60273137D01*
X142910296Y-60696142D01*
X143498349Y-61010464D01*
X144136424Y-61204021D01*
X144633713Y-61253000D01*
X147466287Y-61253000D01*
X147963576Y-61204021D01*
X148601651Y-61010464D01*
X149189704Y-60696142D01*
X149705137Y-60273137D01*
X150128142Y-59757704D01*
X150442464Y-59169651D01*
X150636021Y-58531576D01*
X150701378Y-57868000D01*
X157908622Y-57868000D01*
X157973979Y-58531576D01*
X158167536Y-59169651D01*
X158481858Y-59757704D01*
X158904863Y-60273137D01*
X159420296Y-60696142D01*
X160008349Y-61010464D01*
X160646424Y-61204021D01*
X161143713Y-61253000D01*
X163976287Y-61253000D01*
X164473576Y-61204021D01*
X165111651Y-61010464D01*
X165699704Y-60696142D01*
X166215137Y-60273137D01*
X166638142Y-59757704D01*
X166952464Y-59169651D01*
X167146021Y-58531576D01*
X167211378Y-57868000D01*
X167146021Y-57204424D01*
X166952464Y-56566349D01*
X166638142Y-55978296D01*
X166215137Y-55462863D01*
X165699704Y-55039858D01*
X165111651Y-54725536D01*
X164473576Y-54531979D01*
X163976287Y-54483000D01*
X161143713Y-54483000D01*
X160646424Y-54531979D01*
X160008349Y-54725536D01*
X159420296Y-55039858D01*
X158904863Y-55462863D01*
X158481858Y-55978296D01*
X158167536Y-56566349D01*
X157973979Y-57204424D01*
X157908622Y-57868000D01*
X150701378Y-57868000D01*
X150636021Y-57204424D01*
X150442464Y-56566349D01*
X150128142Y-55978296D01*
X149705137Y-55462863D01*
X149189704Y-55039858D01*
X148601651Y-54725536D01*
X147963576Y-54531979D01*
X147466287Y-54483000D01*
X144633713Y-54483000D01*
X144136424Y-54531979D01*
X143498349Y-54725536D01*
X142910296Y-55039858D01*
X142394863Y-55462863D01*
X141971858Y-55978296D01*
X141657536Y-56566349D01*
X141463979Y-57204424D01*
X141398622Y-57868000D01*
X139140000Y-57868000D01*
X139140000Y-53247166D01*
X139143365Y-53213000D01*
X139140000Y-53178834D01*
X139140000Y-53178123D01*
X139129727Y-53073816D01*
X139089128Y-52939980D01*
X139023200Y-52816637D01*
X138934474Y-52708525D01*
X138826362Y-52619800D01*
X138703019Y-52553872D01*
X138569183Y-52513273D01*
X138430000Y-52499565D01*
X138394412Y-52503070D01*
X123225588Y-52503070D01*
X123190000Y-52499565D01*
X123050817Y-52513273D01*
X122916981Y-52553872D01*
X122793638Y-52619800D01*
X122685526Y-52708525D01*
X122596801Y-52816637D01*
X122530873Y-52939980D01*
X122490274Y-53073816D01*
X122480001Y-53178123D01*
X122480001Y-53178824D01*
X122476635Y-53213000D01*
X89560000Y-53213000D01*
X89560000Y-43365034D01*
X95780866Y-43365034D01*
X95780866Y-44010966D01*
X95906882Y-44644488D01*
X96154069Y-45241252D01*
X96512931Y-45778326D01*
X96969674Y-46235069D01*
X97506748Y-46593931D01*
X98103512Y-46841118D01*
X98737034Y-46967134D01*
X99382966Y-46967134D01*
X100016488Y-46841118D01*
X100613252Y-46593931D01*
X101150326Y-46235069D01*
X101607069Y-45778326D01*
X101965931Y-45241252D01*
X102213118Y-44644488D01*
X102339134Y-44010966D01*
X102339134Y-43365034D01*
X102213118Y-42731512D01*
X102022665Y-42271714D01*
X113665000Y-42271714D01*
X113665000Y-45104287D01*
X113713979Y-45601576D01*
X113907536Y-46239651D01*
X114221859Y-46827704D01*
X114644864Y-47343137D01*
X115160297Y-47766142D01*
X115748350Y-48080464D01*
X116386425Y-48274021D01*
X117050000Y-48339378D01*
X117713576Y-48274021D01*
X118351651Y-48080464D01*
X118939704Y-47766142D01*
X119455137Y-47343137D01*
X119878142Y-46827704D01*
X120192464Y-46239651D01*
X120386021Y-45601576D01*
X120435000Y-45104287D01*
X120435000Y-42271714D01*
X120865000Y-42271714D01*
X120865000Y-45104287D01*
X120913979Y-45601576D01*
X121107536Y-46239651D01*
X121421859Y-46827704D01*
X121844864Y-47343137D01*
X122360297Y-47766142D01*
X122948350Y-48080464D01*
X123586425Y-48274021D01*
X124250000Y-48339378D01*
X124913576Y-48274021D01*
X125551651Y-48080464D01*
X126139704Y-47766142D01*
X126655137Y-47343137D01*
X127078142Y-46827704D01*
X127392464Y-46239651D01*
X127586021Y-45601576D01*
X127635000Y-45104287D01*
X127635000Y-42271714D01*
X133985000Y-42271714D01*
X133985000Y-45104287D01*
X134033979Y-45601576D01*
X134227536Y-46239651D01*
X134541859Y-46827704D01*
X134964864Y-47343137D01*
X135480297Y-47766142D01*
X136068350Y-48080464D01*
X136706425Y-48274021D01*
X137370000Y-48339378D01*
X138033576Y-48274021D01*
X138671651Y-48080464D01*
X139259704Y-47766142D01*
X139775137Y-47343137D01*
X140198142Y-46827704D01*
X140512464Y-46239651D01*
X140706021Y-45601576D01*
X140755000Y-45104287D01*
X140755000Y-43815000D01*
X141185000Y-43815000D01*
X141185000Y-45065000D01*
X141274818Y-45722940D01*
X141491268Y-46350716D01*
X141826032Y-46924202D01*
X142266245Y-47421359D01*
X142794990Y-47823082D01*
X143391948Y-48113933D01*
X143915406Y-48259104D01*
X144443000Y-48161749D01*
X144443000Y-43815000D01*
X144697000Y-43815000D01*
X144697000Y-48161749D01*
X145224594Y-48259104D01*
X145748052Y-48113933D01*
X146345010Y-47823082D01*
X146873755Y-47421359D01*
X147313968Y-46924202D01*
X147648732Y-46350716D01*
X147865182Y-45722940D01*
X147955000Y-45065000D01*
X147955000Y-43815000D01*
X144697000Y-43815000D01*
X144443000Y-43815000D01*
X141185000Y-43815000D01*
X140755000Y-43815000D01*
X140755000Y-42311000D01*
X141185000Y-42311000D01*
X141185000Y-43561000D01*
X144443000Y-43561000D01*
X144443000Y-39214251D01*
X144697000Y-39214251D01*
X144697000Y-43561000D01*
X147955000Y-43561000D01*
X147955000Y-43365034D01*
X159280866Y-43365034D01*
X159280866Y-44010966D01*
X159406882Y-44644488D01*
X159654069Y-45241252D01*
X160012931Y-45778326D01*
X160469674Y-46235069D01*
X161006748Y-46593931D01*
X161603512Y-46841118D01*
X162237034Y-46967134D01*
X162882966Y-46967134D01*
X163516488Y-46841118D01*
X164113252Y-46593931D01*
X164650326Y-46235069D01*
X165107069Y-45778326D01*
X165465931Y-45241252D01*
X165713118Y-44644488D01*
X165839134Y-44010966D01*
X165839134Y-43365034D01*
X165713118Y-42731512D01*
X165465931Y-42134748D01*
X165107069Y-41597674D01*
X164650326Y-41140931D01*
X164113252Y-40782069D01*
X163516488Y-40534882D01*
X162882966Y-40408866D01*
X162237034Y-40408866D01*
X161603512Y-40534882D01*
X161006748Y-40782069D01*
X160469674Y-41140931D01*
X160012931Y-41597674D01*
X159654069Y-42134748D01*
X159406882Y-42731512D01*
X159280866Y-43365034D01*
X147955000Y-43365034D01*
X147955000Y-42311000D01*
X147865182Y-41653060D01*
X147648732Y-41025284D01*
X147313968Y-40451798D01*
X146873755Y-39954641D01*
X146345010Y-39552918D01*
X145748052Y-39262067D01*
X145224594Y-39116896D01*
X144697000Y-39214251D01*
X144443000Y-39214251D01*
X143915406Y-39116896D01*
X143391948Y-39262067D01*
X142794990Y-39552918D01*
X142266245Y-39954641D01*
X141826032Y-40451798D01*
X141491268Y-41025284D01*
X141274818Y-41653060D01*
X141185000Y-42311000D01*
X140755000Y-42311000D01*
X140755000Y-42271713D01*
X140706021Y-41774424D01*
X140512464Y-41136349D01*
X140198142Y-40548296D01*
X139775137Y-40032863D01*
X139259703Y-39609858D01*
X138671650Y-39295536D01*
X138033575Y-39101979D01*
X137370000Y-39036622D01*
X136706424Y-39101979D01*
X136068349Y-39295536D01*
X135480296Y-39609858D01*
X134964863Y-40032863D01*
X134541858Y-40548297D01*
X134227536Y-41136350D01*
X134033979Y-41774425D01*
X133985000Y-42271714D01*
X127635000Y-42271714D01*
X127635000Y-42271713D01*
X127586021Y-41774424D01*
X127392464Y-41136349D01*
X127078142Y-40548296D01*
X126655137Y-40032863D01*
X126139703Y-39609858D01*
X125551650Y-39295536D01*
X124913575Y-39101979D01*
X124250000Y-39036622D01*
X123586424Y-39101979D01*
X122948349Y-39295536D01*
X122360296Y-39609858D01*
X121844863Y-40032863D01*
X121421858Y-40548297D01*
X121107536Y-41136350D01*
X120913979Y-41774425D01*
X120865000Y-42271714D01*
X120435000Y-42271714D01*
X120435000Y-42271713D01*
X120386021Y-41774424D01*
X120192464Y-41136349D01*
X119878142Y-40548296D01*
X119455137Y-40032863D01*
X118939703Y-39609858D01*
X118351650Y-39295536D01*
X117713575Y-39101979D01*
X117050000Y-39036622D01*
X116386424Y-39101979D01*
X115748349Y-39295536D01*
X115160296Y-39609858D01*
X114644863Y-40032863D01*
X114221858Y-40548297D01*
X113907536Y-41136350D01*
X113713979Y-41774425D01*
X113665000Y-42271714D01*
X102022665Y-42271714D01*
X101965931Y-42134748D01*
X101607069Y-41597674D01*
X101150326Y-41140931D01*
X100613252Y-40782069D01*
X100016488Y-40534882D01*
X99382966Y-40408866D01*
X98737034Y-40408866D01*
X98103512Y-40534882D01*
X97506748Y-40782069D01*
X96969674Y-41140931D01*
X96512931Y-41597674D01*
X96154069Y-42134748D01*
X95906882Y-42731512D01*
X95780866Y-43365034D01*
X89560000Y-43365034D01*
X89560000Y-36220000D01*
X172060000Y-36220000D01*
X172060001Y-140310000D01*
G37*
%TD.AperFunction*%
%TD*%
M02*
