%TF.GenerationSoftware,KiCad,Pcbnew,(5.1.10)-1*%
%TF.CreationDate,2021-08-24T00:39:05-04:00*%
%TF.ProjectId,PDBV2,50444256-322e-46b6-9963-61645f706362,rev?*%
%TF.SameCoordinates,Original*%
%TF.FileFunction,Legend,Top*%
%TF.FilePolarity,Positive*%
%FSLAX46Y46*%
G04 Gerber Fmt 4.6, Leading zero omitted, Abs format (unit mm)*
G04 Created by KiCad (PCBNEW (5.1.10)-1) date 2021-08-24 00:39:05*
%MOMM*%
%LPD*%
G01*
G04 APERTURE LIST*
%ADD10C,0.300000*%
%ADD11C,0.120000*%
%ADD12C,0.150000*%
G04 APERTURE END LIST*
D10*
X160774285Y-50375428D02*
X160845714Y-50304000D01*
X160988571Y-50232571D01*
X161345714Y-50232571D01*
X161488571Y-50304000D01*
X161560000Y-50375428D01*
X161631428Y-50518285D01*
X161631428Y-50661142D01*
X161560000Y-50875428D01*
X160702857Y-51732571D01*
X161631428Y-51732571D01*
X162917142Y-50732571D02*
X162917142Y-51732571D01*
X162560000Y-50161142D02*
X162202857Y-51232571D01*
X163131428Y-51232571D01*
X163488571Y-50232571D02*
X163988571Y-51732571D01*
X164488571Y-50232571D01*
X145121428Y-51732571D02*
X144264285Y-51732571D01*
X144692857Y-51732571D02*
X144692857Y-50232571D01*
X144550000Y-50446857D01*
X144407142Y-50589714D01*
X144264285Y-50661142D01*
X145692857Y-50375428D02*
X145764285Y-50304000D01*
X145907142Y-50232571D01*
X146264285Y-50232571D01*
X146407142Y-50304000D01*
X146478571Y-50375428D01*
X146550000Y-50518285D01*
X146550000Y-50661142D01*
X146478571Y-50875428D01*
X145621428Y-51732571D01*
X146550000Y-51732571D01*
X146978571Y-50232571D02*
X147478571Y-51732571D01*
X147978571Y-50232571D01*
X114641428Y-51732571D02*
X113784285Y-51732571D01*
X114212857Y-51732571D02*
X114212857Y-50232571D01*
X114070000Y-50446857D01*
X113927142Y-50589714D01*
X113784285Y-50661142D01*
X115212857Y-50375428D02*
X115284285Y-50304000D01*
X115427142Y-50232571D01*
X115784285Y-50232571D01*
X115927142Y-50304000D01*
X115998571Y-50375428D01*
X116070000Y-50518285D01*
X116070000Y-50661142D01*
X115998571Y-50875428D01*
X115141428Y-51732571D01*
X116070000Y-51732571D01*
X116498571Y-50232571D02*
X116998571Y-51732571D01*
X117498571Y-50232571D01*
X98131428Y-51732571D02*
X97274285Y-51732571D01*
X97702857Y-51732571D02*
X97702857Y-50232571D01*
X97560000Y-50446857D01*
X97417142Y-50589714D01*
X97274285Y-50661142D01*
X98702857Y-50375428D02*
X98774285Y-50304000D01*
X98917142Y-50232571D01*
X99274285Y-50232571D01*
X99417142Y-50304000D01*
X99488571Y-50375428D01*
X99560000Y-50518285D01*
X99560000Y-50661142D01*
X99488571Y-50875428D01*
X98631428Y-51732571D01*
X99560000Y-51732571D01*
X99988571Y-50232571D02*
X100488571Y-51732571D01*
X100988571Y-50232571D01*
D11*
%TO.C,U10*%
X141450000Y-114178000D02*
X150650000Y-114178000D01*
X141450000Y-114178000D02*
X141450000Y-130678000D01*
X141450000Y-130678000D02*
X150650000Y-130678000D01*
X150650000Y-114178000D02*
X150650000Y-130678000D01*
%TO.C,U16*%
X141450000Y-93858000D02*
X150650000Y-93858000D01*
X141450000Y-93858000D02*
X141450000Y-110358000D01*
X141450000Y-110358000D02*
X150650000Y-110358000D01*
X150650000Y-93858000D02*
X150650000Y-110358000D01*
%TO.C,U15*%
X112400000Y-48288000D02*
X112400000Y-39088000D01*
X112400000Y-48288000D02*
X128900000Y-48288000D01*
X128900000Y-48288000D02*
X128900000Y-39088000D01*
X112400000Y-39088000D02*
X128900000Y-39088000D01*
%TO.C,U1*%
X94460000Y-53218000D02*
X103660000Y-53218000D01*
X94460000Y-53218000D02*
X94460000Y-69718000D01*
X94460000Y-69718000D02*
X103660000Y-69718000D01*
X103660000Y-53218000D02*
X103660000Y-69718000D01*
%TO.C,U2*%
X94460000Y-73538000D02*
X103660000Y-73538000D01*
X94460000Y-73538000D02*
X94460000Y-90038000D01*
X94460000Y-90038000D02*
X103660000Y-90038000D01*
X103660000Y-73538000D02*
X103660000Y-90038000D01*
%TO.C,U3*%
X110970000Y-53218000D02*
X120170000Y-53218000D01*
X110970000Y-53218000D02*
X110970000Y-69718000D01*
X110970000Y-69718000D02*
X120170000Y-69718000D01*
X120170000Y-53218000D02*
X120170000Y-69718000D01*
%TO.C,U4*%
X94460000Y-93858000D02*
X103660000Y-93858000D01*
X94460000Y-93858000D02*
X94460000Y-110358000D01*
X94460000Y-110358000D02*
X103660000Y-110358000D01*
X103660000Y-93858000D02*
X103660000Y-110358000D01*
%TO.C,U5*%
X110970000Y-73538000D02*
X120170000Y-73538000D01*
X110970000Y-73538000D02*
X110970000Y-90038000D01*
X110970000Y-90038000D02*
X120170000Y-90038000D01*
X120170000Y-73538000D02*
X120170000Y-90038000D01*
%TO.C,U8*%
X111170000Y-93858000D02*
X120370000Y-93858000D01*
X111170000Y-93858000D02*
X111170000Y-110358000D01*
X111170000Y-110358000D02*
X120370000Y-110358000D01*
X120370000Y-93858000D02*
X120370000Y-110358000D01*
%TO.C,U9*%
X141450000Y-73538000D02*
X150650000Y-73538000D01*
X141450000Y-73538000D02*
X141450000Y-90038000D01*
X141450000Y-90038000D02*
X150650000Y-90038000D01*
X150650000Y-73538000D02*
X150650000Y-90038000D01*
%TO.C,U11*%
X94460000Y-114178000D02*
X103660000Y-114178000D01*
X94460000Y-114178000D02*
X94460000Y-130678000D01*
X94460000Y-130678000D02*
X103660000Y-130678000D01*
X103660000Y-114178000D02*
X103660000Y-130678000D01*
%TO.C,U13*%
X110970000Y-114178000D02*
X120170000Y-114178000D01*
X110970000Y-114178000D02*
X110970000Y-130678000D01*
X110970000Y-130678000D02*
X120170000Y-130678000D01*
X120170000Y-114178000D02*
X120170000Y-130678000D01*
%TO.C,U14*%
X141450000Y-53218000D02*
X150650000Y-53218000D01*
X141450000Y-53218000D02*
X141450000Y-69718000D01*
X141450000Y-69718000D02*
X150650000Y-69718000D01*
X150650000Y-53218000D02*
X150650000Y-69718000D01*
%TO.C,U6*%
X157960000Y-114178000D02*
X167160000Y-114178000D01*
X157960000Y-114178000D02*
X157960000Y-130678000D01*
X157960000Y-130678000D02*
X167160000Y-130678000D01*
X167160000Y-114178000D02*
X167160000Y-130678000D01*
%TO.C,U7*%
X132720000Y-48288000D02*
X132720000Y-39088000D01*
X132720000Y-48288000D02*
X149220000Y-48288000D01*
X149220000Y-48288000D02*
X149220000Y-39088000D01*
X132720000Y-39088000D02*
X149220000Y-39088000D01*
%TO.C,U12*%
X157960000Y-53218000D02*
X167160000Y-53218000D01*
X157960000Y-53218000D02*
X157960000Y-69718000D01*
X157960000Y-69718000D02*
X167160000Y-69718000D01*
X167160000Y-53218000D02*
X167160000Y-69718000D01*
%TO.C,U17*%
X157960000Y-93858000D02*
X167160000Y-93858000D01*
X157960000Y-93858000D02*
X157960000Y-110358000D01*
X157960000Y-110358000D02*
X167160000Y-110358000D01*
X167160000Y-93858000D02*
X167160000Y-110358000D01*
%TO.C,U18*%
X157960000Y-73538000D02*
X167160000Y-73538000D01*
X157960000Y-73538000D02*
X157960000Y-90038000D01*
X157960000Y-90038000D02*
X167160000Y-90038000D01*
X167160000Y-73538000D02*
X167160000Y-90038000D01*
%TO.C,U10*%
D12*
X139406380Y-123666095D02*
X140215904Y-123666095D01*
X140311142Y-123618476D01*
X140358761Y-123570857D01*
X140406380Y-123475619D01*
X140406380Y-123285142D01*
X140358761Y-123189904D01*
X140311142Y-123142285D01*
X140215904Y-123094666D01*
X139406380Y-123094666D01*
X140406380Y-122094666D02*
X140406380Y-122666095D01*
X140406380Y-122380380D02*
X139406380Y-122380380D01*
X139549238Y-122475619D01*
X139644476Y-122570857D01*
X139692095Y-122666095D01*
X139406380Y-121475619D02*
X139406380Y-121380380D01*
X139454000Y-121285142D01*
X139501619Y-121237523D01*
X139596857Y-121189904D01*
X139787333Y-121142285D01*
X140025428Y-121142285D01*
X140215904Y-121189904D01*
X140311142Y-121237523D01*
X140358761Y-121285142D01*
X140406380Y-121380380D01*
X140406380Y-121475619D01*
X140358761Y-121570857D01*
X140311142Y-121618476D01*
X140215904Y-121666095D01*
X140025428Y-121713714D01*
X139787333Y-121713714D01*
X139596857Y-121666095D01*
X139501619Y-121618476D01*
X139454000Y-121570857D01*
X139406380Y-121475619D01*
%TO.C,U16*%
X139406380Y-103346095D02*
X140215904Y-103346095D01*
X140311142Y-103298476D01*
X140358761Y-103250857D01*
X140406380Y-103155619D01*
X140406380Y-102965142D01*
X140358761Y-102869904D01*
X140311142Y-102822285D01*
X140215904Y-102774666D01*
X139406380Y-102774666D01*
X140406380Y-101774666D02*
X140406380Y-102346095D01*
X140406380Y-102060380D02*
X139406380Y-102060380D01*
X139549238Y-102155619D01*
X139644476Y-102250857D01*
X139692095Y-102346095D01*
X139406380Y-100917523D02*
X139406380Y-101108000D01*
X139454000Y-101203238D01*
X139501619Y-101250857D01*
X139644476Y-101346095D01*
X139834952Y-101393714D01*
X140215904Y-101393714D01*
X140311142Y-101346095D01*
X140358761Y-101298476D01*
X140406380Y-101203238D01*
X140406380Y-101012761D01*
X140358761Y-100917523D01*
X140311142Y-100869904D01*
X140215904Y-100822285D01*
X139977809Y-100822285D01*
X139882571Y-100869904D01*
X139834952Y-100917523D01*
X139787333Y-101012761D01*
X139787333Y-101203238D01*
X139834952Y-101298476D01*
X139882571Y-101346095D01*
X139977809Y-101393714D01*
%TO.C,U15*%
X119411904Y-49236380D02*
X119411904Y-50045904D01*
X119459523Y-50141142D01*
X119507142Y-50188761D01*
X119602380Y-50236380D01*
X119792857Y-50236380D01*
X119888095Y-50188761D01*
X119935714Y-50141142D01*
X119983333Y-50045904D01*
X119983333Y-49236380D01*
X120983333Y-50236380D02*
X120411904Y-50236380D01*
X120697619Y-50236380D02*
X120697619Y-49236380D01*
X120602380Y-49379238D01*
X120507142Y-49474476D01*
X120411904Y-49522095D01*
X121888095Y-49236380D02*
X121411904Y-49236380D01*
X121364285Y-49712571D01*
X121411904Y-49664952D01*
X121507142Y-49617333D01*
X121745238Y-49617333D01*
X121840476Y-49664952D01*
X121888095Y-49712571D01*
X121935714Y-49807809D01*
X121935714Y-50045904D01*
X121888095Y-50141142D01*
X121840476Y-50188761D01*
X121745238Y-50236380D01*
X121507142Y-50236380D01*
X121411904Y-50188761D01*
X121364285Y-50141142D01*
%TO.C,U1*%
X92416380Y-62229904D02*
X93225904Y-62229904D01*
X93321142Y-62182285D01*
X93368761Y-62134666D01*
X93416380Y-62039428D01*
X93416380Y-61848952D01*
X93368761Y-61753714D01*
X93321142Y-61706095D01*
X93225904Y-61658476D01*
X92416380Y-61658476D01*
X93416380Y-60658476D02*
X93416380Y-61229904D01*
X93416380Y-60944190D02*
X92416380Y-60944190D01*
X92559238Y-61039428D01*
X92654476Y-61134666D01*
X92702095Y-61229904D01*
%TO.C,U2*%
X92416380Y-82549904D02*
X93225904Y-82549904D01*
X93321142Y-82502285D01*
X93368761Y-82454666D01*
X93416380Y-82359428D01*
X93416380Y-82168952D01*
X93368761Y-82073714D01*
X93321142Y-82026095D01*
X93225904Y-81978476D01*
X92416380Y-81978476D01*
X92511619Y-81549904D02*
X92464000Y-81502285D01*
X92416380Y-81407047D01*
X92416380Y-81168952D01*
X92464000Y-81073714D01*
X92511619Y-81026095D01*
X92606857Y-80978476D01*
X92702095Y-80978476D01*
X92844952Y-81026095D01*
X93416380Y-81597523D01*
X93416380Y-80978476D01*
%TO.C,U3*%
X108926380Y-62229904D02*
X109735904Y-62229904D01*
X109831142Y-62182285D01*
X109878761Y-62134666D01*
X109926380Y-62039428D01*
X109926380Y-61848952D01*
X109878761Y-61753714D01*
X109831142Y-61706095D01*
X109735904Y-61658476D01*
X108926380Y-61658476D01*
X108926380Y-61277523D02*
X108926380Y-60658476D01*
X109307333Y-60991809D01*
X109307333Y-60848952D01*
X109354952Y-60753714D01*
X109402571Y-60706095D01*
X109497809Y-60658476D01*
X109735904Y-60658476D01*
X109831142Y-60706095D01*
X109878761Y-60753714D01*
X109926380Y-60848952D01*
X109926380Y-61134666D01*
X109878761Y-61229904D01*
X109831142Y-61277523D01*
%TO.C,U4*%
X92416380Y-102869904D02*
X93225904Y-102869904D01*
X93321142Y-102822285D01*
X93368761Y-102774666D01*
X93416380Y-102679428D01*
X93416380Y-102488952D01*
X93368761Y-102393714D01*
X93321142Y-102346095D01*
X93225904Y-102298476D01*
X92416380Y-102298476D01*
X92749714Y-101393714D02*
X93416380Y-101393714D01*
X92368761Y-101631809D02*
X93083047Y-101869904D01*
X93083047Y-101250857D01*
%TO.C,U5*%
X108926380Y-82549904D02*
X109735904Y-82549904D01*
X109831142Y-82502285D01*
X109878761Y-82454666D01*
X109926380Y-82359428D01*
X109926380Y-82168952D01*
X109878761Y-82073714D01*
X109831142Y-82026095D01*
X109735904Y-81978476D01*
X108926380Y-81978476D01*
X108926380Y-81026095D02*
X108926380Y-81502285D01*
X109402571Y-81549904D01*
X109354952Y-81502285D01*
X109307333Y-81407047D01*
X109307333Y-81168952D01*
X109354952Y-81073714D01*
X109402571Y-81026095D01*
X109497809Y-80978476D01*
X109735904Y-80978476D01*
X109831142Y-81026095D01*
X109878761Y-81073714D01*
X109926380Y-81168952D01*
X109926380Y-81407047D01*
X109878761Y-81502285D01*
X109831142Y-81549904D01*
%TO.C,U8*%
X109126380Y-102869904D02*
X109935904Y-102869904D01*
X110031142Y-102822285D01*
X110078761Y-102774666D01*
X110126380Y-102679428D01*
X110126380Y-102488952D01*
X110078761Y-102393714D01*
X110031142Y-102346095D01*
X109935904Y-102298476D01*
X109126380Y-102298476D01*
X109554952Y-101679428D02*
X109507333Y-101774666D01*
X109459714Y-101822285D01*
X109364476Y-101869904D01*
X109316857Y-101869904D01*
X109221619Y-101822285D01*
X109174000Y-101774666D01*
X109126380Y-101679428D01*
X109126380Y-101488952D01*
X109174000Y-101393714D01*
X109221619Y-101346095D01*
X109316857Y-101298476D01*
X109364476Y-101298476D01*
X109459714Y-101346095D01*
X109507333Y-101393714D01*
X109554952Y-101488952D01*
X109554952Y-101679428D01*
X109602571Y-101774666D01*
X109650190Y-101822285D01*
X109745428Y-101869904D01*
X109935904Y-101869904D01*
X110031142Y-101822285D01*
X110078761Y-101774666D01*
X110126380Y-101679428D01*
X110126380Y-101488952D01*
X110078761Y-101393714D01*
X110031142Y-101346095D01*
X109935904Y-101298476D01*
X109745428Y-101298476D01*
X109650190Y-101346095D01*
X109602571Y-101393714D01*
X109554952Y-101488952D01*
%TO.C,U9*%
X139406380Y-82549904D02*
X140215904Y-82549904D01*
X140311142Y-82502285D01*
X140358761Y-82454666D01*
X140406380Y-82359428D01*
X140406380Y-82168952D01*
X140358761Y-82073714D01*
X140311142Y-82026095D01*
X140215904Y-81978476D01*
X139406380Y-81978476D01*
X140406380Y-81454666D02*
X140406380Y-81264190D01*
X140358761Y-81168952D01*
X140311142Y-81121333D01*
X140168285Y-81026095D01*
X139977809Y-80978476D01*
X139596857Y-80978476D01*
X139501619Y-81026095D01*
X139454000Y-81073714D01*
X139406380Y-81168952D01*
X139406380Y-81359428D01*
X139454000Y-81454666D01*
X139501619Y-81502285D01*
X139596857Y-81549904D01*
X139834952Y-81549904D01*
X139930190Y-81502285D01*
X139977809Y-81454666D01*
X140025428Y-81359428D01*
X140025428Y-81168952D01*
X139977809Y-81073714D01*
X139930190Y-81026095D01*
X139834952Y-80978476D01*
%TO.C,U11*%
X92416380Y-123666095D02*
X93225904Y-123666095D01*
X93321142Y-123618476D01*
X93368761Y-123570857D01*
X93416380Y-123475619D01*
X93416380Y-123285142D01*
X93368761Y-123189904D01*
X93321142Y-123142285D01*
X93225904Y-123094666D01*
X92416380Y-123094666D01*
X93416380Y-122094666D02*
X93416380Y-122666095D01*
X93416380Y-122380380D02*
X92416380Y-122380380D01*
X92559238Y-122475619D01*
X92654476Y-122570857D01*
X92702095Y-122666095D01*
X93416380Y-121142285D02*
X93416380Y-121713714D01*
X93416380Y-121428000D02*
X92416380Y-121428000D01*
X92559238Y-121523238D01*
X92654476Y-121618476D01*
X92702095Y-121713714D01*
%TO.C,U13*%
X108926380Y-123666095D02*
X109735904Y-123666095D01*
X109831142Y-123618476D01*
X109878761Y-123570857D01*
X109926380Y-123475619D01*
X109926380Y-123285142D01*
X109878761Y-123189904D01*
X109831142Y-123142285D01*
X109735904Y-123094666D01*
X108926380Y-123094666D01*
X109926380Y-122094666D02*
X109926380Y-122666095D01*
X109926380Y-122380380D02*
X108926380Y-122380380D01*
X109069238Y-122475619D01*
X109164476Y-122570857D01*
X109212095Y-122666095D01*
X108926380Y-121761333D02*
X108926380Y-121142285D01*
X109307333Y-121475619D01*
X109307333Y-121332761D01*
X109354952Y-121237523D01*
X109402571Y-121189904D01*
X109497809Y-121142285D01*
X109735904Y-121142285D01*
X109831142Y-121189904D01*
X109878761Y-121237523D01*
X109926380Y-121332761D01*
X109926380Y-121618476D01*
X109878761Y-121713714D01*
X109831142Y-121761333D01*
%TO.C,U14*%
X139406380Y-62706095D02*
X140215904Y-62706095D01*
X140311142Y-62658476D01*
X140358761Y-62610857D01*
X140406380Y-62515619D01*
X140406380Y-62325142D01*
X140358761Y-62229904D01*
X140311142Y-62182285D01*
X140215904Y-62134666D01*
X139406380Y-62134666D01*
X140406380Y-61134666D02*
X140406380Y-61706095D01*
X140406380Y-61420380D02*
X139406380Y-61420380D01*
X139549238Y-61515619D01*
X139644476Y-61610857D01*
X139692095Y-61706095D01*
X139739714Y-60277523D02*
X140406380Y-60277523D01*
X139358761Y-60515619D02*
X140073047Y-60753714D01*
X140073047Y-60134666D01*
%TO.C,U6*%
X155916380Y-123189904D02*
X156725904Y-123189904D01*
X156821142Y-123142285D01*
X156868761Y-123094666D01*
X156916380Y-122999428D01*
X156916380Y-122808952D01*
X156868761Y-122713714D01*
X156821142Y-122666095D01*
X156725904Y-122618476D01*
X155916380Y-122618476D01*
X155916380Y-121713714D02*
X155916380Y-121904190D01*
X155964000Y-121999428D01*
X156011619Y-122047047D01*
X156154476Y-122142285D01*
X156344952Y-122189904D01*
X156725904Y-122189904D01*
X156821142Y-122142285D01*
X156868761Y-122094666D01*
X156916380Y-121999428D01*
X156916380Y-121808952D01*
X156868761Y-121713714D01*
X156821142Y-121666095D01*
X156725904Y-121618476D01*
X156487809Y-121618476D01*
X156392571Y-121666095D01*
X156344952Y-121713714D01*
X156297333Y-121808952D01*
X156297333Y-121999428D01*
X156344952Y-122094666D01*
X156392571Y-122142285D01*
X156487809Y-122189904D01*
%TO.C,U7*%
X140208095Y-49236380D02*
X140208095Y-50045904D01*
X140255714Y-50141142D01*
X140303333Y-50188761D01*
X140398571Y-50236380D01*
X140589047Y-50236380D01*
X140684285Y-50188761D01*
X140731904Y-50141142D01*
X140779523Y-50045904D01*
X140779523Y-49236380D01*
X141160476Y-49236380D02*
X141827142Y-49236380D01*
X141398571Y-50236380D01*
%TO.C,U12*%
X155916380Y-62706095D02*
X156725904Y-62706095D01*
X156821142Y-62658476D01*
X156868761Y-62610857D01*
X156916380Y-62515619D01*
X156916380Y-62325142D01*
X156868761Y-62229904D01*
X156821142Y-62182285D01*
X156725904Y-62134666D01*
X155916380Y-62134666D01*
X156916380Y-61134666D02*
X156916380Y-61706095D01*
X156916380Y-61420380D02*
X155916380Y-61420380D01*
X156059238Y-61515619D01*
X156154476Y-61610857D01*
X156202095Y-61706095D01*
X156011619Y-60753714D02*
X155964000Y-60706095D01*
X155916380Y-60610857D01*
X155916380Y-60372761D01*
X155964000Y-60277523D01*
X156011619Y-60229904D01*
X156106857Y-60182285D01*
X156202095Y-60182285D01*
X156344952Y-60229904D01*
X156916380Y-60801333D01*
X156916380Y-60182285D01*
%TO.C,U17*%
X155916380Y-103346095D02*
X156725904Y-103346095D01*
X156821142Y-103298476D01*
X156868761Y-103250857D01*
X156916380Y-103155619D01*
X156916380Y-102965142D01*
X156868761Y-102869904D01*
X156821142Y-102822285D01*
X156725904Y-102774666D01*
X155916380Y-102774666D01*
X156916380Y-101774666D02*
X156916380Y-102346095D01*
X156916380Y-102060380D02*
X155916380Y-102060380D01*
X156059238Y-102155619D01*
X156154476Y-102250857D01*
X156202095Y-102346095D01*
X155916380Y-101441333D02*
X155916380Y-100774666D01*
X156916380Y-101203238D01*
%TO.C,U18*%
X155916380Y-83026095D02*
X156725904Y-83026095D01*
X156821142Y-82978476D01*
X156868761Y-82930857D01*
X156916380Y-82835619D01*
X156916380Y-82645142D01*
X156868761Y-82549904D01*
X156821142Y-82502285D01*
X156725904Y-82454666D01*
X155916380Y-82454666D01*
X156916380Y-81454666D02*
X156916380Y-82026095D01*
X156916380Y-81740380D02*
X155916380Y-81740380D01*
X156059238Y-81835619D01*
X156154476Y-81930857D01*
X156202095Y-82026095D01*
X156344952Y-80883238D02*
X156297333Y-80978476D01*
X156249714Y-81026095D01*
X156154476Y-81073714D01*
X156106857Y-81073714D01*
X156011619Y-81026095D01*
X155964000Y-80978476D01*
X155916380Y-80883238D01*
X155916380Y-80692761D01*
X155964000Y-80597523D01*
X156011619Y-80549904D01*
X156106857Y-80502285D01*
X156154476Y-80502285D01*
X156249714Y-80549904D01*
X156297333Y-80597523D01*
X156344952Y-80692761D01*
X156344952Y-80883238D01*
X156392571Y-80978476D01*
X156440190Y-81026095D01*
X156535428Y-81073714D01*
X156725904Y-81073714D01*
X156821142Y-81026095D01*
X156868761Y-80978476D01*
X156916380Y-80883238D01*
X156916380Y-80692761D01*
X156868761Y-80597523D01*
X156821142Y-80549904D01*
X156725904Y-80502285D01*
X156535428Y-80502285D01*
X156440190Y-80549904D01*
X156392571Y-80597523D01*
X156344952Y-80692761D01*
%TD*%
M02*
