M48
; DRILL file {KiCad (5.1.10)-1} date 07/09/21 21:46:25
; FORMAT={-:-/ absolute / inch / decimal}
; #@! TF.CreationDate,2021-07-09T21:46:25-04:00
; #@! TF.GenerationSoftware,Kicad,Pcbnew,(5.1.10)-1
FMAT,2
INCH
T1C0.0157
T2C0.0300
T3C0.0315
T4C0.0354
T5C0.0370
T6C0.0433
T7C0.0472
T8C0.1378
%
G90
G05
T1
X3.1Y-3.0785
X3.1Y-4.025
X3.125Y-2.225
X3.1827Y-2.4173
X3.4Y-2.2
X3.425Y-3.175
X3.6Y-3.475
X3.75Y-4.0535
X3.85Y-2.8
X3.9Y-2.625
X4.325Y-2.65
X4.6743Y-3.4993
X4.75Y-3.975
X5.0Y-3.425
X5.0Y-4.225
X5.075Y-4.2
X5.1Y-3.425
X5.15Y-3.5
X5.225Y-2.65
X5.425Y-3.425
X5.5Y-2.375
X5.7Y-2.1813
X5.775Y-2.45
X5.85Y-2.25
X6.5499Y-2.1751
X6.725Y-2.2
X7.7Y-2.2
X7.875Y-2.25
T2
X2.9593Y-4.4975
X2.9593Y-4.5975
X2.9593Y-4.6975
X2.9593Y-4.7975
X2.9593Y-4.8975
X2.9593Y-4.9975
X2.9593Y-5.0975
X2.9593Y-5.1975
X2.9593Y-5.2975
X2.9593Y-5.3975
X3.4633Y-4.4975
X3.4633Y-4.5975
X3.4633Y-4.6975
X3.4633Y-4.7975
X3.4633Y-4.8975
X3.4633Y-4.9975
X3.4633Y-5.0975
X3.4633Y-5.1975
X3.4633Y-5.2975
X3.4633Y-5.3975
X3.8746Y-5.15
X3.875Y-4.75
X3.875Y-4.85
X3.875Y-4.95
X3.875Y-5.05
X4.975Y-4.75
X4.975Y-4.85
X4.975Y-4.95
X4.975Y-5.05
X4.975Y-5.15
X5.3Y-2.11
X5.4Y-2.11
X5.5Y-2.11
X5.6Y-2.11
X5.7Y-2.11
X5.8Y-2.11
X5.9Y-2.11
X6.0Y-2.11
X6.1Y-2.11
X6.2246Y-5.15
X6.225Y-4.75
X6.225Y-4.85
X6.225Y-4.95
X6.225Y-5.05
X6.325Y-2.11
X6.425Y-2.11
X6.525Y-2.11
X6.625Y-2.11
X6.725Y-2.11
X6.825Y-2.11
X6.925Y-2.11
X7.025Y-2.11
X7.125Y-2.11
X7.325Y-4.75
X7.325Y-4.85
X7.325Y-4.95
X7.325Y-5.05
X7.325Y-5.15
X7.35Y-2.11
X7.45Y-2.11
X7.5246Y-5.15
X7.525Y-4.75
X7.525Y-4.85
X7.525Y-4.95
X7.525Y-5.05
X7.55Y-2.11
X7.65Y-2.11
X7.75Y-2.11
X7.85Y-2.11
X7.95Y-2.11
X8.05Y-2.11
X8.15Y-2.11
X8.375Y-2.11
X8.475Y-2.11
X8.575Y-2.11
X8.625Y-4.75
X8.625Y-4.85
X8.625Y-4.95
X8.625Y-5.05
X8.625Y-5.15
X8.675Y-2.11
X8.775Y-2.11
X8.875Y-2.11
X8.975Y-2.11
X9.075Y-2.11
X9.175Y-2.11
T3
X2.175Y-2.75
X2.175Y-2.85
X2.175Y-2.95
X2.175Y-3.05
X2.175Y-3.625
X2.175Y-3.725
X2.175Y-3.825
X2.175Y-3.925
X2.2Y-1.525
X2.2Y-1.625
X2.2Y-1.725
X2.2Y-1.825
X2.2Y-1.925
X2.2Y-2.025
X2.2Y-2.125
X2.2Y-2.225
X2.2Y-2.325
X2.246Y-3.3
X2.246Y-4.2
X2.325Y-3.3
X2.325Y-4.2
X2.404Y-3.3
X2.404Y-4.2
X2.475Y-2.75
X2.475Y-2.85
X2.475Y-2.95
X2.475Y-3.05
X2.475Y-3.625
X2.475Y-3.725
X2.475Y-3.825
X2.475Y-3.925
X2.5Y-1.525
X2.5Y-1.625
X2.5Y-1.725
X2.5Y-1.825
X2.5Y-1.925
X2.5Y-2.025
X2.5Y-2.125
X2.5Y-2.225
X2.5Y-2.325
X2.675Y-2.75
X2.675Y-2.85
X2.675Y-2.95
X2.675Y-3.05
X2.675Y-3.625
X2.675Y-3.725
X2.675Y-3.825
X2.675Y-3.925
X2.746Y-3.325
X2.746Y-4.2
X2.75Y-1.525
X2.75Y-1.625
X2.75Y-1.725
X2.75Y-1.825
X2.75Y-1.925
X2.75Y-2.025
X2.75Y-2.125
X2.75Y-2.225
X2.75Y-2.325
X2.825Y-3.325
X2.825Y-4.2
X2.904Y-3.325
X2.904Y-4.2
X2.975Y-2.75
X2.975Y-2.85
X2.975Y-2.95
X2.975Y-3.05
X2.975Y-3.625
X2.975Y-3.725
X2.975Y-3.825
X2.975Y-3.925
X3.05Y-1.525
X3.05Y-1.625
X3.05Y-1.725
X3.05Y-1.825
X3.05Y-1.925
X3.05Y-2.025
X3.05Y-2.125
X3.05Y-2.225
X3.05Y-2.325
X3.175Y-2.75
X3.175Y-2.85
X3.175Y-2.95
X3.175Y-3.05
X3.175Y-3.625
X3.175Y-3.725
X3.175Y-3.825
X3.175Y-3.925
X3.246Y-3.325
X3.246Y-4.2
X3.3Y-1.525
X3.3Y-1.625
X3.3Y-1.725
X3.3Y-1.825
X3.3Y-1.925
X3.3Y-2.025
X3.3Y-2.125
X3.3Y-2.225
X3.3Y-2.325
X3.325Y-3.325
X3.325Y-4.2
X3.404Y-3.325
X3.404Y-4.2
X3.475Y-2.75
X3.475Y-2.85
X3.475Y-2.95
X3.475Y-3.05
X3.475Y-3.625
X3.475Y-3.725
X3.475Y-3.825
X3.475Y-3.925
X3.6Y-1.525
X3.6Y-1.625
X3.6Y-1.725
X3.6Y-1.825
X3.6Y-1.925
X3.6Y-2.025
X3.6Y-2.125
X3.6Y-2.225
X3.6Y-2.325
X3.675Y-2.75
X3.675Y-2.85
X3.675Y-2.95
X3.675Y-3.05
X3.675Y-3.625
X3.675Y-3.725
X3.675Y-3.825
X3.675Y-3.925
X3.746Y-3.325
X3.746Y-4.2
X3.825Y-3.325
X3.825Y-4.2
X3.875Y-1.9
X3.875Y-2.15
X3.904Y-3.325
X3.904Y-4.2
X3.975Y-2.75
X3.975Y-2.85
X3.975Y-2.95
X3.975Y-3.05
X3.975Y-3.625
X3.975Y-3.725
X3.975Y-3.825
X3.975Y-3.925
X4.175Y-2.75
X4.175Y-2.85
X4.175Y-2.95
X4.175Y-3.05
X4.175Y-3.625
X4.175Y-3.725
X4.175Y-3.825
X4.175Y-3.925
X4.246Y-3.325
X4.246Y-4.2
X4.325Y-3.325
X4.325Y-4.2
X4.375Y-1.9
X4.375Y-2.15
X4.404Y-3.325
X4.404Y-4.2
X4.475Y-2.75
X4.475Y-2.85
X4.475Y-2.95
X4.475Y-3.05
X4.475Y-3.625
X4.475Y-3.725
X4.475Y-3.825
X4.475Y-3.925
X4.575Y-1.9
X4.575Y-2.15
X4.575Y-2.4
X4.675Y-2.75
X4.675Y-2.85
X4.675Y-2.95
X4.675Y-3.05
X4.675Y-3.625
X4.675Y-3.725
X4.675Y-3.825
X4.675Y-3.925
X4.746Y-3.325
X4.746Y-4.2
X4.825Y-3.325
X4.825Y-4.2
X4.904Y-3.325
X4.904Y-4.2
X4.975Y-2.75
X4.975Y-2.85
X4.975Y-2.95
X4.975Y-3.05
X4.975Y-3.625
X4.975Y-3.725
X4.975Y-3.825
X4.975Y-3.925
X5.075Y-1.9
X5.075Y-2.15
X5.075Y-2.4
X6.275Y-2.375
X6.275Y-2.875
X6.275Y-3.375
X6.275Y-3.875
X6.321Y-3.1
X6.321Y-4.1
X6.4Y-3.1
X6.4Y-4.1
X6.479Y-3.1
X6.479Y-4.1
X6.525Y-2.375
X6.525Y-2.875
X6.525Y-3.375
X6.525Y-3.875
X6.8Y-2.375
X6.8Y-2.875
X6.8Y-3.375
X6.8Y-3.875
X6.846Y-3.1
X6.846Y-4.1
X6.925Y-3.1
X6.925Y-4.1
X7.004Y-3.1
X7.004Y-4.1
X7.05Y-2.375
X7.05Y-2.875
X7.05Y-3.375
X7.05Y-3.875
X7.325Y-2.375
X7.325Y-2.875
X7.325Y-3.375
X7.325Y-3.875
X7.371Y-3.1
X7.371Y-4.1
X7.45Y-3.1
X7.45Y-4.1
X7.529Y-3.1
X7.529Y-4.1
X7.575Y-2.375
X7.575Y-2.875
X7.575Y-3.375
X7.575Y-3.875
X7.85Y-2.375
X7.85Y-2.875
X7.85Y-3.375
X7.85Y-3.875
X7.896Y-3.1
X7.896Y-4.1
X7.975Y-3.1
X7.975Y-4.1
X8.054Y-3.1
X8.054Y-4.1
X8.1Y-2.375
X8.1Y-2.875
X8.1Y-3.375
X8.1Y-3.875
X8.375Y-2.375
X8.375Y-2.875
X8.375Y-3.375
X8.375Y-3.875
X8.421Y-3.1
X8.421Y-4.1
X8.5Y-3.1
X8.5Y-4.1
X8.579Y-3.1
X8.579Y-4.1
X8.625Y-2.375
X8.625Y-2.875
X8.625Y-3.375
X8.625Y-3.875
X8.867Y-4.525
X8.867Y-4.9
X8.867Y-5.275
X8.9Y-2.375
X8.9Y-2.875
X8.9Y-3.375
X8.9Y-3.875
X8.946Y-3.1
X8.946Y-4.1
X8.946Y-4.525
X8.946Y-4.9
X8.946Y-5.275
X9.025Y-3.1
X9.025Y-4.1
X9.025Y-4.525
X9.025Y-4.9
X9.025Y-5.275
X9.104Y-3.1
X9.104Y-4.1
X9.104Y-4.525
X9.104Y-4.9
X9.104Y-5.275
X9.15Y-2.375
X9.15Y-2.875
X9.15Y-3.375
X9.15Y-3.875
X9.183Y-4.525
X9.183Y-4.9
X9.183Y-5.275
T4
X3.925Y-2.45
X4.025Y-2.45
X4.3Y-2.45
X4.4Y-2.45
T5
X5.3Y-2.4
X5.3Y-2.5
X5.3Y-2.6
X5.3Y-2.7
X5.3Y-2.8
X5.3Y-2.9
X5.3Y-3.0
X5.3Y-3.1
X5.3Y-3.2
X5.3Y-3.3
X5.3Y-3.4
X5.3Y-3.5
X5.3Y-3.6
X5.3Y-3.7
X5.3Y-3.8
X5.3Y-3.9
X5.3Y-4.0
X5.3Y-4.1
X5.3Y-4.2
X5.3Y-4.3
X5.3Y-4.4
X5.3Y-4.5
X5.3Y-4.6
X5.3Y-4.7
X5.9Y-2.4
X5.9Y-2.5
X5.9Y-2.6
X5.9Y-2.7
X5.9Y-2.8
X5.9Y-2.9
X5.9Y-3.0
X5.9Y-3.1
X5.9Y-3.2
X5.9Y-3.3
X5.9Y-3.4
X5.9Y-3.5
X5.9Y-3.6
X5.9Y-3.7
X5.9Y-3.8
X5.9Y-3.9
X5.9Y-4.0
X5.9Y-4.1
X5.9Y-4.2
X5.9Y-4.3
X5.9Y-4.4
X5.9Y-4.5
X5.9Y-4.6
X5.9Y-4.7
T6
X5.975Y-5.1
X5.975Y-5.2
X5.975Y-5.3
T7
X3.9Y-1.55
X4.1Y-1.55
X4.3Y-1.55
X4.625Y-1.55
X4.825Y-1.55
X5.025Y-1.55
T8
X5.3191Y-5.2
T0
M30
