%TF.GenerationSoftware,KiCad,Pcbnew,(5.1.10)-1*%
%TF.CreationDate,2021-12-21T23:50:08-05:00*%
%TF.ProjectId,CaelusPCB,4361656c-7573-4504-9342-2e6b69636164,rev?*%
%TF.SameCoordinates,Original*%
%TF.FileFunction,Profile,NP*%
%FSLAX46Y46*%
G04 Gerber Fmt 4.6, Leading zero omitted, Abs format (unit mm)*
G04 Created by KiCad (PCBNEW (5.1.10)-1) date 2021-12-21 23:50:08*
%MOMM*%
%LPD*%
G01*
G04 APERTURE LIST*
%TA.AperFunction,Profile*%
%ADD10C,0.050000*%
%TD*%
G04 APERTURE END LIST*
D10*
X286454200Y-256839000D02*
G75*
G03*
X286454200Y-256839000I-2500000J0D01*
G01*
X66490200Y-256839000D02*
G75*
G03*
X66490200Y-256839000I-2500000J0D01*
G01*
X105156000Y-83180000D02*
X75250000Y-83180000D01*
X260310000Y-88945000D02*
G75*
G03*
X260310000Y-88945000I-2500000J0D01*
G01*
X176523000Y-88945000D02*
G75*
G03*
X176523000Y-88945000I-2500000J0D01*
G01*
X92670000Y-88945000D02*
G75*
G03*
X92670000Y-88945000I-2500000J0D01*
G01*
X159136000Y-83180000D02*
X188910000Y-83180000D01*
X159136000Y-83180000D02*
X159136000Y-92710000D01*
X188910000Y-92710000D02*
X188910000Y-83180000D01*
X242890000Y-92710000D02*
X188910000Y-92710000D01*
X242890000Y-92710000D02*
X242890000Y-83180000D01*
X242890000Y-83180000D02*
X272730000Y-83180000D01*
X272730000Y-83180000D02*
X272730000Y-92710000D01*
X105156000Y-83180000D02*
X105156000Y-92710000D01*
X75250000Y-92710000D02*
X75250000Y-83180000D01*
X159136000Y-92710000D02*
X105156000Y-92710000D01*
X297815000Y-92710000D02*
X272730000Y-92710000D01*
X75250000Y-92710000D02*
X50165000Y-92710000D01*
X50165000Y-250190000D02*
X50165000Y-92710000D01*
X297815000Y-261620000D02*
X297815000Y-250190000D01*
X269240000Y-261620000D02*
X297815000Y-261620000D01*
X269240000Y-252095000D02*
X269240000Y-261620000D01*
X78735000Y-252095000D02*
X269240000Y-252095000D01*
X78735000Y-261620000D02*
X78735000Y-252095000D01*
X50165000Y-261620000D02*
X78735000Y-261620000D01*
X50165000Y-259715000D02*
X50165000Y-261620000D01*
X50165000Y-259715000D02*
X50165000Y-250190000D01*
X297815000Y-92710000D02*
X297815000Y-250190000D01*
M02*
