%TF.GenerationSoftware,KiCad,Pcbnew,(5.1.10)-1*%
%TF.CreationDate,2021-12-21T23:50:08-05:00*%
%TF.ProjectId,CaelusPCB,4361656c-7573-4504-9342-2e6b69636164,rev?*%
%TF.SameCoordinates,Original*%
%TF.FileFunction,Soldermask,Bot*%
%TF.FilePolarity,Negative*%
%FSLAX46Y46*%
G04 Gerber Fmt 4.6, Leading zero omitted, Abs format (unit mm)*
G04 Created by KiCad (PCBNEW (5.1.10)-1) date 2021-12-21 23:50:08*
%MOMM*%
%LPD*%
G01*
G04 APERTURE LIST*
%ADD10O,2.000000X2.000000*%
%ADD11C,1.924000*%
%ADD12C,2.000000*%
%ADD13C,1.720800*%
%ADD14C,1.543000*%
%ADD15O,5.899999X8.399999*%
%ADD16C,2.200000*%
%ADD17C,1.708000*%
%ADD18C,5.916000*%
%ADD19O,3.900000X3.900000*%
%ADD20O,2.305000X2.400000*%
G04 APERTURE END LIST*
D10*
%TO.C,U50*%
X57404000Y-118331000D03*
X77724000Y-125951000D03*
X59944000Y-118331000D03*
X75184000Y-125951000D03*
X62484000Y-118331000D03*
X72644000Y-125951000D03*
X65024000Y-118331000D03*
X70104000Y-125951000D03*
X67564000Y-118331000D03*
X67564000Y-125951000D03*
X70104000Y-118331000D03*
X65024000Y-125951000D03*
X72644000Y-118331000D03*
X62484000Y-125951000D03*
X75184000Y-118331000D03*
X59944000Y-125951000D03*
X77724000Y-118331000D03*
G36*
G01*
X58204000Y-126951000D02*
X56604000Y-126951000D01*
G75*
G02*
X56404000Y-126751000I0J200000D01*
G01*
X56404000Y-125151000D01*
G75*
G02*
X56604000Y-124951000I200000J0D01*
G01*
X58204000Y-124951000D01*
G75*
G02*
X58404000Y-125151000I0J-200000D01*
G01*
X58404000Y-126751000D01*
G75*
G02*
X58204000Y-126951000I-200000J0D01*
G01*
G37*
%TD*%
D11*
%TO.C,U4*%
X258950000Y-201930000D03*
X225625000Y-243840000D03*
X220625000Y-243840000D03*
X210125000Y-243840000D03*
X215625000Y-243840000D03*
X230625000Y-243840000D03*
X195125000Y-243840000D03*
X200125000Y-243840000D03*
X205125000Y-243840000D03*
X212450000Y-201930000D03*
X217950000Y-201930000D03*
X222950000Y-201930000D03*
X227950000Y-201930000D03*
X233450000Y-201930000D03*
X238450000Y-201930000D03*
X243450000Y-201930000D03*
X248950000Y-201930000D03*
X253950000Y-201930000D03*
X207450000Y-201930000D03*
X202450000Y-201930000D03*
X196950000Y-201930000D03*
X191950000Y-201930000D03*
X187450000Y-201930000D03*
X181610000Y-201930000D03*
X176450000Y-201930000D03*
X171450000Y-201930000D03*
%TD*%
%TO.C,J27*%
X92090000Y-190130000D03*
X90090000Y-190130000D03*
X88090000Y-190130000D03*
%TD*%
%TO.C,J26*%
X92090000Y-178700000D03*
X90090000Y-178700000D03*
X88090000Y-178700000D03*
%TD*%
%TO.C,J25*%
X92090000Y-167270000D03*
X90090000Y-167270000D03*
X88090000Y-167270000D03*
%TD*%
%TO.C,J24*%
X92090000Y-155840000D03*
X90090000Y-155840000D03*
X88090000Y-155840000D03*
%TD*%
%TO.C,J23*%
X91940000Y-144410000D03*
X89940000Y-144410000D03*
X87940000Y-144410000D03*
%TD*%
%TO.C,J22*%
X92090000Y-132980000D03*
X90090000Y-132980000D03*
X88090000Y-132980000D03*
%TD*%
%TO.C,J21*%
X260827000Y-190400000D03*
X258827000Y-190400000D03*
X256827000Y-190400000D03*
%TD*%
%TO.C,J20*%
X260827000Y-178970000D03*
X258827000Y-178970000D03*
X256827000Y-178970000D03*
%TD*%
%TO.C,J19*%
X260677000Y-167540000D03*
X258677000Y-167540000D03*
X256677000Y-167540000D03*
%TD*%
%TO.C,J18*%
X260677000Y-156110000D03*
X258677000Y-156110000D03*
X256677000Y-156110000D03*
%TD*%
%TO.C,J17*%
X260677000Y-144680000D03*
X258677000Y-144680000D03*
X256677000Y-144680000D03*
%TD*%
%TO.C,J16*%
X260677000Y-133250000D03*
X258677000Y-133250000D03*
X256677000Y-133250000D03*
%TD*%
%TO.C,U34*%
G36*
G01*
X58204000Y-142191000D02*
X56604000Y-142191000D01*
G75*
G02*
X56404000Y-141991000I0J200000D01*
G01*
X56404000Y-140391000D01*
G75*
G02*
X56604000Y-140191000I200000J0D01*
G01*
X58204000Y-140191000D01*
G75*
G02*
X58404000Y-140391000I0J-200000D01*
G01*
X58404000Y-141991000D01*
G75*
G02*
X58204000Y-142191000I-200000J0D01*
G01*
G37*
D10*
X77724000Y-133571000D03*
X59944000Y-141191000D03*
X75184000Y-133571000D03*
X62484000Y-141191000D03*
X72644000Y-133571000D03*
X65024000Y-141191000D03*
X70104000Y-133571000D03*
X67564000Y-141191000D03*
X67564000Y-133571000D03*
X70104000Y-141191000D03*
X65024000Y-133571000D03*
X72644000Y-141191000D03*
X62484000Y-133571000D03*
X75184000Y-141191000D03*
X59944000Y-133571000D03*
X77724000Y-141191000D03*
X57404000Y-133571000D03*
%TD*%
D12*
%TO.C,R1*%
X59995001Y-193304999D03*
D10*
X59995001Y-180604999D03*
%TD*%
D13*
%TO.C,U23*%
X168910000Y-191770000D03*
X168910000Y-189230000D03*
X168910000Y-186690000D03*
X168910000Y-184150000D03*
X168910000Y-181610000D03*
X168910000Y-179070000D03*
X168910000Y-176530000D03*
X168910000Y-173990000D03*
X168910000Y-171450000D03*
X168910000Y-168910000D03*
X168910000Y-166370000D03*
X168910000Y-163830000D03*
X168910000Y-161290000D03*
X168910000Y-158750000D03*
X168910000Y-156210000D03*
X168910000Y-153670000D03*
X168910000Y-151130000D03*
X168910000Y-148590000D03*
X168910000Y-146050000D03*
X168910000Y-143510000D03*
X168910000Y-140970000D03*
X168910000Y-138430000D03*
X168910000Y-135890000D03*
X168910000Y-133350000D03*
X184150000Y-191770000D03*
X184150000Y-189230000D03*
X184150000Y-186690000D03*
X184150000Y-184150000D03*
X184150000Y-181610000D03*
X184150000Y-179070000D03*
X184150000Y-176530000D03*
X184150000Y-173990000D03*
X184150000Y-171450000D03*
X184150000Y-168910000D03*
X184150000Y-166370000D03*
X184150000Y-163830000D03*
X184150000Y-161290000D03*
X184150000Y-158750000D03*
X184150000Y-156210000D03*
X184150000Y-153670000D03*
X184150000Y-151130000D03*
X184150000Y-148590000D03*
X184150000Y-146050000D03*
X184150000Y-143510000D03*
X184150000Y-140970000D03*
X184150000Y-138430000D03*
X184150000Y-135890000D03*
X184150000Y-133350000D03*
%TD*%
%TO.C,Ayo1*%
G36*
G01*
X103837700Y-122534300D02*
X103837700Y-121391300D01*
G75*
G02*
X104037700Y-121191300I200000J0D01*
G01*
X105180700Y-121191300D01*
G75*
G02*
X105380700Y-121391300I0J-200000D01*
G01*
X105380700Y-122534300D01*
G75*
G02*
X105180700Y-122734300I-200000J0D01*
G01*
X104037700Y-122734300D01*
G75*
G02*
X103837700Y-122534300I0J200000D01*
G01*
G37*
D14*
X102069200Y-121962800D03*
X99529200Y-121962800D03*
X96989200Y-121962800D03*
X94449200Y-121962800D03*
X91909200Y-121962800D03*
X89369200Y-121962800D03*
X86829200Y-121962800D03*
%TD*%
D15*
%TO.C,BT1*%
X282790000Y-243840000D03*
X275590000Y-243840000D03*
%TD*%
%TO.C,D1*%
G36*
G01*
X74054999Y-171204999D02*
X75854999Y-171204999D01*
G75*
G02*
X76054999Y-171404999I0J-200000D01*
G01*
X76054999Y-173204999D01*
G75*
G02*
X75854999Y-173404999I-200000J0D01*
G01*
X74054999Y-173404999D01*
G75*
G02*
X73854999Y-173204999I0J200000D01*
G01*
X73854999Y-171404999D01*
G75*
G02*
X74054999Y-171204999I200000J0D01*
G01*
G37*
D16*
X74954999Y-174844999D03*
%TD*%
%TO.C,D2*%
X74954999Y-164150000D03*
G36*
G01*
X74054999Y-160510000D02*
X75854999Y-160510000D01*
G75*
G02*
X76054999Y-160710000I0J-200000D01*
G01*
X76054999Y-162510000D01*
G75*
G02*
X75854999Y-162710000I-200000J0D01*
G01*
X74054999Y-162710000D01*
G75*
G02*
X73854999Y-162510000I0J200000D01*
G01*
X73854999Y-160710000D01*
G75*
G02*
X74054999Y-160510000I200000J0D01*
G01*
G37*
%TD*%
D17*
%TO.C,J1*%
X68580000Y-103234000D03*
X68580000Y-105240000D03*
X68580000Y-107247000D03*
X68580000Y-109254000D03*
G36*
G01*
X67926000Y-110406000D02*
X69234000Y-110406000D01*
G75*
G02*
X69434000Y-110606000I0J-200000D01*
G01*
X69434000Y-111914000D01*
G75*
G02*
X69234000Y-112114000I-200000J0D01*
G01*
X67926000Y-112114000D01*
G75*
G02*
X67726000Y-111914000I0J200000D01*
G01*
X67726000Y-110606000D01*
G75*
G02*
X67926000Y-110406000I200000J0D01*
G01*
G37*
%TD*%
%TO.C,J2*%
X77406500Y-103238500D03*
X77406500Y-105244500D03*
X77406500Y-107251500D03*
X77406500Y-109258500D03*
G36*
G01*
X76752500Y-110410500D02*
X78060500Y-110410500D01*
G75*
G02*
X78260500Y-110610500I0J-200000D01*
G01*
X78260500Y-111918500D01*
G75*
G02*
X78060500Y-112118500I-200000J0D01*
G01*
X76752500Y-112118500D01*
G75*
G02*
X76552500Y-111918500I0J200000D01*
G01*
X76552500Y-110610500D01*
G75*
G02*
X76752500Y-110410500I200000J0D01*
G01*
G37*
%TD*%
%TO.C,J3*%
G36*
G01*
X58591500Y-110410500D02*
X59899500Y-110410500D01*
G75*
G02*
X60099500Y-110610500I0J-200000D01*
G01*
X60099500Y-111918500D01*
G75*
G02*
X59899500Y-112118500I-200000J0D01*
G01*
X58591500Y-112118500D01*
G75*
G02*
X58391500Y-111918500I0J200000D01*
G01*
X58391500Y-110610500D01*
G75*
G02*
X58591500Y-110410500I200000J0D01*
G01*
G37*
X59245500Y-109258500D03*
X59245500Y-107251500D03*
X59245500Y-105244500D03*
X59245500Y-103238500D03*
%TD*%
D18*
%TO.C,J4*%
X126988000Y-175524500D03*
G36*
G01*
X137146000Y-172766500D02*
X137146000Y-178282500D01*
G75*
G02*
X136946000Y-178482500I-200000J0D01*
G01*
X131430000Y-178482500D01*
G75*
G02*
X131230000Y-178282500I0J200000D01*
G01*
X131230000Y-172766500D01*
G75*
G02*
X131430000Y-172566500I200000J0D01*
G01*
X136946000Y-172566500D01*
G75*
G02*
X137146000Y-172766500I0J-200000D01*
G01*
G37*
%TD*%
%TO.C,J5*%
G36*
G01*
X137019000Y-185022000D02*
X137019000Y-190538000D01*
G75*
G02*
X136819000Y-190738000I-200000J0D01*
G01*
X131303000Y-190738000D01*
G75*
G02*
X131103000Y-190538000I0J200000D01*
G01*
X131103000Y-185022000D01*
G75*
G02*
X131303000Y-184822000I200000J0D01*
G01*
X136819000Y-184822000D01*
G75*
G02*
X137019000Y-185022000I0J-200000D01*
G01*
G37*
X126861000Y-187780000D03*
%TD*%
%TO.C,J6*%
G36*
G01*
X157006000Y-172766500D02*
X157006000Y-178282500D01*
G75*
G02*
X156806000Y-178482500I-200000J0D01*
G01*
X151290000Y-178482500D01*
G75*
G02*
X151090000Y-178282500I0J200000D01*
G01*
X151090000Y-172766500D01*
G75*
G02*
X151290000Y-172566500I200000J0D01*
G01*
X156806000Y-172566500D01*
G75*
G02*
X157006000Y-172766500I0J-200000D01*
G01*
G37*
X146848000Y-175524500D03*
%TD*%
%TO.C,J7*%
X146931000Y-187780000D03*
G36*
G01*
X157089000Y-185022000D02*
X157089000Y-190538000D01*
G75*
G02*
X156889000Y-190738000I-200000J0D01*
G01*
X151373000Y-190738000D01*
G75*
G02*
X151173000Y-190538000I0J200000D01*
G01*
X151173000Y-185022000D01*
G75*
G02*
X151373000Y-184822000I200000J0D01*
G01*
X156889000Y-184822000D01*
G75*
G02*
X157089000Y-185022000I0J-200000D01*
G01*
G37*
%TD*%
%TO.C,J8*%
G36*
G01*
X157006000Y-161019000D02*
X157006000Y-166535000D01*
G75*
G02*
X156806000Y-166735000I-200000J0D01*
G01*
X151290000Y-166735000D01*
G75*
G02*
X151090000Y-166535000I0J200000D01*
G01*
X151090000Y-161019000D01*
G75*
G02*
X151290000Y-160819000I200000J0D01*
G01*
X156806000Y-160819000D01*
G75*
G02*
X157006000Y-161019000I0J-200000D01*
G01*
G37*
X146848000Y-163777000D03*
%TD*%
%TO.C,J9*%
X225354000Y-163761000D03*
G36*
G01*
X215196000Y-166519000D02*
X215196000Y-161003000D01*
G75*
G02*
X215396000Y-160803000I200000J0D01*
G01*
X220912000Y-160803000D01*
G75*
G02*
X221112000Y-161003000I0J-200000D01*
G01*
X221112000Y-166519000D01*
G75*
G02*
X220912000Y-166719000I-200000J0D01*
G01*
X215396000Y-166719000D01*
G75*
G02*
X215196000Y-166519000I0J200000D01*
G01*
G37*
%TD*%
%TO.C,J10*%
G36*
G01*
X215152000Y-190268000D02*
X215152000Y-184752000D01*
G75*
G02*
X215352000Y-184552000I200000J0D01*
G01*
X220868000Y-184552000D01*
G75*
G02*
X221068000Y-184752000I0J-200000D01*
G01*
X221068000Y-190268000D01*
G75*
G02*
X220868000Y-190468000I-200000J0D01*
G01*
X215352000Y-190468000D01*
G75*
G02*
X215152000Y-190268000I0J200000D01*
G01*
G37*
X225310000Y-187510000D03*
%TD*%
%TO.C,J11*%
X204513500Y-175508500D03*
G36*
G01*
X194355500Y-178266500D02*
X194355500Y-172750500D01*
G75*
G02*
X194555500Y-172550500I200000J0D01*
G01*
X200071500Y-172550500D01*
G75*
G02*
X200271500Y-172750500I0J-200000D01*
G01*
X200271500Y-178266500D01*
G75*
G02*
X200071500Y-178466500I-200000J0D01*
G01*
X194555500Y-178466500D01*
G75*
G02*
X194355500Y-178266500I0J200000D01*
G01*
G37*
%TD*%
%TO.C,J12*%
G36*
G01*
X194292000Y-190268000D02*
X194292000Y-184752000D01*
G75*
G02*
X194492000Y-184552000I200000J0D01*
G01*
X200008000Y-184552000D01*
G75*
G02*
X200208000Y-184752000I0J-200000D01*
G01*
X200208000Y-190268000D01*
G75*
G02*
X200008000Y-190468000I-200000J0D01*
G01*
X194492000Y-190468000D01*
G75*
G02*
X194292000Y-190268000I0J200000D01*
G01*
G37*
X204450000Y-187510000D03*
%TD*%
%TO.C,J13*%
X204704000Y-163761000D03*
G36*
G01*
X194546000Y-166519000D02*
X194546000Y-161003000D01*
G75*
G02*
X194746000Y-160803000I200000J0D01*
G01*
X200262000Y-160803000D01*
G75*
G02*
X200462000Y-161003000I0J-200000D01*
G01*
X200462000Y-166519000D01*
G75*
G02*
X200262000Y-166719000I-200000J0D01*
G01*
X194746000Y-166719000D01*
G75*
G02*
X194546000Y-166519000I0J200000D01*
G01*
G37*
%TD*%
%TO.C,J14*%
G36*
G01*
X137146000Y-161019000D02*
X137146000Y-166535000D01*
G75*
G02*
X136946000Y-166735000I-200000J0D01*
G01*
X131430000Y-166735000D01*
G75*
G02*
X131230000Y-166535000I0J200000D01*
G01*
X131230000Y-161019000D01*
G75*
G02*
X131430000Y-160819000I200000J0D01*
G01*
X136946000Y-160819000D01*
G75*
G02*
X137146000Y-161019000I0J-200000D01*
G01*
G37*
X126988000Y-163777000D03*
%TD*%
%TO.C,J15*%
X225373500Y-175508500D03*
G36*
G01*
X215215500Y-178266500D02*
X215215500Y-172750500D01*
G75*
G02*
X215415500Y-172550500I200000J0D01*
G01*
X220931500Y-172550500D01*
G75*
G02*
X221131500Y-172750500I0J-200000D01*
G01*
X221131500Y-178266500D01*
G75*
G02*
X220931500Y-178466500I-200000J0D01*
G01*
X215415500Y-178466500D01*
G75*
G02*
X215215500Y-178266500I0J200000D01*
G01*
G37*
%TD*%
%TO.C,J28*%
X283000000Y-217960000D03*
G36*
G01*
X272842000Y-220718000D02*
X272842000Y-215202000D01*
G75*
G02*
X273042000Y-215002000I200000J0D01*
G01*
X278558000Y-215002000D01*
G75*
G02*
X278758000Y-215202000I0J-200000D01*
G01*
X278758000Y-220718000D01*
G75*
G02*
X278558000Y-220918000I-200000J0D01*
G01*
X273042000Y-220918000D01*
G75*
G02*
X272842000Y-220718000I0J200000D01*
G01*
G37*
%TD*%
%TO.C,J29*%
G36*
G01*
X272842000Y-233418000D02*
X272842000Y-227902000D01*
G75*
G02*
X273042000Y-227702000I200000J0D01*
G01*
X278558000Y-227702000D01*
G75*
G02*
X278758000Y-227902000I0J-200000D01*
G01*
X278758000Y-233418000D01*
G75*
G02*
X278558000Y-233618000I-200000J0D01*
G01*
X273042000Y-233618000D01*
G75*
G02*
X272842000Y-233418000I0J200000D01*
G01*
G37*
X283000000Y-230660000D03*
%TD*%
D10*
%TO.C,R2*%
X67310000Y-161610000D03*
D12*
X67310000Y-174310000D03*
%TD*%
D10*
%TO.C,R3*%
X74930000Y-180660000D03*
D12*
X74930000Y-193360000D03*
%TD*%
%TO.C,R4*%
X235237000Y-158650000D03*
D10*
X247937000Y-158650000D03*
%TD*%
D12*
%TO.C,R5*%
X235237000Y-170080000D03*
D10*
X247937000Y-170080000D03*
%TD*%
%TO.C,R6*%
X247937000Y-135790000D03*
D12*
X235237000Y-135790000D03*
%TD*%
D10*
%TO.C,R7*%
X247937000Y-147220000D03*
D12*
X235237000Y-147220000D03*
%TD*%
%TO.C,R8*%
X235237000Y-192940000D03*
D10*
X247937000Y-192940000D03*
%TD*%
%TO.C,R9*%
X247937000Y-181510000D03*
D12*
X235237000Y-181510000D03*
%TD*%
%TO.C,R10*%
X67285001Y-193304999D03*
D10*
X67285001Y-180604999D03*
%TD*%
%TO.C,R11*%
X247937000Y-142140000D03*
D12*
X235237000Y-142140000D03*
%TD*%
D10*
%TO.C,R12*%
X247937000Y-153570000D03*
D12*
X235237000Y-153570000D03*
%TD*%
D10*
%TO.C,R13*%
X247937000Y-165000000D03*
D12*
X235237000Y-165000000D03*
%TD*%
D10*
%TO.C,R14*%
X247937000Y-187860000D03*
D12*
X235237000Y-187860000D03*
%TD*%
%TO.C,R15*%
X235237000Y-130710000D03*
D10*
X247937000Y-130710000D03*
%TD*%
D12*
%TO.C,R16*%
X235237000Y-176430000D03*
D10*
X247937000Y-176430000D03*
%TD*%
D12*
%TO.C,R17*%
X59995001Y-174310000D03*
D10*
X59995001Y-161610000D03*
%TD*%
%TO.C,R19*%
X117300000Y-130440000D03*
D12*
X104600000Y-130440000D03*
%TD*%
%TO.C,R20*%
X104600000Y-141870000D03*
D10*
X117300000Y-141870000D03*
%TD*%
%TO.C,R21*%
X117415001Y-153300000D03*
D12*
X104715001Y-153300000D03*
%TD*%
D10*
%TO.C,R22*%
X117300000Y-164730000D03*
D12*
X104600000Y-164730000D03*
%TD*%
D10*
%TO.C,R23*%
X117300000Y-176160000D03*
D12*
X104600000Y-176160000D03*
%TD*%
%TO.C,R24*%
X104600000Y-187590000D03*
D10*
X117300000Y-187590000D03*
%TD*%
D12*
%TO.C,R26*%
X104600000Y-135520000D03*
D10*
X117300000Y-135520000D03*
%TD*%
D12*
%TO.C,R27*%
X104600000Y-146950000D03*
D10*
X117300000Y-146950000D03*
%TD*%
D12*
%TO.C,R28*%
X104600000Y-158380000D03*
D10*
X117300000Y-158380000D03*
%TD*%
D12*
%TO.C,R29*%
X104600000Y-169810000D03*
D10*
X117300000Y-169810000D03*
%TD*%
D12*
%TO.C,R30*%
X104600000Y-181240000D03*
D10*
X117300000Y-181240000D03*
%TD*%
%TO.C,R31*%
X117300000Y-192670000D03*
D12*
X104600000Y-192670000D03*
%TD*%
D11*
%TO.C,U1*%
X293370000Y-121539000D03*
X290830000Y-121539000D03*
X288290000Y-121539000D03*
X285750000Y-121539000D03*
X283210000Y-121539000D03*
X280670000Y-121539000D03*
X278130000Y-121539000D03*
X275590000Y-121539000D03*
X273050000Y-121539000D03*
%TD*%
D19*
%TO.C,U3*%
X261924800Y-104548800D03*
G36*
G01*
X258232300Y-122208800D02*
X258232300Y-120208800D01*
G75*
G02*
X258432300Y-120008800I200000J0D01*
G01*
X260337300Y-120008800D01*
G75*
G02*
X260537300Y-120208800I0J-200000D01*
G01*
X260537300Y-122208800D01*
G75*
G02*
X260337300Y-122408800I-200000J0D01*
G01*
X258432300Y-122408800D01*
G75*
G02*
X258232300Y-122208800I0J200000D01*
G01*
G37*
D20*
X261924800Y-121208800D03*
X264464800Y-121208800D03*
%TD*%
D11*
%TO.C,U15*%
X274510500Y-180657500D03*
X274510500Y-178117500D03*
X274510500Y-175577500D03*
X274510500Y-173037500D03*
X274510500Y-170497500D03*
X274510500Y-167957500D03*
X274510500Y-165417500D03*
X274510500Y-162877500D03*
X274510500Y-160337500D03*
%TD*%
%TO.C,U18*%
X274510500Y-133477000D03*
X274510500Y-136017000D03*
X274510500Y-138557000D03*
X274510500Y-141097000D03*
X274510500Y-143637000D03*
X274510500Y-146177000D03*
X274510500Y-148717000D03*
X274510500Y-151257000D03*
X274510500Y-153797000D03*
%TD*%
%TO.C,U19*%
G36*
G01*
X58209001Y-157375999D02*
X56609001Y-157375999D01*
G75*
G02*
X56409001Y-157175999I0J200000D01*
G01*
X56409001Y-155575999D01*
G75*
G02*
X56609001Y-155375999I200000J0D01*
G01*
X58209001Y-155375999D01*
G75*
G02*
X58409001Y-155575999I0J-200000D01*
G01*
X58409001Y-157175999D01*
G75*
G02*
X58209001Y-157375999I-200000J0D01*
G01*
G37*
D10*
X77729001Y-148755999D03*
X59949001Y-156375999D03*
X75189001Y-148755999D03*
X62489001Y-156375999D03*
X72649001Y-148755999D03*
X65029001Y-156375999D03*
X70109001Y-148755999D03*
X67569001Y-156375999D03*
X67569001Y-148755999D03*
X70109001Y-156375999D03*
X65029001Y-148755999D03*
X72649001Y-156375999D03*
X62489001Y-148755999D03*
X75189001Y-156375999D03*
X59949001Y-148755999D03*
X77729001Y-156375999D03*
X57409001Y-148755999D03*
%TD*%
%TO.C,U20*%
X132143500Y-132047001D03*
X124523500Y-139667001D03*
X132143500Y-134587001D03*
X124523500Y-137127001D03*
X132143500Y-137127001D03*
X124523500Y-134587001D03*
X132143500Y-139667001D03*
G36*
G01*
X123523500Y-132847001D02*
X123523500Y-131247001D01*
G75*
G02*
X123723500Y-131047001I200000J0D01*
G01*
X125323500Y-131047001D01*
G75*
G02*
X125523500Y-131247001I0J-200000D01*
G01*
X125523500Y-132847001D01*
G75*
G02*
X125323500Y-133047001I-200000J0D01*
G01*
X123723500Y-133047001D01*
G75*
G02*
X123523500Y-132847001I0J200000D01*
G01*
G37*
%TD*%
%TO.C,U21*%
X144843500Y-132047001D03*
X137223500Y-139667001D03*
X144843500Y-134587001D03*
X137223500Y-137127001D03*
X144843500Y-137127001D03*
X137223500Y-134587001D03*
X144843500Y-139667001D03*
G36*
G01*
X136223500Y-132847001D02*
X136223500Y-131247001D01*
G75*
G02*
X136423500Y-131047001I200000J0D01*
G01*
X138023500Y-131047001D01*
G75*
G02*
X138223500Y-131247001I0J-200000D01*
G01*
X138223500Y-132847001D01*
G75*
G02*
X138023500Y-133047001I-200000J0D01*
G01*
X136423500Y-133047001D01*
G75*
G02*
X136223500Y-132847001I0J200000D01*
G01*
G37*
%TD*%
%TO.C,U22*%
G36*
G01*
X217440000Y-132608501D02*
X217440000Y-131008501D01*
G75*
G02*
X217640000Y-130808501I200000J0D01*
G01*
X219240000Y-130808501D01*
G75*
G02*
X219440000Y-131008501I0J-200000D01*
G01*
X219440000Y-132608501D01*
G75*
G02*
X219240000Y-132808501I-200000J0D01*
G01*
X217640000Y-132808501D01*
G75*
G02*
X217440000Y-132608501I0J200000D01*
G01*
G37*
X226060000Y-139428501D03*
X218440000Y-134348501D03*
X226060000Y-136888501D03*
X218440000Y-136888501D03*
X226060000Y-134348501D03*
X218440000Y-139428501D03*
X226060000Y-131808501D03*
%TD*%
D11*
%TO.C,U25*%
X164998400Y-114808000D03*
X164998400Y-112268000D03*
X164998400Y-109728000D03*
X165008400Y-107188000D03*
X164998400Y-117348000D03*
X137058400Y-117348000D03*
X137058400Y-114808000D03*
X137058400Y-112268000D03*
X137058400Y-109728000D03*
X137058400Y-107188000D03*
%TD*%
%TO.C,U33*%
X274621000Y-186690000D03*
X274621000Y-189230000D03*
X274621000Y-191770000D03*
X274621000Y-194310000D03*
X274621000Y-196850000D03*
X274621000Y-199390000D03*
X274621000Y-201930000D03*
X274621000Y-204470000D03*
X274621000Y-207010000D03*
%TD*%
%TO.C,U36*%
X187706000Y-107492800D03*
X187706000Y-110032800D03*
X187706000Y-112572800D03*
X187706000Y-115112800D03*
X187706000Y-117652800D03*
X215646000Y-117652800D03*
X215656000Y-107492800D03*
X215646000Y-110032800D03*
X215646000Y-112572800D03*
X215646000Y-115112800D03*
%TD*%
%TO.C,U44*%
G36*
G01*
X148796500Y-147896501D02*
X148796500Y-146296501D01*
G75*
G02*
X148996500Y-146096501I200000J0D01*
G01*
X150596500Y-146096501D01*
G75*
G02*
X150796500Y-146296501I0J-200000D01*
G01*
X150796500Y-147896501D01*
G75*
G02*
X150596500Y-148096501I-200000J0D01*
G01*
X148996500Y-148096501D01*
G75*
G02*
X148796500Y-147896501I0J200000D01*
G01*
G37*
D10*
X157416500Y-154716501D03*
X149796500Y-149636501D03*
X157416500Y-152176501D03*
X149796500Y-152176501D03*
X157416500Y-149636501D03*
X149796500Y-154716501D03*
X157416500Y-147096501D03*
%TD*%
D11*
%TO.C,U46*%
X249529600Y-115366800D03*
X249529600Y-112826800D03*
X249529600Y-110286800D03*
X249539600Y-107746800D03*
X249529600Y-117906800D03*
X221589600Y-117906800D03*
X221589600Y-115366800D03*
X221589600Y-112826800D03*
X221589600Y-110286800D03*
X221589600Y-107746800D03*
%TD*%
D10*
%TO.C,U48*%
X200660000Y-131743500D03*
X193040000Y-139363500D03*
X200660000Y-134283500D03*
X193040000Y-136823500D03*
X200660000Y-136823500D03*
X193040000Y-134283500D03*
X200660000Y-139363500D03*
G36*
G01*
X192040000Y-132543500D02*
X192040000Y-130943500D01*
G75*
G02*
X192240000Y-130743500I200000J0D01*
G01*
X193840000Y-130743500D01*
G75*
G02*
X194040000Y-130943500I0J-200000D01*
G01*
X194040000Y-132543500D01*
G75*
G02*
X193840000Y-132743500I-200000J0D01*
G01*
X192240000Y-132743500D01*
G75*
G02*
X192040000Y-132543500I0J200000D01*
G01*
G37*
%TD*%
%TO.C,U49*%
G36*
G01*
X205248000Y-148037500D02*
X205248000Y-146437500D01*
G75*
G02*
X205448000Y-146237500I200000J0D01*
G01*
X207048000Y-146237500D01*
G75*
G02*
X207248000Y-146437500I0J-200000D01*
G01*
X207248000Y-148037500D01*
G75*
G02*
X207048000Y-148237500I-200000J0D01*
G01*
X205448000Y-148237500D01*
G75*
G02*
X205248000Y-148037500I0J200000D01*
G01*
G37*
X213868000Y-154857500D03*
X206248000Y-149777500D03*
X213868000Y-152317500D03*
X206248000Y-152317500D03*
X213868000Y-149777500D03*
X206248000Y-154857500D03*
X213868000Y-147237500D03*
%TD*%
%TO.C,U51*%
X157543500Y-132047001D03*
X149923500Y-139667001D03*
X157543500Y-134587001D03*
X149923500Y-137127001D03*
X157543500Y-137127001D03*
X149923500Y-134587001D03*
X157543500Y-139667001D03*
G36*
G01*
X148923500Y-132847001D02*
X148923500Y-131247001D01*
G75*
G02*
X149123500Y-131047001I200000J0D01*
G01*
X150723500Y-131047001D01*
G75*
G02*
X150923500Y-131247001I0J-200000D01*
G01*
X150923500Y-132847001D01*
G75*
G02*
X150723500Y-133047001I-200000J0D01*
G01*
X149123500Y-133047001D01*
G75*
G02*
X148923500Y-132847001I0J200000D01*
G01*
G37*
%TD*%
%TO.C,U52*%
X144716500Y-147096501D03*
X137096500Y-154716501D03*
X144716500Y-149636501D03*
X137096500Y-152176501D03*
X144716500Y-152176501D03*
X137096500Y-149636501D03*
X144716500Y-154716501D03*
G36*
G01*
X136096500Y-147896501D02*
X136096500Y-146296501D01*
G75*
G02*
X136296500Y-146096501I200000J0D01*
G01*
X137896500Y-146096501D01*
G75*
G02*
X138096500Y-146296501I0J-200000D01*
G01*
X138096500Y-147896501D01*
G75*
G02*
X137896500Y-148096501I-200000J0D01*
G01*
X136296500Y-148096501D01*
G75*
G02*
X136096500Y-147896501I0J200000D01*
G01*
G37*
%TD*%
%TO.C,U53*%
G36*
G01*
X192548000Y-148037500D02*
X192548000Y-146437500D01*
G75*
G02*
X192748000Y-146237500I200000J0D01*
G01*
X194348000Y-146237500D01*
G75*
G02*
X194548000Y-146437500I0J-200000D01*
G01*
X194548000Y-148037500D01*
G75*
G02*
X194348000Y-148237500I-200000J0D01*
G01*
X192748000Y-148237500D01*
G75*
G02*
X192548000Y-148037500I0J200000D01*
G01*
G37*
X201168000Y-154857500D03*
X193548000Y-149777500D03*
X201168000Y-152317500D03*
X193548000Y-152317500D03*
X201168000Y-149777500D03*
X193548000Y-154857500D03*
X201168000Y-147237500D03*
%TD*%
%TO.C,U54*%
X226568000Y-147237500D03*
X218948000Y-154857500D03*
X226568000Y-149777500D03*
X218948000Y-152317500D03*
X226568000Y-152317500D03*
X218948000Y-149777500D03*
X226568000Y-154857500D03*
G36*
G01*
X217948000Y-148037500D02*
X217948000Y-146437500D01*
G75*
G02*
X218148000Y-146237500I200000J0D01*
G01*
X219748000Y-146237500D01*
G75*
G02*
X219948000Y-146437500I0J-200000D01*
G01*
X219948000Y-148037500D01*
G75*
G02*
X219748000Y-148237500I-200000J0D01*
G01*
X218148000Y-148237500D01*
G75*
G02*
X217948000Y-148037500I0J200000D01*
G01*
G37*
%TD*%
%TO.C,U55*%
G36*
G01*
X204905001Y-132608501D02*
X204905001Y-131008501D01*
G75*
G02*
X205105001Y-130808501I200000J0D01*
G01*
X206705001Y-130808501D01*
G75*
G02*
X206905001Y-131008501I0J-200000D01*
G01*
X206905001Y-132608501D01*
G75*
G02*
X206705001Y-132808501I-200000J0D01*
G01*
X205105001Y-132808501D01*
G75*
G02*
X204905001Y-132608501I0J200000D01*
G01*
G37*
X213525001Y-139428501D03*
X205905001Y-134348501D03*
X213525001Y-136888501D03*
X205905001Y-136888501D03*
X213525001Y-134348501D03*
X205905001Y-139428501D03*
X213525001Y-131808501D03*
%TD*%
D11*
%TO.C,U56*%
X127108420Y-99884820D03*
X127108420Y-102424820D03*
X127108420Y-104964820D03*
X127108420Y-107504820D03*
X127108420Y-110044820D03*
X127108420Y-112584820D03*
X127108420Y-115124820D03*
X127108420Y-117664820D03*
X127108420Y-120204820D03*
X127108420Y-122744820D03*
X114308420Y-122744820D03*
X114308420Y-120204820D03*
X114308420Y-117664820D03*
X114308420Y-115124820D03*
X114308420Y-112584820D03*
X114308420Y-110044820D03*
X114308420Y-107504820D03*
X114308420Y-104964820D03*
X114308420Y-102424820D03*
X114308420Y-99884820D03*
%TD*%
%TO.C,U58*%
G36*
G01*
X123396500Y-147896501D02*
X123396500Y-146296501D01*
G75*
G02*
X123596500Y-146096501I200000J0D01*
G01*
X125196500Y-146096501D01*
G75*
G02*
X125396500Y-146296501I0J-200000D01*
G01*
X125396500Y-147896501D01*
G75*
G02*
X125196500Y-148096501I-200000J0D01*
G01*
X123596500Y-148096501D01*
G75*
G02*
X123396500Y-147896501I0J200000D01*
G01*
G37*
D10*
X132016500Y-154716501D03*
X124396500Y-149636501D03*
X132016500Y-152176501D03*
X124396500Y-152176501D03*
X132016500Y-149636501D03*
X124396500Y-154716501D03*
X132016500Y-147096501D03*
%TD*%
D11*
%TO.C,U2*%
X66040000Y-201930000D03*
X71040000Y-201930000D03*
X76200000Y-201930000D03*
X82040000Y-201930000D03*
X86540000Y-201930000D03*
X91540000Y-201930000D03*
X97040000Y-201930000D03*
X102040000Y-201930000D03*
X148540000Y-201930000D03*
X143540000Y-201930000D03*
X138040000Y-201930000D03*
X133040000Y-201930000D03*
X128040000Y-201930000D03*
X122540000Y-201930000D03*
X117540000Y-201930000D03*
X112540000Y-201930000D03*
X107040000Y-201930000D03*
X99715000Y-243840000D03*
X94715000Y-243840000D03*
X89715000Y-243840000D03*
X125215000Y-243840000D03*
X110215000Y-243840000D03*
X104715000Y-243840000D03*
X115215000Y-243840000D03*
X120215000Y-243840000D03*
X153540000Y-201930000D03*
%TD*%
M02*
