M48
; DRILL file {KiCad (5.1.6)-1} date 11/29/20 20:56:28
; FORMAT={-:-/ absolute / inch / decimal}
; #@! TF.CreationDate,2020-11-29T20:56:28-05:00
; #@! TF.GenerationSoftware,Kicad,Pcbnew,(5.1.6)-1
; #@! TF.FileFunction,Plated,1,2,PTH
FMAT,2
INCH
T1C0.0157
T2C0.0300
T3C0.0370
T4C0.0394
T5C0.0433
T6C0.0472
%
G90
G05
T1
X2.975Y-5.325
X4.048Y-5.8602
X4.094Y-3.031
X4.225Y-3.1
X4.275Y-2.375
X4.275Y-5.475
X4.325Y-3.2
X4.325Y-5.4321
X4.3736Y-5.7386
X4.375Y-5.075
X4.675Y-3.55
X4.6882Y-5.7343
X4.7819Y-5.0437
X4.9809Y-5.475
X5.2Y-3.675
X5.2935Y-3.1699
X5.3571Y-3.5165
X5.4Y-4.0
X5.525Y-5.15
X5.55Y-5.075
X5.5587Y-4.3921
X5.65Y-5.075
X5.6819Y-3.8756
X5.6925Y-4.5866
X5.775Y-3.75
X5.85Y-3.825
X5.8531Y-5.9831
X6.125Y-5.075
X6.2035Y-4.8642
X6.25Y-5.075
X6.2593Y-5.2657
X6.4768Y-5.4248
X6.85Y-5.525
X6.9043Y-5.489
X6.9445Y-5.0772
X7.052Y-4.8902
X7.1Y-5.525
X7.24Y-4.825
X7.3Y-3.2
X7.3051Y-5.489
X7.325Y-5.375
X7.325Y-5.425
X7.35Y-3.2
X7.9929Y-4.8012
X8.1449Y-5.0969
X8.25Y-3.075
X8.25Y-5.125
X8.3Y-5.125
X8.3276Y-5.5528
X8.775Y-4.025
X8.775Y-5.025
T2
X4.1187Y-5.8226
X4.2187Y-5.8226
X4.3187Y-5.8226
X4.3987Y-6.3776
X4.4187Y-5.8226
X4.5187Y-5.8226
X4.5387Y-6.3776
X4.6187Y-5.8226
X4.7187Y-5.8226
X4.8187Y-5.8226
X4.0969Y-2.9118
X4.0972Y-2.5118
X4.0972Y-2.6118
X4.0972Y-2.7118
X4.0972Y-2.8118
X5.1972Y-2.5118
X5.1972Y-2.6118
X5.1972Y-2.7118
X5.1972Y-2.8118
X5.1972Y-2.9118
X5.6272Y-2.9106
X5.6276Y-2.5106
X5.6276Y-2.6106
X5.6276Y-2.7106
X5.6276Y-2.8106
X6.7276Y-2.5106
X6.7276Y-2.6106
X6.7276Y-2.7106
X6.7276Y-2.8106
X6.7276Y-2.9106
X6.7309Y-5.8258
X6.8309Y-5.8258
X6.9309Y-5.8258
X7.0109Y-6.3808
X7.0309Y-5.8258
X7.1309Y-5.8258
X7.1509Y-6.3808
X7.2309Y-5.8258
X7.3309Y-5.8258
X7.4309Y-5.8258
X7.1724Y-2.9106
X7.1728Y-2.5106
X7.1728Y-2.6106
X7.1728Y-2.7106
X7.1728Y-2.8106
X8.2728Y-2.5106
X8.2728Y-2.6106
X8.2728Y-2.7106
X8.2728Y-2.8106
X8.2728Y-2.9106
X4.986Y-5.825
X5.086Y-5.825
X5.186Y-5.825
X5.266Y-6.38
X5.286Y-5.825
X5.386Y-5.825
X5.406Y-6.38
X5.486Y-5.825
X5.586Y-5.825
X5.686Y-5.825
X5.8561Y-5.8262
X5.9561Y-5.8262
X6.0561Y-5.8262
X6.1361Y-6.3812
X6.1561Y-5.8262
X6.2561Y-5.8262
X6.2761Y-6.3812
X6.3561Y-5.8262
X6.4561Y-5.8262
X6.5561Y-5.8262
X7.5943Y-5.8274
X7.6943Y-5.8274
X7.7943Y-5.8274
X7.8743Y-6.3824
X7.8943Y-5.8274
X7.9943Y-5.8274
X8.0143Y-6.3824
X8.0943Y-5.8274
X8.1943Y-5.8274
X8.2943Y-5.8274
T3
X4.9012Y-4.9953
X4.9012Y-5.5953
X5.0012Y-4.9953
X5.0012Y-5.5953
X5.1012Y-4.9953
X5.1012Y-5.5953
X5.2012Y-4.9953
X5.2012Y-5.5953
X5.3012Y-4.9953
X5.3012Y-5.5953
X5.4012Y-4.9953
X5.4012Y-5.5953
X5.5012Y-4.9953
X5.5012Y-5.5953
X5.6012Y-4.9953
X5.6012Y-5.5953
X5.7012Y-4.9953
X5.7012Y-5.5953
X5.8012Y-4.9953
X5.8012Y-5.5953
X5.9012Y-4.9953
X5.9012Y-5.5953
X6.0012Y-4.9953
X6.0012Y-5.5953
X6.1012Y-4.9953
X6.1012Y-5.5953
X6.2012Y-4.9953
X6.2012Y-5.5953
X6.3012Y-4.9953
X6.3012Y-5.5953
X6.4012Y-4.9953
X6.4012Y-5.5953
X6.5012Y-4.9953
X6.5012Y-5.5953
X6.6012Y-4.9953
X6.6012Y-5.5953
X6.7012Y-4.9953
X6.7012Y-5.5953
X6.8012Y-4.9953
X6.8012Y-5.5953
X6.9012Y-4.9953
X6.9012Y-5.5953
X7.0012Y-4.9953
X7.0012Y-5.5953
X7.1012Y-4.9953
X7.1012Y-5.5953
X7.2012Y-4.9953
X7.2012Y-5.5953
T4
X5.1098Y-3.338
X5.1098Y-3.438
X5.2098Y-3.338
X5.2098Y-3.438
X5.3098Y-3.338
X5.3098Y-3.438
X5.4098Y-3.338
X5.4098Y-3.438
X5.5098Y-3.338
X5.5098Y-3.438
X5.6098Y-3.338
X5.6098Y-3.438
X5.7098Y-3.338
X5.7098Y-3.438
X5.8098Y-3.338
X5.8098Y-3.438
X5.9098Y-3.338
X5.9098Y-3.438
X6.0098Y-3.338
X6.0098Y-3.438
X6.1098Y-3.338
X6.1098Y-3.438
X6.2098Y-3.338
X6.2098Y-3.438
X6.3098Y-3.338
X6.3098Y-3.438
X6.4098Y-3.338
X6.4098Y-3.438
X6.5098Y-3.338
X6.5098Y-3.438
X6.6098Y-3.338
X6.6098Y-3.438
X6.7098Y-3.338
X6.7098Y-3.438
X6.8098Y-3.338
X6.8098Y-3.438
X6.9098Y-3.338
X6.9098Y-3.438
X7.0098Y-3.338
X7.0098Y-3.438
T5
X3.0102Y-2.6969
X3.1102Y-2.6969
X3.2102Y-2.6969
T6
X8.5433Y-6.4803
X8.5433Y-6.6803
X8.5433Y-6.8803
X6.0077Y-6.7707
X6.2077Y-6.7707
X6.4077Y-6.7707
X8.2033Y-4.563
X8.2033Y-4.763
X8.2033Y-4.963
X5.676Y-2.0429
X5.876Y-2.0429
X6.076Y-2.0429
X3.876Y-3.3197
X3.876Y-3.5197
X3.876Y-3.7197
X3.0699Y-4.5835
X3.0699Y-4.7835
X3.0699Y-4.9835
X8.5417Y-5.8496
X8.5417Y-6.0496
X8.5417Y-6.2496
X3.0758Y-3.3217
X3.0758Y-3.5217
X3.0758Y-3.7217
X5.1494Y-6.7707
X5.3494Y-6.7707
X5.5494Y-6.7707
X8.539Y-3.9341
X8.539Y-4.1341
X8.539Y-4.3341
X9.348Y-2.9654
X9.348Y-3.1654
X9.348Y-3.3654
X7.8276Y-2.0433
X8.0276Y-2.0433
X8.2276Y-2.0433
X8.5409Y-4.563
X8.5409Y-4.763
X8.5409Y-4.963
X4.2675Y-6.7707
X4.4675Y-6.7707
X4.6675Y-6.7707
X3.0738Y-3.9535
X3.0738Y-4.1535
X3.0738Y-4.3535
X3.0719Y-5.2173
X3.0719Y-5.4173
X3.0719Y-5.6173
X8.501Y-1.9614
X8.501Y-2.1614
X8.501Y-2.3614
X3.872Y-1.9654
X3.872Y-2.1654
X3.872Y-2.3654
X8.54Y-5.187
X8.54Y-5.387
X8.54Y-5.587
X4.1949Y-3.3226
X4.1949Y-3.5226
X4.1949Y-3.7226
X8.5423Y-2.614
X8.5423Y-2.814
X8.5423Y-3.014
X3.8819Y-6.4978
X3.8819Y-6.6978
X3.8819Y-6.8978
X7.7478Y-6.7746
X7.9478Y-6.7746
X8.1478Y-6.7746
X4.75Y-2.0445
X4.95Y-2.0445
X5.15Y-2.0445
X8.2024Y-5.1998
X8.2024Y-5.3998
X8.2024Y-5.5998
X3.877Y-3.9496
X3.877Y-4.1496
X3.877Y-4.3496
X9.3453Y-4.8744
X9.3453Y-5.0744
X9.3453Y-5.2744
X8.2024Y-3.9331
X8.2024Y-4.1331
X8.2024Y-4.3331
X3.876Y-2.613
X3.876Y-2.813
X3.876Y-3.013
X4.1969Y-4.5756
X4.1969Y-4.7756
X4.1969Y-4.9756
X4.1949Y-3.9496
X4.1949Y-4.1496
X4.1949Y-4.3496
X9.3429Y-4.239
X9.3429Y-4.439
X9.3429Y-4.639
X3.8789Y-4.5815
X3.8789Y-4.7815
X3.8789Y-4.9815
X6.2823Y-2.0429
X6.4823Y-2.0429
X6.6823Y-2.0429
X9.3484Y-3.6094
X9.3484Y-3.8094
X9.3484Y-4.0094
X6.8817Y-6.7726
X7.0817Y-6.7726
X7.2817Y-6.7726
X8.2033Y-3.3022
X8.2033Y-3.5022
X8.2033Y-3.7022
X8.536Y-3.2972
X8.536Y-3.4972
X8.536Y-3.6972
X4.1406Y-2.0429
X4.3406Y-2.0429
X4.5406Y-2.0429
X3.877Y-5.864
X3.877Y-6.064
X3.877Y-6.264
X3.877Y-5.2075
X3.877Y-5.4075
X3.877Y-5.6075
X7.2173Y-2.0433
X7.4173Y-2.0433
X7.6173Y-2.0433
T0
M30
