%FSLAX45Y45*%
G04 Gerber Fmt 4.5, Leading zero omitted, Abs format (unit mm)*
G04 Created by KiCad (PCBNEW (5.1.10)-1) date 2022-01-22 23:21:01*
%MOMM*%
%LPD*%
G01*
G04 APERTURE LIST*
%TA.AperFunction,Profile*%
%ADD10C,0.050000*%
%TD*%
%ADD11C,0.200000*%
%ADD12C,0.300000*%
G04 APERTURE END LIST*
D10*
X16459200Y-3008600D02*
X16459200Y-18008600D01*
X2759200Y-3008600D02*
X16459200Y-3008600D01*
X2759200Y-18008600D02*
X2759200Y-3008600D01*
X16459200Y-18008600D02*
X2759200Y-18008600D01*
D11*
X9883400Y-6220600D02*
X10233400Y-6570600D01*
X10233400Y-6220600D02*
X9883400Y-6570600D01*
D12*
X3043128Y-18476814D02*
X3043128Y-18176814D01*
X3114557Y-18176814D01*
X3157414Y-18191100D01*
X3185986Y-18219672D01*
X3200271Y-18248243D01*
X3214557Y-18305386D01*
X3214557Y-18348243D01*
X3200271Y-18405386D01*
X3185986Y-18433957D01*
X3157414Y-18462529D01*
X3114557Y-18476814D01*
X3043128Y-18476814D01*
X3343128Y-18476814D02*
X3343128Y-18276814D01*
X3343128Y-18333957D02*
X3357414Y-18305386D01*
X3371700Y-18291100D01*
X3400271Y-18276814D01*
X3428843Y-18276814D01*
X3528843Y-18476814D02*
X3528843Y-18276814D01*
X3528843Y-18176814D02*
X3514557Y-18191100D01*
X3528843Y-18205386D01*
X3543128Y-18191100D01*
X3528843Y-18176814D01*
X3528843Y-18205386D01*
X3714557Y-18476814D02*
X3685986Y-18462529D01*
X3671700Y-18433957D01*
X3671700Y-18176814D01*
X3871700Y-18476814D02*
X3843128Y-18462529D01*
X3828843Y-18433957D01*
X3828843Y-18176814D01*
X4214557Y-18476814D02*
X4214557Y-18176814D01*
X4314557Y-18391100D01*
X4414557Y-18176814D01*
X4414557Y-18476814D01*
X4685986Y-18476814D02*
X4685986Y-18319672D01*
X4671700Y-18291100D01*
X4643128Y-18276814D01*
X4585986Y-18276814D01*
X4557414Y-18291100D01*
X4685986Y-18462529D02*
X4657414Y-18476814D01*
X4585986Y-18476814D01*
X4557414Y-18462529D01*
X4543128Y-18433957D01*
X4543128Y-18405386D01*
X4557414Y-18376814D01*
X4585986Y-18362529D01*
X4657414Y-18362529D01*
X4685986Y-18348243D01*
X4828843Y-18276814D02*
X4828843Y-18576814D01*
X4828843Y-18291100D02*
X4857414Y-18276814D01*
X4914557Y-18276814D01*
X4943128Y-18291100D01*
X4957414Y-18305386D01*
X4971700Y-18333957D01*
X4971700Y-18419672D01*
X4957414Y-18448243D01*
X4943128Y-18462529D01*
X4914557Y-18476814D01*
X4857414Y-18476814D01*
X4828843Y-18462529D01*
X5100271Y-18448243D02*
X5114557Y-18462529D01*
X5100271Y-18476814D01*
X5085986Y-18462529D01*
X5100271Y-18448243D01*
X5100271Y-18476814D01*
X5100271Y-18291100D02*
X5114557Y-18305386D01*
X5100271Y-18319672D01*
X5085986Y-18305386D01*
X5100271Y-18291100D01*
X5100271Y-18319672D01*
X2406700Y-18796100D02*
X2756700Y-19146100D01*
X2756700Y-18796100D02*
X2406700Y-19146100D01*
X3014557Y-18806814D02*
X3200271Y-18806814D01*
X3100271Y-18921100D01*
X3143128Y-18921100D01*
X3171700Y-18935386D01*
X3185986Y-18949672D01*
X3200271Y-18978243D01*
X3200271Y-19049672D01*
X3185986Y-19078243D01*
X3171700Y-19092529D01*
X3143128Y-19106814D01*
X3057414Y-19106814D01*
X3028843Y-19092529D01*
X3014557Y-19078243D01*
X3328843Y-19078243D02*
X3343128Y-19092529D01*
X3328843Y-19106814D01*
X3314557Y-19092529D01*
X3328843Y-19078243D01*
X3328843Y-19106814D01*
X3614557Y-18806814D02*
X3471700Y-18806814D01*
X3457414Y-18949672D01*
X3471700Y-18935386D01*
X3500271Y-18921100D01*
X3571700Y-18921100D01*
X3600271Y-18935386D01*
X3614557Y-18949672D01*
X3628843Y-18978243D01*
X3628843Y-19049672D01*
X3614557Y-19078243D01*
X3600271Y-19092529D01*
X3571700Y-19106814D01*
X3500271Y-19106814D01*
X3471700Y-19092529D01*
X3457414Y-19078243D01*
X3814557Y-18806814D02*
X3843128Y-18806814D01*
X3871700Y-18821100D01*
X3885986Y-18835386D01*
X3900271Y-18863957D01*
X3914557Y-18921100D01*
X3914557Y-18992529D01*
X3900271Y-19049672D01*
X3885986Y-19078243D01*
X3871700Y-19092529D01*
X3843128Y-19106814D01*
X3814557Y-19106814D01*
X3785986Y-19092529D01*
X3771700Y-19078243D01*
X3757414Y-19049672D01*
X3743128Y-18992529D01*
X3743128Y-18921100D01*
X3757414Y-18863957D01*
X3771700Y-18835386D01*
X3785986Y-18821100D01*
X3814557Y-18806814D01*
X4100271Y-18806814D02*
X4128843Y-18806814D01*
X4157414Y-18821100D01*
X4171700Y-18835386D01*
X4185986Y-18863957D01*
X4200271Y-18921100D01*
X4200271Y-18992529D01*
X4185986Y-19049672D01*
X4171700Y-19078243D01*
X4157414Y-19092529D01*
X4128843Y-19106814D01*
X4100271Y-19106814D01*
X4071700Y-19092529D01*
X4057414Y-19078243D01*
X4043128Y-19049672D01*
X4028843Y-18992529D01*
X4028843Y-18921100D01*
X4043128Y-18863957D01*
X4057414Y-18835386D01*
X4071700Y-18821100D01*
X4100271Y-18806814D01*
X4328843Y-19106814D02*
X4328843Y-18906814D01*
X4328843Y-18935386D02*
X4343128Y-18921100D01*
X4371700Y-18906814D01*
X4414557Y-18906814D01*
X4443128Y-18921100D01*
X4457414Y-18949672D01*
X4457414Y-19106814D01*
X4457414Y-18949672D02*
X4471700Y-18921100D01*
X4500271Y-18906814D01*
X4543128Y-18906814D01*
X4571700Y-18921100D01*
X4585986Y-18949672D01*
X4585986Y-19106814D01*
X4728843Y-19106814D02*
X4728843Y-18906814D01*
X4728843Y-18935386D02*
X4743128Y-18921100D01*
X4771700Y-18906814D01*
X4814557Y-18906814D01*
X4843128Y-18921100D01*
X4857414Y-18949672D01*
X4857414Y-19106814D01*
X4857414Y-18949672D02*
X4871700Y-18921100D01*
X4900271Y-18906814D01*
X4943128Y-18906814D01*
X4971700Y-18921100D01*
X4985986Y-18949672D01*
X4985986Y-19106814D01*
X5571700Y-18792529D02*
X5314557Y-19178243D01*
X5957414Y-18806814D02*
X5985986Y-18806814D01*
X6014557Y-18821100D01*
X6028843Y-18835386D01*
X6043128Y-18863957D01*
X6057414Y-18921100D01*
X6057414Y-18992529D01*
X6043128Y-19049672D01*
X6028843Y-19078243D01*
X6014557Y-19092529D01*
X5985986Y-19106814D01*
X5957414Y-19106814D01*
X5928843Y-19092529D01*
X5914557Y-19078243D01*
X5900271Y-19049672D01*
X5885986Y-18992529D01*
X5885986Y-18921100D01*
X5900271Y-18863957D01*
X5914557Y-18835386D01*
X5928843Y-18821100D01*
X5957414Y-18806814D01*
X6185986Y-19078243D02*
X6200271Y-19092529D01*
X6185986Y-19106814D01*
X6171700Y-19092529D01*
X6185986Y-19078243D01*
X6185986Y-19106814D01*
X6485986Y-19106814D02*
X6314557Y-19106814D01*
X6400271Y-19106814D02*
X6400271Y-18806814D01*
X6371700Y-18849672D01*
X6343128Y-18878243D01*
X6314557Y-18892529D01*
X6585986Y-18806814D02*
X6771700Y-18806814D01*
X6671700Y-18921100D01*
X6714557Y-18921100D01*
X6743128Y-18935386D01*
X6757414Y-18949672D01*
X6771700Y-18978243D01*
X6771700Y-19049672D01*
X6757414Y-19078243D01*
X6743128Y-19092529D01*
X6714557Y-19106814D01*
X6628843Y-19106814D01*
X6600271Y-19092529D01*
X6585986Y-19078243D01*
X6871700Y-18806814D02*
X7071700Y-18806814D01*
X6943128Y-19106814D01*
X7228843Y-18935386D02*
X7200271Y-18921100D01*
X7185986Y-18906814D01*
X7171700Y-18878243D01*
X7171700Y-18863957D01*
X7185986Y-18835386D01*
X7200271Y-18821100D01*
X7228843Y-18806814D01*
X7285986Y-18806814D01*
X7314557Y-18821100D01*
X7328843Y-18835386D01*
X7343128Y-18863957D01*
X7343128Y-18878243D01*
X7328843Y-18906814D01*
X7314557Y-18921100D01*
X7285986Y-18935386D01*
X7228843Y-18935386D01*
X7200271Y-18949672D01*
X7185986Y-18963957D01*
X7171700Y-18992529D01*
X7171700Y-19049672D01*
X7185986Y-19078243D01*
X7200271Y-19092529D01*
X7228843Y-19106814D01*
X7285986Y-19106814D01*
X7314557Y-19092529D01*
X7328843Y-19078243D01*
X7343128Y-19049672D01*
X7343128Y-18992529D01*
X7328843Y-18963957D01*
X7314557Y-18949672D01*
X7285986Y-18935386D01*
X7457414Y-18806814D02*
X7457414Y-18863957D01*
X7571700Y-18806814D02*
X7571700Y-18863957D01*
X8014557Y-19221100D02*
X8000271Y-19206814D01*
X7971700Y-19163957D01*
X7957414Y-19135386D01*
X7943128Y-19092529D01*
X7928843Y-19021100D01*
X7928843Y-18963957D01*
X7943128Y-18892529D01*
X7957414Y-18849672D01*
X7971700Y-18821100D01*
X8000271Y-18778243D01*
X8014557Y-18763957D01*
X8285986Y-19106814D02*
X8114557Y-19106814D01*
X8200271Y-19106814D02*
X8200271Y-18806814D01*
X8171700Y-18849672D01*
X8143128Y-18878243D01*
X8114557Y-18892529D01*
X8643128Y-19106814D02*
X8643128Y-18806814D01*
X8771700Y-19106814D02*
X8771700Y-18949672D01*
X8757414Y-18921100D01*
X8728843Y-18906814D01*
X8685986Y-18906814D01*
X8657414Y-18921100D01*
X8643128Y-18935386D01*
X8957414Y-19106814D02*
X8928843Y-19092529D01*
X8914557Y-19078243D01*
X8900271Y-19049672D01*
X8900271Y-18963957D01*
X8914557Y-18935386D01*
X8928843Y-18921100D01*
X8957414Y-18906814D01*
X9000271Y-18906814D01*
X9028843Y-18921100D01*
X9043128Y-18935386D01*
X9057414Y-18963957D01*
X9057414Y-19049672D01*
X9043128Y-19078243D01*
X9028843Y-19092529D01*
X9000271Y-19106814D01*
X8957414Y-19106814D01*
X9228843Y-19106814D02*
X9200271Y-19092529D01*
X9185986Y-19063957D01*
X9185986Y-18806814D01*
X9457414Y-19092529D02*
X9428843Y-19106814D01*
X9371700Y-19106814D01*
X9343128Y-19092529D01*
X9328843Y-19063957D01*
X9328843Y-18949672D01*
X9343128Y-18921100D01*
X9371700Y-18906814D01*
X9428843Y-18906814D01*
X9457414Y-18921100D01*
X9471700Y-18949672D01*
X9471700Y-18978243D01*
X9328843Y-19006814D01*
X9571700Y-19221100D02*
X9585986Y-19206814D01*
X9614557Y-19163957D01*
X9628843Y-19135386D01*
X9643128Y-19092529D01*
X9657414Y-19021100D01*
X9657414Y-18963957D01*
X9643128Y-18892529D01*
X9628843Y-18849672D01*
X9614557Y-18821100D01*
X9585986Y-18778243D01*
X9571700Y-18763957D01*
X10114557Y-19221100D02*
X10100271Y-19206814D01*
X10071700Y-19163957D01*
X10057414Y-19135386D01*
X10043128Y-19092529D01*
X10028843Y-19021100D01*
X10028843Y-18963957D01*
X10043128Y-18892529D01*
X10057414Y-18849672D01*
X10071700Y-18821100D01*
X10100271Y-18778243D01*
X10114557Y-18763957D01*
X10228843Y-18906814D02*
X10228843Y-19106814D01*
X10228843Y-18935386D02*
X10243128Y-18921100D01*
X10271700Y-18906814D01*
X10314557Y-18906814D01*
X10343128Y-18921100D01*
X10357414Y-18949672D01*
X10357414Y-19106814D01*
X10543128Y-19106814D02*
X10514557Y-19092529D01*
X10500271Y-19078243D01*
X10485986Y-19049672D01*
X10485986Y-18963957D01*
X10500271Y-18935386D01*
X10514557Y-18921100D01*
X10543128Y-18906814D01*
X10585986Y-18906814D01*
X10614557Y-18921100D01*
X10628843Y-18935386D01*
X10643128Y-18963957D01*
X10643128Y-19049672D01*
X10628843Y-19078243D01*
X10614557Y-19092529D01*
X10585986Y-19106814D01*
X10543128Y-19106814D01*
X10728843Y-18906814D02*
X10843128Y-18906814D01*
X10771700Y-18806814D02*
X10771700Y-19063957D01*
X10785986Y-19092529D01*
X10814557Y-19106814D01*
X10843128Y-19106814D01*
X11171700Y-18906814D02*
X11171700Y-19206814D01*
X11171700Y-18921100D02*
X11200271Y-18906814D01*
X11257414Y-18906814D01*
X11285986Y-18921100D01*
X11300271Y-18935386D01*
X11314557Y-18963957D01*
X11314557Y-19049672D01*
X11300271Y-19078243D01*
X11285986Y-19092529D01*
X11257414Y-19106814D01*
X11200271Y-19106814D01*
X11171700Y-19092529D01*
X11485986Y-19106814D02*
X11457414Y-19092529D01*
X11443128Y-19063957D01*
X11443128Y-18806814D01*
X11728843Y-19106814D02*
X11728843Y-18949672D01*
X11714557Y-18921100D01*
X11685986Y-18906814D01*
X11628843Y-18906814D01*
X11600271Y-18921100D01*
X11728843Y-19092529D02*
X11700271Y-19106814D01*
X11628843Y-19106814D01*
X11600271Y-19092529D01*
X11585986Y-19063957D01*
X11585986Y-19035386D01*
X11600271Y-19006814D01*
X11628843Y-18992529D01*
X11700271Y-18992529D01*
X11728843Y-18978243D01*
X11828843Y-18906814D02*
X11943128Y-18906814D01*
X11871700Y-18806814D02*
X11871700Y-19063957D01*
X11885986Y-19092529D01*
X11914557Y-19106814D01*
X11943128Y-19106814D01*
X12157414Y-19092529D02*
X12128843Y-19106814D01*
X12071700Y-19106814D01*
X12043128Y-19092529D01*
X12028843Y-19063957D01*
X12028843Y-18949672D01*
X12043128Y-18921100D01*
X12071700Y-18906814D01*
X12128843Y-18906814D01*
X12157414Y-18921100D01*
X12171700Y-18949672D01*
X12171700Y-18978243D01*
X12028843Y-19006814D01*
X12428843Y-19106814D02*
X12428843Y-18806814D01*
X12428843Y-19092529D02*
X12400271Y-19106814D01*
X12343128Y-19106814D01*
X12314557Y-19092529D01*
X12300271Y-19078243D01*
X12285986Y-19049672D01*
X12285986Y-18963957D01*
X12300271Y-18935386D01*
X12314557Y-18921100D01*
X12343128Y-18906814D01*
X12400271Y-18906814D01*
X12428843Y-18921100D01*
X12543128Y-19221100D02*
X12557414Y-19206814D01*
X12585986Y-19163957D01*
X12600271Y-19135386D01*
X12614557Y-19092529D01*
X12628843Y-19021100D01*
X12628843Y-18963957D01*
X12614557Y-18892529D01*
X12600271Y-18849672D01*
X12585986Y-18821100D01*
X12557414Y-18778243D01*
X12543128Y-18763957D01*
M02*
