G04 #@! TF.GenerationSoftware,KiCad,Pcbnew,(5.1.6)-1*
G04 #@! TF.CreationDate,2020-11-29T20:56:03-05:00*
G04 #@! TF.ProjectId,CaelusPCB,4361656c-7573-4504-9342-2e6b69636164,rev?*
G04 #@! TF.SameCoordinates,Original*
G04 #@! TF.FileFunction,Soldermask,Bot*
G04 #@! TF.FilePolarity,Negative*
%FSLAX46Y46*%
G04 Gerber Fmt 4.6, Leading zero omitted, Abs format (unit mm)*
G04 Created by KiCad (PCBNEW (5.1.6)-1) date 2020-11-29 20:56:03*
%MOMM*%
%LPD*%
G01*
G04 APERTURE LIST*
%ADD10C,1.422400*%
%ADD11C,2.101600*%
%ADD12C,1.625600*%
%ADD13O,1.801600X1.801600*%
%ADD14R,1.801600X1.801600*%
%ADD15C,6.000000*%
%ADD16O,3.601600X3.601600*%
%ADD17R,2.006600X2.101600*%
%ADD18O,2.006600X2.101600*%
G04 APERTURE END LIST*
D10*
X182910000Y-142120000D03*
X180370000Y-142120000D03*
X177830000Y-142120000D03*
X175290000Y-142120000D03*
X172750000Y-142120000D03*
X170210000Y-142120000D03*
X167670000Y-142120000D03*
X165130000Y-142120000D03*
X162590000Y-142120000D03*
X160050000Y-142120000D03*
X157510000Y-142120000D03*
X154970000Y-142120000D03*
X152430000Y-142120000D03*
X149890000Y-142120000D03*
X147350000Y-142120000D03*
X144810000Y-142120000D03*
X142270000Y-142120000D03*
X139730000Y-142120000D03*
X137190000Y-142120000D03*
X134650000Y-142120000D03*
X132110000Y-142120000D03*
X129570000Y-142120000D03*
X127030000Y-142120000D03*
X124490000Y-142120000D03*
X182910000Y-126880000D03*
X180370000Y-126880000D03*
X177830000Y-126880000D03*
X175290000Y-126880000D03*
X172750000Y-126880000D03*
X170210000Y-126880000D03*
X167670000Y-126880000D03*
X165130000Y-126880000D03*
X162590000Y-126880000D03*
X160050000Y-126880000D03*
X157510000Y-126880000D03*
X154970000Y-126880000D03*
X152430000Y-126880000D03*
X149890000Y-126880000D03*
X147350000Y-126880000D03*
X144810000Y-126880000D03*
X142270000Y-126880000D03*
X139730000Y-126880000D03*
X137190000Y-126880000D03*
X134650000Y-126880000D03*
X132110000Y-126880000D03*
X129570000Y-126880000D03*
X127030000Y-126880000D03*
X124490000Y-126880000D03*
D11*
X237440000Y-75320000D03*
X237440000Y-80400000D03*
X237440000Y-85480000D03*
D12*
X181633000Y-162072000D03*
X178077000Y-162072000D03*
X170965000Y-147975000D03*
X173505000Y-147975000D03*
X176045000Y-147975000D03*
X178585000Y-147975000D03*
X181125000Y-147975000D03*
X183665000Y-147975000D03*
X186205000Y-147975000D03*
X188745000Y-147975000D03*
D13*
X172970000Y-84785000D03*
X175510000Y-87325000D03*
X160270000Y-87325000D03*
X160270000Y-84785000D03*
X175510000Y-84785000D03*
X172970000Y-87325000D03*
X178050000Y-84785000D03*
D14*
X178050000Y-87325000D03*
D13*
X150110000Y-87325000D03*
X150110000Y-84785000D03*
X165350000Y-87325000D03*
X165350000Y-84785000D03*
X145030000Y-87325000D03*
X145030000Y-84785000D03*
X162810000Y-87325000D03*
X162810000Y-84785000D03*
X167890000Y-87325000D03*
X167890000Y-84785000D03*
X155190000Y-87325000D03*
X155190000Y-84785000D03*
X132330000Y-87325000D03*
X132330000Y-84785000D03*
X137410000Y-87325000D03*
X137410000Y-84785000D03*
X134870000Y-87325000D03*
X134870000Y-84785000D03*
X157730000Y-87325000D03*
X157730000Y-84785000D03*
X139950000Y-87325000D03*
X139950000Y-84785000D03*
X170430000Y-87325000D03*
X170430000Y-84785000D03*
X142490000Y-87325000D03*
X142490000Y-84785000D03*
X152650000Y-87325000D03*
X152650000Y-84785000D03*
X147570000Y-87325000D03*
X147570000Y-84785000D03*
X129790000Y-87325000D03*
X129790000Y-84785000D03*
D15*
X182920000Y-86055000D03*
X124920000Y-109055000D03*
X182920000Y-109055000D03*
X124920000Y-86055000D03*
D11*
X208365000Y-94035000D03*
X208365000Y-88955000D03*
X208365000Y-83875000D03*
X216890000Y-110085000D03*
X216890000Y-105005000D03*
X216890000Y-99925000D03*
X216815000Y-83750000D03*
X216815000Y-88830000D03*
X216815000Y-93910000D03*
D12*
X144425000Y-147955000D03*
X141885000Y-147955000D03*
X139345000Y-147955000D03*
X136805000Y-147955000D03*
X134265000Y-147955000D03*
X131725000Y-147955000D03*
X129185000Y-147955000D03*
X126645000Y-147955000D03*
X133757000Y-162052000D03*
X137313000Y-162052000D03*
D11*
X140955000Y-171975000D03*
X135875000Y-171975000D03*
X130795000Y-171975000D03*
D16*
X79000000Y-51840000D03*
D17*
X76460000Y-68500000D03*
D18*
X79000000Y-68500000D03*
X81540000Y-68500000D03*
D11*
X98350000Y-60080000D03*
X98350000Y-55000000D03*
X98350000Y-49920000D03*
X98450000Y-66370000D03*
X98450000Y-71450000D03*
X98450000Y-76530000D03*
X98475000Y-159105000D03*
X98475000Y-154025000D03*
X98475000Y-148945000D03*
X98600000Y-165045000D03*
X98600000Y-170125000D03*
X98600000Y-175205000D03*
X78125000Y-94530000D03*
X78125000Y-89450000D03*
X78125000Y-84370000D03*
X78075000Y-100420000D03*
X78075000Y-105500000D03*
X78075000Y-110580000D03*
X77975000Y-126580000D03*
X77975000Y-121500000D03*
X77975000Y-116420000D03*
X78025000Y-142680000D03*
X78025000Y-137600000D03*
X78025000Y-132520000D03*
D12*
X159413000Y-162082000D03*
X155857000Y-162082000D03*
X148745000Y-147985000D03*
X151285000Y-147985000D03*
X153825000Y-147985000D03*
X156365000Y-147985000D03*
X158905000Y-147985000D03*
X161445000Y-147985000D03*
X163985000Y-147985000D03*
X166525000Y-147985000D03*
D11*
X152595000Y-171975000D03*
X157675000Y-171975000D03*
X162755000Y-171975000D03*
X215925000Y-49820000D03*
X215925000Y-54900000D03*
X215925000Y-59980000D03*
X216975000Y-76555000D03*
X216975000Y-71475000D03*
X216975000Y-66395000D03*
X216960000Y-158740000D03*
X216960000Y-153660000D03*
X216960000Y-148580000D03*
X217000000Y-164600000D03*
X217000000Y-169680000D03*
X217000000Y-174760000D03*
X237450000Y-101840000D03*
X237450000Y-96760000D03*
X237450000Y-91680000D03*
X237310000Y-107670000D03*
X237310000Y-112750000D03*
X237310000Y-117830000D03*
X237370000Y-133970000D03*
X237370000Y-128890000D03*
X237370000Y-123810000D03*
D12*
X210675000Y-148015000D03*
X208135000Y-148015000D03*
X205595000Y-148015000D03*
X203055000Y-148015000D03*
X200515000Y-148015000D03*
X197975000Y-148015000D03*
X195435000Y-148015000D03*
X192895000Y-148015000D03*
X200007000Y-162112000D03*
X203563000Y-162112000D03*
D11*
X196795000Y-172075000D03*
X201875000Y-172075000D03*
X206955000Y-172075000D03*
X174795000Y-172025000D03*
X179875000Y-172025000D03*
X184955000Y-172025000D03*
D12*
X122395000Y-147895000D03*
X119855000Y-147895000D03*
X117315000Y-147895000D03*
X114775000Y-147895000D03*
X112235000Y-147895000D03*
X109695000Y-147895000D03*
X107155000Y-147895000D03*
X104615000Y-147895000D03*
X111727000Y-161992000D03*
X115283000Y-161992000D03*
D11*
X108395000Y-171975000D03*
X113475000Y-171975000D03*
X118555000Y-171975000D03*
X154330000Y-51890000D03*
X149250000Y-51890000D03*
X144170000Y-51890000D03*
D12*
X142940000Y-66310000D03*
X142940000Y-68850000D03*
X142940000Y-71390000D03*
X142930000Y-73930000D03*
X142940000Y-63770000D03*
X170880000Y-63770000D03*
X170880000Y-66310000D03*
X170880000Y-68850000D03*
X170880000Y-71390000D03*
X170880000Y-73930000D03*
D11*
X159570000Y-51890000D03*
X164650000Y-51890000D03*
X169730000Y-51890000D03*
X98450000Y-84320000D03*
X98450000Y-89400000D03*
X98450000Y-94480000D03*
X98475000Y-110480000D03*
X98475000Y-105400000D03*
X98475000Y-100320000D03*
X98475000Y-132270000D03*
X98475000Y-137350000D03*
X98475000Y-142430000D03*
X98525000Y-126530000D03*
X98525000Y-121450000D03*
X98525000Y-116370000D03*
X106550000Y-110480000D03*
X106550000Y-105400000D03*
X106550000Y-100320000D03*
X106550000Y-84395000D03*
X106550000Y-89475000D03*
X106550000Y-94555000D03*
X106600000Y-116220000D03*
X106600000Y-121300000D03*
X106600000Y-126380000D03*
X208340000Y-142235000D03*
X208340000Y-137155000D03*
X208340000Y-132075000D03*
X193480000Y-51900000D03*
X188400000Y-51900000D03*
X183320000Y-51900000D03*
D12*
X210130000Y-73930000D03*
X210130000Y-71390000D03*
X210130000Y-68850000D03*
X210130000Y-66310000D03*
X210130000Y-63770000D03*
X182190000Y-63770000D03*
X182180000Y-73930000D03*
X182190000Y-71390000D03*
X182190000Y-68850000D03*
X182190000Y-66310000D03*
D11*
X198820000Y-51900000D03*
X203900000Y-51900000D03*
X208980000Y-51900000D03*
X216940000Y-115900000D03*
X216940000Y-120980000D03*
X216940000Y-126060000D03*
X216915000Y-141910000D03*
X216915000Y-136830000D03*
X216915000Y-131750000D03*
X208365000Y-115900000D03*
X208365000Y-120980000D03*
X208365000Y-126060000D03*
X208340000Y-99900000D03*
X208340000Y-104980000D03*
X208340000Y-110060000D03*
X115330000Y-51890000D03*
X110250000Y-51890000D03*
X105170000Y-51890000D03*
D12*
X104070000Y-66340000D03*
X104070000Y-68880000D03*
X104070000Y-71420000D03*
X104060000Y-73960000D03*
X104070000Y-63800000D03*
X132010000Y-63800000D03*
X132010000Y-66340000D03*
X132010000Y-68880000D03*
X132010000Y-71420000D03*
X132010000Y-73960000D03*
D11*
X120650000Y-51930000D03*
X125730000Y-51930000D03*
X130810000Y-51930000D03*
M02*
