M48
; DRILL file {KiCad (5.1.10)-1} date 07/26/21 11:57:05
; FORMAT={-:-/ absolute / inch / decimal}
; #@! TF.CreationDate,2021-07-26T11:57:05-04:00
; #@! TF.GenerationSoftware,Kicad,Pcbnew,(5.1.10)-1
FMAT,2
INCH
T1C0.0157
T2C0.0276
T3C0.0300
T4C0.0315
T5C0.0354
T6C0.0370
T7C0.0472
T8C0.0850
T9C0.1378
%
G90
G05
T1
X3.36Y-5.13
X3.5Y-5.13
X3.5329Y-5.6298
X3.5615Y-5.1593
X3.92Y-4.89
X3.92Y-5.26
X3.98Y-5.36
X3.98Y-6.62
X4.0797Y-3.375
X4.08Y-4.89
X4.08Y-5.26
T3
X1.2Y-6.07
X1.2Y-6.17
X1.2Y-6.27
X1.2Y-6.37
X1.2Y-6.47
X1.2Y-6.57
X1.2Y-6.67
X1.2Y-6.77
X1.2Y-6.87
X1.5Y-6.07
X1.5Y-6.17
X1.5Y-6.27
X1.5Y-6.37
X1.5Y-6.47
X1.5Y-6.57
X1.5Y-6.67
X1.5Y-6.77
X1.5Y-6.87
X1.68Y-6.07
X1.68Y-6.17
X1.68Y-6.27
X1.68Y-6.37
X1.68Y-6.47
X1.68Y-6.57
X1.68Y-6.67
X1.68Y-6.77
X1.68Y-6.87
X1.98Y-6.07
X1.98Y-6.17
X1.98Y-6.27
X1.98Y-6.37
X1.98Y-6.47
X1.98Y-6.57
X1.98Y-6.67
X1.98Y-6.77
X1.98Y-6.87
X2.14Y-6.07
X2.14Y-6.17
X2.14Y-6.27
X2.14Y-6.37
X2.14Y-6.47
X2.14Y-6.57
X2.14Y-6.67
X2.14Y-6.77
X2.14Y-6.87
X2.44Y-6.07
X2.44Y-6.17
X2.44Y-6.27
X2.44Y-6.37
X2.44Y-6.47
X2.44Y-6.57
X2.44Y-6.67
X2.44Y-6.77
X2.44Y-6.87
X4.57Y-1.81
X4.93Y-1.81
T4
X5.42Y-1.38
X5.52Y-5.93
X5.52Y-6.23
X5.52Y-6.35
X5.52Y-6.65
X5.72Y-1.38
X5.72Y-5.93
X5.72Y-6.23
X5.72Y-6.35
X5.72Y-6.65
T5
X5.52Y-1.64
X5.62Y-1.64
T6
X3.6333Y-3.5594
X3.6333Y-3.6594
X3.6333Y-3.7594
X3.6333Y-3.8594
X3.6333Y-3.9594
X3.6333Y-4.0594
X3.6333Y-4.1594
X3.6333Y-4.2594
X3.6333Y-4.3594
X3.6333Y-4.4594
X3.6333Y-4.5594
X3.6333Y-4.6594
X3.6333Y-4.7594
X3.6333Y-4.8594
X3.6333Y-4.9594
X3.6333Y-5.0594
X3.6333Y-5.1594
X3.6333Y-5.2594
X3.6333Y-5.3594
X3.6333Y-5.4594
X3.6333Y-5.5594
X3.6333Y-5.6594
X3.6333Y-5.7594
X3.6333Y-5.8594
X4.2333Y-3.5594
X4.2333Y-3.6594
X4.2333Y-3.7594
X4.2333Y-3.8594
X4.2333Y-3.9594
X4.2333Y-4.0594
X4.2333Y-4.1594
X4.2333Y-4.2594
X4.2333Y-4.3594
X4.2333Y-4.4594
X4.2333Y-4.5594
X4.2333Y-4.6594
X4.2333Y-4.7594
X4.2333Y-4.8594
X4.2333Y-4.9594
X4.2333Y-5.0594
X4.2333Y-5.1594
X4.2333Y-5.2594
X4.2333Y-5.3594
X4.2333Y-5.4594
X4.2333Y-5.5594
X4.2333Y-5.6594
X4.2333Y-5.7594
X4.2333Y-5.8594
T7
X3.8437Y-3.2576
X3.9437Y-3.2576
X4.0437Y-3.2576
X6.1Y-5.8
X6.1Y-6.0
X6.1Y-6.2
X6.1Y-6.44
X6.1Y-6.64
X6.1Y-6.84
T8
X2.76Y-6.3744
X2.76Y-6.5594
X2.76Y-6.7444
X2.77Y-3.425
X2.77Y-3.61
X2.77Y-3.795
X2.77Y-4.9244
X2.77Y-5.1094
X2.77Y-5.2944
X3.1833Y-2.6744
X3.1833Y-2.8594
X3.1833Y-3.0444
X3.1833Y-4.1744
X3.1833Y-4.3594
X3.1833Y-4.5444
X3.1833Y-5.6744
X3.1833Y-5.8594
X3.1833Y-6.0444
X4.6833Y-2.6744
X4.6833Y-2.8594
X4.6833Y-3.0444
X4.6833Y-4.1744
X4.6833Y-4.3594
X4.6833Y-4.5444
X4.6833Y-5.6744
X4.6833Y-5.8594
X4.6833Y-6.0444
X5.09Y-3.4244
X5.09Y-3.6094
X5.09Y-3.7944
X5.09Y-4.915
X5.09Y-5.1
X5.09Y-5.285
X5.09Y-6.375
X5.09Y-6.56
X5.09Y-6.745
T9
X3.9437Y-2.6356
T2
G00X1.7863Y-3.6495
M15
G01X1.7863Y-3.5905
M16
G05
G00X1.7863Y-5.1495
M15
G01X1.7863Y-5.0905
M16
G05
G00X2.0737Y-3.6495
M15
G01X2.0737Y-3.5905
M16
G05
G00X2.0737Y-5.1495
M15
G01X2.0737Y-5.0905
M16
G05
G00X3.0063Y-1.8395
M15
G01X3.0063Y-1.7805
M16
G05
G00X3.2937Y-1.8395
M15
G01X3.2937Y-1.7805
M16
G05
G00X5.7963Y-3.6295
M15
G01X5.7963Y-3.5705
M16
G05
G00X5.7963Y-5.1195
M15
G01X5.7963Y-5.0605
M16
G05
G00X6.0837Y-3.6295
M15
G01X6.0837Y-3.5705
M16
G05
G00X6.0837Y-5.1195
M15
G01X6.0837Y-5.0605
M16
G05
T0
M30
