G04 #@! TF.GenerationSoftware,KiCad,Pcbnew,(5.1.10)-1*
G04 #@! TF.CreationDate,2021-07-26T11:56:24-04:00*
G04 #@! TF.ProjectId,Launchbox,4c61756e-6368-4626-9f78-2e6b69636164,Launchbox*
G04 #@! TF.SameCoordinates,Original*
G04 #@! TF.FileFunction,Soldermask,Top*
G04 #@! TF.FilePolarity,Negative*
%FSLAX46Y46*%
G04 Gerber Fmt 4.6, Leading zero omitted, Abs format (unit mm)*
G04 Created by KiCad (PCBNEW (5.1.10)-1) date 2021-07-26 11:56:24*
%MOMM*%
%LPD*%
G01*
G04 APERTURE LIST*
%ADD10C,1.625600*%
%ADD11C,1.422400*%
%ADD12O,1.701600X1.701600*%
%ADD13C,1.701600*%
%ADD14C,1.901600*%
%ADD15C,3.022600*%
%ADD16C,2.101600*%
%ADD17O,3.601600X3.601600*%
%ADD18O,2.006600X2.101600*%
G04 APERTURE END LIST*
D10*
X116078000Y-45974000D03*
X125222000Y-45974000D03*
G36*
G01*
X155288000Y-92990800D02*
X153764000Y-92990800D01*
G75*
G02*
X153713200Y-92940000I0J50800D01*
G01*
X153713200Y-89940000D01*
G75*
G02*
X153764000Y-89889200I50800J0D01*
G01*
X155288000Y-89889200D01*
G75*
G02*
X155338800Y-89940000I0J-50800D01*
G01*
X155338800Y-92940000D01*
G75*
G02*
X155288000Y-92990800I-50800J0D01*
G01*
G37*
G36*
G01*
X147988000Y-92990800D02*
X146464000Y-92990800D01*
G75*
G02*
X146413200Y-92940000I0J50800D01*
G01*
X146413200Y-89940000D01*
G75*
G02*
X146464000Y-89889200I50800J0D01*
G01*
X147988000Y-89889200D01*
G75*
G02*
X148038800Y-89940000I0J-50800D01*
G01*
X148038800Y-92940000D01*
G75*
G02*
X147988000Y-92990800I-50800J0D01*
G01*
G37*
G36*
G01*
X53434000Y-131598800D02*
X51910000Y-131598800D01*
G75*
G02*
X51859200Y-131548000I0J50800D01*
G01*
X51859200Y-128548000D01*
G75*
G02*
X51910000Y-128497200I50800J0D01*
G01*
X53434000Y-128497200D01*
G75*
G02*
X53484800Y-128548000I0J-50800D01*
G01*
X53484800Y-131548000D01*
G75*
G02*
X53434000Y-131598800I-50800J0D01*
G01*
G37*
G36*
G01*
X46134000Y-131598800D02*
X44610000Y-131598800D01*
G75*
G02*
X44559200Y-131548000I0J50800D01*
G01*
X44559200Y-128548000D01*
G75*
G02*
X44610000Y-128497200I50800J0D01*
G01*
X46134000Y-128497200D01*
G75*
G02*
X46184800Y-128548000I0J-50800D01*
G01*
X46184800Y-131548000D01*
G75*
G02*
X46134000Y-131598800I-50800J0D01*
G01*
G37*
G36*
G01*
X155288000Y-130836800D02*
X153764000Y-130836800D01*
G75*
G02*
X153713200Y-130786000I0J50800D01*
G01*
X153713200Y-127786000D01*
G75*
G02*
X153764000Y-127735200I50800J0D01*
G01*
X155288000Y-127735200D01*
G75*
G02*
X155338800Y-127786000I0J-50800D01*
G01*
X155338800Y-130786000D01*
G75*
G02*
X155288000Y-130836800I-50800J0D01*
G01*
G37*
G36*
G01*
X147988000Y-130836800D02*
X146464000Y-130836800D01*
G75*
G02*
X146413200Y-130786000I0J50800D01*
G01*
X146413200Y-127786000D01*
G75*
G02*
X146464000Y-127735200I50800J0D01*
G01*
X147988000Y-127735200D01*
G75*
G02*
X148038800Y-127786000I0J-50800D01*
G01*
X148038800Y-130786000D01*
G75*
G02*
X147988000Y-130836800I-50800J0D01*
G01*
G37*
G36*
G01*
X84422000Y-47524800D02*
X82898000Y-47524800D01*
G75*
G02*
X82847200Y-47474000I0J50800D01*
G01*
X82847200Y-44474000D01*
G75*
G02*
X82898000Y-44423200I50800J0D01*
G01*
X84422000Y-44423200D01*
G75*
G02*
X84472800Y-44474000I0J-50800D01*
G01*
X84472800Y-47474000D01*
G75*
G02*
X84422000Y-47524800I-50800J0D01*
G01*
G37*
G36*
G01*
X77122000Y-47524800D02*
X75598000Y-47524800D01*
G75*
G02*
X75547200Y-47474000I0J50800D01*
G01*
X75547200Y-44474000D01*
G75*
G02*
X75598000Y-44423200I50800J0D01*
G01*
X77122000Y-44423200D01*
G75*
G02*
X77172800Y-44474000I0J-50800D01*
G01*
X77172800Y-47474000D01*
G75*
G02*
X77122000Y-47524800I-50800J0D01*
G01*
G37*
G36*
G01*
X53434000Y-93498800D02*
X51910000Y-93498800D01*
G75*
G02*
X51859200Y-93448000I0J50800D01*
G01*
X51859200Y-90448000D01*
G75*
G02*
X51910000Y-90397200I50800J0D01*
G01*
X53434000Y-90397200D01*
G75*
G02*
X53484800Y-90448000I0J-50800D01*
G01*
X53484800Y-93448000D01*
G75*
G02*
X53434000Y-93498800I-50800J0D01*
G01*
G37*
G36*
G01*
X46134000Y-93498800D02*
X44610000Y-93498800D01*
G75*
G02*
X44559200Y-93448000I0J50800D01*
G01*
X44559200Y-90448000D01*
G75*
G02*
X44610000Y-90397200I50800J0D01*
G01*
X46134000Y-90397200D01*
G75*
G02*
X46184800Y-90448000I0J-50800D01*
G01*
X46184800Y-93448000D01*
G75*
G02*
X46134000Y-93498800I-50800J0D01*
G01*
G37*
D11*
X107525000Y-90409000D03*
X107525000Y-92949000D03*
X107525000Y-95489000D03*
X107525000Y-98029000D03*
X107525000Y-100569000D03*
X107525000Y-103109000D03*
X107525000Y-105649000D03*
X107525000Y-108189000D03*
X107525000Y-110729000D03*
X107525000Y-113269000D03*
X107525000Y-115809000D03*
X107525000Y-118349000D03*
X107525000Y-120889000D03*
X107525000Y-123429000D03*
X107525000Y-125969000D03*
X107525000Y-128509000D03*
X107525000Y-131049000D03*
X107525000Y-133589000D03*
X107525000Y-136129000D03*
X107525000Y-138669000D03*
X107525000Y-141209000D03*
X107525000Y-143749000D03*
X107525000Y-146289000D03*
X107525000Y-148829000D03*
X92285000Y-90409000D03*
X92285000Y-92949000D03*
X92285000Y-95489000D03*
X92285000Y-98029000D03*
X92285000Y-100569000D03*
X92285000Y-103109000D03*
X92285000Y-105649000D03*
X92285000Y-108189000D03*
X92285000Y-110729000D03*
X92285000Y-113269000D03*
X92285000Y-115809000D03*
X92285000Y-118349000D03*
X92285000Y-120889000D03*
X92285000Y-123429000D03*
X92285000Y-125969000D03*
X92285000Y-128509000D03*
X92285000Y-131049000D03*
X92285000Y-133589000D03*
X92285000Y-136129000D03*
X92285000Y-138669000D03*
X92285000Y-141209000D03*
X92285000Y-143749000D03*
X92285000Y-146289000D03*
X92285000Y-148829000D03*
D10*
X38100000Y-156718000D03*
X38100000Y-169418000D03*
X38100000Y-171958000D03*
X38100000Y-154178000D03*
X38100000Y-159258000D03*
X38100000Y-166878000D03*
X38100000Y-164338000D03*
X38100000Y-161798000D03*
X38100000Y-174498000D03*
X30480000Y-174498000D03*
X30480000Y-171958000D03*
X30480000Y-169418000D03*
X30480000Y-166878000D03*
X30480000Y-164338000D03*
X30480000Y-161798000D03*
X30480000Y-159258000D03*
X30480000Y-156718000D03*
X30480000Y-154178000D03*
D12*
X145288000Y-35052000D03*
D13*
X137668000Y-35052000D03*
D14*
X142748000Y-41656000D03*
G36*
G01*
X139257200Y-42556000D02*
X139257200Y-40756000D01*
G75*
G02*
X139308000Y-40705200I50800J0D01*
G01*
X141108000Y-40705200D01*
G75*
G02*
X141158800Y-40756000I0J-50800D01*
G01*
X141158800Y-42556000D01*
G75*
G02*
X141108000Y-42606800I-50800J0D01*
G01*
X139308000Y-42606800D01*
G75*
G02*
X139257200Y-42556000I0J50800D01*
G01*
G37*
D15*
X129286000Y-134239000D03*
X129286000Y-129540000D03*
X129286000Y-124841000D03*
D10*
X61976000Y-156718000D03*
X61976000Y-169418000D03*
X61976000Y-171958000D03*
X61976000Y-154178000D03*
X61976000Y-159258000D03*
X61976000Y-166878000D03*
X61976000Y-164338000D03*
X61976000Y-161798000D03*
X61976000Y-174498000D03*
X54356000Y-174498000D03*
X54356000Y-171958000D03*
X54356000Y-169418000D03*
X54356000Y-166878000D03*
X54356000Y-164338000D03*
X54356000Y-161798000D03*
X54356000Y-159258000D03*
X54356000Y-156718000D03*
X54356000Y-154178000D03*
D15*
X118955000Y-115428000D03*
X118955000Y-110729000D03*
X118955000Y-106030000D03*
X118955000Y-153528000D03*
X118955000Y-148829000D03*
X118955000Y-144130000D03*
D16*
X154940000Y-147320000D03*
X154940000Y-152400000D03*
X154940000Y-157480000D03*
D15*
X80855000Y-115428000D03*
X80855000Y-110729000D03*
X80855000Y-106030000D03*
X80855000Y-153528000D03*
X80855000Y-148829000D03*
X80855000Y-144130000D03*
D16*
X154940000Y-163576000D03*
X154940000Y-168656000D03*
X154940000Y-173736000D03*
D15*
X70358000Y-96393000D03*
X70358000Y-91694000D03*
X70358000Y-86995000D03*
X129286000Y-96378000D03*
X129286000Y-91679000D03*
X129286000Y-86980000D03*
X70358000Y-134478000D03*
X70358000Y-129779000D03*
X70358000Y-125080000D03*
X129286000Y-171323000D03*
X129286000Y-166624000D03*
X129286000Y-161925000D03*
D12*
X145288000Y-150622000D03*
D13*
X145288000Y-158242000D03*
D17*
X100170000Y-66944000D03*
G36*
G01*
X96626700Y-83744000D02*
X96626700Y-81744000D01*
G75*
G02*
X96677500Y-81693200I50800J0D01*
G01*
X98582500Y-81693200D01*
G75*
G02*
X98633300Y-81744000I0J-50800D01*
G01*
X98633300Y-83744000D01*
G75*
G02*
X98582500Y-83794800I-50800J0D01*
G01*
X96677500Y-83794800D01*
G75*
G02*
X96626700Y-83744000I0J50800D01*
G01*
G37*
D18*
X100170000Y-82744000D03*
X102710000Y-82744000D03*
D15*
X80855000Y-77328000D03*
X80855000Y-72629000D03*
X80855000Y-67930000D03*
D12*
X145288000Y-161290000D03*
D13*
X145288000Y-168910000D03*
D10*
X50292000Y-156718000D03*
X50292000Y-169418000D03*
X50292000Y-171958000D03*
X50292000Y-154178000D03*
X50292000Y-159258000D03*
X50292000Y-166878000D03*
X50292000Y-164338000D03*
X50292000Y-161798000D03*
X50292000Y-174498000D03*
X42672000Y-174498000D03*
X42672000Y-171958000D03*
X42672000Y-169418000D03*
X42672000Y-166878000D03*
X42672000Y-164338000D03*
X42672000Y-161798000D03*
X42672000Y-159258000D03*
X42672000Y-156718000D03*
X42672000Y-154178000D03*
G36*
G01*
X46494700Y-50736500D02*
X46494700Y-41211500D01*
G75*
G02*
X46545500Y-41160700I50800J0D01*
G01*
X56070500Y-41160700D01*
G75*
G02*
X56121300Y-41211500I0J-50800D01*
G01*
X56121300Y-50736500D01*
G75*
G02*
X56070500Y-50787300I-50800J0D01*
G01*
X46545500Y-50787300D01*
G75*
G02*
X46494700Y-50736500I0J50800D01*
G01*
G37*
G36*
G01*
X31254700Y-50736500D02*
X31254700Y-41211500D01*
G75*
G02*
X31305500Y-41160700I50800J0D01*
G01*
X40830500Y-41160700D01*
G75*
G02*
X40881300Y-41211500I0J-50800D01*
G01*
X40881300Y-50736500D01*
G75*
G02*
X40830500Y-50787300I-50800J0D01*
G01*
X31305500Y-50787300D01*
G75*
G02*
X31254700Y-50736500I0J50800D01*
G01*
G37*
D15*
X70104000Y-171308000D03*
X70104000Y-166609000D03*
X70104000Y-161910000D03*
D12*
X140208000Y-158242000D03*
D13*
X140208000Y-150622000D03*
D15*
X118955000Y-77328000D03*
X118955000Y-72629000D03*
X118955000Y-67930000D03*
D12*
X140208000Y-161290000D03*
D13*
X140208000Y-168910000D03*
M02*
