M48
; DRILL file {KiCad (5.1.6)-1} date 11/29/20 14:52:04
; FORMAT={-:-/ absolute / inch / decimal}
; #@! TF.CreationDate,2020-11-29T14:52:04-05:00
; #@! TF.GenerationSoftware,Kicad,Pcbnew,(5.1.6)-1
; #@! TF.FileFunction,Plated,1,2,PTH
FMAT,2
INCH
T1C0.0150
T2C0.0300
T3C0.0370
T4C0.0472
T5C0.0850
%
G90
G05
T1
X2.985Y-5.49
X3.65Y-1.77
X3.905Y-4.59
X3.905Y-4.69
X3.965Y-4.39
X3.965Y-4.49
X3.995Y-4.58
X4.035Y-4.5
X4.095Y-4.51
X4.175Y-2.66
X4.225Y-2.68
X4.305Y-5.19
X4.315Y-2.62
X5.04Y-4.865
T2
X5.325Y-5.15
X5.685Y-5.15
X5.325Y-2.9
X5.685Y-2.9
X2.465Y-5.15
X2.825Y-5.15
X3.9103Y-5.7415
X4.2703Y-5.7415
X2.465Y-2.9
X2.825Y-2.9
T3
X3.7833Y-2.8494
X3.7833Y-2.9494
X3.7833Y-3.0494
X3.7833Y-3.1494
X3.7833Y-3.2494
X3.7833Y-3.3494
X3.7833Y-3.4494
X3.7833Y-3.5494
X3.7833Y-3.6494
X3.7833Y-3.7494
X3.7833Y-3.8494
X3.7833Y-3.9494
X3.7833Y-4.0494
X3.7833Y-4.1494
X3.7833Y-4.2494
X3.7833Y-4.3494
X3.7833Y-4.4494
X3.7833Y-4.5494
X3.7833Y-4.6494
X3.7833Y-4.7494
X3.7833Y-4.8494
X3.7833Y-4.9494
X3.7833Y-5.0494
X3.7833Y-5.1494
X4.3833Y-2.8494
X4.3833Y-2.9494
X4.3833Y-3.0494
X4.3833Y-3.1494
X4.3833Y-3.2494
X4.3833Y-3.3494
X4.3833Y-3.4494
X4.3833Y-3.5494
X4.3833Y-3.6494
X4.3833Y-3.7494
X4.3833Y-3.8494
X4.3833Y-3.9494
X4.3833Y-4.0494
X4.3833Y-4.1494
X4.3833Y-4.2494
X4.3833Y-4.3494
X4.3833Y-4.4494
X4.3833Y-4.5494
X4.3833Y-4.6494
X4.3833Y-4.7494
X4.3833Y-4.8494
X4.3833Y-4.9494
X4.3833Y-5.0494
X4.3833Y-5.1494
T4
X3.9937Y-2.5476
X4.0937Y-2.5476
X4.1937Y-2.5476
X6.4159Y-5.7244
X6.4159Y-5.9244
X6.4159Y-6.1244
T5
X3.3333Y-3.4644
X3.3333Y-3.6494
X3.3333Y-3.8344
X4.8333Y-4.2144
X4.8333Y-4.3994
X4.8333Y-4.5844
X3.3333Y-2.7144
X3.3333Y-2.8994
X3.3333Y-3.0844
X3.3333Y-4.9644
X3.3333Y-5.1494
X3.3333Y-5.3344
X4.8333Y-2.7144
X4.8333Y-2.8994
X4.8333Y-3.0844
X4.8333Y-5.6644
X4.8333Y-5.8494
X4.8333Y-6.0344
X3.3333Y-5.6644
X3.3333Y-5.8494
X3.3333Y-6.0344
X4.8333Y-1.9644
X4.8333Y-2.1494
X4.8333Y-2.3344
X3.3333Y-1.9644
X3.3333Y-2.1494
X3.3333Y-2.3344
X4.8333Y-4.9644
X4.8333Y-5.1494
X4.8333Y-5.3344
X3.3333Y-4.2144
X3.3333Y-4.3994
X3.3333Y-4.5844
X4.8333Y-3.4644
X4.8333Y-3.6494
X4.8333Y-3.8344
T0
M30
