G04 #@! TF.GenerationSoftware,KiCad,Pcbnew,(5.1.6)-1*
G04 #@! TF.CreationDate,2020-11-29T20:56:04-05:00*
G04 #@! TF.ProjectId,CaelusPCB,4361656c-7573-4504-9342-2e6b69636164,rev?*
G04 #@! TF.SameCoordinates,Original*
G04 #@! TF.FileFunction,Profile,NP*
%FSLAX46Y46*%
G04 Gerber Fmt 4.6, Leading zero omitted, Abs format (unit mm)*
G04 Created by KiCad (PCBNEW (5.1.6)-1) date 2020-11-29 20:56:04*
%MOMM*%
%LPD*%
G01*
G04 APERTURE LIST*
G04 #@! TA.AperFunction,Profile*
%ADD10C,0.050000*%
G04 #@! TD*
G04 APERTURE END LIST*
D10*
X245000000Y-43000000D02*
X67000000Y-43000000D01*
X245000000Y-181000000D02*
X245000000Y-43000000D01*
X67000000Y-181000000D02*
X245000000Y-181000000D01*
X67000000Y-43000000D02*
X67000000Y-181000000D01*
X111750000Y-110000000D02*
X111750000Y-97000000D01*
X111750000Y-110000000D02*
X118250000Y-110000000D01*
X118250000Y-97000000D02*
X118250000Y-110000000D01*
X111750000Y-97000000D02*
X118250000Y-97000000D01*
X224000000Y-117000000D02*
X224000000Y-104000000D01*
X233500000Y-117000000D02*
X224000000Y-117000000D01*
X233500000Y-104000000D02*
X233500000Y-117000000D01*
X224000000Y-104000000D02*
X233500000Y-104000000D01*
X189000000Y-112000000D02*
X189000000Y-90000000D01*
X203000000Y-112000000D02*
X189000000Y-112000000D01*
X203000000Y-90000000D02*
X203000000Y-112000000D01*
X189000000Y-90000000D02*
X203000000Y-90000000D01*
X93000000Y-118000000D02*
X93000000Y-95000000D01*
X83000000Y-118000000D02*
X93000000Y-118000000D01*
X83000000Y-95000000D02*
X83000000Y-118000000D01*
X83000000Y-95000000D02*
X93000000Y-95000000D01*
M02*
