G04 #@! TF.GenerationSoftware,KiCad,Pcbnew,(5.1.10)-1*
G04 #@! TF.CreationDate,2021-07-26T11:56:24-04:00*
G04 #@! TF.ProjectId,Launchbox,4c61756e-6368-4626-9f78-2e6b69636164,Launchbox*
G04 #@! TF.SameCoordinates,Original*
G04 #@! TF.FileFunction,Legend,Top*
G04 #@! TF.FilePolarity,Positive*
%FSLAX46Y46*%
G04 Gerber Fmt 4.6, Leading zero omitted, Abs format (unit mm)*
G04 Created by KiCad (PCBNEW (5.1.10)-1) date 2021-07-26 11:56:24*
%MOMM*%
%LPD*%
G01*
G04 APERTURE LIST*
%ADD10C,0.150000*%
%ADD11C,0.120000*%
%ADD12C,0.101600*%
%ADD13C,0.203200*%
G04 APERTURE END LIST*
D10*
X119761142Y-32710380D02*
X119761142Y-31710380D01*
X120332571Y-32710380D02*
X119904000Y-32138952D01*
X120332571Y-31710380D02*
X119761142Y-32281809D01*
X120761142Y-32186571D02*
X121094476Y-32186571D01*
X121237333Y-32710380D02*
X120761142Y-32710380D01*
X120761142Y-31710380D01*
X121237333Y-31710380D01*
X121856380Y-32234190D02*
X121856380Y-32710380D01*
X121523047Y-31710380D02*
X121856380Y-32234190D01*
X122189714Y-31710380D01*
X46680761Y-78430380D02*
X46680761Y-77430380D01*
X47061714Y-77430380D01*
X47156952Y-77478000D01*
X47204571Y-77525619D01*
X47252190Y-77620857D01*
X47252190Y-77763714D01*
X47204571Y-77858952D01*
X47156952Y-77906571D01*
X47061714Y-77954190D01*
X46680761Y-77954190D01*
X47680761Y-77430380D02*
X47680761Y-78239904D01*
X47728380Y-78335142D01*
X47776000Y-78382761D01*
X47871238Y-78430380D01*
X48061714Y-78430380D01*
X48156952Y-78382761D01*
X48204571Y-78335142D01*
X48252190Y-78239904D01*
X48252190Y-77430380D01*
X49204571Y-78430380D02*
X48728380Y-78430380D01*
X48728380Y-77430380D01*
X49490285Y-78382761D02*
X49633142Y-78430380D01*
X49871238Y-78430380D01*
X49966476Y-78382761D01*
X50014095Y-78335142D01*
X50061714Y-78239904D01*
X50061714Y-78144666D01*
X50014095Y-78049428D01*
X49966476Y-78001809D01*
X49871238Y-77954190D01*
X49680761Y-77906571D01*
X49585523Y-77858952D01*
X49537904Y-77811333D01*
X49490285Y-77716095D01*
X49490285Y-77620857D01*
X49537904Y-77525619D01*
X49585523Y-77478000D01*
X49680761Y-77430380D01*
X49918857Y-77430380D01*
X50061714Y-77478000D01*
X50490285Y-77906571D02*
X50823619Y-77906571D01*
X50966476Y-78430380D02*
X50490285Y-78430380D01*
X50490285Y-77430380D01*
X50966476Y-77430380D01*
X51918857Y-78430380D02*
X51347428Y-78430380D01*
X51633142Y-78430380D02*
X51633142Y-77430380D01*
X51537904Y-77573238D01*
X51442666Y-77668476D01*
X51347428Y-77716095D01*
X78121142Y-32424666D02*
X78597333Y-32424666D01*
X78025904Y-32710380D02*
X78359238Y-31710380D01*
X78692571Y-32710380D01*
X79359238Y-32186571D02*
X79502095Y-32234190D01*
X79549714Y-32281809D01*
X79597333Y-32377047D01*
X79597333Y-32519904D01*
X79549714Y-32615142D01*
X79502095Y-32662761D01*
X79406857Y-32710380D01*
X79025904Y-32710380D01*
X79025904Y-31710380D01*
X79359238Y-31710380D01*
X79454476Y-31758000D01*
X79502095Y-31805619D01*
X79549714Y-31900857D01*
X79549714Y-31996095D01*
X79502095Y-32091333D01*
X79454476Y-32138952D01*
X79359238Y-32186571D01*
X79025904Y-32186571D01*
X80216380Y-31710380D02*
X80406857Y-31710380D01*
X80502095Y-31758000D01*
X80597333Y-31853238D01*
X80644952Y-32043714D01*
X80644952Y-32377047D01*
X80597333Y-32567523D01*
X80502095Y-32662761D01*
X80406857Y-32710380D01*
X80216380Y-32710380D01*
X80121142Y-32662761D01*
X80025904Y-32567523D01*
X79978285Y-32377047D01*
X79978285Y-32043714D01*
X80025904Y-31853238D01*
X80121142Y-31758000D01*
X80216380Y-31710380D01*
X81644952Y-32710380D02*
X81311619Y-32234190D01*
X81073523Y-32710380D02*
X81073523Y-31710380D01*
X81454476Y-31710380D01*
X81549714Y-31758000D01*
X81597333Y-31805619D01*
X81644952Y-31900857D01*
X81644952Y-32043714D01*
X81597333Y-32138952D01*
X81549714Y-32186571D01*
X81454476Y-32234190D01*
X81073523Y-32234190D01*
X81930666Y-31710380D02*
X82502095Y-31710380D01*
X82216380Y-32710380D02*
X82216380Y-31710380D01*
X46426761Y-116530380D02*
X46426761Y-115530380D01*
X46807714Y-115530380D01*
X46902952Y-115578000D01*
X46950571Y-115625619D01*
X46998190Y-115720857D01*
X46998190Y-115863714D01*
X46950571Y-115958952D01*
X46902952Y-116006571D01*
X46807714Y-116054190D01*
X46426761Y-116054190D01*
X47426761Y-115530380D02*
X47426761Y-116339904D01*
X47474380Y-116435142D01*
X47522000Y-116482761D01*
X47617238Y-116530380D01*
X47807714Y-116530380D01*
X47902952Y-116482761D01*
X47950571Y-116435142D01*
X47998190Y-116339904D01*
X47998190Y-115530380D01*
X48950571Y-116530380D02*
X48474380Y-116530380D01*
X48474380Y-115530380D01*
X49236285Y-116482761D02*
X49379142Y-116530380D01*
X49617238Y-116530380D01*
X49712476Y-116482761D01*
X49760095Y-116435142D01*
X49807714Y-116339904D01*
X49807714Y-116244666D01*
X49760095Y-116149428D01*
X49712476Y-116101809D01*
X49617238Y-116054190D01*
X49426761Y-116006571D01*
X49331523Y-115958952D01*
X49283904Y-115911333D01*
X49236285Y-115816095D01*
X49236285Y-115720857D01*
X49283904Y-115625619D01*
X49331523Y-115578000D01*
X49426761Y-115530380D01*
X49664857Y-115530380D01*
X49807714Y-115578000D01*
X50236285Y-116006571D02*
X50569619Y-116006571D01*
X50712476Y-116530380D02*
X50236285Y-116530380D01*
X50236285Y-115530380D01*
X50712476Y-115530380D01*
X51093428Y-115625619D02*
X51141047Y-115578000D01*
X51236285Y-115530380D01*
X51474380Y-115530380D01*
X51569619Y-115578000D01*
X51617238Y-115625619D01*
X51664857Y-115720857D01*
X51664857Y-115816095D01*
X51617238Y-115958952D01*
X51045809Y-116530380D01*
X51664857Y-116530380D01*
X148534761Y-115768380D02*
X148534761Y-114768380D01*
X148915714Y-114768380D01*
X149010952Y-114816000D01*
X149058571Y-114863619D01*
X149106190Y-114958857D01*
X149106190Y-115101714D01*
X149058571Y-115196952D01*
X149010952Y-115244571D01*
X148915714Y-115292190D01*
X148534761Y-115292190D01*
X149534761Y-114768380D02*
X149534761Y-115577904D01*
X149582380Y-115673142D01*
X149630000Y-115720761D01*
X149725238Y-115768380D01*
X149915714Y-115768380D01*
X150010952Y-115720761D01*
X150058571Y-115673142D01*
X150106190Y-115577904D01*
X150106190Y-114768380D01*
X151058571Y-115768380D02*
X150582380Y-115768380D01*
X150582380Y-114768380D01*
X151344285Y-115720761D02*
X151487142Y-115768380D01*
X151725238Y-115768380D01*
X151820476Y-115720761D01*
X151868095Y-115673142D01*
X151915714Y-115577904D01*
X151915714Y-115482666D01*
X151868095Y-115387428D01*
X151820476Y-115339809D01*
X151725238Y-115292190D01*
X151534761Y-115244571D01*
X151439523Y-115196952D01*
X151391904Y-115149333D01*
X151344285Y-115054095D01*
X151344285Y-114958857D01*
X151391904Y-114863619D01*
X151439523Y-114816000D01*
X151534761Y-114768380D01*
X151772857Y-114768380D01*
X151915714Y-114816000D01*
X152344285Y-115244571D02*
X152677619Y-115244571D01*
X152820476Y-115768380D02*
X152344285Y-115768380D01*
X152344285Y-114768380D01*
X152820476Y-114768380D01*
X153677619Y-115101714D02*
X153677619Y-115768380D01*
X153439523Y-114720761D02*
X153201428Y-115435047D01*
X153820476Y-115435047D01*
D11*
X133350000Y-45974000D02*
G75*
G03*
X133350000Y-45974000I-12700000J0D01*
G01*
X158961000Y-91440000D02*
G75*
G03*
X158961000Y-91440000I-8085000J0D01*
G01*
X57107000Y-130048000D02*
G75*
G03*
X57107000Y-130048000I-8085000J0D01*
G01*
X158961000Y-129286000D02*
G75*
G03*
X158961000Y-129286000I-8085000J0D01*
G01*
X88095000Y-45974000D02*
G75*
G03*
X88095000Y-45974000I-8085000J0D01*
G01*
X57107000Y-91948000D02*
G75*
G03*
X57107000Y-91948000I-8085000J0D01*
G01*
D12*
X91015000Y-154619000D02*
X108795000Y-154619000D01*
X108795000Y-154619000D02*
X108795000Y-89139000D01*
X108795000Y-89139000D02*
X91015000Y-89139000D01*
X91015000Y-154619000D02*
X91015000Y-89139000D01*
X96095000Y-89139000D02*
G75*
G03*
X103715000Y-89139000I3810000J0D01*
G01*
D13*
X37846000Y-152654000D02*
X30734000Y-152654000D01*
X37846000Y-176022000D02*
X30734000Y-176022000D01*
X30480000Y-152400000D02*
G75*
G03*
X30480000Y-152400000I-254000J0D01*
G01*
D11*
X144748000Y-36422000D02*
X144748000Y-36092000D01*
X138208000Y-36422000D02*
X144748000Y-36422000D01*
X138208000Y-36092000D02*
X138208000Y-36422000D01*
X144748000Y-33682000D02*
X144748000Y-34012000D01*
X138208000Y-33682000D02*
X144748000Y-33682000D01*
X138208000Y-34012000D02*
X138208000Y-33682000D01*
X138918000Y-40111000D02*
X138918000Y-43201000D01*
X143978000Y-41656000D02*
G75*
G03*
X143978000Y-41656000I-2500000J0D01*
G01*
X144468000Y-41655538D02*
G75*
G02*
X138918000Y-43200830I-2990000J-462D01*
G01*
X144468000Y-41656462D02*
G75*
G03*
X138918000Y-40111170I-2990000J462D01*
G01*
D12*
X124786000Y-137040000D02*
X133786000Y-137040000D01*
X133786000Y-122040000D02*
X133786000Y-137040000D01*
X124786000Y-122040000D02*
X133786000Y-122040000D01*
X124786000Y-122040000D02*
X124786000Y-137040000D01*
D13*
X61722000Y-152654000D02*
X54610000Y-152654000D01*
X61722000Y-176022000D02*
X54610000Y-176022000D01*
X54356000Y-152400000D02*
G75*
G03*
X54356000Y-152400000I-254000J0D01*
G01*
D12*
X114455000Y-118229000D02*
X123455000Y-118229000D01*
X123455000Y-103229000D02*
X123455000Y-118229000D01*
X114455000Y-103229000D02*
X123455000Y-103229000D01*
X114455000Y-103229000D02*
X114455000Y-118229000D01*
X114455000Y-156329000D02*
X123455000Y-156329000D01*
X123455000Y-141329000D02*
X123455000Y-156329000D01*
X114455000Y-141329000D02*
X123455000Y-141329000D01*
X114455000Y-141329000D02*
X114455000Y-156329000D01*
D11*
X159440000Y-144907000D02*
X150440000Y-144907000D01*
X150440000Y-159893000D02*
X150440000Y-144907000D01*
X159440000Y-159893000D02*
X150440000Y-159893000D01*
X159440000Y-159893000D02*
X159440000Y-144907000D01*
D12*
X76355000Y-118229000D02*
X85355000Y-118229000D01*
X85355000Y-103229000D02*
X85355000Y-118229000D01*
X76355000Y-103229000D02*
X85355000Y-103229000D01*
X76355000Y-103229000D02*
X76355000Y-118229000D01*
X76355000Y-156329000D02*
X85355000Y-156329000D01*
X85355000Y-141329000D02*
X85355000Y-156329000D01*
X76355000Y-141329000D02*
X85355000Y-141329000D01*
X76355000Y-141329000D02*
X76355000Y-156329000D01*
D11*
X159440000Y-161163000D02*
X150440000Y-161163000D01*
X150440000Y-176149000D02*
X150440000Y-161163000D01*
X159440000Y-176149000D02*
X150440000Y-176149000D01*
X159440000Y-176149000D02*
X159440000Y-161163000D01*
D12*
X65858000Y-99194000D02*
X74858000Y-99194000D01*
X74858000Y-84194000D02*
X74858000Y-99194000D01*
X65858000Y-84194000D02*
X74858000Y-84194000D01*
X65858000Y-84194000D02*
X65858000Y-99194000D01*
X124786000Y-99179000D02*
X133786000Y-99179000D01*
X133786000Y-84179000D02*
X133786000Y-99179000D01*
X124786000Y-84179000D02*
X133786000Y-84179000D01*
X124786000Y-84179000D02*
X124786000Y-99179000D01*
X65858000Y-137279000D02*
X74858000Y-137279000D01*
X74858000Y-122279000D02*
X74858000Y-137279000D01*
X65858000Y-122279000D02*
X74858000Y-122279000D01*
X65858000Y-122279000D02*
X65858000Y-137279000D01*
X124786000Y-174124000D02*
X133786000Y-174124000D01*
X133786000Y-159124000D02*
X133786000Y-174124000D01*
X124786000Y-159124000D02*
X133786000Y-159124000D01*
X124786000Y-159124000D02*
X124786000Y-174124000D01*
D11*
X144248000Y-157702000D02*
X143918000Y-157702000D01*
X143918000Y-157702000D02*
X143918000Y-151162000D01*
X143918000Y-151162000D02*
X144248000Y-151162000D01*
X146328000Y-157702000D02*
X146658000Y-157702000D01*
X146658000Y-157702000D02*
X146658000Y-151162000D01*
X146658000Y-151162000D02*
X146328000Y-151162000D01*
X102710000Y-79634000D02*
X102710000Y-81594000D01*
X100170000Y-79634000D02*
X100170000Y-81594000D01*
X97630000Y-79634000D02*
X97630000Y-81594000D01*
X105420000Y-63524000D02*
X105420000Y-79634000D01*
X94920000Y-63524000D02*
X94920000Y-79634000D01*
X94920000Y-63524000D02*
X105420000Y-63524000D01*
X94920000Y-79634000D02*
X105420000Y-79634000D01*
D12*
X76355000Y-80129000D02*
X85355000Y-80129000D01*
X85355000Y-65129000D02*
X85355000Y-80129000D01*
X76355000Y-65129000D02*
X85355000Y-65129000D01*
X76355000Y-65129000D02*
X76355000Y-80129000D01*
D11*
X144248000Y-168370000D02*
X143918000Y-168370000D01*
X143918000Y-168370000D02*
X143918000Y-161830000D01*
X143918000Y-161830000D02*
X144248000Y-161830000D01*
X146328000Y-168370000D02*
X146658000Y-168370000D01*
X146658000Y-168370000D02*
X146658000Y-161830000D01*
X146658000Y-161830000D02*
X146328000Y-161830000D01*
D13*
X50038000Y-152654000D02*
X42926000Y-152654000D01*
X50038000Y-176022000D02*
X42926000Y-176022000D01*
X42672000Y-152400000D02*
G75*
G03*
X42672000Y-152400000I-254000J0D01*
G01*
D12*
X65604000Y-174109000D02*
X74604000Y-174109000D01*
X74604000Y-159109000D02*
X74604000Y-174109000D01*
X65604000Y-159109000D02*
X74604000Y-159109000D01*
X65604000Y-159109000D02*
X65604000Y-174109000D01*
D11*
X141248000Y-151162000D02*
X141578000Y-151162000D01*
X141578000Y-151162000D02*
X141578000Y-157702000D01*
X141578000Y-157702000D02*
X141248000Y-157702000D01*
X139168000Y-151162000D02*
X138838000Y-151162000D01*
X138838000Y-151162000D02*
X138838000Y-157702000D01*
X138838000Y-157702000D02*
X139168000Y-157702000D01*
D12*
X114455000Y-80129000D02*
X123455000Y-80129000D01*
X123455000Y-65129000D02*
X123455000Y-80129000D01*
X114455000Y-65129000D02*
X123455000Y-65129000D01*
X114455000Y-65129000D02*
X114455000Y-80129000D01*
D11*
X139168000Y-168370000D02*
X138838000Y-168370000D01*
X138838000Y-168370000D02*
X138838000Y-161830000D01*
X138838000Y-161830000D02*
X139168000Y-161830000D01*
X141248000Y-168370000D02*
X141578000Y-168370000D01*
X141578000Y-168370000D02*
X141578000Y-161830000D01*
X141578000Y-161830000D02*
X141248000Y-161830000D01*
D10*
X118881116Y-49569001D02*
X119023973Y-49616620D01*
X119262068Y-49616620D01*
X119357306Y-49569001D01*
X119404925Y-49521382D01*
X119452544Y-49426144D01*
X119452544Y-49330906D01*
X119404925Y-49235668D01*
X119357306Y-49188049D01*
X119262068Y-49140430D01*
X119071592Y-49092811D01*
X118976354Y-49045192D01*
X118928735Y-48997573D01*
X118881116Y-48902335D01*
X118881116Y-48807097D01*
X118928735Y-48711859D01*
X118976354Y-48664240D01*
X119071592Y-48616620D01*
X119309687Y-48616620D01*
X119452544Y-48664240D01*
X119785878Y-48616620D02*
X120023973Y-49616620D01*
X120214449Y-48902335D01*
X120404925Y-49616620D01*
X120643020Y-48616620D01*
X121547782Y-49616620D02*
X120976354Y-49616620D01*
X121262068Y-49616620D02*
X121262068Y-48616620D01*
X121166830Y-48759478D01*
X121071592Y-48854716D01*
X120976354Y-48902335D01*
X122119211Y-49045192D02*
X122023973Y-48997573D01*
X121976354Y-48949954D01*
X121928735Y-48854716D01*
X121928735Y-48807097D01*
X121976354Y-48711859D01*
X122023973Y-48664240D01*
X122119211Y-48616620D01*
X122309687Y-48616620D01*
X122404925Y-48664240D01*
X122452544Y-48711859D01*
X122500163Y-48807097D01*
X122500163Y-48854716D01*
X122452544Y-48949954D01*
X122404925Y-48997573D01*
X122309687Y-49045192D01*
X122119211Y-49045192D01*
X122023973Y-49092811D01*
X121976354Y-49140430D01*
X121928735Y-49235668D01*
X121928735Y-49426144D01*
X121976354Y-49521382D01*
X122023973Y-49569001D01*
X122119211Y-49616620D01*
X122309687Y-49616620D01*
X122404925Y-49569001D01*
X122452544Y-49521382D01*
X122500163Y-49426144D01*
X122500163Y-49235668D01*
X122452544Y-49140430D01*
X122404925Y-49092811D01*
X122309687Y-49045192D01*
X149107116Y-95035001D02*
X149249973Y-95082620D01*
X149488068Y-95082620D01*
X149583306Y-95035001D01*
X149630925Y-94987382D01*
X149678544Y-94892144D01*
X149678544Y-94796906D01*
X149630925Y-94701668D01*
X149583306Y-94654049D01*
X149488068Y-94606430D01*
X149297592Y-94558811D01*
X149202354Y-94511192D01*
X149154735Y-94463573D01*
X149107116Y-94368335D01*
X149107116Y-94273097D01*
X149154735Y-94177859D01*
X149202354Y-94130240D01*
X149297592Y-94082620D01*
X149535687Y-94082620D01*
X149678544Y-94130240D01*
X150011878Y-94082620D02*
X150249973Y-95082620D01*
X150440449Y-94368335D01*
X150630925Y-95082620D01*
X150869020Y-94082620D01*
X151773782Y-95082620D02*
X151202354Y-95082620D01*
X151488068Y-95082620D02*
X151488068Y-94082620D01*
X151392830Y-94225478D01*
X151297592Y-94320716D01*
X151202354Y-94368335D01*
X152107116Y-94082620D02*
X152773782Y-94082620D01*
X152345211Y-95082620D01*
X47253116Y-133643001D02*
X47395973Y-133690620D01*
X47634068Y-133690620D01*
X47729306Y-133643001D01*
X47776925Y-133595382D01*
X47824544Y-133500144D01*
X47824544Y-133404906D01*
X47776925Y-133309668D01*
X47729306Y-133262049D01*
X47634068Y-133214430D01*
X47443592Y-133166811D01*
X47348354Y-133119192D01*
X47300735Y-133071573D01*
X47253116Y-132976335D01*
X47253116Y-132881097D01*
X47300735Y-132785859D01*
X47348354Y-132738240D01*
X47443592Y-132690620D01*
X47681687Y-132690620D01*
X47824544Y-132738240D01*
X48157878Y-132690620D02*
X48395973Y-133690620D01*
X48586449Y-132976335D01*
X48776925Y-133690620D01*
X49015020Y-132690620D01*
X49919782Y-133690620D02*
X49348354Y-133690620D01*
X49634068Y-133690620D02*
X49634068Y-132690620D01*
X49538830Y-132833478D01*
X49443592Y-132928716D01*
X49348354Y-132976335D01*
X50824544Y-132690620D02*
X50348354Y-132690620D01*
X50300735Y-133166811D01*
X50348354Y-133119192D01*
X50443592Y-133071573D01*
X50681687Y-133071573D01*
X50776925Y-133119192D01*
X50824544Y-133166811D01*
X50872163Y-133262049D01*
X50872163Y-133500144D01*
X50824544Y-133595382D01*
X50776925Y-133643001D01*
X50681687Y-133690620D01*
X50443592Y-133690620D01*
X50348354Y-133643001D01*
X50300735Y-133595382D01*
X149107116Y-132881001D02*
X149249973Y-132928620D01*
X149488068Y-132928620D01*
X149583306Y-132881001D01*
X149630925Y-132833382D01*
X149678544Y-132738144D01*
X149678544Y-132642906D01*
X149630925Y-132547668D01*
X149583306Y-132500049D01*
X149488068Y-132452430D01*
X149297592Y-132404811D01*
X149202354Y-132357192D01*
X149154735Y-132309573D01*
X149107116Y-132214335D01*
X149107116Y-132119097D01*
X149154735Y-132023859D01*
X149202354Y-131976240D01*
X149297592Y-131928620D01*
X149535687Y-131928620D01*
X149678544Y-131976240D01*
X150011878Y-131928620D02*
X150249973Y-132928620D01*
X150440449Y-132214335D01*
X150630925Y-132928620D01*
X150869020Y-131928620D01*
X151773782Y-132928620D02*
X151202354Y-132928620D01*
X151488068Y-132928620D02*
X151488068Y-131928620D01*
X151392830Y-132071478D01*
X151297592Y-132166716D01*
X151202354Y-132214335D01*
X152630925Y-131928620D02*
X152440449Y-131928620D01*
X152345211Y-131976240D01*
X152297592Y-132023859D01*
X152202354Y-132166716D01*
X152154735Y-132357192D01*
X152154735Y-132738144D01*
X152202354Y-132833382D01*
X152249973Y-132881001D01*
X152345211Y-132928620D01*
X152535687Y-132928620D01*
X152630925Y-132881001D01*
X152678544Y-132833382D01*
X152726163Y-132738144D01*
X152726163Y-132500049D01*
X152678544Y-132404811D01*
X152630925Y-132357192D01*
X152535687Y-132309573D01*
X152345211Y-132309573D01*
X152249973Y-132357192D01*
X152202354Y-132404811D01*
X152154735Y-132500049D01*
X78241116Y-49569001D02*
X78383973Y-49616620D01*
X78622068Y-49616620D01*
X78717306Y-49569001D01*
X78764925Y-49521382D01*
X78812544Y-49426144D01*
X78812544Y-49330906D01*
X78764925Y-49235668D01*
X78717306Y-49188049D01*
X78622068Y-49140430D01*
X78431592Y-49092811D01*
X78336354Y-49045192D01*
X78288735Y-48997573D01*
X78241116Y-48902335D01*
X78241116Y-48807097D01*
X78288735Y-48711859D01*
X78336354Y-48664240D01*
X78431592Y-48616620D01*
X78669687Y-48616620D01*
X78812544Y-48664240D01*
X79145878Y-48616620D02*
X79383973Y-49616620D01*
X79574449Y-48902335D01*
X79764925Y-49616620D01*
X80003020Y-48616620D01*
X80907782Y-49616620D02*
X80336354Y-49616620D01*
X80622068Y-49616620D02*
X80622068Y-48616620D01*
X80526830Y-48759478D01*
X80431592Y-48854716D01*
X80336354Y-48902335D01*
X81241116Y-48616620D02*
X81860163Y-48616620D01*
X81526830Y-48997573D01*
X81669687Y-48997573D01*
X81764925Y-49045192D01*
X81812544Y-49092811D01*
X81860163Y-49188049D01*
X81860163Y-49426144D01*
X81812544Y-49521382D01*
X81764925Y-49569001D01*
X81669687Y-49616620D01*
X81383973Y-49616620D01*
X81288735Y-49569001D01*
X81241116Y-49521382D01*
X47253116Y-95543001D02*
X47395973Y-95590620D01*
X47634068Y-95590620D01*
X47729306Y-95543001D01*
X47776925Y-95495382D01*
X47824544Y-95400144D01*
X47824544Y-95304906D01*
X47776925Y-95209668D01*
X47729306Y-95162049D01*
X47634068Y-95114430D01*
X47443592Y-95066811D01*
X47348354Y-95019192D01*
X47300735Y-94971573D01*
X47253116Y-94876335D01*
X47253116Y-94781097D01*
X47300735Y-94685859D01*
X47348354Y-94638240D01*
X47443592Y-94590620D01*
X47681687Y-94590620D01*
X47824544Y-94638240D01*
X48157878Y-94590620D02*
X48395973Y-95590620D01*
X48586449Y-94876335D01*
X48776925Y-95590620D01*
X49015020Y-94590620D01*
X49919782Y-95590620D02*
X49348354Y-95590620D01*
X49634068Y-95590620D02*
X49634068Y-94590620D01*
X49538830Y-94733478D01*
X49443592Y-94828716D01*
X49348354Y-94876335D01*
X50776925Y-94923954D02*
X50776925Y-95590620D01*
X50538830Y-94543001D02*
X50300735Y-95257287D01*
X50919782Y-95257287D01*
X100544380Y-120380904D02*
X101353904Y-120380904D01*
X101449142Y-120333285D01*
X101496761Y-120285666D01*
X101544380Y-120190428D01*
X101544380Y-119999952D01*
X101496761Y-119904714D01*
X101449142Y-119857095D01*
X101353904Y-119809476D01*
X100544380Y-119809476D01*
X101544380Y-118809476D02*
X101544380Y-119380904D01*
X101544380Y-119095190D02*
X100544380Y-119095190D01*
X100687238Y-119190428D01*
X100782476Y-119285666D01*
X100830095Y-119380904D01*
X33528095Y-163790380D02*
X33528095Y-164599904D01*
X33575714Y-164695142D01*
X33623333Y-164742761D01*
X33718571Y-164790380D01*
X33909047Y-164790380D01*
X34004285Y-164742761D01*
X34051904Y-164695142D01*
X34099523Y-164599904D01*
X34099523Y-163790380D01*
X34480476Y-163790380D02*
X35099523Y-163790380D01*
X34766190Y-164171333D01*
X34909047Y-164171333D01*
X35004285Y-164218952D01*
X35051904Y-164266571D01*
X35099523Y-164361809D01*
X35099523Y-164599904D01*
X35051904Y-164695142D01*
X35004285Y-164742761D01*
X34909047Y-164790380D01*
X34623333Y-164790380D01*
X34528095Y-164742761D01*
X34480476Y-164695142D01*
X141311333Y-35504380D02*
X140978000Y-35028190D01*
X140739904Y-35504380D02*
X140739904Y-34504380D01*
X141120857Y-34504380D01*
X141216095Y-34552000D01*
X141263714Y-34599619D01*
X141311333Y-34694857D01*
X141311333Y-34837714D01*
X141263714Y-34932952D01*
X141216095Y-34980571D01*
X141120857Y-35028190D01*
X140739904Y-35028190D01*
X142216095Y-34504380D02*
X141739904Y-34504380D01*
X141692285Y-34980571D01*
X141739904Y-34932952D01*
X141835142Y-34885333D01*
X142073238Y-34885333D01*
X142168476Y-34932952D01*
X142216095Y-34980571D01*
X142263714Y-35075809D01*
X142263714Y-35313904D01*
X142216095Y-35409142D01*
X142168476Y-35456761D01*
X142073238Y-35504380D01*
X141835142Y-35504380D01*
X141739904Y-35456761D01*
X141692285Y-35409142D01*
X140739904Y-38148380D02*
X140739904Y-37148380D01*
X140978000Y-37148380D01*
X141120857Y-37196000D01*
X141216095Y-37291238D01*
X141263714Y-37386476D01*
X141311333Y-37576952D01*
X141311333Y-37719809D01*
X141263714Y-37910285D01*
X141216095Y-38005523D01*
X141120857Y-38100761D01*
X140978000Y-38148380D01*
X140739904Y-38148380D01*
X142263714Y-38148380D02*
X141692285Y-38148380D01*
X141978000Y-38148380D02*
X141978000Y-37148380D01*
X141882761Y-37291238D01*
X141787523Y-37386476D01*
X141692285Y-37434095D01*
X127952666Y-121562761D02*
X128095523Y-121610380D01*
X128333619Y-121610380D01*
X128428857Y-121562761D01*
X128476476Y-121515142D01*
X128524095Y-121419904D01*
X128524095Y-121324666D01*
X128476476Y-121229428D01*
X128428857Y-121181809D01*
X128333619Y-121134190D01*
X128143142Y-121086571D01*
X128047904Y-121038952D01*
X128000285Y-120991333D01*
X127952666Y-120896095D01*
X127952666Y-120800857D01*
X128000285Y-120705619D01*
X128047904Y-120658000D01*
X128143142Y-120610380D01*
X128381238Y-120610380D01*
X128524095Y-120658000D01*
X128857428Y-120610380D02*
X129095523Y-121610380D01*
X129286000Y-120896095D01*
X129476476Y-121610380D01*
X129714571Y-120610380D01*
X130238380Y-121038952D02*
X130143142Y-120991333D01*
X130095523Y-120943714D01*
X130047904Y-120848476D01*
X130047904Y-120800857D01*
X130095523Y-120705619D01*
X130143142Y-120658000D01*
X130238380Y-120610380D01*
X130428857Y-120610380D01*
X130524095Y-120658000D01*
X130571714Y-120705619D01*
X130619333Y-120800857D01*
X130619333Y-120848476D01*
X130571714Y-120943714D01*
X130524095Y-120991333D01*
X130428857Y-121038952D01*
X130238380Y-121038952D01*
X130143142Y-121086571D01*
X130095523Y-121134190D01*
X130047904Y-121229428D01*
X130047904Y-121419904D01*
X130095523Y-121515142D01*
X130143142Y-121562761D01*
X130238380Y-121610380D01*
X130428857Y-121610380D01*
X130524095Y-121562761D01*
X130571714Y-121515142D01*
X130619333Y-121419904D01*
X130619333Y-121229428D01*
X130571714Y-121134190D01*
X130524095Y-121086571D01*
X130428857Y-121038952D01*
X57404095Y-163790380D02*
X57404095Y-164599904D01*
X57451714Y-164695142D01*
X57499333Y-164742761D01*
X57594571Y-164790380D01*
X57785047Y-164790380D01*
X57880285Y-164742761D01*
X57927904Y-164695142D01*
X57975523Y-164599904D01*
X57975523Y-163790380D01*
X58880285Y-163790380D02*
X58689809Y-163790380D01*
X58594571Y-163838000D01*
X58546952Y-163885619D01*
X58451714Y-164028476D01*
X58404095Y-164218952D01*
X58404095Y-164599904D01*
X58451714Y-164695142D01*
X58499333Y-164742761D01*
X58594571Y-164790380D01*
X58785047Y-164790380D01*
X58880285Y-164742761D01*
X58927904Y-164695142D01*
X58975523Y-164599904D01*
X58975523Y-164361809D01*
X58927904Y-164266571D01*
X58880285Y-164218952D01*
X58785047Y-164171333D01*
X58594571Y-164171333D01*
X58499333Y-164218952D01*
X58451714Y-164266571D01*
X58404095Y-164361809D01*
X117538666Y-102766761D02*
X117681523Y-102814380D01*
X117919619Y-102814380D01*
X118014857Y-102766761D01*
X118062476Y-102719142D01*
X118110095Y-102623904D01*
X118110095Y-102528666D01*
X118062476Y-102433428D01*
X118014857Y-102385809D01*
X117919619Y-102338190D01*
X117729142Y-102290571D01*
X117633904Y-102242952D01*
X117586285Y-102195333D01*
X117538666Y-102100095D01*
X117538666Y-102004857D01*
X117586285Y-101909619D01*
X117633904Y-101862000D01*
X117729142Y-101814380D01*
X117967238Y-101814380D01*
X118110095Y-101862000D01*
X118443428Y-101814380D02*
X118681523Y-102814380D01*
X118872000Y-102100095D01*
X119062476Y-102814380D01*
X119300571Y-101814380D01*
X119729142Y-102814380D02*
X119919619Y-102814380D01*
X120014857Y-102766761D01*
X120062476Y-102719142D01*
X120157714Y-102576285D01*
X120205333Y-102385809D01*
X120205333Y-102004857D01*
X120157714Y-101909619D01*
X120110095Y-101862000D01*
X120014857Y-101814380D01*
X119824380Y-101814380D01*
X119729142Y-101862000D01*
X119681523Y-101909619D01*
X119633904Y-102004857D01*
X119633904Y-102242952D01*
X119681523Y-102338190D01*
X119729142Y-102385809D01*
X119824380Y-102433428D01*
X120014857Y-102433428D01*
X120110095Y-102385809D01*
X120157714Y-102338190D01*
X120205333Y-102242952D01*
X117792666Y-140866761D02*
X117935523Y-140914380D01*
X118173619Y-140914380D01*
X118268857Y-140866761D01*
X118316476Y-140819142D01*
X118364095Y-140723904D01*
X118364095Y-140628666D01*
X118316476Y-140533428D01*
X118268857Y-140485809D01*
X118173619Y-140438190D01*
X117983142Y-140390571D01*
X117887904Y-140342952D01*
X117840285Y-140295333D01*
X117792666Y-140200095D01*
X117792666Y-140104857D01*
X117840285Y-140009619D01*
X117887904Y-139962000D01*
X117983142Y-139914380D01*
X118221238Y-139914380D01*
X118364095Y-139962000D01*
X118697428Y-139914380D02*
X118935523Y-140914380D01*
X119126000Y-140200095D01*
X119316476Y-140914380D01*
X119554571Y-139914380D01*
X119840285Y-139914380D02*
X120506952Y-139914380D01*
X120078380Y-140914380D01*
X157186380Y-153141904D02*
X157995904Y-153141904D01*
X158091142Y-153094285D01*
X158138761Y-153046666D01*
X158186380Y-152951428D01*
X158186380Y-152760952D01*
X158138761Y-152665714D01*
X158091142Y-152618095D01*
X157995904Y-152570476D01*
X157186380Y-152570476D01*
X157614952Y-151951428D02*
X157567333Y-152046666D01*
X157519714Y-152094285D01*
X157424476Y-152141904D01*
X157376857Y-152141904D01*
X157281619Y-152094285D01*
X157234000Y-152046666D01*
X157186380Y-151951428D01*
X157186380Y-151760952D01*
X157234000Y-151665714D01*
X157281619Y-151618095D01*
X157376857Y-151570476D01*
X157424476Y-151570476D01*
X157519714Y-151618095D01*
X157567333Y-151665714D01*
X157614952Y-151760952D01*
X157614952Y-151951428D01*
X157662571Y-152046666D01*
X157710190Y-152094285D01*
X157805428Y-152141904D01*
X157995904Y-152141904D01*
X158091142Y-152094285D01*
X158138761Y-152046666D01*
X158186380Y-151951428D01*
X158186380Y-151760952D01*
X158138761Y-151665714D01*
X158091142Y-151618095D01*
X157995904Y-151570476D01*
X157805428Y-151570476D01*
X157710190Y-151618095D01*
X157662571Y-151665714D01*
X157614952Y-151760952D01*
X79438666Y-102766761D02*
X79581523Y-102814380D01*
X79819619Y-102814380D01*
X79914857Y-102766761D01*
X79962476Y-102719142D01*
X80010095Y-102623904D01*
X80010095Y-102528666D01*
X79962476Y-102433428D01*
X79914857Y-102385809D01*
X79819619Y-102338190D01*
X79629142Y-102290571D01*
X79533904Y-102242952D01*
X79486285Y-102195333D01*
X79438666Y-102100095D01*
X79438666Y-102004857D01*
X79486285Y-101909619D01*
X79533904Y-101862000D01*
X79629142Y-101814380D01*
X79867238Y-101814380D01*
X80010095Y-101862000D01*
X80343428Y-101814380D02*
X80581523Y-102814380D01*
X80772000Y-102100095D01*
X80962476Y-102814380D01*
X81200571Y-101814380D01*
X81486285Y-101814380D02*
X82105333Y-101814380D01*
X81772000Y-102195333D01*
X81914857Y-102195333D01*
X82010095Y-102242952D01*
X82057714Y-102290571D01*
X82105333Y-102385809D01*
X82105333Y-102623904D01*
X82057714Y-102719142D01*
X82010095Y-102766761D01*
X81914857Y-102814380D01*
X81629142Y-102814380D01*
X81533904Y-102766761D01*
X81486285Y-102719142D01*
X79438666Y-140866761D02*
X79581523Y-140914380D01*
X79819619Y-140914380D01*
X79914857Y-140866761D01*
X79962476Y-140819142D01*
X80010095Y-140723904D01*
X80010095Y-140628666D01*
X79962476Y-140533428D01*
X79914857Y-140485809D01*
X79819619Y-140438190D01*
X79629142Y-140390571D01*
X79533904Y-140342952D01*
X79486285Y-140295333D01*
X79438666Y-140200095D01*
X79438666Y-140104857D01*
X79486285Y-140009619D01*
X79533904Y-139962000D01*
X79629142Y-139914380D01*
X79867238Y-139914380D01*
X80010095Y-139962000D01*
X80343428Y-139914380D02*
X80581523Y-140914380D01*
X80772000Y-140200095D01*
X80962476Y-140914380D01*
X81200571Y-139914380D01*
X82057714Y-139914380D02*
X81581523Y-139914380D01*
X81533904Y-140390571D01*
X81581523Y-140342952D01*
X81676761Y-140295333D01*
X81914857Y-140295333D01*
X82010095Y-140342952D01*
X82057714Y-140390571D01*
X82105333Y-140485809D01*
X82105333Y-140723904D01*
X82057714Y-140819142D01*
X82010095Y-140866761D01*
X81914857Y-140914380D01*
X81676761Y-140914380D01*
X81581523Y-140866761D01*
X81533904Y-140819142D01*
X157186380Y-169397904D02*
X157995904Y-169397904D01*
X158091142Y-169350285D01*
X158138761Y-169302666D01*
X158186380Y-169207428D01*
X158186380Y-169016952D01*
X158138761Y-168921714D01*
X158091142Y-168874095D01*
X157995904Y-168826476D01*
X157186380Y-168826476D01*
X157186380Y-168445523D02*
X157186380Y-167778857D01*
X158186380Y-168207428D01*
X69024666Y-83716761D02*
X69167523Y-83764380D01*
X69405619Y-83764380D01*
X69500857Y-83716761D01*
X69548476Y-83669142D01*
X69596095Y-83573904D01*
X69596095Y-83478666D01*
X69548476Y-83383428D01*
X69500857Y-83335809D01*
X69405619Y-83288190D01*
X69215142Y-83240571D01*
X69119904Y-83192952D01*
X69072285Y-83145333D01*
X69024666Y-83050095D01*
X69024666Y-82954857D01*
X69072285Y-82859619D01*
X69119904Y-82812000D01*
X69215142Y-82764380D01*
X69453238Y-82764380D01*
X69596095Y-82812000D01*
X69929428Y-82764380D02*
X70167523Y-83764380D01*
X70358000Y-83050095D01*
X70548476Y-83764380D01*
X70786571Y-82764380D01*
X71119904Y-82859619D02*
X71167523Y-82812000D01*
X71262761Y-82764380D01*
X71500857Y-82764380D01*
X71596095Y-82812000D01*
X71643714Y-82859619D01*
X71691333Y-82954857D01*
X71691333Y-83050095D01*
X71643714Y-83192952D01*
X71072285Y-83764380D01*
X71691333Y-83764380D01*
X127476476Y-83716761D02*
X127619333Y-83764380D01*
X127857428Y-83764380D01*
X127952666Y-83716761D01*
X128000285Y-83669142D01*
X128047904Y-83573904D01*
X128047904Y-83478666D01*
X128000285Y-83383428D01*
X127952666Y-83335809D01*
X127857428Y-83288190D01*
X127666952Y-83240571D01*
X127571714Y-83192952D01*
X127524095Y-83145333D01*
X127476476Y-83050095D01*
X127476476Y-82954857D01*
X127524095Y-82859619D01*
X127571714Y-82812000D01*
X127666952Y-82764380D01*
X127905047Y-82764380D01*
X128047904Y-82812000D01*
X128381238Y-82764380D02*
X128619333Y-83764380D01*
X128809809Y-83050095D01*
X129000285Y-83764380D01*
X129238380Y-82764380D01*
X130143142Y-83764380D02*
X129571714Y-83764380D01*
X129857428Y-83764380D02*
X129857428Y-82764380D01*
X129762190Y-82907238D01*
X129666952Y-83002476D01*
X129571714Y-83050095D01*
X130762190Y-82764380D02*
X130857428Y-82764380D01*
X130952666Y-82812000D01*
X131000285Y-82859619D01*
X131047904Y-82954857D01*
X131095523Y-83145333D01*
X131095523Y-83383428D01*
X131047904Y-83573904D01*
X131000285Y-83669142D01*
X130952666Y-83716761D01*
X130857428Y-83764380D01*
X130762190Y-83764380D01*
X130666952Y-83716761D01*
X130619333Y-83669142D01*
X130571714Y-83573904D01*
X130524095Y-83383428D01*
X130524095Y-83145333D01*
X130571714Y-82954857D01*
X130619333Y-82859619D01*
X130666952Y-82812000D01*
X130762190Y-82764380D01*
X69024666Y-121816761D02*
X69167523Y-121864380D01*
X69405619Y-121864380D01*
X69500857Y-121816761D01*
X69548476Y-121769142D01*
X69596095Y-121673904D01*
X69596095Y-121578666D01*
X69548476Y-121483428D01*
X69500857Y-121435809D01*
X69405619Y-121388190D01*
X69215142Y-121340571D01*
X69119904Y-121292952D01*
X69072285Y-121245333D01*
X69024666Y-121150095D01*
X69024666Y-121054857D01*
X69072285Y-120959619D01*
X69119904Y-120912000D01*
X69215142Y-120864380D01*
X69453238Y-120864380D01*
X69596095Y-120912000D01*
X69929428Y-120864380D02*
X70167523Y-121864380D01*
X70358000Y-121150095D01*
X70548476Y-121864380D01*
X70786571Y-120864380D01*
X71596095Y-121197714D02*
X71596095Y-121864380D01*
X71358000Y-120816761D02*
X71119904Y-121531047D01*
X71738952Y-121531047D01*
X127476476Y-158646761D02*
X127619333Y-158694380D01*
X127857428Y-158694380D01*
X127952666Y-158646761D01*
X128000285Y-158599142D01*
X128047904Y-158503904D01*
X128047904Y-158408666D01*
X128000285Y-158313428D01*
X127952666Y-158265809D01*
X127857428Y-158218190D01*
X127666952Y-158170571D01*
X127571714Y-158122952D01*
X127524095Y-158075333D01*
X127476476Y-157980095D01*
X127476476Y-157884857D01*
X127524095Y-157789619D01*
X127571714Y-157742000D01*
X127666952Y-157694380D01*
X127905047Y-157694380D01*
X128047904Y-157742000D01*
X128381238Y-157694380D02*
X128619333Y-158694380D01*
X128809809Y-157980095D01*
X129000285Y-158694380D01*
X129238380Y-157694380D01*
X130143142Y-158694380D02*
X129571714Y-158694380D01*
X129857428Y-158694380D02*
X129857428Y-157694380D01*
X129762190Y-157837238D01*
X129666952Y-157932476D01*
X129571714Y-157980095D01*
X130524095Y-157789619D02*
X130571714Y-157742000D01*
X130666952Y-157694380D01*
X130905047Y-157694380D01*
X131000285Y-157742000D01*
X131047904Y-157789619D01*
X131095523Y-157884857D01*
X131095523Y-157980095D01*
X131047904Y-158122952D01*
X130476476Y-158694380D01*
X131095523Y-158694380D01*
X145740380Y-154598666D02*
X145264190Y-154932000D01*
X145740380Y-155170095D02*
X144740380Y-155170095D01*
X144740380Y-154789142D01*
X144788000Y-154693904D01*
X144835619Y-154646285D01*
X144930857Y-154598666D01*
X145073714Y-154598666D01*
X145168952Y-154646285D01*
X145216571Y-154693904D01*
X145264190Y-154789142D01*
X145264190Y-155170095D01*
X144835619Y-154217714D02*
X144788000Y-154170095D01*
X144740380Y-154074857D01*
X144740380Y-153836761D01*
X144788000Y-153741523D01*
X144835619Y-153693904D01*
X144930857Y-153646285D01*
X145026095Y-153646285D01*
X145168952Y-153693904D01*
X145740380Y-154265333D01*
X145740380Y-153646285D01*
X99408095Y-61976380D02*
X99408095Y-62785904D01*
X99455714Y-62881142D01*
X99503333Y-62928761D01*
X99598571Y-62976380D01*
X99789047Y-62976380D01*
X99884285Y-62928761D01*
X99931904Y-62881142D01*
X99979523Y-62785904D01*
X99979523Y-61976380D01*
X100408095Y-62071619D02*
X100455714Y-62024000D01*
X100550952Y-61976380D01*
X100789047Y-61976380D01*
X100884285Y-62024000D01*
X100931904Y-62071619D01*
X100979523Y-62166857D01*
X100979523Y-62262095D01*
X100931904Y-62404952D01*
X100360476Y-62976380D01*
X100979523Y-62976380D01*
X79692666Y-64666761D02*
X79835523Y-64714380D01*
X80073619Y-64714380D01*
X80168857Y-64666761D01*
X80216476Y-64619142D01*
X80264095Y-64523904D01*
X80264095Y-64428666D01*
X80216476Y-64333428D01*
X80168857Y-64285809D01*
X80073619Y-64238190D01*
X79883142Y-64190571D01*
X79787904Y-64142952D01*
X79740285Y-64095333D01*
X79692666Y-64000095D01*
X79692666Y-63904857D01*
X79740285Y-63809619D01*
X79787904Y-63762000D01*
X79883142Y-63714380D01*
X80121238Y-63714380D01*
X80264095Y-63762000D01*
X80597428Y-63714380D02*
X80835523Y-64714380D01*
X81026000Y-64000095D01*
X81216476Y-64714380D01*
X81454571Y-63714380D01*
X82359333Y-64714380D02*
X81787904Y-64714380D01*
X82073619Y-64714380D02*
X82073619Y-63714380D01*
X81978380Y-63857238D01*
X81883142Y-63952476D01*
X81787904Y-64000095D01*
X145740380Y-165266666D02*
X145264190Y-165600000D01*
X145740380Y-165838095D02*
X144740380Y-165838095D01*
X144740380Y-165457142D01*
X144788000Y-165361904D01*
X144835619Y-165314285D01*
X144930857Y-165266666D01*
X145073714Y-165266666D01*
X145168952Y-165314285D01*
X145216571Y-165361904D01*
X145264190Y-165457142D01*
X145264190Y-165838095D01*
X145073714Y-164409523D02*
X145740380Y-164409523D01*
X144692761Y-164647619D02*
X145407047Y-164885714D01*
X145407047Y-164266666D01*
X45720095Y-163790380D02*
X45720095Y-164599904D01*
X45767714Y-164695142D01*
X45815333Y-164742761D01*
X45910571Y-164790380D01*
X46101047Y-164790380D01*
X46196285Y-164742761D01*
X46243904Y-164695142D01*
X46291523Y-164599904D01*
X46291523Y-163790380D01*
X47243904Y-163790380D02*
X46767714Y-163790380D01*
X46720095Y-164266571D01*
X46767714Y-164218952D01*
X46862952Y-164171333D01*
X47101047Y-164171333D01*
X47196285Y-164218952D01*
X47243904Y-164266571D01*
X47291523Y-164361809D01*
X47291523Y-164599904D01*
X47243904Y-164695142D01*
X47196285Y-164742761D01*
X47101047Y-164790380D01*
X46862952Y-164790380D01*
X46767714Y-164742761D01*
X46720095Y-164695142D01*
X43112285Y-52682571D02*
X43255142Y-52730190D01*
X43302761Y-52777809D01*
X43350380Y-52873047D01*
X43350380Y-53015904D01*
X43302761Y-53111142D01*
X43255142Y-53158761D01*
X43159904Y-53206380D01*
X42778952Y-53206380D01*
X42778952Y-52206380D01*
X43112285Y-52206380D01*
X43207523Y-52254000D01*
X43255142Y-52301619D01*
X43302761Y-52396857D01*
X43302761Y-52492095D01*
X43255142Y-52587333D01*
X43207523Y-52634952D01*
X43112285Y-52682571D01*
X42778952Y-52682571D01*
X43636095Y-52206380D02*
X44207523Y-52206380D01*
X43921809Y-53206380D02*
X43921809Y-52206380D01*
X45064666Y-53206380D02*
X44493238Y-53206380D01*
X44778952Y-53206380D02*
X44778952Y-52206380D01*
X44683714Y-52349238D01*
X44588476Y-52444476D01*
X44493238Y-52492095D01*
X68770666Y-158646761D02*
X68913523Y-158694380D01*
X69151619Y-158694380D01*
X69246857Y-158646761D01*
X69294476Y-158599142D01*
X69342095Y-158503904D01*
X69342095Y-158408666D01*
X69294476Y-158313428D01*
X69246857Y-158265809D01*
X69151619Y-158218190D01*
X68961142Y-158170571D01*
X68865904Y-158122952D01*
X68818285Y-158075333D01*
X68770666Y-157980095D01*
X68770666Y-157884857D01*
X68818285Y-157789619D01*
X68865904Y-157742000D01*
X68961142Y-157694380D01*
X69199238Y-157694380D01*
X69342095Y-157742000D01*
X69675428Y-157694380D02*
X69913523Y-158694380D01*
X70104000Y-157980095D01*
X70294476Y-158694380D01*
X70532571Y-157694380D01*
X71342095Y-157694380D02*
X71151619Y-157694380D01*
X71056380Y-157742000D01*
X71008761Y-157789619D01*
X70913523Y-157932476D01*
X70865904Y-158122952D01*
X70865904Y-158503904D01*
X70913523Y-158599142D01*
X70961142Y-158646761D01*
X71056380Y-158694380D01*
X71246857Y-158694380D01*
X71342095Y-158646761D01*
X71389714Y-158599142D01*
X71437333Y-158503904D01*
X71437333Y-158265809D01*
X71389714Y-158170571D01*
X71342095Y-158122952D01*
X71246857Y-158075333D01*
X71056380Y-158075333D01*
X70961142Y-158122952D01*
X70913523Y-158170571D01*
X70865904Y-158265809D01*
X140660380Y-154598666D02*
X140184190Y-154932000D01*
X140660380Y-155170095D02*
X139660380Y-155170095D01*
X139660380Y-154789142D01*
X139708000Y-154693904D01*
X139755619Y-154646285D01*
X139850857Y-154598666D01*
X139993714Y-154598666D01*
X140088952Y-154646285D01*
X140136571Y-154693904D01*
X140184190Y-154789142D01*
X140184190Y-155170095D01*
X140660380Y-153646285D02*
X140660380Y-154217714D01*
X140660380Y-153932000D02*
X139660380Y-153932000D01*
X139803238Y-154027238D01*
X139898476Y-154122476D01*
X139946095Y-154217714D01*
X117062476Y-64666761D02*
X117205333Y-64714380D01*
X117443428Y-64714380D01*
X117538666Y-64666761D01*
X117586285Y-64619142D01*
X117633904Y-64523904D01*
X117633904Y-64428666D01*
X117586285Y-64333428D01*
X117538666Y-64285809D01*
X117443428Y-64238190D01*
X117252952Y-64190571D01*
X117157714Y-64142952D01*
X117110095Y-64095333D01*
X117062476Y-64000095D01*
X117062476Y-63904857D01*
X117110095Y-63809619D01*
X117157714Y-63762000D01*
X117252952Y-63714380D01*
X117491047Y-63714380D01*
X117633904Y-63762000D01*
X117967238Y-63714380D02*
X118205333Y-64714380D01*
X118395809Y-64000095D01*
X118586285Y-64714380D01*
X118824380Y-63714380D01*
X119729142Y-64714380D02*
X119157714Y-64714380D01*
X119443428Y-64714380D02*
X119443428Y-63714380D01*
X119348190Y-63857238D01*
X119252952Y-63952476D01*
X119157714Y-64000095D01*
X120681523Y-64714380D02*
X120110095Y-64714380D01*
X120395809Y-64714380D02*
X120395809Y-63714380D01*
X120300571Y-63857238D01*
X120205333Y-63952476D01*
X120110095Y-64000095D01*
X140660380Y-165266666D02*
X140184190Y-165600000D01*
X140660380Y-165838095D02*
X139660380Y-165838095D01*
X139660380Y-165457142D01*
X139708000Y-165361904D01*
X139755619Y-165314285D01*
X139850857Y-165266666D01*
X139993714Y-165266666D01*
X140088952Y-165314285D01*
X140136571Y-165361904D01*
X140184190Y-165457142D01*
X140184190Y-165838095D01*
X139660380Y-164933333D02*
X139660380Y-164314285D01*
X140041333Y-164647619D01*
X140041333Y-164504761D01*
X140088952Y-164409523D01*
X140136571Y-164361904D01*
X140231809Y-164314285D01*
X140469904Y-164314285D01*
X140565142Y-164361904D01*
X140612761Y-164409523D01*
X140660380Y-164504761D01*
X140660380Y-164790476D01*
X140612761Y-164885714D01*
X140565142Y-164933333D01*
M02*
