%TF.GenerationSoftware,KiCad,Pcbnew,(5.1.10)-1*%
%TF.CreationDate,2021-07-09T21:45:07-04:00*%
%TF.ProjectId,CaelusPCB,4361656c-7573-4504-9342-2e6b69636164,v02*%
%TF.SameCoordinates,Original*%
%TF.FileFunction,Legend,Top*%
%TF.FilePolarity,Positive*%
%FSLAX46Y46*%
G04 Gerber Fmt 4.6, Leading zero omitted, Abs format (unit mm)*
G04 Created by KiCad (PCBNEW (5.1.10)-1) date 2021-07-09 21:45:07*
%MOMM*%
%LPD*%
G01*
G04 APERTURE LIST*
%ADD10C,0.120000*%
%ADD11C,0.127000*%
%ADD12C,0.200000*%
%ADD13C,0.101600*%
%ADD14C,0.150000*%
G04 APERTURE END LIST*
D10*
%TO.C,U56*%
X94915000Y-113365000D02*
X94915000Y-139365000D01*
X94915000Y-113365000D02*
X68915000Y-113365000D01*
X68915000Y-113365000D02*
X68915000Y-139365000D01*
X94915000Y-139365000D02*
X68915000Y-139365000D01*
D11*
%TO.C,J3*%
X223222000Y-126730000D02*
X223222000Y-121530000D01*
X223222000Y-121530000D02*
X235248000Y-121530000D01*
X235248000Y-121530000D02*
X235248000Y-126730000D01*
X235248000Y-126730000D02*
X223222000Y-126730000D01*
D12*
X233348000Y-120930000D02*
G75*
G03*
X233348000Y-120930000I-100000J0D01*
G01*
D11*
%TO.C,J2*%
X223222000Y-136255000D02*
X223222000Y-131055000D01*
X223222000Y-131055000D02*
X235248000Y-131055000D01*
X235248000Y-131055000D02*
X235248000Y-136255000D01*
X235248000Y-136255000D02*
X223222000Y-136255000D01*
D12*
X233348000Y-130455000D02*
G75*
G03*
X233348000Y-130455000I-100000J0D01*
G01*
D11*
%TO.C,J1*%
X223222000Y-117205000D02*
X223222000Y-112005000D01*
X223222000Y-112005000D02*
X235248000Y-112005000D01*
X235248000Y-112005000D02*
X235248000Y-117205000D01*
X235248000Y-117205000D02*
X223222000Y-117205000D01*
D12*
X233348000Y-111405000D02*
G75*
G03*
X233348000Y-111405000I-100000J0D01*
G01*
D10*
%TO.C,R3*%
X110085000Y-54610000D02*
X109395000Y-54610000D01*
X99465000Y-54610000D02*
X100155000Y-54610000D01*
X109395000Y-52890000D02*
X100155000Y-52890000D01*
X109395000Y-56330000D02*
X109395000Y-52890000D01*
X100155000Y-56330000D02*
X109395000Y-56330000D01*
X100155000Y-52890000D02*
X100155000Y-56330000D01*
%TO.C,R17*%
X117935000Y-59240000D02*
X117935000Y-62680000D01*
X117935000Y-62680000D02*
X127175000Y-62680000D01*
X127175000Y-62680000D02*
X127175000Y-59240000D01*
X127175000Y-59240000D02*
X117935000Y-59240000D01*
X117245000Y-60960000D02*
X117935000Y-60960000D01*
X127865000Y-60960000D02*
X127175000Y-60960000D01*
%TO.C,R10*%
X117935000Y-52890000D02*
X117935000Y-56330000D01*
X117935000Y-56330000D02*
X127175000Y-56330000D01*
X127175000Y-56330000D02*
X127175000Y-52890000D01*
X127175000Y-52890000D02*
X117935000Y-52890000D01*
X117245000Y-54610000D02*
X117935000Y-54610000D01*
X127865000Y-54610000D02*
X127175000Y-54610000D01*
%TO.C,D2*%
X113480000Y-62229538D02*
G75*
G02*
X107930000Y-63774830I-2990000J-462D01*
G01*
X113480000Y-62230462D02*
G75*
G03*
X107930000Y-60685170I-2990000J462D01*
G01*
X112990000Y-62230000D02*
G75*
G03*
X112990000Y-62230000I-2500000J0D01*
G01*
X107930000Y-60685000D02*
X107930000Y-63775000D01*
%TO.C,D1*%
X103955000Y-62229538D02*
G75*
G02*
X98405000Y-63774830I-2990000J-462D01*
G01*
X103955000Y-62230462D02*
G75*
G03*
X98405000Y-60685170I-2990000J462D01*
G01*
X103465000Y-62230000D02*
G75*
G03*
X103465000Y-62230000I-2500000J0D01*
G01*
X98405000Y-60685000D02*
X98405000Y-63775000D01*
D13*
%TO.C,U23*%
X138430000Y-59690000D02*
G75*
G03*
X146050000Y-59690000I3810000J0D01*
G01*
X133350000Y-125170000D02*
X151130000Y-125170000D01*
X151130000Y-125170000D02*
X151130000Y-59690000D01*
X151130000Y-59690000D02*
X133350000Y-59690000D01*
X133350000Y-125170000D02*
X133350000Y-59690000D01*
D12*
%TO.C,J27*%
X160653000Y-107670000D02*
G75*
G03*
X160653000Y-107670000I-100000J0D01*
G01*
D11*
X158553000Y-101870000D02*
X166567000Y-101870000D01*
X158553000Y-107070000D02*
X158553000Y-101870000D01*
X166567000Y-107070000D02*
X158553000Y-107070000D01*
X166567000Y-101870000D02*
X166567000Y-107070000D01*
D12*
%TO.C,J26*%
X173988000Y-107670000D02*
G75*
G03*
X173988000Y-107670000I-100000J0D01*
G01*
D11*
X171888000Y-101870000D02*
X179902000Y-101870000D01*
X171888000Y-107070000D02*
X171888000Y-101870000D01*
X179902000Y-107070000D02*
X171888000Y-107070000D01*
X179902000Y-101870000D02*
X179902000Y-107070000D01*
D12*
%TO.C,J25*%
X200658000Y-107670000D02*
G75*
G03*
X200658000Y-107670000I-100000J0D01*
G01*
D11*
X198558000Y-101870000D02*
X206572000Y-101870000D01*
X198558000Y-107070000D02*
X198558000Y-101870000D01*
X206572000Y-107070000D02*
X198558000Y-107070000D01*
X206572000Y-101870000D02*
X206572000Y-107070000D01*
D12*
%TO.C,J24*%
X227328000Y-107670000D02*
G75*
G03*
X227328000Y-107670000I-100000J0D01*
G01*
D11*
X225228000Y-101870000D02*
X233242000Y-101870000D01*
X225228000Y-107070000D02*
X225228000Y-101870000D01*
X233242000Y-107070000D02*
X225228000Y-107070000D01*
X233242000Y-101870000D02*
X233242000Y-107070000D01*
D12*
%TO.C,J23*%
X200658000Y-82270000D02*
G75*
G03*
X200658000Y-82270000I-100000J0D01*
G01*
D11*
X198558000Y-76470000D02*
X206572000Y-76470000D01*
X198558000Y-81670000D02*
X198558000Y-76470000D01*
X206572000Y-81670000D02*
X198558000Y-81670000D01*
X206572000Y-76470000D02*
X206572000Y-81670000D01*
D12*
%TO.C,J22*%
X160653000Y-82270000D02*
G75*
G03*
X160653000Y-82270000I-100000J0D01*
G01*
D11*
X158553000Y-76470000D02*
X166567000Y-76470000D01*
X158553000Y-81670000D02*
X158553000Y-76470000D01*
X166567000Y-81670000D02*
X158553000Y-81670000D01*
X166567000Y-76470000D02*
X166567000Y-81670000D01*
D12*
%TO.C,J21*%
X227328000Y-82270000D02*
G75*
G03*
X227328000Y-82270000I-100000J0D01*
G01*
D11*
X225228000Y-76470000D02*
X233242000Y-76470000D01*
X225228000Y-81670000D02*
X225228000Y-76470000D01*
X233242000Y-81670000D02*
X225228000Y-81670000D01*
X233242000Y-76470000D02*
X233242000Y-81670000D01*
D12*
%TO.C,J20*%
X187323000Y-107670000D02*
G75*
G03*
X187323000Y-107670000I-100000J0D01*
G01*
D11*
X185223000Y-101870000D02*
X193237000Y-101870000D01*
X185223000Y-107070000D02*
X185223000Y-101870000D01*
X193237000Y-107070000D02*
X185223000Y-107070000D01*
X193237000Y-101870000D02*
X193237000Y-107070000D01*
D12*
%TO.C,J19*%
X213993000Y-107670000D02*
G75*
G03*
X213993000Y-107670000I-100000J0D01*
G01*
D11*
X211893000Y-101870000D02*
X219907000Y-101870000D01*
X211893000Y-107070000D02*
X211893000Y-101870000D01*
X219907000Y-107070000D02*
X211893000Y-107070000D01*
X219907000Y-101870000D02*
X219907000Y-107070000D01*
D12*
%TO.C,J18*%
X213993000Y-82270000D02*
G75*
G03*
X213993000Y-82270000I-100000J0D01*
G01*
D11*
X211893000Y-76470000D02*
X219907000Y-76470000D01*
X211893000Y-81670000D02*
X211893000Y-76470000D01*
X219907000Y-81670000D02*
X211893000Y-81670000D01*
X219907000Y-76470000D02*
X219907000Y-81670000D01*
D12*
%TO.C,J17*%
X187323000Y-82270000D02*
G75*
G03*
X187323000Y-82270000I-100000J0D01*
G01*
D11*
X185223000Y-76470000D02*
X193237000Y-76470000D01*
X185223000Y-81670000D02*
X185223000Y-76470000D01*
X193237000Y-81670000D02*
X185223000Y-81670000D01*
X193237000Y-76470000D02*
X193237000Y-81670000D01*
D12*
%TO.C,J16*%
X173988000Y-82270000D02*
G75*
G03*
X173988000Y-82270000I-100000J0D01*
G01*
D11*
X171888000Y-76470000D02*
X179902000Y-76470000D01*
X171888000Y-81670000D02*
X171888000Y-76470000D01*
X179902000Y-81670000D02*
X171888000Y-81670000D01*
X179902000Y-76470000D02*
X179902000Y-81670000D01*
%TO.C,J15*%
X63062000Y-104410000D02*
X63062000Y-109610000D01*
X63062000Y-109610000D02*
X55048000Y-109610000D01*
X55048000Y-109610000D02*
X55048000Y-104410000D01*
X55048000Y-104410000D02*
X63062000Y-104410000D01*
D12*
X57148000Y-110210000D02*
G75*
G03*
X57148000Y-110210000I-100000J0D01*
G01*
D11*
%TO.C,J14*%
X126562000Y-104410000D02*
X126562000Y-109610000D01*
X126562000Y-109610000D02*
X118548000Y-109610000D01*
X118548000Y-109610000D02*
X118548000Y-104410000D01*
X118548000Y-104410000D02*
X126562000Y-104410000D01*
D12*
X120648000Y-110210000D02*
G75*
G03*
X120648000Y-110210000I-100000J0D01*
G01*
D11*
%TO.C,J13*%
X113862000Y-104410000D02*
X113862000Y-109610000D01*
X113862000Y-109610000D02*
X105848000Y-109610000D01*
X105848000Y-109610000D02*
X105848000Y-104410000D01*
X105848000Y-104410000D02*
X113862000Y-104410000D01*
D12*
X107948000Y-110210000D02*
G75*
G03*
X107948000Y-110210000I-100000J0D01*
G01*
D11*
%TO.C,J12*%
X101162000Y-104410000D02*
X101162000Y-109610000D01*
X101162000Y-109610000D02*
X93148000Y-109610000D01*
X93148000Y-109610000D02*
X93148000Y-104410000D01*
X93148000Y-104410000D02*
X101162000Y-104410000D01*
D12*
X95248000Y-110210000D02*
G75*
G03*
X95248000Y-110210000I-100000J0D01*
G01*
D11*
%TO.C,J11*%
X88462000Y-104410000D02*
X88462000Y-109610000D01*
X88462000Y-109610000D02*
X80448000Y-109610000D01*
X80448000Y-109610000D02*
X80448000Y-104410000D01*
X80448000Y-104410000D02*
X88462000Y-104410000D01*
D12*
X82548000Y-110210000D02*
G75*
G03*
X82548000Y-110210000I-100000J0D01*
G01*
D11*
%TO.C,J10*%
X75762000Y-104410000D02*
X75762000Y-109610000D01*
X75762000Y-109610000D02*
X67748000Y-109610000D01*
X67748000Y-109610000D02*
X67748000Y-104410000D01*
X67748000Y-104410000D02*
X75762000Y-104410000D01*
D12*
X69848000Y-110210000D02*
G75*
G03*
X69848000Y-110210000I-100000J0D01*
G01*
D11*
%TO.C,J9*%
X75762000Y-82185000D02*
X75762000Y-87385000D01*
X75762000Y-87385000D02*
X67748000Y-87385000D01*
X67748000Y-87385000D02*
X67748000Y-82185000D01*
X67748000Y-82185000D02*
X75762000Y-82185000D01*
D12*
X69848000Y-87985000D02*
G75*
G03*
X69848000Y-87985000I-100000J0D01*
G01*
D11*
%TO.C,J8*%
X63062000Y-81550000D02*
X63062000Y-86750000D01*
X63062000Y-86750000D02*
X55048000Y-86750000D01*
X55048000Y-86750000D02*
X55048000Y-81550000D01*
X55048000Y-81550000D02*
X63062000Y-81550000D01*
D12*
X57148000Y-87350000D02*
G75*
G03*
X57148000Y-87350000I-100000J0D01*
G01*
D11*
%TO.C,J7*%
X88462000Y-82185000D02*
X88462000Y-87385000D01*
X88462000Y-87385000D02*
X80448000Y-87385000D01*
X80448000Y-87385000D02*
X80448000Y-82185000D01*
X80448000Y-82185000D02*
X88462000Y-82185000D01*
D12*
X82548000Y-87985000D02*
G75*
G03*
X82548000Y-87985000I-100000J0D01*
G01*
D11*
%TO.C,J6*%
X101162000Y-82185000D02*
X101162000Y-87385000D01*
X101162000Y-87385000D02*
X93148000Y-87385000D01*
X93148000Y-87385000D02*
X93148000Y-82185000D01*
X93148000Y-82185000D02*
X101162000Y-82185000D01*
D12*
X95248000Y-87985000D02*
G75*
G03*
X95248000Y-87985000I-100000J0D01*
G01*
D11*
%TO.C,J5*%
X113862000Y-82185000D02*
X113862000Y-87385000D01*
X113862000Y-87385000D02*
X105848000Y-87385000D01*
X105848000Y-87385000D02*
X105848000Y-82185000D01*
X105848000Y-82185000D02*
X113862000Y-82185000D01*
D12*
X107948000Y-87985000D02*
G75*
G03*
X107948000Y-87985000I-100000J0D01*
G01*
D11*
%TO.C,J4*%
X126562000Y-82185000D02*
X126562000Y-87385000D01*
X126562000Y-87385000D02*
X118548000Y-87385000D01*
X118548000Y-87385000D02*
X118548000Y-82185000D01*
X118548000Y-82185000D02*
X126562000Y-82185000D01*
D12*
X120648000Y-87985000D02*
G75*
G03*
X120648000Y-87985000I-100000J0D01*
G01*
D10*
%TO.C,U1*%
X158750000Y-34290000D02*
X158750000Y-55880000D01*
X158750000Y-34290000D02*
X182880000Y-34290000D01*
X182880000Y-34290000D02*
X182880000Y-55880000D01*
X158750000Y-55880000D02*
X182880000Y-55880000D01*
%TO.C,U18*%
X184785000Y-55880000D02*
X208915000Y-55880000D01*
X208915000Y-34290000D02*
X208915000Y-55880000D01*
X184785000Y-34290000D02*
X208915000Y-34290000D01*
X184785000Y-34290000D02*
X184785000Y-55880000D01*
%TO.C,U22*%
X99805000Y-90745000D02*
X98155000Y-90745000D01*
X99805000Y-101025000D02*
X99805000Y-90745000D01*
X94505000Y-101025000D02*
X99805000Y-101025000D01*
X94505000Y-90745000D02*
X94505000Y-101025000D01*
X96155000Y-90745000D02*
X94505000Y-90745000D01*
X98155000Y-90745000D02*
G75*
G02*
X96155000Y-90745000I-1000000J0D01*
G01*
%TO.C,U15*%
X132715000Y-34290000D02*
X132715000Y-55880000D01*
X132715000Y-34290000D02*
X156845000Y-34290000D01*
X156845000Y-34290000D02*
X156845000Y-55880000D01*
X132715000Y-55880000D02*
X156845000Y-55880000D01*
%TO.C,U58*%
X83455000Y-90745000D02*
X81805000Y-90745000D01*
X81805000Y-90745000D02*
X81805000Y-101025000D01*
X81805000Y-101025000D02*
X87105000Y-101025000D01*
X87105000Y-101025000D02*
X87105000Y-90745000D01*
X87105000Y-90745000D02*
X85455000Y-90745000D01*
X85455000Y-90745000D02*
G75*
G02*
X83455000Y-90745000I-1000000J0D01*
G01*
%TO.C,U33*%
X210820000Y-55880000D02*
X234950000Y-55880000D01*
X234950000Y-34290000D02*
X234950000Y-55880000D01*
X210820000Y-34290000D02*
X234950000Y-34290000D01*
X210820000Y-34290000D02*
X210820000Y-55880000D01*
%TO.C,U54*%
X70755000Y-90745000D02*
X69105000Y-90745000D01*
X69105000Y-90745000D02*
X69105000Y-101025000D01*
X69105000Y-101025000D02*
X74405000Y-101025000D01*
X74405000Y-101025000D02*
X74405000Y-90745000D01*
X74405000Y-90745000D02*
X72755000Y-90745000D01*
X72755000Y-90745000D02*
G75*
G02*
X70755000Y-90745000I-1000000J0D01*
G01*
%TO.C,U46*%
X156845000Y-114300000D02*
X187325000Y-114300000D01*
X156845000Y-114300000D02*
X156845000Y-137160000D01*
X187325000Y-137160000D02*
X156845000Y-137160000D01*
X187325000Y-114300000D02*
X187325000Y-137160000D01*
%TO.C,R1*%
X127865000Y-48260000D02*
X127175000Y-48260000D01*
X117245000Y-48260000D02*
X117935000Y-48260000D01*
X127175000Y-46540000D02*
X117935000Y-46540000D01*
X127175000Y-49980000D02*
X127175000Y-46540000D01*
X117935000Y-49980000D02*
X127175000Y-49980000D01*
X117935000Y-46540000D02*
X117935000Y-49980000D01*
%TO.C,R2*%
X109395000Y-49980000D02*
X109395000Y-46540000D01*
X109395000Y-46540000D02*
X100155000Y-46540000D01*
X100155000Y-46540000D02*
X100155000Y-49980000D01*
X100155000Y-49980000D02*
X109395000Y-49980000D01*
X110085000Y-48260000D02*
X109395000Y-48260000D01*
X99465000Y-48260000D02*
X100155000Y-48260000D01*
%TO.C,R4*%
X219075000Y-61365000D02*
X219075000Y-62055000D01*
X219075000Y-71985000D02*
X219075000Y-71295000D01*
X217355000Y-62055000D02*
X217355000Y-71295000D01*
X220795000Y-62055000D02*
X217355000Y-62055000D01*
X220795000Y-71295000D02*
X220795000Y-62055000D01*
X217355000Y-71295000D02*
X220795000Y-71295000D01*
%TO.C,R5*%
X219075000Y-86765000D02*
X219075000Y-87455000D01*
X219075000Y-97385000D02*
X219075000Y-96695000D01*
X217355000Y-87455000D02*
X217355000Y-96695000D01*
X220795000Y-87455000D02*
X217355000Y-87455000D01*
X220795000Y-96695000D02*
X220795000Y-87455000D01*
X217355000Y-96695000D02*
X220795000Y-96695000D01*
%TO.C,R6*%
X177350000Y-71295000D02*
X180790000Y-71295000D01*
X180790000Y-71295000D02*
X180790000Y-62055000D01*
X180790000Y-62055000D02*
X177350000Y-62055000D01*
X177350000Y-62055000D02*
X177350000Y-71295000D01*
X179070000Y-71985000D02*
X179070000Y-71295000D01*
X179070000Y-61365000D02*
X179070000Y-62055000D01*
%TO.C,R7*%
X192405000Y-61365000D02*
X192405000Y-62055000D01*
X192405000Y-71985000D02*
X192405000Y-71295000D01*
X190685000Y-62055000D02*
X190685000Y-71295000D01*
X194125000Y-62055000D02*
X190685000Y-62055000D01*
X194125000Y-71295000D02*
X194125000Y-62055000D01*
X190685000Y-71295000D02*
X194125000Y-71295000D01*
%TO.C,R8*%
X232410000Y-61365000D02*
X232410000Y-62055000D01*
X232410000Y-71985000D02*
X232410000Y-71295000D01*
X230690000Y-62055000D02*
X230690000Y-71295000D01*
X234130000Y-62055000D02*
X230690000Y-62055000D01*
X234130000Y-71295000D02*
X234130000Y-62055000D01*
X230690000Y-71295000D02*
X234130000Y-71295000D01*
%TO.C,R9*%
X190685000Y-96695000D02*
X194125000Y-96695000D01*
X194125000Y-96695000D02*
X194125000Y-87455000D01*
X194125000Y-87455000D02*
X190685000Y-87455000D01*
X190685000Y-87455000D02*
X190685000Y-96695000D01*
X192405000Y-97385000D02*
X192405000Y-96695000D01*
X192405000Y-86765000D02*
X192405000Y-87455000D01*
%TO.C,R11*%
X187775000Y-62055000D02*
X184335000Y-62055000D01*
X184335000Y-62055000D02*
X184335000Y-71295000D01*
X184335000Y-71295000D02*
X187775000Y-71295000D01*
X187775000Y-71295000D02*
X187775000Y-62055000D01*
X186055000Y-61365000D02*
X186055000Y-62055000D01*
X186055000Y-71985000D02*
X186055000Y-71295000D01*
%TO.C,R12*%
X214445000Y-62055000D02*
X211005000Y-62055000D01*
X211005000Y-62055000D02*
X211005000Y-71295000D01*
X211005000Y-71295000D02*
X214445000Y-71295000D01*
X214445000Y-71295000D02*
X214445000Y-62055000D01*
X212725000Y-61365000D02*
X212725000Y-62055000D01*
X212725000Y-71985000D02*
X212725000Y-71295000D01*
%TO.C,R13*%
X214445000Y-87455000D02*
X211005000Y-87455000D01*
X211005000Y-87455000D02*
X211005000Y-96695000D01*
X211005000Y-96695000D02*
X214445000Y-96695000D01*
X214445000Y-96695000D02*
X214445000Y-87455000D01*
X212725000Y-86765000D02*
X212725000Y-87455000D01*
X212725000Y-97385000D02*
X212725000Y-96695000D01*
%TO.C,R14*%
X227780000Y-62055000D02*
X224340000Y-62055000D01*
X224340000Y-62055000D02*
X224340000Y-71295000D01*
X224340000Y-71295000D02*
X227780000Y-71295000D01*
X227780000Y-71295000D02*
X227780000Y-62055000D01*
X226060000Y-61365000D02*
X226060000Y-62055000D01*
X226060000Y-71985000D02*
X226060000Y-71295000D01*
%TO.C,R15*%
X172720000Y-71985000D02*
X172720000Y-71295000D01*
X172720000Y-61365000D02*
X172720000Y-62055000D01*
X174440000Y-71295000D02*
X174440000Y-62055000D01*
X171000000Y-71295000D02*
X174440000Y-71295000D01*
X171000000Y-62055000D02*
X171000000Y-71295000D01*
X174440000Y-62055000D02*
X171000000Y-62055000D01*
%TO.C,R16*%
X186055000Y-97385000D02*
X186055000Y-96695000D01*
X186055000Y-86765000D02*
X186055000Y-87455000D01*
X187775000Y-96695000D02*
X187775000Y-87455000D01*
X184335000Y-96695000D02*
X187775000Y-96695000D01*
X184335000Y-87455000D02*
X184335000Y-96695000D01*
X187775000Y-87455000D02*
X184335000Y-87455000D01*
%TO.C,R19*%
X157665000Y-71295000D02*
X161105000Y-71295000D01*
X161105000Y-71295000D02*
X161105000Y-62055000D01*
X161105000Y-62055000D02*
X157665000Y-62055000D01*
X157665000Y-62055000D02*
X157665000Y-71295000D01*
X159385000Y-71985000D02*
X159385000Y-71295000D01*
X159385000Y-61365000D02*
X159385000Y-62055000D01*
%TO.C,R20*%
X199390000Y-61365000D02*
X199390000Y-62055000D01*
X199390000Y-71985000D02*
X199390000Y-71295000D01*
X197670000Y-62055000D02*
X197670000Y-71295000D01*
X201110000Y-62055000D02*
X197670000Y-62055000D01*
X201110000Y-71295000D02*
X201110000Y-62055000D01*
X197670000Y-71295000D02*
X201110000Y-71295000D01*
%TO.C,R21*%
X226060000Y-86765000D02*
X226060000Y-87455000D01*
X226060000Y-97385000D02*
X226060000Y-96695000D01*
X224340000Y-87455000D02*
X224340000Y-96695000D01*
X227780000Y-87455000D02*
X224340000Y-87455000D01*
X227780000Y-96695000D02*
X227780000Y-87455000D01*
X224340000Y-96695000D02*
X227780000Y-96695000D01*
%TO.C,R22*%
X199390000Y-86765000D02*
X199390000Y-87455000D01*
X199390000Y-97385000D02*
X199390000Y-96695000D01*
X197670000Y-87455000D02*
X197670000Y-96695000D01*
X201110000Y-87455000D02*
X197670000Y-87455000D01*
X201110000Y-96695000D02*
X201110000Y-87455000D01*
X197670000Y-96695000D02*
X201110000Y-96695000D01*
%TO.C,R23*%
X171000000Y-96695000D02*
X174440000Y-96695000D01*
X174440000Y-96695000D02*
X174440000Y-87455000D01*
X174440000Y-87455000D02*
X171000000Y-87455000D01*
X171000000Y-87455000D02*
X171000000Y-96695000D01*
X172720000Y-97385000D02*
X172720000Y-96695000D01*
X172720000Y-86765000D02*
X172720000Y-87455000D01*
%TO.C,R24*%
X157665000Y-96695000D02*
X161105000Y-96695000D01*
X161105000Y-96695000D02*
X161105000Y-87455000D01*
X161105000Y-87455000D02*
X157665000Y-87455000D01*
X157665000Y-87455000D02*
X157665000Y-96695000D01*
X159385000Y-97385000D02*
X159385000Y-96695000D01*
X159385000Y-86765000D02*
X159385000Y-87455000D01*
%TO.C,R26*%
X165735000Y-71985000D02*
X165735000Y-71295000D01*
X165735000Y-61365000D02*
X165735000Y-62055000D01*
X167455000Y-71295000D02*
X167455000Y-62055000D01*
X164015000Y-71295000D02*
X167455000Y-71295000D01*
X164015000Y-62055000D02*
X164015000Y-71295000D01*
X167455000Y-62055000D02*
X164015000Y-62055000D01*
%TO.C,R27*%
X207460000Y-62055000D02*
X204020000Y-62055000D01*
X204020000Y-62055000D02*
X204020000Y-71295000D01*
X204020000Y-71295000D02*
X207460000Y-71295000D01*
X207460000Y-71295000D02*
X207460000Y-62055000D01*
X205740000Y-61365000D02*
X205740000Y-62055000D01*
X205740000Y-71985000D02*
X205740000Y-71295000D01*
%TO.C,R28*%
X234130000Y-87455000D02*
X230690000Y-87455000D01*
X230690000Y-87455000D02*
X230690000Y-96695000D01*
X230690000Y-96695000D02*
X234130000Y-96695000D01*
X234130000Y-96695000D02*
X234130000Y-87455000D01*
X232410000Y-86765000D02*
X232410000Y-87455000D01*
X232410000Y-97385000D02*
X232410000Y-96695000D01*
%TO.C,R29*%
X205740000Y-97385000D02*
X205740000Y-96695000D01*
X205740000Y-86765000D02*
X205740000Y-87455000D01*
X207460000Y-96695000D02*
X207460000Y-87455000D01*
X204020000Y-96695000D02*
X207460000Y-96695000D01*
X204020000Y-87455000D02*
X204020000Y-96695000D01*
X207460000Y-87455000D02*
X204020000Y-87455000D01*
%TO.C,R30*%
X179070000Y-97385000D02*
X179070000Y-96695000D01*
X179070000Y-86765000D02*
X179070000Y-87455000D01*
X180790000Y-96695000D02*
X180790000Y-87455000D01*
X177350000Y-96695000D02*
X180790000Y-96695000D01*
X177350000Y-87455000D02*
X177350000Y-96695000D01*
X180790000Y-87455000D02*
X177350000Y-87455000D01*
%TO.C,R31*%
X165735000Y-97385000D02*
X165735000Y-96695000D01*
X165735000Y-86765000D02*
X165735000Y-87455000D01*
X167455000Y-96695000D02*
X167455000Y-87455000D01*
X164015000Y-96695000D02*
X167455000Y-96695000D01*
X164015000Y-87455000D02*
X164015000Y-96695000D01*
X167455000Y-87455000D02*
X164015000Y-87455000D01*
%TO.C,U3*%
X148075000Y-137200000D02*
X148075000Y-126960000D01*
X132185000Y-137200000D02*
X132185000Y-126960000D01*
X132185000Y-137200000D02*
X148075000Y-137200000D01*
X132185000Y-126960000D02*
X148075000Y-126960000D01*
X148075000Y-134620000D02*
X150615000Y-134620000D01*
X148075000Y-132080000D02*
X150615000Y-132080000D01*
X148075000Y-129540000D02*
X150615000Y-129540000D01*
%TO.C,U16*%
X130048000Y-43870000D02*
X130048000Y-34870000D01*
X115062000Y-34870000D02*
X130048000Y-34870000D01*
X115062000Y-43870000D02*
X115062000Y-34870000D01*
X115062000Y-43870000D02*
X130048000Y-43870000D01*
%TO.C,U17*%
X96647000Y-43870000D02*
X111633000Y-43870000D01*
X96647000Y-43870000D02*
X96647000Y-34870000D01*
X96647000Y-34870000D02*
X111633000Y-34870000D01*
X111633000Y-43870000D02*
X111633000Y-34870000D01*
%TO.C,U19*%
X86630000Y-37405000D02*
X84980000Y-37405000D01*
X84980000Y-37405000D02*
X84980000Y-60385000D01*
X84980000Y-60385000D02*
X90280000Y-60385000D01*
X90280000Y-60385000D02*
X90280000Y-37405000D01*
X90280000Y-37405000D02*
X88630000Y-37405000D01*
X88630000Y-37405000D02*
G75*
G02*
X86630000Y-37405000I-1000000J0D01*
G01*
%TO.C,U20*%
X121555000Y-68520000D02*
X119905000Y-68520000D01*
X119905000Y-68520000D02*
X119905000Y-78800000D01*
X119905000Y-78800000D02*
X125205000Y-78800000D01*
X125205000Y-78800000D02*
X125205000Y-68520000D01*
X125205000Y-68520000D02*
X123555000Y-68520000D01*
X123555000Y-68520000D02*
G75*
G02*
X121555000Y-68520000I-1000000J0D01*
G01*
%TO.C,U21*%
X87105000Y-68520000D02*
X85455000Y-68520000D01*
X87105000Y-78800000D02*
X87105000Y-68520000D01*
X81805000Y-78800000D02*
X87105000Y-78800000D01*
X81805000Y-68520000D02*
X81805000Y-78800000D01*
X83455000Y-68520000D02*
X81805000Y-68520000D01*
X85455000Y-68520000D02*
G75*
G02*
X83455000Y-68520000I-1000000J0D01*
G01*
%TO.C,U25*%
X97155000Y-114300000D02*
X127635000Y-114300000D01*
X97155000Y-114300000D02*
X97155000Y-137160000D01*
X127635000Y-137160000D02*
X97155000Y-137160000D01*
X127635000Y-114300000D02*
X127635000Y-137160000D01*
%TO.C,U34*%
X58690000Y-37405000D02*
X57040000Y-37405000D01*
X57040000Y-37405000D02*
X57040000Y-60385000D01*
X57040000Y-60385000D02*
X62340000Y-60385000D01*
X62340000Y-60385000D02*
X62340000Y-37405000D01*
X62340000Y-37405000D02*
X60690000Y-37405000D01*
X60690000Y-37405000D02*
G75*
G02*
X58690000Y-37405000I-1000000J0D01*
G01*
%TO.C,U36*%
X220345000Y-114300000D02*
X220345000Y-137160000D01*
X220345000Y-137160000D02*
X189865000Y-137160000D01*
X189865000Y-114300000D02*
X189865000Y-137160000D01*
X189865000Y-114300000D02*
X220345000Y-114300000D01*
%TO.C,U44*%
X112505000Y-68520000D02*
X110855000Y-68520000D01*
X112505000Y-78800000D02*
X112505000Y-68520000D01*
X107205000Y-78800000D02*
X112505000Y-78800000D01*
X107205000Y-68520000D02*
X107205000Y-78800000D01*
X108855000Y-68520000D02*
X107205000Y-68520000D01*
X110855000Y-68520000D02*
G75*
G02*
X108855000Y-68520000I-1000000J0D01*
G01*
%TO.C,U48*%
X58055000Y-68520000D02*
X56405000Y-68520000D01*
X56405000Y-68520000D02*
X56405000Y-78800000D01*
X56405000Y-78800000D02*
X61705000Y-78800000D01*
X61705000Y-78800000D02*
X61705000Y-68520000D01*
X61705000Y-68520000D02*
X60055000Y-68520000D01*
X60055000Y-68520000D02*
G75*
G02*
X58055000Y-68520000I-1000000J0D01*
G01*
%TO.C,U49*%
X108855000Y-90745000D02*
X107205000Y-90745000D01*
X107205000Y-90745000D02*
X107205000Y-101025000D01*
X107205000Y-101025000D02*
X112505000Y-101025000D01*
X112505000Y-101025000D02*
X112505000Y-90745000D01*
X112505000Y-90745000D02*
X110855000Y-90745000D01*
X110855000Y-90745000D02*
G75*
G02*
X108855000Y-90745000I-1000000J0D01*
G01*
%TO.C,U50*%
X76310000Y-37405000D02*
X74660000Y-37405000D01*
X76310000Y-60385000D02*
X76310000Y-37405000D01*
X71010000Y-60385000D02*
X76310000Y-60385000D01*
X71010000Y-37405000D02*
X71010000Y-60385000D01*
X72660000Y-37405000D02*
X71010000Y-37405000D01*
X74660000Y-37405000D02*
G75*
G02*
X72660000Y-37405000I-1000000J0D01*
G01*
%TO.C,U51*%
X96155000Y-68520000D02*
X94505000Y-68520000D01*
X94505000Y-68520000D02*
X94505000Y-78800000D01*
X94505000Y-78800000D02*
X99805000Y-78800000D01*
X99805000Y-78800000D02*
X99805000Y-68520000D01*
X99805000Y-68520000D02*
X98155000Y-68520000D01*
X98155000Y-68520000D02*
G75*
G02*
X96155000Y-68520000I-1000000J0D01*
G01*
%TO.C,U52*%
X74405000Y-68520000D02*
X72755000Y-68520000D01*
X74405000Y-78800000D02*
X74405000Y-68520000D01*
X69105000Y-78800000D02*
X74405000Y-78800000D01*
X69105000Y-68520000D02*
X69105000Y-78800000D01*
X70755000Y-68520000D02*
X69105000Y-68520000D01*
X72755000Y-68520000D02*
G75*
G02*
X70755000Y-68520000I-1000000J0D01*
G01*
%TO.C,U53*%
X125205000Y-90745000D02*
X123555000Y-90745000D01*
X125205000Y-101025000D02*
X125205000Y-90745000D01*
X119905000Y-101025000D02*
X125205000Y-101025000D01*
X119905000Y-90745000D02*
X119905000Y-101025000D01*
X121555000Y-90745000D02*
X119905000Y-90745000D01*
X123555000Y-90745000D02*
G75*
G02*
X121555000Y-90745000I-1000000J0D01*
G01*
%TO.C,U55*%
X61705000Y-90745000D02*
X60055000Y-90745000D01*
X61705000Y-101025000D02*
X61705000Y-90745000D01*
X56405000Y-101025000D02*
X61705000Y-101025000D01*
X56405000Y-90745000D02*
X56405000Y-101025000D01*
X58055000Y-90745000D02*
X56405000Y-90745000D01*
X60055000Y-90745000D02*
G75*
G02*
X58055000Y-90745000I-1000000J0D01*
G01*
%TO.C,U56*%
D14*
X80041904Y-125182380D02*
X80041904Y-125991904D01*
X80089523Y-126087142D01*
X80137142Y-126134761D01*
X80232380Y-126182380D01*
X80422857Y-126182380D01*
X80518095Y-126134761D01*
X80565714Y-126087142D01*
X80613333Y-125991904D01*
X80613333Y-125182380D01*
X81565714Y-125182380D02*
X81089523Y-125182380D01*
X81041904Y-125658571D01*
X81089523Y-125610952D01*
X81184761Y-125563333D01*
X81422857Y-125563333D01*
X81518095Y-125610952D01*
X81565714Y-125658571D01*
X81613333Y-125753809D01*
X81613333Y-125991904D01*
X81565714Y-126087142D01*
X81518095Y-126134761D01*
X81422857Y-126182380D01*
X81184761Y-126182380D01*
X81089523Y-126134761D01*
X81041904Y-126087142D01*
X82470476Y-125182380D02*
X82280000Y-125182380D01*
X82184761Y-125230000D01*
X82137142Y-125277619D01*
X82041904Y-125420476D01*
X81994285Y-125610952D01*
X81994285Y-125991904D01*
X82041904Y-126087142D01*
X82089523Y-126134761D01*
X82184761Y-126182380D01*
X82375238Y-126182380D01*
X82470476Y-126134761D01*
X82518095Y-126087142D01*
X82565714Y-125991904D01*
X82565714Y-125753809D01*
X82518095Y-125658571D01*
X82470476Y-125610952D01*
X82375238Y-125563333D01*
X82184761Y-125563333D01*
X82089523Y-125610952D01*
X82041904Y-125658571D01*
X81994285Y-125753809D01*
%TO.C,J3*%
X225063666Y-119347380D02*
X225063666Y-120061666D01*
X225016047Y-120204523D01*
X224920809Y-120299761D01*
X224777952Y-120347380D01*
X224682714Y-120347380D01*
X225444619Y-119347380D02*
X226063666Y-119347380D01*
X225730333Y-119728333D01*
X225873190Y-119728333D01*
X225968428Y-119775952D01*
X226016047Y-119823571D01*
X226063666Y-119918809D01*
X226063666Y-120156904D01*
X226016047Y-120252142D01*
X225968428Y-120299761D01*
X225873190Y-120347380D01*
X225587476Y-120347380D01*
X225492238Y-120299761D01*
X225444619Y-120252142D01*
%TO.C,J2*%
X225063666Y-128872380D02*
X225063666Y-129586666D01*
X225016047Y-129729523D01*
X224920809Y-129824761D01*
X224777952Y-129872380D01*
X224682714Y-129872380D01*
X225492238Y-128967619D02*
X225539857Y-128920000D01*
X225635095Y-128872380D01*
X225873190Y-128872380D01*
X225968428Y-128920000D01*
X226016047Y-128967619D01*
X226063666Y-129062857D01*
X226063666Y-129158095D01*
X226016047Y-129300952D01*
X225444619Y-129872380D01*
X226063666Y-129872380D01*
%TO.C,J1*%
X225063666Y-109822380D02*
X225063666Y-110536666D01*
X225016047Y-110679523D01*
X224920809Y-110774761D01*
X224777952Y-110822380D01*
X224682714Y-110822380D01*
X226063666Y-110822380D02*
X225492238Y-110822380D01*
X225777952Y-110822380D02*
X225777952Y-109822380D01*
X225682714Y-109965238D01*
X225587476Y-110060476D01*
X225492238Y-110108095D01*
%TO.C,R3*%
X104608333Y-52342380D02*
X104275000Y-51866190D01*
X104036904Y-52342380D02*
X104036904Y-51342380D01*
X104417857Y-51342380D01*
X104513095Y-51390000D01*
X104560714Y-51437619D01*
X104608333Y-51532857D01*
X104608333Y-51675714D01*
X104560714Y-51770952D01*
X104513095Y-51818571D01*
X104417857Y-51866190D01*
X104036904Y-51866190D01*
X104941666Y-51342380D02*
X105560714Y-51342380D01*
X105227380Y-51723333D01*
X105370238Y-51723333D01*
X105465476Y-51770952D01*
X105513095Y-51818571D01*
X105560714Y-51913809D01*
X105560714Y-52151904D01*
X105513095Y-52247142D01*
X105465476Y-52294761D01*
X105370238Y-52342380D01*
X105084523Y-52342380D01*
X104989285Y-52294761D01*
X104941666Y-52247142D01*
%TO.C,R17*%
X121912142Y-58692380D02*
X121578809Y-58216190D01*
X121340714Y-58692380D02*
X121340714Y-57692380D01*
X121721666Y-57692380D01*
X121816904Y-57740000D01*
X121864523Y-57787619D01*
X121912142Y-57882857D01*
X121912142Y-58025714D01*
X121864523Y-58120952D01*
X121816904Y-58168571D01*
X121721666Y-58216190D01*
X121340714Y-58216190D01*
X122864523Y-58692380D02*
X122293095Y-58692380D01*
X122578809Y-58692380D02*
X122578809Y-57692380D01*
X122483571Y-57835238D01*
X122388333Y-57930476D01*
X122293095Y-57978095D01*
X123197857Y-57692380D02*
X123864523Y-57692380D01*
X123435952Y-58692380D01*
%TO.C,R10*%
X121912142Y-52342380D02*
X121578809Y-51866190D01*
X121340714Y-52342380D02*
X121340714Y-51342380D01*
X121721666Y-51342380D01*
X121816904Y-51390000D01*
X121864523Y-51437619D01*
X121912142Y-51532857D01*
X121912142Y-51675714D01*
X121864523Y-51770952D01*
X121816904Y-51818571D01*
X121721666Y-51866190D01*
X121340714Y-51866190D01*
X122864523Y-52342380D02*
X122293095Y-52342380D01*
X122578809Y-52342380D02*
X122578809Y-51342380D01*
X122483571Y-51485238D01*
X122388333Y-51580476D01*
X122293095Y-51628095D01*
X123483571Y-51342380D02*
X123578809Y-51342380D01*
X123674047Y-51390000D01*
X123721666Y-51437619D01*
X123769285Y-51532857D01*
X123816904Y-51723333D01*
X123816904Y-51961428D01*
X123769285Y-52151904D01*
X123721666Y-52247142D01*
X123674047Y-52294761D01*
X123578809Y-52342380D01*
X123483571Y-52342380D01*
X123388333Y-52294761D01*
X123340714Y-52247142D01*
X123293095Y-52151904D01*
X123245476Y-51961428D01*
X123245476Y-51723333D01*
X123293095Y-51532857D01*
X123340714Y-51437619D01*
X123388333Y-51390000D01*
X123483571Y-51342380D01*
%TO.C,D2*%
X109751904Y-58722380D02*
X109751904Y-57722380D01*
X109990000Y-57722380D01*
X110132857Y-57770000D01*
X110228095Y-57865238D01*
X110275714Y-57960476D01*
X110323333Y-58150952D01*
X110323333Y-58293809D01*
X110275714Y-58484285D01*
X110228095Y-58579523D01*
X110132857Y-58674761D01*
X109990000Y-58722380D01*
X109751904Y-58722380D01*
X110704285Y-57817619D02*
X110751904Y-57770000D01*
X110847142Y-57722380D01*
X111085238Y-57722380D01*
X111180476Y-57770000D01*
X111228095Y-57817619D01*
X111275714Y-57912857D01*
X111275714Y-58008095D01*
X111228095Y-58150952D01*
X110656666Y-58722380D01*
X111275714Y-58722380D01*
%TO.C,D1*%
X100226904Y-58722380D02*
X100226904Y-57722380D01*
X100465000Y-57722380D01*
X100607857Y-57770000D01*
X100703095Y-57865238D01*
X100750714Y-57960476D01*
X100798333Y-58150952D01*
X100798333Y-58293809D01*
X100750714Y-58484285D01*
X100703095Y-58579523D01*
X100607857Y-58674761D01*
X100465000Y-58722380D01*
X100226904Y-58722380D01*
X101750714Y-58722380D02*
X101179285Y-58722380D01*
X101465000Y-58722380D02*
X101465000Y-57722380D01*
X101369761Y-57865238D01*
X101274523Y-57960476D01*
X101179285Y-58008095D01*
%TO.C,U23*%
X141001904Y-89622380D02*
X141001904Y-90431904D01*
X141049523Y-90527142D01*
X141097142Y-90574761D01*
X141192380Y-90622380D01*
X141382857Y-90622380D01*
X141478095Y-90574761D01*
X141525714Y-90527142D01*
X141573333Y-90431904D01*
X141573333Y-89622380D01*
X142001904Y-89717619D02*
X142049523Y-89670000D01*
X142144761Y-89622380D01*
X142382857Y-89622380D01*
X142478095Y-89670000D01*
X142525714Y-89717619D01*
X142573333Y-89812857D01*
X142573333Y-89908095D01*
X142525714Y-90050952D01*
X141954285Y-90622380D01*
X142573333Y-90622380D01*
X142906666Y-89622380D02*
X143525714Y-89622380D01*
X143192380Y-90003333D01*
X143335238Y-90003333D01*
X143430476Y-90050952D01*
X143478095Y-90098571D01*
X143525714Y-90193809D01*
X143525714Y-90431904D01*
X143478095Y-90527142D01*
X143430476Y-90574761D01*
X143335238Y-90622380D01*
X143049523Y-90622380D01*
X142954285Y-90574761D01*
X142906666Y-90527142D01*
%TO.C,J27*%
X163582476Y-108157380D02*
X163582476Y-108871666D01*
X163534857Y-109014523D01*
X163439619Y-109109761D01*
X163296761Y-109157380D01*
X163201523Y-109157380D01*
X164011047Y-108252619D02*
X164058666Y-108205000D01*
X164153904Y-108157380D01*
X164392000Y-108157380D01*
X164487238Y-108205000D01*
X164534857Y-108252619D01*
X164582476Y-108347857D01*
X164582476Y-108443095D01*
X164534857Y-108585952D01*
X163963428Y-109157380D01*
X164582476Y-109157380D01*
X164915809Y-108157380D02*
X165582476Y-108157380D01*
X165153904Y-109157380D01*
%TO.C,J26*%
X176917476Y-108157380D02*
X176917476Y-108871666D01*
X176869857Y-109014523D01*
X176774619Y-109109761D01*
X176631761Y-109157380D01*
X176536523Y-109157380D01*
X177346047Y-108252619D02*
X177393666Y-108205000D01*
X177488904Y-108157380D01*
X177727000Y-108157380D01*
X177822238Y-108205000D01*
X177869857Y-108252619D01*
X177917476Y-108347857D01*
X177917476Y-108443095D01*
X177869857Y-108585952D01*
X177298428Y-109157380D01*
X177917476Y-109157380D01*
X178774619Y-108157380D02*
X178584142Y-108157380D01*
X178488904Y-108205000D01*
X178441285Y-108252619D01*
X178346047Y-108395476D01*
X178298428Y-108585952D01*
X178298428Y-108966904D01*
X178346047Y-109062142D01*
X178393666Y-109109761D01*
X178488904Y-109157380D01*
X178679380Y-109157380D01*
X178774619Y-109109761D01*
X178822238Y-109062142D01*
X178869857Y-108966904D01*
X178869857Y-108728809D01*
X178822238Y-108633571D01*
X178774619Y-108585952D01*
X178679380Y-108538333D01*
X178488904Y-108538333D01*
X178393666Y-108585952D01*
X178346047Y-108633571D01*
X178298428Y-108728809D01*
%TO.C,J25*%
X203587476Y-108157380D02*
X203587476Y-108871666D01*
X203539857Y-109014523D01*
X203444619Y-109109761D01*
X203301761Y-109157380D01*
X203206523Y-109157380D01*
X204016047Y-108252619D02*
X204063666Y-108205000D01*
X204158904Y-108157380D01*
X204397000Y-108157380D01*
X204492238Y-108205000D01*
X204539857Y-108252619D01*
X204587476Y-108347857D01*
X204587476Y-108443095D01*
X204539857Y-108585952D01*
X203968428Y-109157380D01*
X204587476Y-109157380D01*
X205492238Y-108157380D02*
X205016047Y-108157380D01*
X204968428Y-108633571D01*
X205016047Y-108585952D01*
X205111285Y-108538333D01*
X205349380Y-108538333D01*
X205444619Y-108585952D01*
X205492238Y-108633571D01*
X205539857Y-108728809D01*
X205539857Y-108966904D01*
X205492238Y-109062142D01*
X205444619Y-109109761D01*
X205349380Y-109157380D01*
X205111285Y-109157380D01*
X205016047Y-109109761D01*
X204968428Y-109062142D01*
%TO.C,J24*%
X230257476Y-108157380D02*
X230257476Y-108871666D01*
X230209857Y-109014523D01*
X230114619Y-109109761D01*
X229971761Y-109157380D01*
X229876523Y-109157380D01*
X230686047Y-108252619D02*
X230733666Y-108205000D01*
X230828904Y-108157380D01*
X231067000Y-108157380D01*
X231162238Y-108205000D01*
X231209857Y-108252619D01*
X231257476Y-108347857D01*
X231257476Y-108443095D01*
X231209857Y-108585952D01*
X230638428Y-109157380D01*
X231257476Y-109157380D01*
X232114619Y-108490714D02*
X232114619Y-109157380D01*
X231876523Y-108109761D02*
X231638428Y-108824047D01*
X232257476Y-108824047D01*
%TO.C,J23*%
X203587476Y-82757380D02*
X203587476Y-83471666D01*
X203539857Y-83614523D01*
X203444619Y-83709761D01*
X203301761Y-83757380D01*
X203206523Y-83757380D01*
X204016047Y-82852619D02*
X204063666Y-82805000D01*
X204158904Y-82757380D01*
X204397000Y-82757380D01*
X204492238Y-82805000D01*
X204539857Y-82852619D01*
X204587476Y-82947857D01*
X204587476Y-83043095D01*
X204539857Y-83185952D01*
X203968428Y-83757380D01*
X204587476Y-83757380D01*
X204920809Y-82757380D02*
X205539857Y-82757380D01*
X205206523Y-83138333D01*
X205349380Y-83138333D01*
X205444619Y-83185952D01*
X205492238Y-83233571D01*
X205539857Y-83328809D01*
X205539857Y-83566904D01*
X205492238Y-83662142D01*
X205444619Y-83709761D01*
X205349380Y-83757380D01*
X205063666Y-83757380D01*
X204968428Y-83709761D01*
X204920809Y-83662142D01*
%TO.C,J22*%
X163582476Y-82757380D02*
X163582476Y-83471666D01*
X163534857Y-83614523D01*
X163439619Y-83709761D01*
X163296761Y-83757380D01*
X163201523Y-83757380D01*
X164011047Y-82852619D02*
X164058666Y-82805000D01*
X164153904Y-82757380D01*
X164392000Y-82757380D01*
X164487238Y-82805000D01*
X164534857Y-82852619D01*
X164582476Y-82947857D01*
X164582476Y-83043095D01*
X164534857Y-83185952D01*
X163963428Y-83757380D01*
X164582476Y-83757380D01*
X164963428Y-82852619D02*
X165011047Y-82805000D01*
X165106285Y-82757380D01*
X165344380Y-82757380D01*
X165439619Y-82805000D01*
X165487238Y-82852619D01*
X165534857Y-82947857D01*
X165534857Y-83043095D01*
X165487238Y-83185952D01*
X164915809Y-83757380D01*
X165534857Y-83757380D01*
%TO.C,J21*%
X230257476Y-82757380D02*
X230257476Y-83471666D01*
X230209857Y-83614523D01*
X230114619Y-83709761D01*
X229971761Y-83757380D01*
X229876523Y-83757380D01*
X230686047Y-82852619D02*
X230733666Y-82805000D01*
X230828904Y-82757380D01*
X231067000Y-82757380D01*
X231162238Y-82805000D01*
X231209857Y-82852619D01*
X231257476Y-82947857D01*
X231257476Y-83043095D01*
X231209857Y-83185952D01*
X230638428Y-83757380D01*
X231257476Y-83757380D01*
X232209857Y-83757380D02*
X231638428Y-83757380D01*
X231924142Y-83757380D02*
X231924142Y-82757380D01*
X231828904Y-82900238D01*
X231733666Y-82995476D01*
X231638428Y-83043095D01*
%TO.C,J20*%
X190252476Y-108157380D02*
X190252476Y-108871666D01*
X190204857Y-109014523D01*
X190109619Y-109109761D01*
X189966761Y-109157380D01*
X189871523Y-109157380D01*
X190681047Y-108252619D02*
X190728666Y-108205000D01*
X190823904Y-108157380D01*
X191062000Y-108157380D01*
X191157238Y-108205000D01*
X191204857Y-108252619D01*
X191252476Y-108347857D01*
X191252476Y-108443095D01*
X191204857Y-108585952D01*
X190633428Y-109157380D01*
X191252476Y-109157380D01*
X191871523Y-108157380D02*
X191966761Y-108157380D01*
X192062000Y-108205000D01*
X192109619Y-108252619D01*
X192157238Y-108347857D01*
X192204857Y-108538333D01*
X192204857Y-108776428D01*
X192157238Y-108966904D01*
X192109619Y-109062142D01*
X192062000Y-109109761D01*
X191966761Y-109157380D01*
X191871523Y-109157380D01*
X191776285Y-109109761D01*
X191728666Y-109062142D01*
X191681047Y-108966904D01*
X191633428Y-108776428D01*
X191633428Y-108538333D01*
X191681047Y-108347857D01*
X191728666Y-108252619D01*
X191776285Y-108205000D01*
X191871523Y-108157380D01*
%TO.C,J19*%
X216922476Y-108157380D02*
X216922476Y-108871666D01*
X216874857Y-109014523D01*
X216779619Y-109109761D01*
X216636761Y-109157380D01*
X216541523Y-109157380D01*
X217922476Y-109157380D02*
X217351047Y-109157380D01*
X217636761Y-109157380D02*
X217636761Y-108157380D01*
X217541523Y-108300238D01*
X217446285Y-108395476D01*
X217351047Y-108443095D01*
X218398666Y-109157380D02*
X218589142Y-109157380D01*
X218684380Y-109109761D01*
X218732000Y-109062142D01*
X218827238Y-108919285D01*
X218874857Y-108728809D01*
X218874857Y-108347857D01*
X218827238Y-108252619D01*
X218779619Y-108205000D01*
X218684380Y-108157380D01*
X218493904Y-108157380D01*
X218398666Y-108205000D01*
X218351047Y-108252619D01*
X218303428Y-108347857D01*
X218303428Y-108585952D01*
X218351047Y-108681190D01*
X218398666Y-108728809D01*
X218493904Y-108776428D01*
X218684380Y-108776428D01*
X218779619Y-108728809D01*
X218827238Y-108681190D01*
X218874857Y-108585952D01*
%TO.C,J18*%
X216922476Y-82757380D02*
X216922476Y-83471666D01*
X216874857Y-83614523D01*
X216779619Y-83709761D01*
X216636761Y-83757380D01*
X216541523Y-83757380D01*
X217922476Y-83757380D02*
X217351047Y-83757380D01*
X217636761Y-83757380D02*
X217636761Y-82757380D01*
X217541523Y-82900238D01*
X217446285Y-82995476D01*
X217351047Y-83043095D01*
X218493904Y-83185952D02*
X218398666Y-83138333D01*
X218351047Y-83090714D01*
X218303428Y-82995476D01*
X218303428Y-82947857D01*
X218351047Y-82852619D01*
X218398666Y-82805000D01*
X218493904Y-82757380D01*
X218684380Y-82757380D01*
X218779619Y-82805000D01*
X218827238Y-82852619D01*
X218874857Y-82947857D01*
X218874857Y-82995476D01*
X218827238Y-83090714D01*
X218779619Y-83138333D01*
X218684380Y-83185952D01*
X218493904Y-83185952D01*
X218398666Y-83233571D01*
X218351047Y-83281190D01*
X218303428Y-83376428D01*
X218303428Y-83566904D01*
X218351047Y-83662142D01*
X218398666Y-83709761D01*
X218493904Y-83757380D01*
X218684380Y-83757380D01*
X218779619Y-83709761D01*
X218827238Y-83662142D01*
X218874857Y-83566904D01*
X218874857Y-83376428D01*
X218827238Y-83281190D01*
X218779619Y-83233571D01*
X218684380Y-83185952D01*
%TO.C,J17*%
X190252476Y-82757380D02*
X190252476Y-83471666D01*
X190204857Y-83614523D01*
X190109619Y-83709761D01*
X189966761Y-83757380D01*
X189871523Y-83757380D01*
X191252476Y-83757380D02*
X190681047Y-83757380D01*
X190966761Y-83757380D02*
X190966761Y-82757380D01*
X190871523Y-82900238D01*
X190776285Y-82995476D01*
X190681047Y-83043095D01*
X191585809Y-82757380D02*
X192252476Y-82757380D01*
X191823904Y-83757380D01*
%TO.C,J16*%
X176917476Y-82757380D02*
X176917476Y-83471666D01*
X176869857Y-83614523D01*
X176774619Y-83709761D01*
X176631761Y-83757380D01*
X176536523Y-83757380D01*
X177917476Y-83757380D02*
X177346047Y-83757380D01*
X177631761Y-83757380D02*
X177631761Y-82757380D01*
X177536523Y-82900238D01*
X177441285Y-82995476D01*
X177346047Y-83043095D01*
X178774619Y-82757380D02*
X178584142Y-82757380D01*
X178488904Y-82805000D01*
X178441285Y-82852619D01*
X178346047Y-82995476D01*
X178298428Y-83185952D01*
X178298428Y-83566904D01*
X178346047Y-83662142D01*
X178393666Y-83709761D01*
X178488904Y-83757380D01*
X178679380Y-83757380D01*
X178774619Y-83709761D01*
X178822238Y-83662142D01*
X178869857Y-83566904D01*
X178869857Y-83328809D01*
X178822238Y-83233571D01*
X178774619Y-83185952D01*
X178679380Y-83138333D01*
X178488904Y-83138333D01*
X178393666Y-83185952D01*
X178346047Y-83233571D01*
X178298428Y-83328809D01*
%TO.C,J15*%
X60077476Y-110697380D02*
X60077476Y-111411666D01*
X60029857Y-111554523D01*
X59934619Y-111649761D01*
X59791761Y-111697380D01*
X59696523Y-111697380D01*
X61077476Y-111697380D02*
X60506047Y-111697380D01*
X60791761Y-111697380D02*
X60791761Y-110697380D01*
X60696523Y-110840238D01*
X60601285Y-110935476D01*
X60506047Y-110983095D01*
X61982238Y-110697380D02*
X61506047Y-110697380D01*
X61458428Y-111173571D01*
X61506047Y-111125952D01*
X61601285Y-111078333D01*
X61839380Y-111078333D01*
X61934619Y-111125952D01*
X61982238Y-111173571D01*
X62029857Y-111268809D01*
X62029857Y-111506904D01*
X61982238Y-111602142D01*
X61934619Y-111649761D01*
X61839380Y-111697380D01*
X61601285Y-111697380D01*
X61506047Y-111649761D01*
X61458428Y-111602142D01*
%TO.C,J14*%
X123577476Y-110697380D02*
X123577476Y-111411666D01*
X123529857Y-111554523D01*
X123434619Y-111649761D01*
X123291761Y-111697380D01*
X123196523Y-111697380D01*
X124577476Y-111697380D02*
X124006047Y-111697380D01*
X124291761Y-111697380D02*
X124291761Y-110697380D01*
X124196523Y-110840238D01*
X124101285Y-110935476D01*
X124006047Y-110983095D01*
X125434619Y-111030714D02*
X125434619Y-111697380D01*
X125196523Y-110649761D02*
X124958428Y-111364047D01*
X125577476Y-111364047D01*
%TO.C,J13*%
X110877476Y-110697380D02*
X110877476Y-111411666D01*
X110829857Y-111554523D01*
X110734619Y-111649761D01*
X110591761Y-111697380D01*
X110496523Y-111697380D01*
X111877476Y-111697380D02*
X111306047Y-111697380D01*
X111591761Y-111697380D02*
X111591761Y-110697380D01*
X111496523Y-110840238D01*
X111401285Y-110935476D01*
X111306047Y-110983095D01*
X112210809Y-110697380D02*
X112829857Y-110697380D01*
X112496523Y-111078333D01*
X112639380Y-111078333D01*
X112734619Y-111125952D01*
X112782238Y-111173571D01*
X112829857Y-111268809D01*
X112829857Y-111506904D01*
X112782238Y-111602142D01*
X112734619Y-111649761D01*
X112639380Y-111697380D01*
X112353666Y-111697380D01*
X112258428Y-111649761D01*
X112210809Y-111602142D01*
%TO.C,J12*%
X98177476Y-110697380D02*
X98177476Y-111411666D01*
X98129857Y-111554523D01*
X98034619Y-111649761D01*
X97891761Y-111697380D01*
X97796523Y-111697380D01*
X99177476Y-111697380D02*
X98606047Y-111697380D01*
X98891761Y-111697380D02*
X98891761Y-110697380D01*
X98796523Y-110840238D01*
X98701285Y-110935476D01*
X98606047Y-110983095D01*
X99558428Y-110792619D02*
X99606047Y-110745000D01*
X99701285Y-110697380D01*
X99939380Y-110697380D01*
X100034619Y-110745000D01*
X100082238Y-110792619D01*
X100129857Y-110887857D01*
X100129857Y-110983095D01*
X100082238Y-111125952D01*
X99510809Y-111697380D01*
X100129857Y-111697380D01*
%TO.C,J11*%
X85477476Y-110697380D02*
X85477476Y-111411666D01*
X85429857Y-111554523D01*
X85334619Y-111649761D01*
X85191761Y-111697380D01*
X85096523Y-111697380D01*
X86477476Y-111697380D02*
X85906047Y-111697380D01*
X86191761Y-111697380D02*
X86191761Y-110697380D01*
X86096523Y-110840238D01*
X86001285Y-110935476D01*
X85906047Y-110983095D01*
X87429857Y-111697380D02*
X86858428Y-111697380D01*
X87144142Y-111697380D02*
X87144142Y-110697380D01*
X87048904Y-110840238D01*
X86953666Y-110935476D01*
X86858428Y-110983095D01*
%TO.C,J10*%
X72777476Y-110697380D02*
X72777476Y-111411666D01*
X72729857Y-111554523D01*
X72634619Y-111649761D01*
X72491761Y-111697380D01*
X72396523Y-111697380D01*
X73777476Y-111697380D02*
X73206047Y-111697380D01*
X73491761Y-111697380D02*
X73491761Y-110697380D01*
X73396523Y-110840238D01*
X73301285Y-110935476D01*
X73206047Y-110983095D01*
X74396523Y-110697380D02*
X74491761Y-110697380D01*
X74587000Y-110745000D01*
X74634619Y-110792619D01*
X74682238Y-110887857D01*
X74729857Y-111078333D01*
X74729857Y-111316428D01*
X74682238Y-111506904D01*
X74634619Y-111602142D01*
X74587000Y-111649761D01*
X74491761Y-111697380D01*
X74396523Y-111697380D01*
X74301285Y-111649761D01*
X74253666Y-111602142D01*
X74206047Y-111506904D01*
X74158428Y-111316428D01*
X74158428Y-111078333D01*
X74206047Y-110887857D01*
X74253666Y-110792619D01*
X74301285Y-110745000D01*
X74396523Y-110697380D01*
%TO.C,J9*%
X73253666Y-88472380D02*
X73253666Y-89186666D01*
X73206047Y-89329523D01*
X73110809Y-89424761D01*
X72967952Y-89472380D01*
X72872714Y-89472380D01*
X73777476Y-89472380D02*
X73967952Y-89472380D01*
X74063190Y-89424761D01*
X74110809Y-89377142D01*
X74206047Y-89234285D01*
X74253666Y-89043809D01*
X74253666Y-88662857D01*
X74206047Y-88567619D01*
X74158428Y-88520000D01*
X74063190Y-88472380D01*
X73872714Y-88472380D01*
X73777476Y-88520000D01*
X73729857Y-88567619D01*
X73682238Y-88662857D01*
X73682238Y-88900952D01*
X73729857Y-88996190D01*
X73777476Y-89043809D01*
X73872714Y-89091428D01*
X74063190Y-89091428D01*
X74158428Y-89043809D01*
X74206047Y-88996190D01*
X74253666Y-88900952D01*
%TO.C,J8*%
X60553666Y-87837380D02*
X60553666Y-88551666D01*
X60506047Y-88694523D01*
X60410809Y-88789761D01*
X60267952Y-88837380D01*
X60172714Y-88837380D01*
X61172714Y-88265952D02*
X61077476Y-88218333D01*
X61029857Y-88170714D01*
X60982238Y-88075476D01*
X60982238Y-88027857D01*
X61029857Y-87932619D01*
X61077476Y-87885000D01*
X61172714Y-87837380D01*
X61363190Y-87837380D01*
X61458428Y-87885000D01*
X61506047Y-87932619D01*
X61553666Y-88027857D01*
X61553666Y-88075476D01*
X61506047Y-88170714D01*
X61458428Y-88218333D01*
X61363190Y-88265952D01*
X61172714Y-88265952D01*
X61077476Y-88313571D01*
X61029857Y-88361190D01*
X60982238Y-88456428D01*
X60982238Y-88646904D01*
X61029857Y-88742142D01*
X61077476Y-88789761D01*
X61172714Y-88837380D01*
X61363190Y-88837380D01*
X61458428Y-88789761D01*
X61506047Y-88742142D01*
X61553666Y-88646904D01*
X61553666Y-88456428D01*
X61506047Y-88361190D01*
X61458428Y-88313571D01*
X61363190Y-88265952D01*
%TO.C,J7*%
X85953666Y-88472380D02*
X85953666Y-89186666D01*
X85906047Y-89329523D01*
X85810809Y-89424761D01*
X85667952Y-89472380D01*
X85572714Y-89472380D01*
X86334619Y-88472380D02*
X87001285Y-88472380D01*
X86572714Y-89472380D01*
%TO.C,J6*%
X98653666Y-88472380D02*
X98653666Y-89186666D01*
X98606047Y-89329523D01*
X98510809Y-89424761D01*
X98367952Y-89472380D01*
X98272714Y-89472380D01*
X99558428Y-88472380D02*
X99367952Y-88472380D01*
X99272714Y-88520000D01*
X99225095Y-88567619D01*
X99129857Y-88710476D01*
X99082238Y-88900952D01*
X99082238Y-89281904D01*
X99129857Y-89377142D01*
X99177476Y-89424761D01*
X99272714Y-89472380D01*
X99463190Y-89472380D01*
X99558428Y-89424761D01*
X99606047Y-89377142D01*
X99653666Y-89281904D01*
X99653666Y-89043809D01*
X99606047Y-88948571D01*
X99558428Y-88900952D01*
X99463190Y-88853333D01*
X99272714Y-88853333D01*
X99177476Y-88900952D01*
X99129857Y-88948571D01*
X99082238Y-89043809D01*
%TO.C,J5*%
X111353666Y-88472380D02*
X111353666Y-89186666D01*
X111306047Y-89329523D01*
X111210809Y-89424761D01*
X111067952Y-89472380D01*
X110972714Y-89472380D01*
X112306047Y-88472380D02*
X111829857Y-88472380D01*
X111782238Y-88948571D01*
X111829857Y-88900952D01*
X111925095Y-88853333D01*
X112163190Y-88853333D01*
X112258428Y-88900952D01*
X112306047Y-88948571D01*
X112353666Y-89043809D01*
X112353666Y-89281904D01*
X112306047Y-89377142D01*
X112258428Y-89424761D01*
X112163190Y-89472380D01*
X111925095Y-89472380D01*
X111829857Y-89424761D01*
X111782238Y-89377142D01*
%TO.C,J4*%
X124053666Y-88472380D02*
X124053666Y-89186666D01*
X124006047Y-89329523D01*
X123910809Y-89424761D01*
X123767952Y-89472380D01*
X123672714Y-89472380D01*
X124958428Y-88805714D02*
X124958428Y-89472380D01*
X124720333Y-88424761D02*
X124482238Y-89139047D01*
X125101285Y-89139047D01*
%TO.C,U1*%
X170053095Y-40727380D02*
X170053095Y-41536904D01*
X170100714Y-41632142D01*
X170148333Y-41679761D01*
X170243571Y-41727380D01*
X170434047Y-41727380D01*
X170529285Y-41679761D01*
X170576904Y-41632142D01*
X170624523Y-41536904D01*
X170624523Y-40727380D01*
X171624523Y-41727380D02*
X171053095Y-41727380D01*
X171338809Y-41727380D02*
X171338809Y-40727380D01*
X171243571Y-40870238D01*
X171148333Y-40965476D01*
X171053095Y-41013095D01*
%TO.C,U18*%
X195611904Y-40727380D02*
X195611904Y-41536904D01*
X195659523Y-41632142D01*
X195707142Y-41679761D01*
X195802380Y-41727380D01*
X195992857Y-41727380D01*
X196088095Y-41679761D01*
X196135714Y-41632142D01*
X196183333Y-41536904D01*
X196183333Y-40727380D01*
X197183333Y-41727380D02*
X196611904Y-41727380D01*
X196897619Y-41727380D02*
X196897619Y-40727380D01*
X196802380Y-40870238D01*
X196707142Y-40965476D01*
X196611904Y-41013095D01*
X197754761Y-41155952D02*
X197659523Y-41108333D01*
X197611904Y-41060714D01*
X197564285Y-40965476D01*
X197564285Y-40917857D01*
X197611904Y-40822619D01*
X197659523Y-40775000D01*
X197754761Y-40727380D01*
X197945238Y-40727380D01*
X198040476Y-40775000D01*
X198088095Y-40822619D01*
X198135714Y-40917857D01*
X198135714Y-40965476D01*
X198088095Y-41060714D01*
X198040476Y-41108333D01*
X197945238Y-41155952D01*
X197754761Y-41155952D01*
X197659523Y-41203571D01*
X197611904Y-41251190D01*
X197564285Y-41346428D01*
X197564285Y-41536904D01*
X197611904Y-41632142D01*
X197659523Y-41679761D01*
X197754761Y-41727380D01*
X197945238Y-41727380D01*
X198040476Y-41679761D01*
X198088095Y-41632142D01*
X198135714Y-41536904D01*
X198135714Y-41346428D01*
X198088095Y-41251190D01*
X198040476Y-41203571D01*
X197945238Y-41155952D01*
%TO.C,U22*%
X95916904Y-89197380D02*
X95916904Y-90006904D01*
X95964523Y-90102142D01*
X96012142Y-90149761D01*
X96107380Y-90197380D01*
X96297857Y-90197380D01*
X96393095Y-90149761D01*
X96440714Y-90102142D01*
X96488333Y-90006904D01*
X96488333Y-89197380D01*
X96916904Y-89292619D02*
X96964523Y-89245000D01*
X97059761Y-89197380D01*
X97297857Y-89197380D01*
X97393095Y-89245000D01*
X97440714Y-89292619D01*
X97488333Y-89387857D01*
X97488333Y-89483095D01*
X97440714Y-89625952D01*
X96869285Y-90197380D01*
X97488333Y-90197380D01*
X97869285Y-89292619D02*
X97916904Y-89245000D01*
X98012142Y-89197380D01*
X98250238Y-89197380D01*
X98345476Y-89245000D01*
X98393095Y-89292619D01*
X98440714Y-89387857D01*
X98440714Y-89483095D01*
X98393095Y-89625952D01*
X97821666Y-90197380D01*
X98440714Y-90197380D01*
%TO.C,U15*%
X143541904Y-40727380D02*
X143541904Y-41536904D01*
X143589523Y-41632142D01*
X143637142Y-41679761D01*
X143732380Y-41727380D01*
X143922857Y-41727380D01*
X144018095Y-41679761D01*
X144065714Y-41632142D01*
X144113333Y-41536904D01*
X144113333Y-40727380D01*
X145113333Y-41727380D02*
X144541904Y-41727380D01*
X144827619Y-41727380D02*
X144827619Y-40727380D01*
X144732380Y-40870238D01*
X144637142Y-40965476D01*
X144541904Y-41013095D01*
X146018095Y-40727380D02*
X145541904Y-40727380D01*
X145494285Y-41203571D01*
X145541904Y-41155952D01*
X145637142Y-41108333D01*
X145875238Y-41108333D01*
X145970476Y-41155952D01*
X146018095Y-41203571D01*
X146065714Y-41298809D01*
X146065714Y-41536904D01*
X146018095Y-41632142D01*
X145970476Y-41679761D01*
X145875238Y-41727380D01*
X145637142Y-41727380D01*
X145541904Y-41679761D01*
X145494285Y-41632142D01*
%TO.C,U58*%
X83216904Y-89197380D02*
X83216904Y-90006904D01*
X83264523Y-90102142D01*
X83312142Y-90149761D01*
X83407380Y-90197380D01*
X83597857Y-90197380D01*
X83693095Y-90149761D01*
X83740714Y-90102142D01*
X83788333Y-90006904D01*
X83788333Y-89197380D01*
X84740714Y-89197380D02*
X84264523Y-89197380D01*
X84216904Y-89673571D01*
X84264523Y-89625952D01*
X84359761Y-89578333D01*
X84597857Y-89578333D01*
X84693095Y-89625952D01*
X84740714Y-89673571D01*
X84788333Y-89768809D01*
X84788333Y-90006904D01*
X84740714Y-90102142D01*
X84693095Y-90149761D01*
X84597857Y-90197380D01*
X84359761Y-90197380D01*
X84264523Y-90149761D01*
X84216904Y-90102142D01*
X85359761Y-89625952D02*
X85264523Y-89578333D01*
X85216904Y-89530714D01*
X85169285Y-89435476D01*
X85169285Y-89387857D01*
X85216904Y-89292619D01*
X85264523Y-89245000D01*
X85359761Y-89197380D01*
X85550238Y-89197380D01*
X85645476Y-89245000D01*
X85693095Y-89292619D01*
X85740714Y-89387857D01*
X85740714Y-89435476D01*
X85693095Y-89530714D01*
X85645476Y-89578333D01*
X85550238Y-89625952D01*
X85359761Y-89625952D01*
X85264523Y-89673571D01*
X85216904Y-89721190D01*
X85169285Y-89816428D01*
X85169285Y-90006904D01*
X85216904Y-90102142D01*
X85264523Y-90149761D01*
X85359761Y-90197380D01*
X85550238Y-90197380D01*
X85645476Y-90149761D01*
X85693095Y-90102142D01*
X85740714Y-90006904D01*
X85740714Y-89816428D01*
X85693095Y-89721190D01*
X85645476Y-89673571D01*
X85550238Y-89625952D01*
%TO.C,U33*%
X221646904Y-40727380D02*
X221646904Y-41536904D01*
X221694523Y-41632142D01*
X221742142Y-41679761D01*
X221837380Y-41727380D01*
X222027857Y-41727380D01*
X222123095Y-41679761D01*
X222170714Y-41632142D01*
X222218333Y-41536904D01*
X222218333Y-40727380D01*
X222599285Y-40727380D02*
X223218333Y-40727380D01*
X222885000Y-41108333D01*
X223027857Y-41108333D01*
X223123095Y-41155952D01*
X223170714Y-41203571D01*
X223218333Y-41298809D01*
X223218333Y-41536904D01*
X223170714Y-41632142D01*
X223123095Y-41679761D01*
X223027857Y-41727380D01*
X222742142Y-41727380D01*
X222646904Y-41679761D01*
X222599285Y-41632142D01*
X223551666Y-40727380D02*
X224170714Y-40727380D01*
X223837380Y-41108333D01*
X223980238Y-41108333D01*
X224075476Y-41155952D01*
X224123095Y-41203571D01*
X224170714Y-41298809D01*
X224170714Y-41536904D01*
X224123095Y-41632142D01*
X224075476Y-41679761D01*
X223980238Y-41727380D01*
X223694523Y-41727380D01*
X223599285Y-41679761D01*
X223551666Y-41632142D01*
%TO.C,U54*%
X70516904Y-89197380D02*
X70516904Y-90006904D01*
X70564523Y-90102142D01*
X70612142Y-90149761D01*
X70707380Y-90197380D01*
X70897857Y-90197380D01*
X70993095Y-90149761D01*
X71040714Y-90102142D01*
X71088333Y-90006904D01*
X71088333Y-89197380D01*
X72040714Y-89197380D02*
X71564523Y-89197380D01*
X71516904Y-89673571D01*
X71564523Y-89625952D01*
X71659761Y-89578333D01*
X71897857Y-89578333D01*
X71993095Y-89625952D01*
X72040714Y-89673571D01*
X72088333Y-89768809D01*
X72088333Y-90006904D01*
X72040714Y-90102142D01*
X71993095Y-90149761D01*
X71897857Y-90197380D01*
X71659761Y-90197380D01*
X71564523Y-90149761D01*
X71516904Y-90102142D01*
X72945476Y-89530714D02*
X72945476Y-90197380D01*
X72707380Y-89149761D02*
X72469285Y-89864047D01*
X73088333Y-89864047D01*
%TO.C,U46*%
X171227904Y-138136380D02*
X171227904Y-138945904D01*
X171275523Y-139041142D01*
X171323142Y-139088761D01*
X171418380Y-139136380D01*
X171608857Y-139136380D01*
X171704095Y-139088761D01*
X171751714Y-139041142D01*
X171799333Y-138945904D01*
X171799333Y-138136380D01*
X172704095Y-138469714D02*
X172704095Y-139136380D01*
X172466000Y-138088761D02*
X172227904Y-138803047D01*
X172846952Y-138803047D01*
X173656476Y-138136380D02*
X173466000Y-138136380D01*
X173370761Y-138184000D01*
X173323142Y-138231619D01*
X173227904Y-138374476D01*
X173180285Y-138564952D01*
X173180285Y-138945904D01*
X173227904Y-139041142D01*
X173275523Y-139088761D01*
X173370761Y-139136380D01*
X173561238Y-139136380D01*
X173656476Y-139088761D01*
X173704095Y-139041142D01*
X173751714Y-138945904D01*
X173751714Y-138707809D01*
X173704095Y-138612571D01*
X173656476Y-138564952D01*
X173561238Y-138517333D01*
X173370761Y-138517333D01*
X173275523Y-138564952D01*
X173227904Y-138612571D01*
X173180285Y-138707809D01*
%TO.C,BT1*%
X66398571Y-125035714D02*
X66446190Y-124892857D01*
X66493809Y-124845238D01*
X66589047Y-124797619D01*
X66731904Y-124797619D01*
X66827142Y-124845238D01*
X66874761Y-124892857D01*
X66922380Y-124988095D01*
X66922380Y-125369047D01*
X65922380Y-125369047D01*
X65922380Y-125035714D01*
X65970000Y-124940476D01*
X66017619Y-124892857D01*
X66112857Y-124845238D01*
X66208095Y-124845238D01*
X66303333Y-124892857D01*
X66350952Y-124940476D01*
X66398571Y-125035714D01*
X66398571Y-125369047D01*
X65922380Y-124511904D02*
X65922380Y-123940476D01*
X66922380Y-124226190D02*
X65922380Y-124226190D01*
X66922380Y-123083333D02*
X66922380Y-123654761D01*
X66922380Y-123369047D02*
X65922380Y-123369047D01*
X66065238Y-123464285D01*
X66160476Y-123559523D01*
X66208095Y-123654761D01*
%TO.C,R1*%
X122388333Y-45992380D02*
X122055000Y-45516190D01*
X121816904Y-45992380D02*
X121816904Y-44992380D01*
X122197857Y-44992380D01*
X122293095Y-45040000D01*
X122340714Y-45087619D01*
X122388333Y-45182857D01*
X122388333Y-45325714D01*
X122340714Y-45420952D01*
X122293095Y-45468571D01*
X122197857Y-45516190D01*
X121816904Y-45516190D01*
X123340714Y-45992380D02*
X122769285Y-45992380D01*
X123055000Y-45992380D02*
X123055000Y-44992380D01*
X122959761Y-45135238D01*
X122864523Y-45230476D01*
X122769285Y-45278095D01*
%TO.C,R2*%
X104608333Y-51432380D02*
X104275000Y-50956190D01*
X104036904Y-51432380D02*
X104036904Y-50432380D01*
X104417857Y-50432380D01*
X104513095Y-50480000D01*
X104560714Y-50527619D01*
X104608333Y-50622857D01*
X104608333Y-50765714D01*
X104560714Y-50860952D01*
X104513095Y-50908571D01*
X104417857Y-50956190D01*
X104036904Y-50956190D01*
X104989285Y-50527619D02*
X105036904Y-50480000D01*
X105132142Y-50432380D01*
X105370238Y-50432380D01*
X105465476Y-50480000D01*
X105513095Y-50527619D01*
X105560714Y-50622857D01*
X105560714Y-50718095D01*
X105513095Y-50860952D01*
X104941666Y-51432380D01*
X105560714Y-51432380D01*
%TO.C,R4*%
X216807380Y-66841666D02*
X216331190Y-67175000D01*
X216807380Y-67413095D02*
X215807380Y-67413095D01*
X215807380Y-67032142D01*
X215855000Y-66936904D01*
X215902619Y-66889285D01*
X215997857Y-66841666D01*
X216140714Y-66841666D01*
X216235952Y-66889285D01*
X216283571Y-66936904D01*
X216331190Y-67032142D01*
X216331190Y-67413095D01*
X216140714Y-65984523D02*
X216807380Y-65984523D01*
X215759761Y-66222619D02*
X216474047Y-66460714D01*
X216474047Y-65841666D01*
%TO.C,R5*%
X216807380Y-92241666D02*
X216331190Y-92575000D01*
X216807380Y-92813095D02*
X215807380Y-92813095D01*
X215807380Y-92432142D01*
X215855000Y-92336904D01*
X215902619Y-92289285D01*
X215997857Y-92241666D01*
X216140714Y-92241666D01*
X216235952Y-92289285D01*
X216283571Y-92336904D01*
X216331190Y-92432142D01*
X216331190Y-92813095D01*
X215807380Y-91336904D02*
X215807380Y-91813095D01*
X216283571Y-91860714D01*
X216235952Y-91813095D01*
X216188333Y-91717857D01*
X216188333Y-91479761D01*
X216235952Y-91384523D01*
X216283571Y-91336904D01*
X216378809Y-91289285D01*
X216616904Y-91289285D01*
X216712142Y-91336904D01*
X216759761Y-91384523D01*
X216807380Y-91479761D01*
X216807380Y-91717857D01*
X216759761Y-91813095D01*
X216712142Y-91860714D01*
%TO.C,R6*%
X176802380Y-66841666D02*
X176326190Y-67175000D01*
X176802380Y-67413095D02*
X175802380Y-67413095D01*
X175802380Y-67032142D01*
X175850000Y-66936904D01*
X175897619Y-66889285D01*
X175992857Y-66841666D01*
X176135714Y-66841666D01*
X176230952Y-66889285D01*
X176278571Y-66936904D01*
X176326190Y-67032142D01*
X176326190Y-67413095D01*
X175802380Y-65984523D02*
X175802380Y-66175000D01*
X175850000Y-66270238D01*
X175897619Y-66317857D01*
X176040476Y-66413095D01*
X176230952Y-66460714D01*
X176611904Y-66460714D01*
X176707142Y-66413095D01*
X176754761Y-66365476D01*
X176802380Y-66270238D01*
X176802380Y-66079761D01*
X176754761Y-65984523D01*
X176707142Y-65936904D01*
X176611904Y-65889285D01*
X176373809Y-65889285D01*
X176278571Y-65936904D01*
X176230952Y-65984523D01*
X176183333Y-66079761D01*
X176183333Y-66270238D01*
X176230952Y-66365476D01*
X176278571Y-66413095D01*
X176373809Y-66460714D01*
%TO.C,R7*%
X190137380Y-66841666D02*
X189661190Y-67175000D01*
X190137380Y-67413095D02*
X189137380Y-67413095D01*
X189137380Y-67032142D01*
X189185000Y-66936904D01*
X189232619Y-66889285D01*
X189327857Y-66841666D01*
X189470714Y-66841666D01*
X189565952Y-66889285D01*
X189613571Y-66936904D01*
X189661190Y-67032142D01*
X189661190Y-67413095D01*
X189137380Y-66508333D02*
X189137380Y-65841666D01*
X190137380Y-66270238D01*
%TO.C,R8*%
X230142380Y-66841666D02*
X229666190Y-67175000D01*
X230142380Y-67413095D02*
X229142380Y-67413095D01*
X229142380Y-67032142D01*
X229190000Y-66936904D01*
X229237619Y-66889285D01*
X229332857Y-66841666D01*
X229475714Y-66841666D01*
X229570952Y-66889285D01*
X229618571Y-66936904D01*
X229666190Y-67032142D01*
X229666190Y-67413095D01*
X229570952Y-66270238D02*
X229523333Y-66365476D01*
X229475714Y-66413095D01*
X229380476Y-66460714D01*
X229332857Y-66460714D01*
X229237619Y-66413095D01*
X229190000Y-66365476D01*
X229142380Y-66270238D01*
X229142380Y-66079761D01*
X229190000Y-65984523D01*
X229237619Y-65936904D01*
X229332857Y-65889285D01*
X229380476Y-65889285D01*
X229475714Y-65936904D01*
X229523333Y-65984523D01*
X229570952Y-66079761D01*
X229570952Y-66270238D01*
X229618571Y-66365476D01*
X229666190Y-66413095D01*
X229761428Y-66460714D01*
X229951904Y-66460714D01*
X230047142Y-66413095D01*
X230094761Y-66365476D01*
X230142380Y-66270238D01*
X230142380Y-66079761D01*
X230094761Y-65984523D01*
X230047142Y-65936904D01*
X229951904Y-65889285D01*
X229761428Y-65889285D01*
X229666190Y-65936904D01*
X229618571Y-65984523D01*
X229570952Y-66079761D01*
%TO.C,R9*%
X190137380Y-92241666D02*
X189661190Y-92575000D01*
X190137380Y-92813095D02*
X189137380Y-92813095D01*
X189137380Y-92432142D01*
X189185000Y-92336904D01*
X189232619Y-92289285D01*
X189327857Y-92241666D01*
X189470714Y-92241666D01*
X189565952Y-92289285D01*
X189613571Y-92336904D01*
X189661190Y-92432142D01*
X189661190Y-92813095D01*
X190137380Y-91765476D02*
X190137380Y-91575000D01*
X190089761Y-91479761D01*
X190042142Y-91432142D01*
X189899285Y-91336904D01*
X189708809Y-91289285D01*
X189327857Y-91289285D01*
X189232619Y-91336904D01*
X189185000Y-91384523D01*
X189137380Y-91479761D01*
X189137380Y-91670238D01*
X189185000Y-91765476D01*
X189232619Y-91813095D01*
X189327857Y-91860714D01*
X189565952Y-91860714D01*
X189661190Y-91813095D01*
X189708809Y-91765476D01*
X189756428Y-91670238D01*
X189756428Y-91479761D01*
X189708809Y-91384523D01*
X189661190Y-91336904D01*
X189565952Y-91289285D01*
%TO.C,R11*%
X189227380Y-67317857D02*
X188751190Y-67651190D01*
X189227380Y-67889285D02*
X188227380Y-67889285D01*
X188227380Y-67508333D01*
X188275000Y-67413095D01*
X188322619Y-67365476D01*
X188417857Y-67317857D01*
X188560714Y-67317857D01*
X188655952Y-67365476D01*
X188703571Y-67413095D01*
X188751190Y-67508333D01*
X188751190Y-67889285D01*
X189227380Y-66365476D02*
X189227380Y-66936904D01*
X189227380Y-66651190D02*
X188227380Y-66651190D01*
X188370238Y-66746428D01*
X188465476Y-66841666D01*
X188513095Y-66936904D01*
X189227380Y-65413095D02*
X189227380Y-65984523D01*
X189227380Y-65698809D02*
X188227380Y-65698809D01*
X188370238Y-65794047D01*
X188465476Y-65889285D01*
X188513095Y-65984523D01*
%TO.C,R12*%
X215897380Y-67317857D02*
X215421190Y-67651190D01*
X215897380Y-67889285D02*
X214897380Y-67889285D01*
X214897380Y-67508333D01*
X214945000Y-67413095D01*
X214992619Y-67365476D01*
X215087857Y-67317857D01*
X215230714Y-67317857D01*
X215325952Y-67365476D01*
X215373571Y-67413095D01*
X215421190Y-67508333D01*
X215421190Y-67889285D01*
X215897380Y-66365476D02*
X215897380Y-66936904D01*
X215897380Y-66651190D02*
X214897380Y-66651190D01*
X215040238Y-66746428D01*
X215135476Y-66841666D01*
X215183095Y-66936904D01*
X214992619Y-65984523D02*
X214945000Y-65936904D01*
X214897380Y-65841666D01*
X214897380Y-65603571D01*
X214945000Y-65508333D01*
X214992619Y-65460714D01*
X215087857Y-65413095D01*
X215183095Y-65413095D01*
X215325952Y-65460714D01*
X215897380Y-66032142D01*
X215897380Y-65413095D01*
%TO.C,R13*%
X215897380Y-92717857D02*
X215421190Y-93051190D01*
X215897380Y-93289285D02*
X214897380Y-93289285D01*
X214897380Y-92908333D01*
X214945000Y-92813095D01*
X214992619Y-92765476D01*
X215087857Y-92717857D01*
X215230714Y-92717857D01*
X215325952Y-92765476D01*
X215373571Y-92813095D01*
X215421190Y-92908333D01*
X215421190Y-93289285D01*
X215897380Y-91765476D02*
X215897380Y-92336904D01*
X215897380Y-92051190D02*
X214897380Y-92051190D01*
X215040238Y-92146428D01*
X215135476Y-92241666D01*
X215183095Y-92336904D01*
X214897380Y-91432142D02*
X214897380Y-90813095D01*
X215278333Y-91146428D01*
X215278333Y-91003571D01*
X215325952Y-90908333D01*
X215373571Y-90860714D01*
X215468809Y-90813095D01*
X215706904Y-90813095D01*
X215802142Y-90860714D01*
X215849761Y-90908333D01*
X215897380Y-91003571D01*
X215897380Y-91289285D01*
X215849761Y-91384523D01*
X215802142Y-91432142D01*
%TO.C,R14*%
X229232380Y-67317857D02*
X228756190Y-67651190D01*
X229232380Y-67889285D02*
X228232380Y-67889285D01*
X228232380Y-67508333D01*
X228280000Y-67413095D01*
X228327619Y-67365476D01*
X228422857Y-67317857D01*
X228565714Y-67317857D01*
X228660952Y-67365476D01*
X228708571Y-67413095D01*
X228756190Y-67508333D01*
X228756190Y-67889285D01*
X229232380Y-66365476D02*
X229232380Y-66936904D01*
X229232380Y-66651190D02*
X228232380Y-66651190D01*
X228375238Y-66746428D01*
X228470476Y-66841666D01*
X228518095Y-66936904D01*
X228565714Y-65508333D02*
X229232380Y-65508333D01*
X228184761Y-65746428D02*
X228899047Y-65984523D01*
X228899047Y-65365476D01*
%TO.C,R15*%
X175892380Y-67317857D02*
X175416190Y-67651190D01*
X175892380Y-67889285D02*
X174892380Y-67889285D01*
X174892380Y-67508333D01*
X174940000Y-67413095D01*
X174987619Y-67365476D01*
X175082857Y-67317857D01*
X175225714Y-67317857D01*
X175320952Y-67365476D01*
X175368571Y-67413095D01*
X175416190Y-67508333D01*
X175416190Y-67889285D01*
X175892380Y-66365476D02*
X175892380Y-66936904D01*
X175892380Y-66651190D02*
X174892380Y-66651190D01*
X175035238Y-66746428D01*
X175130476Y-66841666D01*
X175178095Y-66936904D01*
X174892380Y-65460714D02*
X174892380Y-65936904D01*
X175368571Y-65984523D01*
X175320952Y-65936904D01*
X175273333Y-65841666D01*
X175273333Y-65603571D01*
X175320952Y-65508333D01*
X175368571Y-65460714D01*
X175463809Y-65413095D01*
X175701904Y-65413095D01*
X175797142Y-65460714D01*
X175844761Y-65508333D01*
X175892380Y-65603571D01*
X175892380Y-65841666D01*
X175844761Y-65936904D01*
X175797142Y-65984523D01*
%TO.C,R16*%
X189227380Y-92717857D02*
X188751190Y-93051190D01*
X189227380Y-93289285D02*
X188227380Y-93289285D01*
X188227380Y-92908333D01*
X188275000Y-92813095D01*
X188322619Y-92765476D01*
X188417857Y-92717857D01*
X188560714Y-92717857D01*
X188655952Y-92765476D01*
X188703571Y-92813095D01*
X188751190Y-92908333D01*
X188751190Y-93289285D01*
X189227380Y-91765476D02*
X189227380Y-92336904D01*
X189227380Y-92051190D02*
X188227380Y-92051190D01*
X188370238Y-92146428D01*
X188465476Y-92241666D01*
X188513095Y-92336904D01*
X188227380Y-90908333D02*
X188227380Y-91098809D01*
X188275000Y-91194047D01*
X188322619Y-91241666D01*
X188465476Y-91336904D01*
X188655952Y-91384523D01*
X189036904Y-91384523D01*
X189132142Y-91336904D01*
X189179761Y-91289285D01*
X189227380Y-91194047D01*
X189227380Y-91003571D01*
X189179761Y-90908333D01*
X189132142Y-90860714D01*
X189036904Y-90813095D01*
X188798809Y-90813095D01*
X188703571Y-90860714D01*
X188655952Y-90908333D01*
X188608333Y-91003571D01*
X188608333Y-91194047D01*
X188655952Y-91289285D01*
X188703571Y-91336904D01*
X188798809Y-91384523D01*
%TO.C,R19*%
X157117380Y-67317857D02*
X156641190Y-67651190D01*
X157117380Y-67889285D02*
X156117380Y-67889285D01*
X156117380Y-67508333D01*
X156165000Y-67413095D01*
X156212619Y-67365476D01*
X156307857Y-67317857D01*
X156450714Y-67317857D01*
X156545952Y-67365476D01*
X156593571Y-67413095D01*
X156641190Y-67508333D01*
X156641190Y-67889285D01*
X157117380Y-66365476D02*
X157117380Y-66936904D01*
X157117380Y-66651190D02*
X156117380Y-66651190D01*
X156260238Y-66746428D01*
X156355476Y-66841666D01*
X156403095Y-66936904D01*
X157117380Y-65889285D02*
X157117380Y-65698809D01*
X157069761Y-65603571D01*
X157022142Y-65555952D01*
X156879285Y-65460714D01*
X156688809Y-65413095D01*
X156307857Y-65413095D01*
X156212619Y-65460714D01*
X156165000Y-65508333D01*
X156117380Y-65603571D01*
X156117380Y-65794047D01*
X156165000Y-65889285D01*
X156212619Y-65936904D01*
X156307857Y-65984523D01*
X156545952Y-65984523D01*
X156641190Y-65936904D01*
X156688809Y-65889285D01*
X156736428Y-65794047D01*
X156736428Y-65603571D01*
X156688809Y-65508333D01*
X156641190Y-65460714D01*
X156545952Y-65413095D01*
%TO.C,R20*%
X197122380Y-67317857D02*
X196646190Y-67651190D01*
X197122380Y-67889285D02*
X196122380Y-67889285D01*
X196122380Y-67508333D01*
X196170000Y-67413095D01*
X196217619Y-67365476D01*
X196312857Y-67317857D01*
X196455714Y-67317857D01*
X196550952Y-67365476D01*
X196598571Y-67413095D01*
X196646190Y-67508333D01*
X196646190Y-67889285D01*
X196217619Y-66936904D02*
X196170000Y-66889285D01*
X196122380Y-66794047D01*
X196122380Y-66555952D01*
X196170000Y-66460714D01*
X196217619Y-66413095D01*
X196312857Y-66365476D01*
X196408095Y-66365476D01*
X196550952Y-66413095D01*
X197122380Y-66984523D01*
X197122380Y-66365476D01*
X196122380Y-65746428D02*
X196122380Y-65651190D01*
X196170000Y-65555952D01*
X196217619Y-65508333D01*
X196312857Y-65460714D01*
X196503333Y-65413095D01*
X196741428Y-65413095D01*
X196931904Y-65460714D01*
X197027142Y-65508333D01*
X197074761Y-65555952D01*
X197122380Y-65651190D01*
X197122380Y-65746428D01*
X197074761Y-65841666D01*
X197027142Y-65889285D01*
X196931904Y-65936904D01*
X196741428Y-65984523D01*
X196503333Y-65984523D01*
X196312857Y-65936904D01*
X196217619Y-65889285D01*
X196170000Y-65841666D01*
X196122380Y-65746428D01*
%TO.C,R21*%
X223792380Y-92717857D02*
X223316190Y-93051190D01*
X223792380Y-93289285D02*
X222792380Y-93289285D01*
X222792380Y-92908333D01*
X222840000Y-92813095D01*
X222887619Y-92765476D01*
X222982857Y-92717857D01*
X223125714Y-92717857D01*
X223220952Y-92765476D01*
X223268571Y-92813095D01*
X223316190Y-92908333D01*
X223316190Y-93289285D01*
X222887619Y-92336904D02*
X222840000Y-92289285D01*
X222792380Y-92194047D01*
X222792380Y-91955952D01*
X222840000Y-91860714D01*
X222887619Y-91813095D01*
X222982857Y-91765476D01*
X223078095Y-91765476D01*
X223220952Y-91813095D01*
X223792380Y-92384523D01*
X223792380Y-91765476D01*
X223792380Y-90813095D02*
X223792380Y-91384523D01*
X223792380Y-91098809D02*
X222792380Y-91098809D01*
X222935238Y-91194047D01*
X223030476Y-91289285D01*
X223078095Y-91384523D01*
%TO.C,R22*%
X197122380Y-92717857D02*
X196646190Y-93051190D01*
X197122380Y-93289285D02*
X196122380Y-93289285D01*
X196122380Y-92908333D01*
X196170000Y-92813095D01*
X196217619Y-92765476D01*
X196312857Y-92717857D01*
X196455714Y-92717857D01*
X196550952Y-92765476D01*
X196598571Y-92813095D01*
X196646190Y-92908333D01*
X196646190Y-93289285D01*
X196217619Y-92336904D02*
X196170000Y-92289285D01*
X196122380Y-92194047D01*
X196122380Y-91955952D01*
X196170000Y-91860714D01*
X196217619Y-91813095D01*
X196312857Y-91765476D01*
X196408095Y-91765476D01*
X196550952Y-91813095D01*
X197122380Y-92384523D01*
X197122380Y-91765476D01*
X196217619Y-91384523D02*
X196170000Y-91336904D01*
X196122380Y-91241666D01*
X196122380Y-91003571D01*
X196170000Y-90908333D01*
X196217619Y-90860714D01*
X196312857Y-90813095D01*
X196408095Y-90813095D01*
X196550952Y-90860714D01*
X197122380Y-91432142D01*
X197122380Y-90813095D01*
%TO.C,R23*%
X170452380Y-92717857D02*
X169976190Y-93051190D01*
X170452380Y-93289285D02*
X169452380Y-93289285D01*
X169452380Y-92908333D01*
X169500000Y-92813095D01*
X169547619Y-92765476D01*
X169642857Y-92717857D01*
X169785714Y-92717857D01*
X169880952Y-92765476D01*
X169928571Y-92813095D01*
X169976190Y-92908333D01*
X169976190Y-93289285D01*
X169547619Y-92336904D02*
X169500000Y-92289285D01*
X169452380Y-92194047D01*
X169452380Y-91955952D01*
X169500000Y-91860714D01*
X169547619Y-91813095D01*
X169642857Y-91765476D01*
X169738095Y-91765476D01*
X169880952Y-91813095D01*
X170452380Y-92384523D01*
X170452380Y-91765476D01*
X169452380Y-91432142D02*
X169452380Y-90813095D01*
X169833333Y-91146428D01*
X169833333Y-91003571D01*
X169880952Y-90908333D01*
X169928571Y-90860714D01*
X170023809Y-90813095D01*
X170261904Y-90813095D01*
X170357142Y-90860714D01*
X170404761Y-90908333D01*
X170452380Y-91003571D01*
X170452380Y-91289285D01*
X170404761Y-91384523D01*
X170357142Y-91432142D01*
%TO.C,R24*%
X157117380Y-92717857D02*
X156641190Y-93051190D01*
X157117380Y-93289285D02*
X156117380Y-93289285D01*
X156117380Y-92908333D01*
X156165000Y-92813095D01*
X156212619Y-92765476D01*
X156307857Y-92717857D01*
X156450714Y-92717857D01*
X156545952Y-92765476D01*
X156593571Y-92813095D01*
X156641190Y-92908333D01*
X156641190Y-93289285D01*
X156212619Y-92336904D02*
X156165000Y-92289285D01*
X156117380Y-92194047D01*
X156117380Y-91955952D01*
X156165000Y-91860714D01*
X156212619Y-91813095D01*
X156307857Y-91765476D01*
X156403095Y-91765476D01*
X156545952Y-91813095D01*
X157117380Y-92384523D01*
X157117380Y-91765476D01*
X156450714Y-90908333D02*
X157117380Y-90908333D01*
X156069761Y-91146428D02*
X156784047Y-91384523D01*
X156784047Y-90765476D01*
%TO.C,R26*%
X168907380Y-67317857D02*
X168431190Y-67651190D01*
X168907380Y-67889285D02*
X167907380Y-67889285D01*
X167907380Y-67508333D01*
X167955000Y-67413095D01*
X168002619Y-67365476D01*
X168097857Y-67317857D01*
X168240714Y-67317857D01*
X168335952Y-67365476D01*
X168383571Y-67413095D01*
X168431190Y-67508333D01*
X168431190Y-67889285D01*
X168002619Y-66936904D02*
X167955000Y-66889285D01*
X167907380Y-66794047D01*
X167907380Y-66555952D01*
X167955000Y-66460714D01*
X168002619Y-66413095D01*
X168097857Y-66365476D01*
X168193095Y-66365476D01*
X168335952Y-66413095D01*
X168907380Y-66984523D01*
X168907380Y-66365476D01*
X167907380Y-65508333D02*
X167907380Y-65698809D01*
X167955000Y-65794047D01*
X168002619Y-65841666D01*
X168145476Y-65936904D01*
X168335952Y-65984523D01*
X168716904Y-65984523D01*
X168812142Y-65936904D01*
X168859761Y-65889285D01*
X168907380Y-65794047D01*
X168907380Y-65603571D01*
X168859761Y-65508333D01*
X168812142Y-65460714D01*
X168716904Y-65413095D01*
X168478809Y-65413095D01*
X168383571Y-65460714D01*
X168335952Y-65508333D01*
X168288333Y-65603571D01*
X168288333Y-65794047D01*
X168335952Y-65889285D01*
X168383571Y-65936904D01*
X168478809Y-65984523D01*
%TO.C,R27*%
X208912380Y-67317857D02*
X208436190Y-67651190D01*
X208912380Y-67889285D02*
X207912380Y-67889285D01*
X207912380Y-67508333D01*
X207960000Y-67413095D01*
X208007619Y-67365476D01*
X208102857Y-67317857D01*
X208245714Y-67317857D01*
X208340952Y-67365476D01*
X208388571Y-67413095D01*
X208436190Y-67508333D01*
X208436190Y-67889285D01*
X208007619Y-66936904D02*
X207960000Y-66889285D01*
X207912380Y-66794047D01*
X207912380Y-66555952D01*
X207960000Y-66460714D01*
X208007619Y-66413095D01*
X208102857Y-66365476D01*
X208198095Y-66365476D01*
X208340952Y-66413095D01*
X208912380Y-66984523D01*
X208912380Y-66365476D01*
X207912380Y-66032142D02*
X207912380Y-65365476D01*
X208912380Y-65794047D01*
%TO.C,R28*%
X235582380Y-92717857D02*
X235106190Y-93051190D01*
X235582380Y-93289285D02*
X234582380Y-93289285D01*
X234582380Y-92908333D01*
X234630000Y-92813095D01*
X234677619Y-92765476D01*
X234772857Y-92717857D01*
X234915714Y-92717857D01*
X235010952Y-92765476D01*
X235058571Y-92813095D01*
X235106190Y-92908333D01*
X235106190Y-93289285D01*
X234677619Y-92336904D02*
X234630000Y-92289285D01*
X234582380Y-92194047D01*
X234582380Y-91955952D01*
X234630000Y-91860714D01*
X234677619Y-91813095D01*
X234772857Y-91765476D01*
X234868095Y-91765476D01*
X235010952Y-91813095D01*
X235582380Y-92384523D01*
X235582380Y-91765476D01*
X235010952Y-91194047D02*
X234963333Y-91289285D01*
X234915714Y-91336904D01*
X234820476Y-91384523D01*
X234772857Y-91384523D01*
X234677619Y-91336904D01*
X234630000Y-91289285D01*
X234582380Y-91194047D01*
X234582380Y-91003571D01*
X234630000Y-90908333D01*
X234677619Y-90860714D01*
X234772857Y-90813095D01*
X234820476Y-90813095D01*
X234915714Y-90860714D01*
X234963333Y-90908333D01*
X235010952Y-91003571D01*
X235010952Y-91194047D01*
X235058571Y-91289285D01*
X235106190Y-91336904D01*
X235201428Y-91384523D01*
X235391904Y-91384523D01*
X235487142Y-91336904D01*
X235534761Y-91289285D01*
X235582380Y-91194047D01*
X235582380Y-91003571D01*
X235534761Y-90908333D01*
X235487142Y-90860714D01*
X235391904Y-90813095D01*
X235201428Y-90813095D01*
X235106190Y-90860714D01*
X235058571Y-90908333D01*
X235010952Y-91003571D01*
%TO.C,R29*%
X208912380Y-92717857D02*
X208436190Y-93051190D01*
X208912380Y-93289285D02*
X207912380Y-93289285D01*
X207912380Y-92908333D01*
X207960000Y-92813095D01*
X208007619Y-92765476D01*
X208102857Y-92717857D01*
X208245714Y-92717857D01*
X208340952Y-92765476D01*
X208388571Y-92813095D01*
X208436190Y-92908333D01*
X208436190Y-93289285D01*
X208007619Y-92336904D02*
X207960000Y-92289285D01*
X207912380Y-92194047D01*
X207912380Y-91955952D01*
X207960000Y-91860714D01*
X208007619Y-91813095D01*
X208102857Y-91765476D01*
X208198095Y-91765476D01*
X208340952Y-91813095D01*
X208912380Y-92384523D01*
X208912380Y-91765476D01*
X208912380Y-91289285D02*
X208912380Y-91098809D01*
X208864761Y-91003571D01*
X208817142Y-90955952D01*
X208674285Y-90860714D01*
X208483809Y-90813095D01*
X208102857Y-90813095D01*
X208007619Y-90860714D01*
X207960000Y-90908333D01*
X207912380Y-91003571D01*
X207912380Y-91194047D01*
X207960000Y-91289285D01*
X208007619Y-91336904D01*
X208102857Y-91384523D01*
X208340952Y-91384523D01*
X208436190Y-91336904D01*
X208483809Y-91289285D01*
X208531428Y-91194047D01*
X208531428Y-91003571D01*
X208483809Y-90908333D01*
X208436190Y-90860714D01*
X208340952Y-90813095D01*
%TO.C,R30*%
X182242380Y-92717857D02*
X181766190Y-93051190D01*
X182242380Y-93289285D02*
X181242380Y-93289285D01*
X181242380Y-92908333D01*
X181290000Y-92813095D01*
X181337619Y-92765476D01*
X181432857Y-92717857D01*
X181575714Y-92717857D01*
X181670952Y-92765476D01*
X181718571Y-92813095D01*
X181766190Y-92908333D01*
X181766190Y-93289285D01*
X181242380Y-92384523D02*
X181242380Y-91765476D01*
X181623333Y-92098809D01*
X181623333Y-91955952D01*
X181670952Y-91860714D01*
X181718571Y-91813095D01*
X181813809Y-91765476D01*
X182051904Y-91765476D01*
X182147142Y-91813095D01*
X182194761Y-91860714D01*
X182242380Y-91955952D01*
X182242380Y-92241666D01*
X182194761Y-92336904D01*
X182147142Y-92384523D01*
X181242380Y-91146428D02*
X181242380Y-91051190D01*
X181290000Y-90955952D01*
X181337619Y-90908333D01*
X181432857Y-90860714D01*
X181623333Y-90813095D01*
X181861428Y-90813095D01*
X182051904Y-90860714D01*
X182147142Y-90908333D01*
X182194761Y-90955952D01*
X182242380Y-91051190D01*
X182242380Y-91146428D01*
X182194761Y-91241666D01*
X182147142Y-91289285D01*
X182051904Y-91336904D01*
X181861428Y-91384523D01*
X181623333Y-91384523D01*
X181432857Y-91336904D01*
X181337619Y-91289285D01*
X181290000Y-91241666D01*
X181242380Y-91146428D01*
%TO.C,R31*%
X168907380Y-92717857D02*
X168431190Y-93051190D01*
X168907380Y-93289285D02*
X167907380Y-93289285D01*
X167907380Y-92908333D01*
X167955000Y-92813095D01*
X168002619Y-92765476D01*
X168097857Y-92717857D01*
X168240714Y-92717857D01*
X168335952Y-92765476D01*
X168383571Y-92813095D01*
X168431190Y-92908333D01*
X168431190Y-93289285D01*
X167907380Y-92384523D02*
X167907380Y-91765476D01*
X168288333Y-92098809D01*
X168288333Y-91955952D01*
X168335952Y-91860714D01*
X168383571Y-91813095D01*
X168478809Y-91765476D01*
X168716904Y-91765476D01*
X168812142Y-91813095D01*
X168859761Y-91860714D01*
X168907380Y-91955952D01*
X168907380Y-92241666D01*
X168859761Y-92336904D01*
X168812142Y-92384523D01*
X168907380Y-90813095D02*
X168907380Y-91384523D01*
X168907380Y-91098809D02*
X167907380Y-91098809D01*
X168050238Y-91194047D01*
X168145476Y-91289285D01*
X168193095Y-91384523D01*
%TO.C,U3*%
X130637380Y-132841904D02*
X131446904Y-132841904D01*
X131542142Y-132794285D01*
X131589761Y-132746666D01*
X131637380Y-132651428D01*
X131637380Y-132460952D01*
X131589761Y-132365714D01*
X131542142Y-132318095D01*
X131446904Y-132270476D01*
X130637380Y-132270476D01*
X130637380Y-131889523D02*
X130637380Y-131270476D01*
X131018333Y-131603809D01*
X131018333Y-131460952D01*
X131065952Y-131365714D01*
X131113571Y-131318095D01*
X131208809Y-131270476D01*
X131446904Y-131270476D01*
X131542142Y-131318095D01*
X131589761Y-131365714D01*
X131637380Y-131460952D01*
X131637380Y-131746666D01*
X131589761Y-131841904D01*
X131542142Y-131889523D01*
%TO.C,U16*%
X121336904Y-41616380D02*
X121336904Y-42425904D01*
X121384523Y-42521142D01*
X121432142Y-42568761D01*
X121527380Y-42616380D01*
X121717857Y-42616380D01*
X121813095Y-42568761D01*
X121860714Y-42521142D01*
X121908333Y-42425904D01*
X121908333Y-41616380D01*
X122908333Y-42616380D02*
X122336904Y-42616380D01*
X122622619Y-42616380D02*
X122622619Y-41616380D01*
X122527380Y-41759238D01*
X122432142Y-41854476D01*
X122336904Y-41902095D01*
X123765476Y-41616380D02*
X123575000Y-41616380D01*
X123479761Y-41664000D01*
X123432142Y-41711619D01*
X123336904Y-41854476D01*
X123289285Y-42044952D01*
X123289285Y-42425904D01*
X123336904Y-42521142D01*
X123384523Y-42568761D01*
X123479761Y-42616380D01*
X123670238Y-42616380D01*
X123765476Y-42568761D01*
X123813095Y-42521142D01*
X123860714Y-42425904D01*
X123860714Y-42187809D01*
X123813095Y-42092571D01*
X123765476Y-42044952D01*
X123670238Y-41997333D01*
X123479761Y-41997333D01*
X123384523Y-42044952D01*
X123336904Y-42092571D01*
X123289285Y-42187809D01*
%TO.C,U17*%
X102921904Y-41616380D02*
X102921904Y-42425904D01*
X102969523Y-42521142D01*
X103017142Y-42568761D01*
X103112380Y-42616380D01*
X103302857Y-42616380D01*
X103398095Y-42568761D01*
X103445714Y-42521142D01*
X103493333Y-42425904D01*
X103493333Y-41616380D01*
X104493333Y-42616380D02*
X103921904Y-42616380D01*
X104207619Y-42616380D02*
X104207619Y-41616380D01*
X104112380Y-41759238D01*
X104017142Y-41854476D01*
X103921904Y-41902095D01*
X104826666Y-41616380D02*
X105493333Y-41616380D01*
X105064761Y-42616380D01*
%TO.C,U19*%
X86391904Y-35857380D02*
X86391904Y-36666904D01*
X86439523Y-36762142D01*
X86487142Y-36809761D01*
X86582380Y-36857380D01*
X86772857Y-36857380D01*
X86868095Y-36809761D01*
X86915714Y-36762142D01*
X86963333Y-36666904D01*
X86963333Y-35857380D01*
X87963333Y-36857380D02*
X87391904Y-36857380D01*
X87677619Y-36857380D02*
X87677619Y-35857380D01*
X87582380Y-36000238D01*
X87487142Y-36095476D01*
X87391904Y-36143095D01*
X88439523Y-36857380D02*
X88630000Y-36857380D01*
X88725238Y-36809761D01*
X88772857Y-36762142D01*
X88868095Y-36619285D01*
X88915714Y-36428809D01*
X88915714Y-36047857D01*
X88868095Y-35952619D01*
X88820476Y-35905000D01*
X88725238Y-35857380D01*
X88534761Y-35857380D01*
X88439523Y-35905000D01*
X88391904Y-35952619D01*
X88344285Y-36047857D01*
X88344285Y-36285952D01*
X88391904Y-36381190D01*
X88439523Y-36428809D01*
X88534761Y-36476428D01*
X88725238Y-36476428D01*
X88820476Y-36428809D01*
X88868095Y-36381190D01*
X88915714Y-36285952D01*
%TO.C,U20*%
X121316904Y-66972380D02*
X121316904Y-67781904D01*
X121364523Y-67877142D01*
X121412142Y-67924761D01*
X121507380Y-67972380D01*
X121697857Y-67972380D01*
X121793095Y-67924761D01*
X121840714Y-67877142D01*
X121888333Y-67781904D01*
X121888333Y-66972380D01*
X122316904Y-67067619D02*
X122364523Y-67020000D01*
X122459761Y-66972380D01*
X122697857Y-66972380D01*
X122793095Y-67020000D01*
X122840714Y-67067619D01*
X122888333Y-67162857D01*
X122888333Y-67258095D01*
X122840714Y-67400952D01*
X122269285Y-67972380D01*
X122888333Y-67972380D01*
X123507380Y-66972380D02*
X123602619Y-66972380D01*
X123697857Y-67020000D01*
X123745476Y-67067619D01*
X123793095Y-67162857D01*
X123840714Y-67353333D01*
X123840714Y-67591428D01*
X123793095Y-67781904D01*
X123745476Y-67877142D01*
X123697857Y-67924761D01*
X123602619Y-67972380D01*
X123507380Y-67972380D01*
X123412142Y-67924761D01*
X123364523Y-67877142D01*
X123316904Y-67781904D01*
X123269285Y-67591428D01*
X123269285Y-67353333D01*
X123316904Y-67162857D01*
X123364523Y-67067619D01*
X123412142Y-67020000D01*
X123507380Y-66972380D01*
%TO.C,U21*%
X83216904Y-66972380D02*
X83216904Y-67781904D01*
X83264523Y-67877142D01*
X83312142Y-67924761D01*
X83407380Y-67972380D01*
X83597857Y-67972380D01*
X83693095Y-67924761D01*
X83740714Y-67877142D01*
X83788333Y-67781904D01*
X83788333Y-66972380D01*
X84216904Y-67067619D02*
X84264523Y-67020000D01*
X84359761Y-66972380D01*
X84597857Y-66972380D01*
X84693095Y-67020000D01*
X84740714Y-67067619D01*
X84788333Y-67162857D01*
X84788333Y-67258095D01*
X84740714Y-67400952D01*
X84169285Y-67972380D01*
X84788333Y-67972380D01*
X85740714Y-67972380D02*
X85169285Y-67972380D01*
X85455000Y-67972380D02*
X85455000Y-66972380D01*
X85359761Y-67115238D01*
X85264523Y-67210476D01*
X85169285Y-67258095D01*
%TO.C,U25*%
X111537904Y-138136380D02*
X111537904Y-138945904D01*
X111585523Y-139041142D01*
X111633142Y-139088761D01*
X111728380Y-139136380D01*
X111918857Y-139136380D01*
X112014095Y-139088761D01*
X112061714Y-139041142D01*
X112109333Y-138945904D01*
X112109333Y-138136380D01*
X112537904Y-138231619D02*
X112585523Y-138184000D01*
X112680761Y-138136380D01*
X112918857Y-138136380D01*
X113014095Y-138184000D01*
X113061714Y-138231619D01*
X113109333Y-138326857D01*
X113109333Y-138422095D01*
X113061714Y-138564952D01*
X112490285Y-139136380D01*
X113109333Y-139136380D01*
X114014095Y-138136380D02*
X113537904Y-138136380D01*
X113490285Y-138612571D01*
X113537904Y-138564952D01*
X113633142Y-138517333D01*
X113871238Y-138517333D01*
X113966476Y-138564952D01*
X114014095Y-138612571D01*
X114061714Y-138707809D01*
X114061714Y-138945904D01*
X114014095Y-139041142D01*
X113966476Y-139088761D01*
X113871238Y-139136380D01*
X113633142Y-139136380D01*
X113537904Y-139088761D01*
X113490285Y-139041142D01*
%TO.C,U34*%
X58451904Y-35857380D02*
X58451904Y-36666904D01*
X58499523Y-36762142D01*
X58547142Y-36809761D01*
X58642380Y-36857380D01*
X58832857Y-36857380D01*
X58928095Y-36809761D01*
X58975714Y-36762142D01*
X59023333Y-36666904D01*
X59023333Y-35857380D01*
X59404285Y-35857380D02*
X60023333Y-35857380D01*
X59690000Y-36238333D01*
X59832857Y-36238333D01*
X59928095Y-36285952D01*
X59975714Y-36333571D01*
X60023333Y-36428809D01*
X60023333Y-36666904D01*
X59975714Y-36762142D01*
X59928095Y-36809761D01*
X59832857Y-36857380D01*
X59547142Y-36857380D01*
X59451904Y-36809761D01*
X59404285Y-36762142D01*
X60880476Y-36190714D02*
X60880476Y-36857380D01*
X60642380Y-35809761D02*
X60404285Y-36524047D01*
X61023333Y-36524047D01*
%TO.C,U36*%
X204247904Y-138136380D02*
X204247904Y-138945904D01*
X204295523Y-139041142D01*
X204343142Y-139088761D01*
X204438380Y-139136380D01*
X204628857Y-139136380D01*
X204724095Y-139088761D01*
X204771714Y-139041142D01*
X204819333Y-138945904D01*
X204819333Y-138136380D01*
X205200285Y-138136380D02*
X205819333Y-138136380D01*
X205486000Y-138517333D01*
X205628857Y-138517333D01*
X205724095Y-138564952D01*
X205771714Y-138612571D01*
X205819333Y-138707809D01*
X205819333Y-138945904D01*
X205771714Y-139041142D01*
X205724095Y-139088761D01*
X205628857Y-139136380D01*
X205343142Y-139136380D01*
X205247904Y-139088761D01*
X205200285Y-139041142D01*
X206676476Y-138136380D02*
X206486000Y-138136380D01*
X206390761Y-138184000D01*
X206343142Y-138231619D01*
X206247904Y-138374476D01*
X206200285Y-138564952D01*
X206200285Y-138945904D01*
X206247904Y-139041142D01*
X206295523Y-139088761D01*
X206390761Y-139136380D01*
X206581238Y-139136380D01*
X206676476Y-139088761D01*
X206724095Y-139041142D01*
X206771714Y-138945904D01*
X206771714Y-138707809D01*
X206724095Y-138612571D01*
X206676476Y-138564952D01*
X206581238Y-138517333D01*
X206390761Y-138517333D01*
X206295523Y-138564952D01*
X206247904Y-138612571D01*
X206200285Y-138707809D01*
%TO.C,U44*%
X108616904Y-66972380D02*
X108616904Y-67781904D01*
X108664523Y-67877142D01*
X108712142Y-67924761D01*
X108807380Y-67972380D01*
X108997857Y-67972380D01*
X109093095Y-67924761D01*
X109140714Y-67877142D01*
X109188333Y-67781904D01*
X109188333Y-66972380D01*
X110093095Y-67305714D02*
X110093095Y-67972380D01*
X109855000Y-66924761D02*
X109616904Y-67639047D01*
X110235952Y-67639047D01*
X111045476Y-67305714D02*
X111045476Y-67972380D01*
X110807380Y-66924761D02*
X110569285Y-67639047D01*
X111188333Y-67639047D01*
%TO.C,U48*%
X57816904Y-66972380D02*
X57816904Y-67781904D01*
X57864523Y-67877142D01*
X57912142Y-67924761D01*
X58007380Y-67972380D01*
X58197857Y-67972380D01*
X58293095Y-67924761D01*
X58340714Y-67877142D01*
X58388333Y-67781904D01*
X58388333Y-66972380D01*
X59293095Y-67305714D02*
X59293095Y-67972380D01*
X59055000Y-66924761D02*
X58816904Y-67639047D01*
X59435952Y-67639047D01*
X59959761Y-67400952D02*
X59864523Y-67353333D01*
X59816904Y-67305714D01*
X59769285Y-67210476D01*
X59769285Y-67162857D01*
X59816904Y-67067619D01*
X59864523Y-67020000D01*
X59959761Y-66972380D01*
X60150238Y-66972380D01*
X60245476Y-67020000D01*
X60293095Y-67067619D01*
X60340714Y-67162857D01*
X60340714Y-67210476D01*
X60293095Y-67305714D01*
X60245476Y-67353333D01*
X60150238Y-67400952D01*
X59959761Y-67400952D01*
X59864523Y-67448571D01*
X59816904Y-67496190D01*
X59769285Y-67591428D01*
X59769285Y-67781904D01*
X59816904Y-67877142D01*
X59864523Y-67924761D01*
X59959761Y-67972380D01*
X60150238Y-67972380D01*
X60245476Y-67924761D01*
X60293095Y-67877142D01*
X60340714Y-67781904D01*
X60340714Y-67591428D01*
X60293095Y-67496190D01*
X60245476Y-67448571D01*
X60150238Y-67400952D01*
%TO.C,U49*%
X108616904Y-89197380D02*
X108616904Y-90006904D01*
X108664523Y-90102142D01*
X108712142Y-90149761D01*
X108807380Y-90197380D01*
X108997857Y-90197380D01*
X109093095Y-90149761D01*
X109140714Y-90102142D01*
X109188333Y-90006904D01*
X109188333Y-89197380D01*
X110093095Y-89530714D02*
X110093095Y-90197380D01*
X109855000Y-89149761D02*
X109616904Y-89864047D01*
X110235952Y-89864047D01*
X110664523Y-90197380D02*
X110855000Y-90197380D01*
X110950238Y-90149761D01*
X110997857Y-90102142D01*
X111093095Y-89959285D01*
X111140714Y-89768809D01*
X111140714Y-89387857D01*
X111093095Y-89292619D01*
X111045476Y-89245000D01*
X110950238Y-89197380D01*
X110759761Y-89197380D01*
X110664523Y-89245000D01*
X110616904Y-89292619D01*
X110569285Y-89387857D01*
X110569285Y-89625952D01*
X110616904Y-89721190D01*
X110664523Y-89768809D01*
X110759761Y-89816428D01*
X110950238Y-89816428D01*
X111045476Y-89768809D01*
X111093095Y-89721190D01*
X111140714Y-89625952D01*
%TO.C,U50*%
X72421904Y-35857380D02*
X72421904Y-36666904D01*
X72469523Y-36762142D01*
X72517142Y-36809761D01*
X72612380Y-36857380D01*
X72802857Y-36857380D01*
X72898095Y-36809761D01*
X72945714Y-36762142D01*
X72993333Y-36666904D01*
X72993333Y-35857380D01*
X73945714Y-35857380D02*
X73469523Y-35857380D01*
X73421904Y-36333571D01*
X73469523Y-36285952D01*
X73564761Y-36238333D01*
X73802857Y-36238333D01*
X73898095Y-36285952D01*
X73945714Y-36333571D01*
X73993333Y-36428809D01*
X73993333Y-36666904D01*
X73945714Y-36762142D01*
X73898095Y-36809761D01*
X73802857Y-36857380D01*
X73564761Y-36857380D01*
X73469523Y-36809761D01*
X73421904Y-36762142D01*
X74612380Y-35857380D02*
X74707619Y-35857380D01*
X74802857Y-35905000D01*
X74850476Y-35952619D01*
X74898095Y-36047857D01*
X74945714Y-36238333D01*
X74945714Y-36476428D01*
X74898095Y-36666904D01*
X74850476Y-36762142D01*
X74802857Y-36809761D01*
X74707619Y-36857380D01*
X74612380Y-36857380D01*
X74517142Y-36809761D01*
X74469523Y-36762142D01*
X74421904Y-36666904D01*
X74374285Y-36476428D01*
X74374285Y-36238333D01*
X74421904Y-36047857D01*
X74469523Y-35952619D01*
X74517142Y-35905000D01*
X74612380Y-35857380D01*
%TO.C,U51*%
X95916904Y-66972380D02*
X95916904Y-67781904D01*
X95964523Y-67877142D01*
X96012142Y-67924761D01*
X96107380Y-67972380D01*
X96297857Y-67972380D01*
X96393095Y-67924761D01*
X96440714Y-67877142D01*
X96488333Y-67781904D01*
X96488333Y-66972380D01*
X97440714Y-66972380D02*
X96964523Y-66972380D01*
X96916904Y-67448571D01*
X96964523Y-67400952D01*
X97059761Y-67353333D01*
X97297857Y-67353333D01*
X97393095Y-67400952D01*
X97440714Y-67448571D01*
X97488333Y-67543809D01*
X97488333Y-67781904D01*
X97440714Y-67877142D01*
X97393095Y-67924761D01*
X97297857Y-67972380D01*
X97059761Y-67972380D01*
X96964523Y-67924761D01*
X96916904Y-67877142D01*
X98440714Y-67972380D02*
X97869285Y-67972380D01*
X98155000Y-67972380D02*
X98155000Y-66972380D01*
X98059761Y-67115238D01*
X97964523Y-67210476D01*
X97869285Y-67258095D01*
%TO.C,U52*%
X70516904Y-66972380D02*
X70516904Y-67781904D01*
X70564523Y-67877142D01*
X70612142Y-67924761D01*
X70707380Y-67972380D01*
X70897857Y-67972380D01*
X70993095Y-67924761D01*
X71040714Y-67877142D01*
X71088333Y-67781904D01*
X71088333Y-66972380D01*
X72040714Y-66972380D02*
X71564523Y-66972380D01*
X71516904Y-67448571D01*
X71564523Y-67400952D01*
X71659761Y-67353333D01*
X71897857Y-67353333D01*
X71993095Y-67400952D01*
X72040714Y-67448571D01*
X72088333Y-67543809D01*
X72088333Y-67781904D01*
X72040714Y-67877142D01*
X71993095Y-67924761D01*
X71897857Y-67972380D01*
X71659761Y-67972380D01*
X71564523Y-67924761D01*
X71516904Y-67877142D01*
X72469285Y-67067619D02*
X72516904Y-67020000D01*
X72612142Y-66972380D01*
X72850238Y-66972380D01*
X72945476Y-67020000D01*
X72993095Y-67067619D01*
X73040714Y-67162857D01*
X73040714Y-67258095D01*
X72993095Y-67400952D01*
X72421666Y-67972380D01*
X73040714Y-67972380D01*
%TO.C,U53*%
X121316904Y-89197380D02*
X121316904Y-90006904D01*
X121364523Y-90102142D01*
X121412142Y-90149761D01*
X121507380Y-90197380D01*
X121697857Y-90197380D01*
X121793095Y-90149761D01*
X121840714Y-90102142D01*
X121888333Y-90006904D01*
X121888333Y-89197380D01*
X122840714Y-89197380D02*
X122364523Y-89197380D01*
X122316904Y-89673571D01*
X122364523Y-89625952D01*
X122459761Y-89578333D01*
X122697857Y-89578333D01*
X122793095Y-89625952D01*
X122840714Y-89673571D01*
X122888333Y-89768809D01*
X122888333Y-90006904D01*
X122840714Y-90102142D01*
X122793095Y-90149761D01*
X122697857Y-90197380D01*
X122459761Y-90197380D01*
X122364523Y-90149761D01*
X122316904Y-90102142D01*
X123221666Y-89197380D02*
X123840714Y-89197380D01*
X123507380Y-89578333D01*
X123650238Y-89578333D01*
X123745476Y-89625952D01*
X123793095Y-89673571D01*
X123840714Y-89768809D01*
X123840714Y-90006904D01*
X123793095Y-90102142D01*
X123745476Y-90149761D01*
X123650238Y-90197380D01*
X123364523Y-90197380D01*
X123269285Y-90149761D01*
X123221666Y-90102142D01*
%TO.C,U55*%
X57816904Y-89197380D02*
X57816904Y-90006904D01*
X57864523Y-90102142D01*
X57912142Y-90149761D01*
X58007380Y-90197380D01*
X58197857Y-90197380D01*
X58293095Y-90149761D01*
X58340714Y-90102142D01*
X58388333Y-90006904D01*
X58388333Y-89197380D01*
X59340714Y-89197380D02*
X58864523Y-89197380D01*
X58816904Y-89673571D01*
X58864523Y-89625952D01*
X58959761Y-89578333D01*
X59197857Y-89578333D01*
X59293095Y-89625952D01*
X59340714Y-89673571D01*
X59388333Y-89768809D01*
X59388333Y-90006904D01*
X59340714Y-90102142D01*
X59293095Y-90149761D01*
X59197857Y-90197380D01*
X58959761Y-90197380D01*
X58864523Y-90149761D01*
X58816904Y-90102142D01*
X60293095Y-89197380D02*
X59816904Y-89197380D01*
X59769285Y-89673571D01*
X59816904Y-89625952D01*
X59912142Y-89578333D01*
X60150238Y-89578333D01*
X60245476Y-89625952D01*
X60293095Y-89673571D01*
X60340714Y-89768809D01*
X60340714Y-90006904D01*
X60293095Y-90102142D01*
X60245476Y-90149761D01*
X60150238Y-90197380D01*
X59912142Y-90197380D01*
X59816904Y-90149761D01*
X59769285Y-90102142D01*
%TD*%
M02*
