G04 #@! TF.GenerationSoftware,KiCad,Pcbnew,(5.1.6)-1*
G04 #@! TF.CreationDate,2020-11-29T14:51:15-05:00*
G04 #@! TF.ProjectId,Launchbox,4c61756e-6368-4626-9f78-2e6b69636164,Launchbox*
G04 #@! TF.SameCoordinates,Original*
G04 #@! TF.FileFunction,Legend,Top*
G04 #@! TF.FilePolarity,Positive*
%FSLAX46Y46*%
G04 Gerber Fmt 4.6, Leading zero omitted, Abs format (unit mm)*
G04 Created by KiCad (PCBNEW (5.1.6)-1) date 2020-11-29 14:51:15*
%MOMM*%
%LPD*%
G01*
G04 APERTURE LIST*
%ADD10C,0.101600*%
%ADD11C,0.120000*%
%ADD12C,0.150000*%
G04 APERTURE END LIST*
D10*
X94825000Y-132065000D02*
X112605000Y-132065000D01*
X112605000Y-132065000D02*
X112605000Y-71105000D01*
X112605000Y-71105000D02*
X94825000Y-71105000D01*
X94825000Y-132065000D02*
X94825000Y-71105000D01*
X107525000Y-132065000D02*
G75*
G03*
X99905000Y-132065000I-3810000J0D01*
G01*
X119031200Y-67650600D02*
X119031200Y-79639400D01*
X119031200Y-67650600D02*
X126498800Y-67650600D01*
X126498800Y-67650600D02*
X126498800Y-79639400D01*
X119031200Y-79639400D02*
X126498800Y-79639400D01*
X126524200Y-67650600D02*
X119005800Y-67650600D01*
X88424200Y-48600600D02*
X80905800Y-48600600D01*
X80931200Y-60589400D02*
X88398800Y-60589400D01*
X88398800Y-48600600D02*
X88398800Y-60589400D01*
X80931200Y-48600600D02*
X88398800Y-48600600D01*
X80931200Y-48600600D02*
X80931200Y-60589400D01*
X80931200Y-67650600D02*
X80931200Y-79639400D01*
X80931200Y-67650600D02*
X88398800Y-67650600D01*
X88398800Y-67650600D02*
X88398800Y-79639400D01*
X80931200Y-79639400D02*
X88398800Y-79639400D01*
X88424200Y-67650600D02*
X80905800Y-67650600D01*
X88424200Y-86700600D02*
X80905800Y-86700600D01*
X80931200Y-98689400D02*
X88398800Y-98689400D01*
X88398800Y-86700600D02*
X88398800Y-98689400D01*
X80931200Y-86700600D02*
X88398800Y-86700600D01*
X80931200Y-86700600D02*
X80931200Y-98689400D01*
X80931200Y-105750600D02*
X80931200Y-117739400D01*
X80931200Y-105750600D02*
X88398800Y-105750600D01*
X88398800Y-105750600D02*
X88398800Y-117739400D01*
X80931200Y-117739400D02*
X88398800Y-117739400D01*
X88424200Y-105750600D02*
X80905800Y-105750600D01*
X88424200Y-124800600D02*
X80905800Y-124800600D01*
X80931200Y-136789400D02*
X88398800Y-136789400D01*
X88398800Y-124800600D02*
X88398800Y-136789400D01*
X80931200Y-124800600D02*
X88398800Y-124800600D01*
X80931200Y-124800600D02*
X80931200Y-136789400D01*
X80931200Y-142580600D02*
X80931200Y-154569400D01*
X80931200Y-142580600D02*
X88398800Y-142580600D01*
X88398800Y-142580600D02*
X88398800Y-154569400D01*
X80931200Y-154569400D02*
X88398800Y-154569400D01*
X88424200Y-142580600D02*
X80905800Y-142580600D01*
X119031200Y-124800600D02*
X119031200Y-136789400D01*
X119031200Y-124800600D02*
X126498800Y-124800600D01*
X126498800Y-124800600D02*
X126498800Y-136789400D01*
X119031200Y-136789400D02*
X126498800Y-136789400D01*
X126524200Y-124800600D02*
X119005800Y-124800600D01*
X126524200Y-105750600D02*
X119005800Y-105750600D01*
X119031200Y-117739400D02*
X126498800Y-117739400D01*
X126498800Y-105750600D02*
X126498800Y-117739400D01*
X119031200Y-105750600D02*
X126498800Y-105750600D01*
X119031200Y-105750600D02*
X119031200Y-117739400D01*
X126524200Y-86700600D02*
X119005800Y-86700600D01*
X119031200Y-98689400D02*
X126498800Y-98689400D01*
X126498800Y-86700600D02*
X126498800Y-98689400D01*
X119031200Y-86700600D02*
X126498800Y-86700600D01*
X119031200Y-86700600D02*
X119031200Y-98689400D01*
X126524200Y-48600600D02*
X119005800Y-48600600D01*
X119031200Y-60589400D02*
X126498800Y-60589400D01*
X126498800Y-48600600D02*
X126498800Y-60589400D01*
X119031200Y-48600600D02*
X126498800Y-48600600D01*
X119031200Y-48600600D02*
X119031200Y-60589400D01*
X126498800Y-154569400D02*
X126498800Y-142580600D01*
X126498800Y-154569400D02*
X119031200Y-154569400D01*
X119031200Y-154569400D02*
X119031200Y-142580600D01*
X126498800Y-142580600D02*
X119031200Y-142580600D01*
X119005800Y-154569400D02*
X126524200Y-154569400D01*
D11*
X106520000Y-61600000D02*
X106520000Y-63560000D01*
X103980000Y-61600000D02*
X103980000Y-63560000D01*
X101440000Y-61600000D02*
X101440000Y-63560000D01*
X109230000Y-45490000D02*
X109230000Y-61600000D01*
X98730000Y-45490000D02*
X98730000Y-61600000D01*
X98730000Y-45490000D02*
X109230000Y-45490000D01*
X98730000Y-61600000D02*
X109230000Y-61600000D01*
D12*
X115867380Y-102346904D02*
X116676904Y-102346904D01*
X116772142Y-102299285D01*
X116819761Y-102251666D01*
X116867380Y-102156428D01*
X116867380Y-101965952D01*
X116819761Y-101870714D01*
X116772142Y-101823095D01*
X116676904Y-101775476D01*
X115867380Y-101775476D01*
X116867380Y-100775476D02*
X116867380Y-101346904D01*
X116867380Y-101061190D02*
X115867380Y-101061190D01*
X116010238Y-101156428D01*
X116105476Y-101251666D01*
X116153095Y-101346904D01*
X116474321Y-75622163D02*
X116521940Y-75479306D01*
X116521940Y-75241211D01*
X116474321Y-75145973D01*
X116426702Y-75098354D01*
X116331464Y-75050735D01*
X116236226Y-75050735D01*
X116140988Y-75098354D01*
X116093369Y-75145973D01*
X116045750Y-75241211D01*
X115998131Y-75431687D01*
X115950512Y-75526925D01*
X115902893Y-75574544D01*
X115807655Y-75622163D01*
X115712417Y-75622163D01*
X115617179Y-75574544D01*
X115569560Y-75526925D01*
X115521940Y-75431687D01*
X115521940Y-75193592D01*
X115569560Y-75050735D01*
X115521940Y-74717401D02*
X116521940Y-74479306D01*
X115807655Y-74288830D01*
X116521940Y-74098354D01*
X115521940Y-73860259D01*
X116521940Y-72955497D02*
X116521940Y-73526925D01*
X116521940Y-73241211D02*
X115521940Y-73241211D01*
X115664798Y-73336449D01*
X115760036Y-73431687D01*
X115807655Y-73526925D01*
X115521940Y-72336449D02*
X115521940Y-72241211D01*
X115569560Y-72145973D01*
X115617179Y-72098354D01*
X115712417Y-72050735D01*
X115902893Y-72003116D01*
X116140988Y-72003116D01*
X116331464Y-72050735D01*
X116426702Y-72098354D01*
X116474321Y-72145973D01*
X116521940Y-72241211D01*
X116521940Y-72336449D01*
X116474321Y-72431687D01*
X116426702Y-72479306D01*
X116331464Y-72526925D01*
X116140988Y-72574544D01*
X115902893Y-72574544D01*
X115712417Y-72526925D01*
X115617179Y-72479306D01*
X115569560Y-72431687D01*
X115521940Y-72336449D01*
X61319285Y-53543571D02*
X61462142Y-53591190D01*
X61509761Y-53638809D01*
X61557380Y-53734047D01*
X61557380Y-53876904D01*
X61509761Y-53972142D01*
X61462142Y-54019761D01*
X61366904Y-54067380D01*
X60985952Y-54067380D01*
X60985952Y-53067380D01*
X61319285Y-53067380D01*
X61414523Y-53115000D01*
X61462142Y-53162619D01*
X61509761Y-53257857D01*
X61509761Y-53353095D01*
X61462142Y-53448333D01*
X61414523Y-53495952D01*
X61319285Y-53543571D01*
X60985952Y-53543571D01*
X61843095Y-53067380D02*
X62414523Y-53067380D01*
X62128809Y-54067380D02*
X62128809Y-53067380D01*
X63271666Y-54067380D02*
X62700238Y-54067380D01*
X62985952Y-54067380D02*
X62985952Y-53067380D01*
X62890714Y-53210238D01*
X62795476Y-53305476D01*
X62700238Y-53353095D01*
X78374321Y-56095973D02*
X78421940Y-55953116D01*
X78421940Y-55715020D01*
X78374321Y-55619782D01*
X78326702Y-55572163D01*
X78231464Y-55524544D01*
X78136226Y-55524544D01*
X78040988Y-55572163D01*
X77993369Y-55619782D01*
X77945750Y-55715020D01*
X77898131Y-55905497D01*
X77850512Y-56000735D01*
X77802893Y-56048354D01*
X77707655Y-56095973D01*
X77612417Y-56095973D01*
X77517179Y-56048354D01*
X77469560Y-56000735D01*
X77421940Y-55905497D01*
X77421940Y-55667401D01*
X77469560Y-55524544D01*
X77421940Y-55191211D02*
X78421940Y-54953116D01*
X77707655Y-54762640D01*
X78421940Y-54572163D01*
X77421940Y-54334068D01*
X78421940Y-53429306D02*
X78421940Y-54000735D01*
X78421940Y-53715020D02*
X77421940Y-53715020D01*
X77564798Y-53810259D01*
X77660036Y-53905497D01*
X77707655Y-54000735D01*
X78374321Y-75145973D02*
X78421940Y-75003116D01*
X78421940Y-74765020D01*
X78374321Y-74669782D01*
X78326702Y-74622163D01*
X78231464Y-74574544D01*
X78136226Y-74574544D01*
X78040988Y-74622163D01*
X77993369Y-74669782D01*
X77945750Y-74765020D01*
X77898131Y-74955497D01*
X77850512Y-75050735D01*
X77802893Y-75098354D01*
X77707655Y-75145973D01*
X77612417Y-75145973D01*
X77517179Y-75098354D01*
X77469560Y-75050735D01*
X77421940Y-74955497D01*
X77421940Y-74717401D01*
X77469560Y-74574544D01*
X77421940Y-74241211D02*
X78421940Y-74003116D01*
X77707655Y-73812640D01*
X78421940Y-73622163D01*
X77421940Y-73384068D01*
X77517179Y-73050735D02*
X77469560Y-73003116D01*
X77421940Y-72907878D01*
X77421940Y-72669782D01*
X77469560Y-72574544D01*
X77517179Y-72526925D01*
X77612417Y-72479306D01*
X77707655Y-72479306D01*
X77850512Y-72526925D01*
X78421940Y-73098354D01*
X78421940Y-72479306D01*
X78374321Y-94195973D02*
X78421940Y-94053116D01*
X78421940Y-93815020D01*
X78374321Y-93719782D01*
X78326702Y-93672163D01*
X78231464Y-93624544D01*
X78136226Y-93624544D01*
X78040988Y-93672163D01*
X77993369Y-93719782D01*
X77945750Y-93815020D01*
X77898131Y-94005497D01*
X77850512Y-94100735D01*
X77802893Y-94148354D01*
X77707655Y-94195973D01*
X77612417Y-94195973D01*
X77517179Y-94148354D01*
X77469560Y-94100735D01*
X77421940Y-94005497D01*
X77421940Y-93767401D01*
X77469560Y-93624544D01*
X77421940Y-93291211D02*
X78421940Y-93053116D01*
X77707655Y-92862640D01*
X78421940Y-92672163D01*
X77421940Y-92434068D01*
X77421940Y-92148354D02*
X77421940Y-91529306D01*
X77802893Y-91862640D01*
X77802893Y-91719782D01*
X77850512Y-91624544D01*
X77898131Y-91576925D01*
X77993369Y-91529306D01*
X78231464Y-91529306D01*
X78326702Y-91576925D01*
X78374321Y-91624544D01*
X78421940Y-91719782D01*
X78421940Y-92005497D01*
X78374321Y-92100735D01*
X78326702Y-92148354D01*
X78374321Y-113245973D02*
X78421940Y-113103116D01*
X78421940Y-112865020D01*
X78374321Y-112769782D01*
X78326702Y-112722163D01*
X78231464Y-112674544D01*
X78136226Y-112674544D01*
X78040988Y-112722163D01*
X77993369Y-112769782D01*
X77945750Y-112865020D01*
X77898131Y-113055497D01*
X77850512Y-113150735D01*
X77802893Y-113198354D01*
X77707655Y-113245973D01*
X77612417Y-113245973D01*
X77517179Y-113198354D01*
X77469560Y-113150735D01*
X77421940Y-113055497D01*
X77421940Y-112817401D01*
X77469560Y-112674544D01*
X77421940Y-112341211D02*
X78421940Y-112103116D01*
X77707655Y-111912640D01*
X78421940Y-111722163D01*
X77421940Y-111484068D01*
X77755274Y-110674544D02*
X78421940Y-110674544D01*
X77374321Y-110912640D02*
X78088607Y-111150735D01*
X78088607Y-110531687D01*
X78374321Y-132295973D02*
X78421940Y-132153116D01*
X78421940Y-131915020D01*
X78374321Y-131819782D01*
X78326702Y-131772163D01*
X78231464Y-131724544D01*
X78136226Y-131724544D01*
X78040988Y-131772163D01*
X77993369Y-131819782D01*
X77945750Y-131915020D01*
X77898131Y-132105497D01*
X77850512Y-132200735D01*
X77802893Y-132248354D01*
X77707655Y-132295973D01*
X77612417Y-132295973D01*
X77517179Y-132248354D01*
X77469560Y-132200735D01*
X77421940Y-132105497D01*
X77421940Y-131867401D01*
X77469560Y-131724544D01*
X77421940Y-131391211D02*
X78421940Y-131153116D01*
X77707655Y-130962640D01*
X78421940Y-130772163D01*
X77421940Y-130534068D01*
X77421940Y-129676925D02*
X77421940Y-130153116D01*
X77898131Y-130200735D01*
X77850512Y-130153116D01*
X77802893Y-130057878D01*
X77802893Y-129819782D01*
X77850512Y-129724544D01*
X77898131Y-129676925D01*
X77993369Y-129629306D01*
X78231464Y-129629306D01*
X78326702Y-129676925D01*
X78374321Y-129724544D01*
X78421940Y-129819782D01*
X78421940Y-130057878D01*
X78374321Y-130153116D01*
X78326702Y-130200735D01*
X78374321Y-150075973D02*
X78421940Y-149933116D01*
X78421940Y-149695020D01*
X78374321Y-149599782D01*
X78326702Y-149552163D01*
X78231464Y-149504544D01*
X78136226Y-149504544D01*
X78040988Y-149552163D01*
X77993369Y-149599782D01*
X77945750Y-149695020D01*
X77898131Y-149885497D01*
X77850512Y-149980735D01*
X77802893Y-150028354D01*
X77707655Y-150075973D01*
X77612417Y-150075973D01*
X77517179Y-150028354D01*
X77469560Y-149980735D01*
X77421940Y-149885497D01*
X77421940Y-149647401D01*
X77469560Y-149504544D01*
X77421940Y-149171211D02*
X78421940Y-148933116D01*
X77707655Y-148742640D01*
X78421940Y-148552163D01*
X77421940Y-148314068D01*
X77421940Y-147504544D02*
X77421940Y-147695020D01*
X77469560Y-147790259D01*
X77517179Y-147837878D01*
X77660036Y-147933116D01*
X77850512Y-147980735D01*
X78231464Y-147980735D01*
X78326702Y-147933116D01*
X78374321Y-147885497D01*
X78421940Y-147790259D01*
X78421940Y-147599782D01*
X78374321Y-147504544D01*
X78326702Y-147456925D01*
X78231464Y-147409306D01*
X77993369Y-147409306D01*
X77898131Y-147456925D01*
X77850512Y-147504544D01*
X77802893Y-147599782D01*
X77802893Y-147790259D01*
X77850512Y-147885497D01*
X77898131Y-147933116D01*
X77993369Y-147980735D01*
X116474321Y-132295973D02*
X116521940Y-132153116D01*
X116521940Y-131915020D01*
X116474321Y-131819782D01*
X116426702Y-131772163D01*
X116331464Y-131724544D01*
X116236226Y-131724544D01*
X116140988Y-131772163D01*
X116093369Y-131819782D01*
X116045750Y-131915020D01*
X115998131Y-132105497D01*
X115950512Y-132200735D01*
X115902893Y-132248354D01*
X115807655Y-132295973D01*
X115712417Y-132295973D01*
X115617179Y-132248354D01*
X115569560Y-132200735D01*
X115521940Y-132105497D01*
X115521940Y-131867401D01*
X115569560Y-131724544D01*
X115521940Y-131391211D02*
X116521940Y-131153116D01*
X115807655Y-130962640D01*
X116521940Y-130772163D01*
X115521940Y-130534068D01*
X115521940Y-130248354D02*
X115521940Y-129581687D01*
X116521940Y-130010259D01*
X116474321Y-113245973D02*
X116521940Y-113103116D01*
X116521940Y-112865020D01*
X116474321Y-112769782D01*
X116426702Y-112722163D01*
X116331464Y-112674544D01*
X116236226Y-112674544D01*
X116140988Y-112722163D01*
X116093369Y-112769782D01*
X116045750Y-112865020D01*
X115998131Y-113055497D01*
X115950512Y-113150735D01*
X115902893Y-113198354D01*
X115807655Y-113245973D01*
X115712417Y-113245973D01*
X115617179Y-113198354D01*
X115569560Y-113150735D01*
X115521940Y-113055497D01*
X115521940Y-112817401D01*
X115569560Y-112674544D01*
X115521940Y-112341211D02*
X116521940Y-112103116D01*
X115807655Y-111912640D01*
X116521940Y-111722163D01*
X115521940Y-111484068D01*
X115950512Y-110960259D02*
X115902893Y-111055497D01*
X115855274Y-111103116D01*
X115760036Y-111150735D01*
X115712417Y-111150735D01*
X115617179Y-111103116D01*
X115569560Y-111055497D01*
X115521940Y-110960259D01*
X115521940Y-110769782D01*
X115569560Y-110674544D01*
X115617179Y-110626925D01*
X115712417Y-110579306D01*
X115760036Y-110579306D01*
X115855274Y-110626925D01*
X115902893Y-110674544D01*
X115950512Y-110769782D01*
X115950512Y-110960259D01*
X115998131Y-111055497D01*
X116045750Y-111103116D01*
X116140988Y-111150735D01*
X116331464Y-111150735D01*
X116426702Y-111103116D01*
X116474321Y-111055497D01*
X116521940Y-110960259D01*
X116521940Y-110769782D01*
X116474321Y-110674544D01*
X116426702Y-110626925D01*
X116331464Y-110579306D01*
X116140988Y-110579306D01*
X116045750Y-110626925D01*
X115998131Y-110674544D01*
X115950512Y-110769782D01*
X116474321Y-94195973D02*
X116521940Y-94053116D01*
X116521940Y-93815020D01*
X116474321Y-93719782D01*
X116426702Y-93672163D01*
X116331464Y-93624544D01*
X116236226Y-93624544D01*
X116140988Y-93672163D01*
X116093369Y-93719782D01*
X116045750Y-93815020D01*
X115998131Y-94005497D01*
X115950512Y-94100735D01*
X115902893Y-94148354D01*
X115807655Y-94195973D01*
X115712417Y-94195973D01*
X115617179Y-94148354D01*
X115569560Y-94100735D01*
X115521940Y-94005497D01*
X115521940Y-93767401D01*
X115569560Y-93624544D01*
X115521940Y-93291211D02*
X116521940Y-93053116D01*
X115807655Y-92862640D01*
X116521940Y-92672163D01*
X115521940Y-92434068D01*
X116521940Y-92005497D02*
X116521940Y-91815020D01*
X116474321Y-91719782D01*
X116426702Y-91672163D01*
X116283845Y-91576925D01*
X116093369Y-91529306D01*
X115712417Y-91529306D01*
X115617179Y-91576925D01*
X115569560Y-91624544D01*
X115521940Y-91719782D01*
X115521940Y-91910259D01*
X115569560Y-92005497D01*
X115617179Y-92053116D01*
X115712417Y-92100735D01*
X115950512Y-92100735D01*
X116045750Y-92053116D01*
X116093369Y-92005497D01*
X116140988Y-91910259D01*
X116140988Y-91719782D01*
X116093369Y-91624544D01*
X116045750Y-91576925D01*
X115950512Y-91529306D01*
X116474321Y-56572163D02*
X116521940Y-56429306D01*
X116521940Y-56191211D01*
X116474321Y-56095973D01*
X116426702Y-56048354D01*
X116331464Y-56000735D01*
X116236226Y-56000735D01*
X116140988Y-56048354D01*
X116093369Y-56095973D01*
X116045750Y-56191211D01*
X115998131Y-56381687D01*
X115950512Y-56476925D01*
X115902893Y-56524544D01*
X115807655Y-56572163D01*
X115712417Y-56572163D01*
X115617179Y-56524544D01*
X115569560Y-56476925D01*
X115521940Y-56381687D01*
X115521940Y-56143592D01*
X115569560Y-56000735D01*
X115521940Y-55667401D02*
X116521940Y-55429306D01*
X115807655Y-55238830D01*
X116521940Y-55048354D01*
X115521940Y-54810259D01*
X116521940Y-53905497D02*
X116521940Y-54476925D01*
X116521940Y-54191211D02*
X115521940Y-54191211D01*
X115664798Y-54286449D01*
X115760036Y-54381687D01*
X115807655Y-54476925D01*
X116521940Y-52953116D02*
X116521940Y-53524544D01*
X116521940Y-53238830D02*
X115521940Y-53238830D01*
X115664798Y-53334068D01*
X115760036Y-53429306D01*
X115807655Y-53524544D01*
X129865201Y-150216883D02*
X129912820Y-150074026D01*
X129912820Y-149835931D01*
X129865201Y-149740693D01*
X129817582Y-149693074D01*
X129722344Y-149645455D01*
X129627106Y-149645455D01*
X129531868Y-149693074D01*
X129484249Y-149740693D01*
X129436630Y-149835931D01*
X129389011Y-150026407D01*
X129341392Y-150121645D01*
X129293773Y-150169264D01*
X129198535Y-150216883D01*
X129103297Y-150216883D01*
X129008059Y-150169264D01*
X128960440Y-150121645D01*
X128912820Y-150026407D01*
X128912820Y-149788312D01*
X128960440Y-149645455D01*
X128912820Y-149312121D02*
X129912820Y-149074026D01*
X129198535Y-148883550D01*
X129912820Y-148693074D01*
X128912820Y-148454979D01*
X129912820Y-147550217D02*
X129912820Y-148121645D01*
X129912820Y-147835931D02*
X128912820Y-147835931D01*
X129055678Y-147931169D01*
X129150916Y-148026407D01*
X129198535Y-148121645D01*
X129008059Y-147169264D02*
X128960440Y-147121645D01*
X128912820Y-147026407D01*
X128912820Y-146788312D01*
X128960440Y-146693074D01*
X129008059Y-146645455D01*
X129103297Y-146597836D01*
X129198535Y-146597836D01*
X129341392Y-146645455D01*
X129912820Y-147216883D01*
X129912820Y-146597836D01*
X102124116Y-149430001D02*
X102266973Y-149477620D01*
X102505068Y-149477620D01*
X102600306Y-149430001D01*
X102647925Y-149382382D01*
X102695544Y-149287144D01*
X102695544Y-149191906D01*
X102647925Y-149096668D01*
X102600306Y-149049049D01*
X102505068Y-149001430D01*
X102314592Y-148953811D01*
X102219354Y-148906192D01*
X102171735Y-148858573D01*
X102124116Y-148763335D01*
X102124116Y-148668097D01*
X102171735Y-148572859D01*
X102219354Y-148525240D01*
X102314592Y-148477620D01*
X102552687Y-148477620D01*
X102695544Y-148525240D01*
X103028878Y-148477620D02*
X103266973Y-149477620D01*
X103457449Y-148763335D01*
X103647925Y-149477620D01*
X103886020Y-148477620D01*
X104790782Y-149477620D02*
X104219354Y-149477620D01*
X104505068Y-149477620D02*
X104505068Y-148477620D01*
X104409830Y-148620478D01*
X104314592Y-148715716D01*
X104219354Y-148763335D01*
X105124116Y-148477620D02*
X105743163Y-148477620D01*
X105409830Y-148858573D01*
X105552687Y-148858573D01*
X105647925Y-148906192D01*
X105695544Y-148953811D01*
X105743163Y-149049049D01*
X105743163Y-149287144D01*
X105695544Y-149382382D01*
X105647925Y-149430001D01*
X105552687Y-149477620D01*
X105266973Y-149477620D01*
X105171735Y-149430001D01*
X105124116Y-149382382D01*
X65414116Y-77255001D02*
X65556973Y-77302620D01*
X65795068Y-77302620D01*
X65890306Y-77255001D01*
X65937925Y-77207382D01*
X65985544Y-77112144D01*
X65985544Y-77016906D01*
X65937925Y-76921668D01*
X65890306Y-76874049D01*
X65795068Y-76826430D01*
X65604592Y-76778811D01*
X65509354Y-76731192D01*
X65461735Y-76683573D01*
X65414116Y-76588335D01*
X65414116Y-76493097D01*
X65461735Y-76397859D01*
X65509354Y-76350240D01*
X65604592Y-76302620D01*
X65842687Y-76302620D01*
X65985544Y-76350240D01*
X66318878Y-76302620D02*
X66556973Y-77302620D01*
X66747449Y-76588335D01*
X66937925Y-77302620D01*
X67176020Y-76302620D01*
X68080782Y-77302620D02*
X67509354Y-77302620D01*
X67795068Y-77302620D02*
X67795068Y-76302620D01*
X67699830Y-76445478D01*
X67604592Y-76540716D01*
X67509354Y-76588335D01*
X68937925Y-76635954D02*
X68937925Y-77302620D01*
X68699830Y-76255001D02*
X68461735Y-76969287D01*
X69080782Y-76969287D01*
X65414116Y-134405001D02*
X65556973Y-134452620D01*
X65795068Y-134452620D01*
X65890306Y-134405001D01*
X65937925Y-134357382D01*
X65985544Y-134262144D01*
X65985544Y-134166906D01*
X65937925Y-134071668D01*
X65890306Y-134024049D01*
X65795068Y-133976430D01*
X65604592Y-133928811D01*
X65509354Y-133881192D01*
X65461735Y-133833573D01*
X65414116Y-133738335D01*
X65414116Y-133643097D01*
X65461735Y-133547859D01*
X65509354Y-133500240D01*
X65604592Y-133452620D01*
X65842687Y-133452620D01*
X65985544Y-133500240D01*
X66318878Y-133452620D02*
X66556973Y-134452620D01*
X66747449Y-133738335D01*
X66937925Y-134452620D01*
X67176020Y-133452620D01*
X68080782Y-134452620D02*
X67509354Y-134452620D01*
X67795068Y-134452620D02*
X67795068Y-133452620D01*
X67699830Y-133595478D01*
X67604592Y-133690716D01*
X67509354Y-133738335D01*
X68985544Y-133452620D02*
X68509354Y-133452620D01*
X68461735Y-133928811D01*
X68509354Y-133881192D01*
X68604592Y-133833573D01*
X68842687Y-133833573D01*
X68937925Y-133881192D01*
X68985544Y-133928811D01*
X69033163Y-134024049D01*
X69033163Y-134262144D01*
X68985544Y-134357382D01*
X68937925Y-134405001D01*
X68842687Y-134452620D01*
X68604592Y-134452620D01*
X68509354Y-134405001D01*
X68461735Y-134357382D01*
X138058116Y-134405001D02*
X138200973Y-134452620D01*
X138439068Y-134452620D01*
X138534306Y-134405001D01*
X138581925Y-134357382D01*
X138629544Y-134262144D01*
X138629544Y-134166906D01*
X138581925Y-134071668D01*
X138534306Y-134024049D01*
X138439068Y-133976430D01*
X138248592Y-133928811D01*
X138153354Y-133881192D01*
X138105735Y-133833573D01*
X138058116Y-133738335D01*
X138058116Y-133643097D01*
X138105735Y-133547859D01*
X138153354Y-133500240D01*
X138248592Y-133452620D01*
X138486687Y-133452620D01*
X138629544Y-133500240D01*
X138962878Y-133452620D02*
X139200973Y-134452620D01*
X139391449Y-133738335D01*
X139581925Y-134452620D01*
X139820020Y-133452620D01*
X140724782Y-134452620D02*
X140153354Y-134452620D01*
X140439068Y-134452620D02*
X140439068Y-133452620D01*
X140343830Y-133595478D01*
X140248592Y-133690716D01*
X140153354Y-133738335D01*
X141581925Y-133452620D02*
X141391449Y-133452620D01*
X141296211Y-133500240D01*
X141248592Y-133547859D01*
X141153354Y-133690716D01*
X141105735Y-133881192D01*
X141105735Y-134262144D01*
X141153354Y-134357382D01*
X141200973Y-134405001D01*
X141296211Y-134452620D01*
X141486687Y-134452620D01*
X141581925Y-134405001D01*
X141629544Y-134357382D01*
X141677163Y-134262144D01*
X141677163Y-134024049D01*
X141629544Y-133928811D01*
X141581925Y-133881192D01*
X141486687Y-133833573D01*
X141296211Y-133833573D01*
X141200973Y-133881192D01*
X141153354Y-133928811D01*
X141105735Y-134024049D01*
X138058116Y-77255001D02*
X138200973Y-77302620D01*
X138439068Y-77302620D01*
X138534306Y-77255001D01*
X138581925Y-77207382D01*
X138629544Y-77112144D01*
X138629544Y-77016906D01*
X138581925Y-76921668D01*
X138534306Y-76874049D01*
X138439068Y-76826430D01*
X138248592Y-76778811D01*
X138153354Y-76731192D01*
X138105735Y-76683573D01*
X138058116Y-76588335D01*
X138058116Y-76493097D01*
X138105735Y-76397859D01*
X138153354Y-76350240D01*
X138248592Y-76302620D01*
X138486687Y-76302620D01*
X138629544Y-76350240D01*
X138962878Y-76302620D02*
X139200973Y-77302620D01*
X139391449Y-76588335D01*
X139581925Y-77302620D01*
X139820020Y-76302620D01*
X140724782Y-77302620D02*
X140153354Y-77302620D01*
X140439068Y-77302620D02*
X140439068Y-76302620D01*
X140343830Y-76445478D01*
X140248592Y-76540716D01*
X140153354Y-76588335D01*
X141058116Y-76302620D02*
X141724782Y-76302620D01*
X141296211Y-77302620D01*
X103218095Y-43942380D02*
X103218095Y-44751904D01*
X103265714Y-44847142D01*
X103313333Y-44894761D01*
X103408571Y-44942380D01*
X103599047Y-44942380D01*
X103694285Y-44894761D01*
X103741904Y-44847142D01*
X103789523Y-44751904D01*
X103789523Y-43942380D01*
X104218095Y-44037619D02*
X104265714Y-43990000D01*
X104360952Y-43942380D01*
X104599047Y-43942380D01*
X104694285Y-43990000D01*
X104741904Y-44037619D01*
X104789523Y-44132857D01*
X104789523Y-44228095D01*
X104741904Y-44370952D01*
X104170476Y-44942380D01*
X104789523Y-44942380D01*
X157377380Y-151261904D02*
X158186904Y-151261904D01*
X158282142Y-151214285D01*
X158329761Y-151166666D01*
X158377380Y-151071428D01*
X158377380Y-150880952D01*
X158329761Y-150785714D01*
X158282142Y-150738095D01*
X158186904Y-150690476D01*
X157377380Y-150690476D01*
X157377380Y-150309523D02*
X157377380Y-149690476D01*
X157758333Y-150023809D01*
X157758333Y-149880952D01*
X157805952Y-149785714D01*
X157853571Y-149738095D01*
X157948809Y-149690476D01*
X158186904Y-149690476D01*
X158282142Y-149738095D01*
X158329761Y-149785714D01*
X158377380Y-149880952D01*
X158377380Y-150166666D01*
X158329761Y-150261904D01*
X158282142Y-150309523D01*
M02*
