M48
; DRILL file {KiCad (5.1.10)-1} date 12/21/21 23:54:07
; FORMAT={-:-/ absolute / metric / decimal}
; #@! TF.CreationDate,2021-12-21T23:54:07-05:00
; #@! TF.GenerationSoftware,Kicad,Pcbnew,(5.1.10)-1
; #@! TF.FileFunction,Plated,1,2,PTH
FMAT,2
METRIC
T1C0.400
T2C0.572
T3C0.762
T4C0.800
T5C0.900
T6C0.940
T7C1.100
T8C1.450
T9C4.500
T10C4.500
%
G90
G05
T1
X61.595Y-159.385
X71.519Y-121.684
X76.2Y-123.19
X79.375Y-146.05
X79.6Y-152.175
X79.756Y-136.906
X82.55Y-126.365
X82.55Y-160.02
X83.82Y-114.3
X84.455Y-153.035
X90.17Y-140.335
X96.52Y-158.75
X97.79Y-245.11
X99.06Y-133.985
X100.33Y-184.15
X103.505Y-114.935
X107.95Y-117.475
X109.591Y-121.066
X113.665Y-137.795
X119.38Y-181.61
X121.195Y-142.785
X122.936Y-115.57
X125.222Y-113.03
X128.27Y-144.145
X134.62Y-108.585
X134.62Y-140.97
X134.62Y-158.75
X139.7Y-133.604
X140.97Y-106.045
X140.97Y-129.54
X140.97Y-143.51
X143.51Y-143.51
X144.138Y-100.972
X144.78Y-109.22
X145.96Y-106.426
X146.05Y-141.224
X149.225Y-127.955
X153.035Y-128.905
X155.1Y-139.86
X160.02Y-141.605
X160.02Y-164.465
X161.29Y-143.51
X161.925Y-157.48
X162.306Y-161.29
X162.56Y-137.16
X162.56Y-146.05
X162.56Y-158.75
X165.1Y-130.81
X165.735Y-132.08
X166.37Y-142.24
X166.37Y-151.765
X167.005Y-132.715
X168.91Y-120.65
X171.45Y-156.845
X172.72Y-167.64
X173.99Y-155.575
X173.99Y-168.91
X174.244Y-109.474
X175.26Y-170.18
X175.768Y-112.522
X175.895Y-166.37
X177.8Y-113.03
X178.435Y-102.87
X178.435Y-167.64
X179.07Y-110.49
X180.34Y-162.56
X180.34Y-170.18
X181.61Y-160.655
X181.61Y-171.45
X184.785Y-123.825
X184.785Y-128.27
X187.96Y-158.115
X187.96Y-245.11
X189.865Y-100.965
X189.865Y-173.355
X190.5Y-124.46
X191.135Y-151.13
X193.04Y-100.965
X195.58Y-139.7
X197.485Y-100.965
X197.485Y-150.495
X199.39Y-118.745
X201.93Y-119.634
X207.645Y-181.61
X209.55Y-160.02
X210.185Y-133.985
X210.185Y-151.13
X212.09Y-127.0
X215.265Y-134.62
X215.9Y-147.32
X220.98Y-193.548
X222.885Y-156.21
X230.958Y-176.53
X231.14Y-152.4
X269.875Y-146.05
X277.495Y-126.365
T2
X86.829Y-121.963
X89.369Y-121.963
X91.909Y-121.963
X94.449Y-121.963
X96.989Y-121.963
X99.529Y-121.963
X102.069Y-121.963
X104.609Y-121.963
T3
X66.04Y-201.93
X71.04Y-201.93
X76.2Y-201.93
X82.04Y-201.93
X86.54Y-201.93
X87.94Y-144.41
X88.09Y-132.98
X88.09Y-155.84
X88.09Y-167.27
X88.09Y-178.7
X88.09Y-190.13
X89.715Y-243.84
X89.94Y-144.41
X90.09Y-132.98
X90.09Y-155.84
X90.09Y-167.27
X90.09Y-178.7
X90.09Y-190.13
X91.54Y-201.93
X91.94Y-144.41
X92.09Y-132.98
X92.09Y-155.84
X92.09Y-167.27
X92.09Y-178.7
X92.09Y-190.13
X94.715Y-243.84
X97.04Y-201.93
X99.715Y-243.84
X102.04Y-201.93
X104.715Y-243.84
X107.04Y-201.93
X110.215Y-243.84
X112.54Y-201.93
X114.308Y-99.885
X114.308Y-102.425
X114.308Y-104.965
X114.308Y-107.505
X114.308Y-110.045
X114.308Y-112.585
X114.308Y-115.125
X114.308Y-117.665
X114.308Y-120.205
X114.308Y-122.745
X115.215Y-243.84
X117.54Y-201.93
X120.215Y-243.84
X122.54Y-201.93
X125.215Y-243.84
X127.108Y-99.885
X127.108Y-102.425
X127.108Y-104.965
X127.108Y-107.505
X127.108Y-110.045
X127.108Y-112.585
X127.108Y-115.125
X127.108Y-117.665
X127.108Y-120.205
X127.108Y-122.745
X128.04Y-201.93
X133.04Y-201.93
X137.058Y-107.188
X137.058Y-109.728
X137.058Y-112.268
X137.058Y-114.808
X137.058Y-117.348
X138.04Y-201.93
X143.54Y-201.93
X148.54Y-201.93
X153.54Y-201.93
X164.998Y-109.728
X164.998Y-112.268
X164.998Y-114.808
X164.998Y-117.348
X165.008Y-107.188
X171.45Y-201.93
X176.45Y-201.93
X181.61Y-201.93
X187.45Y-201.93
X187.706Y-107.493
X187.706Y-110.033
X187.706Y-112.573
X187.706Y-115.113
X187.706Y-117.653
X191.95Y-201.93
X195.125Y-243.84
X196.95Y-201.93
X200.125Y-243.84
X202.45Y-201.93
X205.125Y-243.84
X207.45Y-201.93
X210.125Y-243.84
X212.45Y-201.93
X215.625Y-243.84
X215.646Y-110.033
X215.646Y-112.573
X215.646Y-115.113
X215.646Y-117.653
X215.656Y-107.493
X217.95Y-201.93
X220.625Y-243.84
X221.59Y-107.747
X221.59Y-110.287
X221.59Y-112.827
X221.59Y-115.367
X221.59Y-117.907
X222.95Y-201.93
X225.625Y-243.84
X227.95Y-201.93
X230.625Y-243.84
X233.45Y-201.93
X238.45Y-201.93
X243.45Y-201.93
X248.95Y-201.93
X249.53Y-110.287
X249.53Y-112.827
X249.53Y-115.367
X249.53Y-117.907
X249.54Y-107.747
X253.95Y-201.93
X256.677Y-133.25
X256.677Y-144.68
X256.677Y-156.11
X256.677Y-167.54
X256.827Y-178.97
X256.827Y-190.4
X258.677Y-133.25
X258.677Y-144.68
X258.677Y-156.11
X258.677Y-167.54
X258.827Y-178.97
X258.827Y-190.4
X258.95Y-201.93
X260.677Y-133.25
X260.677Y-144.68
X260.677Y-156.11
X260.677Y-167.54
X260.827Y-178.97
X260.827Y-190.4
X273.05Y-121.539
X274.51Y-133.477
X274.51Y-136.017
X274.51Y-138.557
X274.51Y-141.097
X274.51Y-143.637
X274.51Y-146.177
X274.51Y-148.717
X274.51Y-151.257
X274.51Y-153.797
X274.51Y-160.338
X274.51Y-162.877
X274.51Y-165.417
X274.51Y-167.957
X274.51Y-170.498
X274.51Y-173.037
X274.51Y-175.577
X274.51Y-178.117
X274.51Y-180.657
X274.621Y-186.69
X274.621Y-189.23
X274.621Y-191.77
X274.621Y-194.31
X274.621Y-196.85
X274.621Y-199.39
X274.621Y-201.93
X274.621Y-204.47
X274.621Y-207.01
X275.59Y-121.539
X278.13Y-121.539
X280.67Y-121.539
X283.21Y-121.539
X285.75Y-121.539
X288.29Y-121.539
X290.83Y-121.539
X293.37Y-121.539
T4
X57.404Y-118.331
X57.404Y-125.951
X57.404Y-133.571
X57.404Y-141.191
X57.409Y-148.756
X57.409Y-156.376
X59.245Y-103.239
X59.245Y-105.245
X59.245Y-107.251
X59.245Y-109.258
X59.245Y-111.264
X59.944Y-118.331
X59.944Y-125.951
X59.944Y-133.571
X59.944Y-141.191
X59.949Y-148.756
X59.949Y-156.376
X59.995Y-161.61
X59.995Y-174.31
X59.995Y-180.605
X59.995Y-193.305
X62.484Y-118.331
X62.484Y-125.951
X62.484Y-133.571
X62.484Y-141.191
X62.489Y-148.756
X62.489Y-156.376
X65.024Y-118.331
X65.024Y-125.951
X65.024Y-133.571
X65.024Y-141.191
X65.029Y-148.756
X65.029Y-156.376
X67.285Y-180.605
X67.285Y-193.305
X67.31Y-161.61
X67.31Y-174.31
X67.564Y-118.331
X67.564Y-125.951
X67.564Y-133.571
X67.564Y-141.191
X67.569Y-148.756
X67.569Y-156.376
X68.58Y-103.234
X68.58Y-105.24
X68.58Y-107.247
X68.58Y-109.254
X68.58Y-111.26
X70.104Y-118.331
X70.104Y-125.951
X70.104Y-133.571
X70.104Y-141.191
X70.109Y-148.756
X70.109Y-156.376
X72.644Y-118.331
X72.644Y-125.951
X72.644Y-133.571
X72.644Y-141.191
X72.649Y-148.756
X72.649Y-156.376
X74.93Y-180.66
X74.93Y-193.36
X75.184Y-118.331
X75.184Y-125.951
X75.184Y-133.571
X75.184Y-141.191
X75.189Y-148.756
X75.189Y-156.376
X77.406Y-103.239
X77.406Y-105.245
X77.406Y-107.251
X77.406Y-109.258
X77.406Y-111.264
X77.724Y-118.331
X77.724Y-125.951
X77.724Y-133.571
X77.724Y-141.191
X77.729Y-148.756
X77.729Y-156.376
X104.6Y-130.44
X104.6Y-135.52
X104.6Y-141.87
X104.6Y-146.95
X104.6Y-158.38
X104.6Y-164.73
X104.6Y-169.81
X104.6Y-176.16
X104.6Y-181.24
X104.6Y-187.59
X104.6Y-192.67
X104.715Y-153.3
X117.3Y-130.44
X117.3Y-135.52
X117.3Y-141.87
X117.3Y-146.95
X117.3Y-158.38
X117.3Y-164.73
X117.3Y-169.81
X117.3Y-176.16
X117.3Y-181.24
X117.3Y-187.59
X117.3Y-192.67
X117.415Y-153.3
X124.396Y-147.097
X124.396Y-149.637
X124.396Y-152.177
X124.396Y-154.717
X124.523Y-132.047
X124.523Y-134.587
X124.523Y-137.127
X124.523Y-139.667
X132.017Y-147.097
X132.017Y-149.637
X132.017Y-152.177
X132.017Y-154.717
X132.143Y-132.047
X132.143Y-134.587
X132.143Y-137.127
X132.143Y-139.667
X137.096Y-147.097
X137.096Y-149.637
X137.096Y-152.177
X137.096Y-154.717
X137.224Y-132.047
X137.224Y-134.587
X137.224Y-137.127
X137.224Y-139.667
X144.716Y-147.097
X144.716Y-149.637
X144.716Y-152.177
X144.716Y-154.717
X144.844Y-132.047
X144.844Y-134.587
X144.844Y-137.127
X144.844Y-139.667
X149.796Y-147.097
X149.796Y-149.637
X149.796Y-152.177
X149.796Y-154.717
X149.923Y-132.047
X149.923Y-134.587
X149.923Y-137.127
X149.923Y-139.667
X157.416Y-147.097
X157.416Y-149.637
X157.416Y-152.177
X157.416Y-154.717
X157.543Y-132.047
X157.543Y-134.587
X157.543Y-137.127
X157.543Y-139.667
X193.04Y-131.743
X193.04Y-134.284
X193.04Y-136.823
X193.04Y-139.363
X193.548Y-147.237
X193.548Y-149.778
X193.548Y-152.317
X193.548Y-154.857
X200.66Y-131.743
X200.66Y-134.284
X200.66Y-136.823
X200.66Y-139.363
X201.168Y-147.237
X201.168Y-149.778
X201.168Y-152.317
X201.168Y-154.857
X205.905Y-131.809
X205.905Y-134.349
X205.905Y-136.889
X205.905Y-139.429
X206.248Y-147.237
X206.248Y-149.778
X206.248Y-152.317
X206.248Y-154.857
X213.525Y-131.809
X213.525Y-134.349
X213.525Y-136.889
X213.525Y-139.429
X213.868Y-147.237
X213.868Y-149.778
X213.868Y-152.317
X213.868Y-154.857
X218.44Y-131.809
X218.44Y-134.349
X218.44Y-136.889
X218.44Y-139.429
X218.948Y-147.237
X218.948Y-149.778
X218.948Y-152.317
X218.948Y-154.857
X226.06Y-131.809
X226.06Y-134.349
X226.06Y-136.889
X226.06Y-139.429
X226.568Y-147.237
X226.568Y-149.778
X226.568Y-152.317
X226.568Y-154.857
X235.237Y-130.71
X235.237Y-135.79
X235.237Y-142.14
X235.237Y-147.22
X235.237Y-153.57
X235.237Y-158.65
X235.237Y-165.0
X235.237Y-170.08
X235.237Y-176.43
X235.237Y-181.51
X235.237Y-187.86
X235.237Y-192.94
X247.937Y-130.71
X247.937Y-135.79
X247.937Y-142.14
X247.937Y-147.22
X247.937Y-153.57
X247.937Y-158.65
X247.937Y-165.0
X247.937Y-170.08
X247.937Y-176.43
X247.937Y-181.51
X247.937Y-187.86
X247.937Y-192.94
T5
X74.955Y-161.61
X74.955Y-164.15
X74.955Y-172.305
X74.955Y-174.845
T6
X168.91Y-133.35
X168.91Y-135.89
X168.91Y-138.43
X168.91Y-140.97
X168.91Y-143.51
X168.91Y-146.05
X168.91Y-148.59
X168.91Y-151.13
X168.91Y-153.67
X168.91Y-156.21
X168.91Y-158.75
X168.91Y-161.29
X168.91Y-163.83
X168.91Y-166.37
X168.91Y-168.91
X168.91Y-171.45
X168.91Y-173.99
X168.91Y-176.53
X168.91Y-179.07
X168.91Y-181.61
X168.91Y-184.15
X168.91Y-186.69
X168.91Y-189.23
X168.91Y-191.77
X184.15Y-133.35
X184.15Y-135.89
X184.15Y-138.43
X184.15Y-140.97
X184.15Y-143.51
X184.15Y-146.05
X184.15Y-148.59
X184.15Y-151.13
X184.15Y-153.67
X184.15Y-156.21
X184.15Y-158.75
X184.15Y-161.29
X184.15Y-163.83
X184.15Y-166.37
X184.15Y-168.91
X184.15Y-171.45
X184.15Y-173.99
X184.15Y-176.53
X184.15Y-179.07
X184.15Y-181.61
X184.15Y-184.15
X184.15Y-186.69
X184.15Y-189.23
X184.15Y-191.77
T7
X259.385Y-121.209
X261.925Y-121.209
X264.465Y-121.209
T8
X121.92Y-196.85
X191.77Y-160.02
X212.09Y-191.77
X213.36Y-180.34
X228.6Y-182.88
X250.19Y-175.26
T9
X126.861Y-187.78
X126.988Y-163.777
X126.988Y-175.524
X134.061Y-187.78
X134.188Y-163.777
X134.188Y-175.524
X146.848Y-163.777
X146.848Y-175.524
X146.931Y-187.78
X154.048Y-163.777
X154.048Y-175.524
X154.131Y-187.78
X197.25Y-187.51
X197.314Y-175.508
X197.504Y-163.761
X204.45Y-187.51
X204.513Y-175.508
X204.704Y-163.761
X218.11Y-187.51
X218.154Y-163.761
X218.173Y-175.508
X225.31Y-187.51
X225.354Y-163.761
X225.373Y-175.508
X275.8Y-217.96
X275.8Y-230.66
X283.0Y-217.96
X283.0Y-230.66
T10
X275.59Y-243.84
X282.79Y-243.84
T0
M30
