M48
; DRILL file {KiCad (5.1.10)-1} date 01/22/22 23:20:55
; FORMAT={-:-/ absolute / metric / decimal}
; #@! TF.CreationDate,2022-01-22T23:20:55-05:00
; #@! TF.GenerationSoftware,Kicad,Pcbnew,(5.1.10)-1
; #@! TF.FileFunction,Plated,1,2,PTH
FMAT,2
METRIC
T1C0.400
T2C0.572
T3C0.700
T4C0.762
T5C0.800
T6C0.900
T7C0.940
T8C1.200
T9C2.159
T10C4.500
%
G90
G05
T1
X85.344Y-130.302
X88.9Y-130.302
X89.736Y-142.997
X90.461Y-131.047
X99.568Y-124.206
X99.568Y-133.604
X101.092Y-136.144
X101.092Y-168.148
X103.625Y-85.725
X103.632Y-124.206
X103.632Y-133.604
T2
X35.064Y-57.396
X37.604Y-57.396
X40.144Y-57.396
X42.684Y-57.396
X45.224Y-57.396
X47.764Y-57.396
X50.304Y-57.396
X52.844Y-57.396
T4
X30.48Y-154.178
X30.48Y-156.718
X30.48Y-159.258
X30.48Y-161.798
X30.48Y-164.338
X30.48Y-166.878
X30.48Y-169.418
X30.48Y-171.958
X30.48Y-174.498
X38.1Y-154.178
X38.1Y-156.718
X38.1Y-159.258
X38.1Y-161.798
X38.1Y-164.338
X38.1Y-166.878
X38.1Y-169.418
X38.1Y-171.958
X38.1Y-174.498
X42.672Y-154.178
X42.672Y-156.718
X42.672Y-159.258
X42.672Y-161.798
X42.672Y-164.338
X42.672Y-166.878
X42.672Y-169.418
X42.672Y-171.958
X42.672Y-174.498
X50.292Y-154.178
X50.292Y-156.718
X50.292Y-159.258
X50.292Y-161.798
X50.292Y-164.338
X50.292Y-166.878
X50.292Y-169.418
X50.292Y-171.958
X50.292Y-174.498
X54.356Y-154.178
X54.356Y-156.718
X54.356Y-159.258
X54.356Y-161.798
X54.356Y-164.338
X54.356Y-166.878
X54.356Y-169.418
X54.356Y-171.958
X54.356Y-174.498
X61.976Y-154.178
X61.976Y-156.718
X61.976Y-159.258
X61.976Y-161.798
X61.976Y-164.338
X61.976Y-166.878
X61.976Y-169.418
X61.976Y-171.958
X61.976Y-174.498
T5
X143.51Y-54.864
X149.86Y-157.988
X149.86Y-162.306
X149.86Y-166.878
X149.86Y-171.196
X151.13Y-54.864
X157.48Y-157.988
X157.48Y-162.306
X157.48Y-166.878
X157.48Y-171.196
T6
X146.05Y-61.468
X148.59Y-61.468
T7
X92.285Y-90.409
X92.285Y-92.949
X92.285Y-95.489
X92.285Y-98.029
X92.285Y-100.569
X92.285Y-103.109
X92.285Y-105.649
X92.285Y-108.189
X92.285Y-110.729
X92.285Y-113.269
X92.285Y-115.809
X92.285Y-118.349
X92.285Y-120.889
X92.285Y-123.429
X92.285Y-125.969
X92.285Y-128.509
X92.285Y-131.049
X92.285Y-133.589
X92.285Y-136.129
X92.285Y-138.669
X92.285Y-141.209
X92.285Y-143.749
X92.285Y-146.289
X92.285Y-148.829
X107.525Y-90.409
X107.525Y-92.949
X107.525Y-95.489
X107.525Y-98.029
X107.525Y-100.569
X107.525Y-103.109
X107.525Y-105.649
X107.525Y-108.189
X107.525Y-110.729
X107.525Y-113.269
X107.525Y-115.809
X107.525Y-118.349
X107.525Y-120.889
X107.525Y-123.429
X107.525Y-125.969
X107.525Y-128.509
X107.525Y-131.049
X107.525Y-133.589
X107.525Y-136.129
X107.525Y-138.669
X107.525Y-141.209
X107.525Y-143.749
X107.525Y-146.289
X107.525Y-148.829
T8
X98.044Y-79.756
X100.584Y-79.756
X103.124Y-79.756
T9
X70.104Y-161.91
X70.104Y-166.609
X70.104Y-171.308
X70.358Y-86.995
X70.358Y-91.694
X70.358Y-96.393
X70.358Y-125.08
X70.358Y-129.779
X70.358Y-134.478
X80.855Y-67.93
X80.855Y-72.629
X80.855Y-77.328
X80.855Y-106.03
X80.855Y-110.729
X80.855Y-115.428
X80.855Y-144.13
X80.855Y-148.829
X80.855Y-153.528
X118.15Y-45.974
X118.955Y-67.93
X118.955Y-72.629
X118.955Y-77.328
X118.955Y-106.03
X118.955Y-110.729
X118.955Y-115.428
X118.955Y-144.13
X118.955Y-148.829
X118.955Y-153.528
X123.15Y-45.974
X129.286Y-86.98
X129.286Y-91.679
X129.286Y-96.378
X129.286Y-124.841
X129.286Y-129.54
X129.286Y-134.239
X129.286Y-161.925
X129.286Y-166.624
X129.286Y-171.323
T10
X143.422Y-42.926
X150.622Y-42.926
T3
X45.372Y-92.698G85X45.372Y-91.198
G05
X45.372Y-130.798G85X45.372Y-129.298
G05
X52.672Y-92.698G85X52.672Y-91.198
G05
X52.672Y-130.798G85X52.672Y-129.298
G05
X76.36Y-46.724G85X76.36Y-45.224
G05
X83.66Y-46.724G85X83.66Y-45.224
G05
X147.226Y-92.19G85X147.226Y-90.69
G05
X147.226Y-130.036G85X147.226Y-128.536
G05
X154.526Y-92.19G85X154.526Y-90.69
G05
X154.526Y-130.036G85X154.526Y-128.536
G05
T0
M30
