%TF.GenerationSoftware,KiCad,Pcbnew,(5.1.6)-1*%
%TF.CreationDate,2020-09-21T22:47:23-04:00*%
%TF.ProjectId,Launchbox,4c61756e-6368-4626-9f78-2e6b69636164,Launchbox*%
%TF.SameCoordinates,Original*%
%TF.FileFunction,Copper,L2,Bot*%
%TF.FilePolarity,Positive*%
%FSLAX46Y46*%
G04 Gerber Fmt 4.6, Leading zero omitted, Abs format (unit mm)*
G04 Created by KiCad (PCBNEW (5.1.6)-1) date 2020-09-21 22:47:23*
%MOMM*%
%LPD*%
G01*
G04 APERTURE LIST*
%TA.AperFunction,ComponentPad*%
%ADD10C,1.320800*%
%TD*%
%TA.AperFunction,ComponentPad*%
%ADD11C,2.921000*%
%TD*%
%TA.AperFunction,ComponentPad*%
%ADD12C,1.524000*%
%TD*%
%TA.AperFunction,ComponentPad*%
%ADD13R,1.905000X2.000000*%
%TD*%
%TA.AperFunction,ComponentPad*%
%ADD14O,1.905000X2.000000*%
%TD*%
%TA.AperFunction,ComponentPad*%
%ADD15C,2.000000*%
%TD*%
%TA.AperFunction,ViaPad*%
%ADD16C,0.762000*%
%TD*%
%TA.AperFunction,Conductor*%
%ADD17C,0.508000*%
%TD*%
%TA.AperFunction,Conductor*%
%ADD18C,0.254000*%
%TD*%
G04 APERTURE END LIST*
D10*
%TO.P,U1,32*%
%TO.N,Net-(SW11-Pad3)*%
X96095000Y-130795000D03*
%TO.P,U1,31*%
%TO.N,Net-(SW11-Pad1)*%
X96095000Y-128255000D03*
%TO.P,U1,30*%
%TO.N,Net-(SW10-Pad3)*%
X96095000Y-125715000D03*
%TO.P,U1,29*%
%TO.N,Net-(SW10-Pad1)*%
X96095000Y-123175000D03*
%TO.P,U1,28*%
%TO.N,Net-(SW9-Pad3)*%
X96095000Y-120635000D03*
%TO.P,U1,27*%
%TO.N,Net-(SW9-Pad1)*%
X96095000Y-118095000D03*
%TO.P,U1,26*%
%TO.N,Net-(SW8-Pad3)*%
X96095000Y-115555000D03*
%TO.P,U1,25*%
%TO.N,Net-(SW8-Pad1)*%
X96095000Y-113015000D03*
%TO.P,U1,24*%
%TO.N,Net-(SW7-Pad3)*%
X96095000Y-110475000D03*
%TO.P,U1,47*%
%TO.N,Net-(U1-Pad47)*%
X96095000Y-107935000D03*
%TO.P,U1,12*%
%TO.N,Net-(SW7-Pad1)*%
X96095000Y-105395000D03*
%TO.P,U1,11*%
%TO.N,Net-(SW6-Pad3)*%
X96095000Y-102855000D03*
%TO.P,U1,10*%
%TO.N,Net-(SW6-Pad1)*%
X96095000Y-100315000D03*
%TO.P,U1,9*%
%TO.N,Net-(SW5-Pad3)*%
X96095000Y-97775000D03*
%TO.P,U1,8*%
%TO.N,Net-(SW5-Pad1)*%
X96095000Y-95235000D03*
%TO.P,U1,7*%
%TO.N,Net-(SW4-Pad3)*%
X96095000Y-92695000D03*
%TO.P,U1,6*%
%TO.N,Net-(SW4-Pad1)*%
X96095000Y-90155000D03*
%TO.P,U1,5*%
%TO.N,Net-(SW3-Pad3)*%
X96095000Y-87615000D03*
%TO.P,U1,4*%
%TO.N,Net-(SW3-Pad1)*%
X96095000Y-85075000D03*
%TO.P,U1,3*%
%TO.N,Net-(SW2-Pad3)*%
X96095000Y-82535000D03*
%TO.P,U1,2*%
%TO.N,Net-(SW2-Pad1)*%
X96095000Y-79995000D03*
%TO.P,U1,1*%
%TO.N,Net-(SW1-Pad3)*%
X96095000Y-77455000D03*
%TO.P,U1,0*%
%TO.N,Net-(SW1-Pad1)*%
X96095000Y-74915000D03*
%TO.P,U1,46*%
%TO.N,GND*%
X96095000Y-72375000D03*
%TO.P,U1,33*%
%TO.N,Net-(U1-Pad33)*%
X111335000Y-130795000D03*
%TO.P,U1,34*%
%TO.N,Net-(U1-Pad34)*%
X111335000Y-128255000D03*
%TO.P,U1,35*%
%TO.N,Net-(SW12-Pad1)*%
X111335000Y-125715000D03*
%TO.P,U1,36*%
%TO.N,Net-(SW12-Pad3)*%
X111335000Y-123175000D03*
%TO.P,U1,37*%
%TO.N,Net-(SW13-Pad2)*%
X111335000Y-120635000D03*
%TO.P,U1,38*%
%TO.N,Net-(SW14-Pad2)*%
X111335000Y-118095000D03*
%TO.P,U1,39*%
%TO.N,Net-(SW15-Pad2)*%
X111335000Y-115555000D03*
%TO.P,U1,45*%
%TO.N,Net-(SW16-Pad2)*%
X111335000Y-113015000D03*
%TO.P,U1,44*%
%TO.N,Net-(SW17-Pad2)*%
X111335000Y-110475000D03*
%TO.P,U1,43*%
%TO.N,GND*%
X111335000Y-107935000D03*
%TO.P,U1,13*%
%TO.N,Net-(U1-Pad13)*%
X111335000Y-105395000D03*
%TO.P,U1,14*%
%TO.N,Net-(U1-Pad14)*%
X111335000Y-102855000D03*
%TO.P,U1,15*%
%TO.N,Net-(U1-Pad15)*%
X111335000Y-100315000D03*
%TO.P,U1,16*%
%TO.N,Net-(U1-Pad16)*%
X111335000Y-97775000D03*
%TO.P,U1,17*%
%TO.N,Net-(U1-Pad17)*%
X111335000Y-95235000D03*
%TO.P,U1,18*%
%TO.N,Net-(U1-Pad18)*%
X111335000Y-92695000D03*
%TO.P,U1,19*%
%TO.N,Net-(U1-Pad19)*%
X111335000Y-90155000D03*
%TO.P,U1,20*%
%TO.N,Net-(U1-Pad20)*%
X111335000Y-87615000D03*
%TO.P,U1,21*%
%TO.N,Net-(U1-Pad21)*%
X111335000Y-85075000D03*
%TO.P,U1,22*%
%TO.N,Net-(U1-Pad22)*%
X111335000Y-82535000D03*
%TO.P,U1,23*%
%TO.N,Net-(U1-Pad23)*%
X111335000Y-79995000D03*
%TO.P,U1,42*%
%TO.N,Net-(U1-Pad42)*%
X111335000Y-77455000D03*
%TO.P,U1,41*%
%TO.N,Net-(U1-Pad41)*%
X111335000Y-74915000D03*
%TO.P,U1,40*%
%TO.N,Net-(SW13-Pad1)*%
X111335000Y-72375000D03*
%TD*%
D11*
%TO.P,SW10,3*%
%TO.N,Net-(SW10-Pad3)*%
X122765000Y-78344000D03*
%TO.P,SW10,2*%
%TO.N,GND*%
X122765000Y-73645000D03*
%TO.P,SW10,1*%
%TO.N,Net-(SW10-Pad1)*%
X122765000Y-68946000D03*
%TD*%
%TO.P,SW1,1*%
%TO.N,Net-(SW1-Pad1)*%
X84665000Y-49896000D03*
%TO.P,SW1,2*%
%TO.N,GND*%
X84665000Y-54595000D03*
%TO.P,SW1,3*%
%TO.N,Net-(SW1-Pad3)*%
X84665000Y-59294000D03*
%TD*%
%TO.P,SW2,3*%
%TO.N,Net-(SW2-Pad3)*%
X84665000Y-78344000D03*
%TO.P,SW2,2*%
%TO.N,GND*%
X84665000Y-73645000D03*
%TO.P,SW2,1*%
%TO.N,Net-(SW2-Pad1)*%
X84665000Y-68946000D03*
%TD*%
%TO.P,SW3,1*%
%TO.N,Net-(SW3-Pad1)*%
X84665000Y-87996000D03*
%TO.P,SW3,2*%
%TO.N,GND*%
X84665000Y-92695000D03*
%TO.P,SW3,3*%
%TO.N,Net-(SW3-Pad3)*%
X84665000Y-97394000D03*
%TD*%
%TO.P,SW4,3*%
%TO.N,Net-(SW4-Pad3)*%
X84665000Y-116444000D03*
%TO.P,SW4,2*%
%TO.N,GND*%
X84665000Y-111745000D03*
%TO.P,SW4,1*%
%TO.N,Net-(SW4-Pad1)*%
X84665000Y-107046000D03*
%TD*%
%TO.P,SW5,1*%
%TO.N,Net-(SW5-Pad1)*%
X84665000Y-126096000D03*
%TO.P,SW5,2*%
%TO.N,GND*%
X84665000Y-130795000D03*
%TO.P,SW5,3*%
%TO.N,Net-(SW5-Pad3)*%
X84665000Y-135494000D03*
%TD*%
%TO.P,SW6,3*%
%TO.N,Net-(SW6-Pad3)*%
X84665000Y-153274000D03*
%TO.P,SW6,2*%
%TO.N,GND*%
X84665000Y-148575000D03*
%TO.P,SW6,1*%
%TO.N,Net-(SW6-Pad1)*%
X84665000Y-143876000D03*
%TD*%
%TO.P,SW7,3*%
%TO.N,Net-(SW7-Pad3)*%
X122765000Y-135494000D03*
%TO.P,SW7,2*%
%TO.N,GND*%
X122765000Y-130795000D03*
%TO.P,SW7,1*%
%TO.N,Net-(SW7-Pad1)*%
X122765000Y-126096000D03*
%TD*%
%TO.P,SW8,1*%
%TO.N,Net-(SW8-Pad1)*%
X122765000Y-107046000D03*
%TO.P,SW8,2*%
%TO.N,GND*%
X122765000Y-111745000D03*
%TO.P,SW8,3*%
%TO.N,Net-(SW8-Pad3)*%
X122765000Y-116444000D03*
%TD*%
%TO.P,SW9,1*%
%TO.N,Net-(SW9-Pad1)*%
X122765000Y-87996000D03*
%TO.P,SW9,2*%
%TO.N,GND*%
X122765000Y-92695000D03*
%TO.P,SW9,3*%
%TO.N,Net-(SW9-Pad3)*%
X122765000Y-97394000D03*
%TD*%
%TO.P,SW11,1*%
%TO.N,Net-(SW11-Pad1)*%
X122765000Y-49896000D03*
%TO.P,SW11,2*%
%TO.N,GND*%
X122765000Y-54595000D03*
%TO.P,SW11,3*%
%TO.N,Net-(SW11-Pad3)*%
X122765000Y-59294000D03*
%TD*%
%TO.P,SW12,3*%
%TO.N,Net-(SW12-Pad3)*%
X122765000Y-143876000D03*
%TO.P,SW12,2*%
%TO.N,GND*%
X122765000Y-148575000D03*
%TO.P,SW12,1*%
%TO.N,Net-(SW12-Pad1)*%
X122765000Y-153274000D03*
%TD*%
D12*
%TO.P,SW13,1*%
%TO.N,Net-(SW13-Pad1)*%
X99321000Y-145835000D03*
%TO.P,SW13,2*%
%TO.N,Net-(SW13-Pad2)*%
X108465000Y-145835000D03*
%TD*%
%TO.P,SW14,1*%
%TO.N,Net-(SW13-Pad1)*%
X62611000Y-73660000D03*
%TO.P,SW14,2*%
%TO.N,Net-(SW14-Pad2)*%
X71755000Y-73660000D03*
%TD*%
%TO.P,SW15,2*%
%TO.N,Net-(SW15-Pad2)*%
X71755000Y-130810000D03*
%TO.P,SW15,1*%
%TO.N,Net-(SW13-Pad1)*%
X62611000Y-130810000D03*
%TD*%
%TO.P,SW16,2*%
%TO.N,Net-(SW16-Pad2)*%
X144399000Y-130810000D03*
%TO.P,SW16,1*%
%TO.N,Net-(SW13-Pad1)*%
X135255000Y-130810000D03*
%TD*%
%TO.P,SW17,1*%
%TO.N,Net-(SW13-Pad1)*%
X135255000Y-73660000D03*
%TO.P,SW17,2*%
%TO.N,Net-(SW17-Pad2)*%
X144399000Y-73660000D03*
%TD*%
D13*
%TO.P,U2,1*%
%TO.N,Net-(BT1-Pad1)*%
X101440000Y-64710000D03*
D14*
%TO.P,U2,2*%
%TO.N,GND*%
X103980000Y-64710000D03*
%TO.P,U2,3*%
%TO.N,Net-(SW13-Pad1)*%
X106520000Y-64710000D03*
%TD*%
D15*
%TO.P,U3,1*%
%TO.N,Net-(U1-Pad34)*%
X162965000Y-145400000D03*
%TO.P,U3,2*%
%TO.N,Net-(U1-Pad33)*%
X162965000Y-150480000D03*
%TO.P,U3,3*%
%TO.N,GND*%
X162965000Y-155560000D03*
%TD*%
D16*
%TO.N,GND*%
X128016000Y-123571000D03*
%TO.N,Net-(SW7-Pad3)*%
X101473000Y-116332000D03*
%TO.N,Net-(SW7-Pad1)*%
X102489000Y-114300000D03*
%TO.N,Net-(SW8-Pad1)*%
X100711001Y-111506000D03*
%TO.N,Net-(SW8-Pad3)*%
X100711001Y-114046000D03*
%TO.N,Net-(SW9-Pad3)*%
X99187000Y-119126000D03*
%TO.N,Net-(SW9-Pad1)*%
X99187000Y-116586000D03*
%TO.N,Net-(SW11-Pad1)*%
X106045000Y-67564000D03*
%TO.N,Net-(SW11-Pad3)*%
X107315000Y-68072000D03*
%TO.N,Net-(SW13-Pad1)*%
X109601000Y-66548000D03*
X92710000Y-44958000D03*
%TO.N,Net-(SW14-Pad2)*%
X104013000Y-114554000D03*
%TO.N,Net-(SW15-Pad2)*%
X75819000Y-139446000D03*
%TO.N,Net-(U1-Pad34)*%
X109347000Y-131826000D03*
%TD*%
D17*
%TO.N,GND*%
X76947000Y-143266398D02*
X69215000Y-135534398D01*
X79502000Y-47752000D02*
X80899000Y-46355000D01*
X80899000Y-46355000D02*
X97282000Y-46355000D01*
X103980000Y-53053000D02*
X103980000Y-64710000D01*
X97282000Y-46355000D02*
X103980000Y-53053000D01*
X79771000Y-54595000D02*
X79502000Y-54864000D01*
X84665000Y-54595000D02*
X79771000Y-54595000D01*
X79502000Y-55626000D02*
X79502000Y-54864000D01*
X79502000Y-54864000D02*
X79502000Y-47752000D01*
X94825000Y-73645000D02*
X96095000Y-72375000D01*
X84665000Y-73645000D02*
X94825000Y-73645000D01*
X81773000Y-73645000D02*
X71628000Y-63500000D01*
X84665000Y-73645000D02*
X81773000Y-73645000D01*
X69215000Y-65913000D02*
X71628000Y-63500000D01*
X71628000Y-63500000D02*
X79502000Y-55626000D01*
X77582000Y-130795000D02*
X69215000Y-122428000D01*
X84665000Y-130795000D02*
X77582000Y-130795000D01*
X69215000Y-135534398D02*
X69215000Y-122428000D01*
X84665000Y-148575000D02*
X77171000Y-148575000D01*
X76947000Y-155560000D02*
X76947000Y-148351000D01*
X77171000Y-148575000D02*
X76947000Y-148351000D01*
X76947000Y-148351000D02*
X76947000Y-143266398D01*
X122765000Y-148575000D02*
X127874000Y-148575000D01*
X129809000Y-150510000D02*
X129809000Y-155560000D01*
X127874000Y-148575000D02*
X129809000Y-150510000D01*
X162965000Y-155560000D02*
X129809000Y-155560000D01*
X129809000Y-155560000D02*
X76947000Y-155560000D01*
X127874000Y-123713000D02*
X128016000Y-123571000D01*
X127747000Y-130795000D02*
X127874000Y-130668000D01*
X122765000Y-130795000D02*
X127747000Y-130795000D01*
X127874000Y-148575000D02*
X127874000Y-130668000D01*
X127874000Y-130668000D02*
X127874000Y-123713000D01*
X69738000Y-111745000D02*
X69215000Y-112268000D01*
X84665000Y-111745000D02*
X69738000Y-111745000D01*
X69215000Y-122428000D02*
X69215000Y-112268000D01*
X84665000Y-92695000D02*
X69992000Y-92695000D01*
X69215000Y-112268000D02*
X69215000Y-93472000D01*
X69992000Y-92695000D02*
X69215000Y-93472000D01*
X69215000Y-93472000D02*
X69215000Y-65913000D01*
D18*
%TO.N,Net-(SW7-Pad3)*%
X101473000Y-114188238D02*
X101980990Y-113680248D01*
X101473000Y-116332000D02*
X101473000Y-114188238D01*
X100807763Y-110475000D02*
X96095000Y-110475000D01*
X101980990Y-111648227D02*
X100807763Y-110475000D01*
X101980990Y-113680248D02*
X101980990Y-111648227D01*
%TO.N,Net-(SW7-Pad1)*%
X102489000Y-114300000D02*
X102489000Y-107442000D01*
X100442000Y-105395000D02*
X96095000Y-105395000D01*
X102489000Y-107442000D02*
X100442000Y-105395000D01*
%TO.N,Net-(SW8-Pad1)*%
X99202001Y-113015000D02*
X96095000Y-113015000D01*
X100711001Y-111506000D02*
X99202001Y-113015000D01*
%TO.N,Net-(SW8-Pad3)*%
X99202001Y-115555000D02*
X96095000Y-115555000D01*
X100711001Y-114046000D02*
X99202001Y-115555000D01*
%TO.N,Net-(SW9-Pad3)*%
X97678000Y-120635000D02*
X96095000Y-120635000D01*
X99187000Y-119126000D02*
X97678000Y-120635000D01*
%TO.N,Net-(SW9-Pad1)*%
X96110000Y-118110000D02*
X96095000Y-118095000D01*
X97678000Y-118095000D02*
X96095000Y-118095000D01*
X99187000Y-116586000D02*
X97678000Y-118095000D01*
%TO.N,Net-(SW11-Pad1)*%
X106045000Y-67564000D02*
X106045000Y-124460000D01*
X102250000Y-128255000D02*
X96095000Y-128255000D01*
X106045000Y-124460000D02*
X102250000Y-128255000D01*
%TO.N,Net-(SW11-Pad3)*%
X107315000Y-68072000D02*
X107315000Y-125730000D01*
X102250000Y-130795000D02*
X96095000Y-130795000D01*
X107315000Y-125730000D02*
X102250000Y-130795000D01*
%TO.N,Net-(SW12-Pad1)*%
X122765000Y-153274000D02*
X116967000Y-147476000D01*
X116967000Y-147476000D02*
X116967000Y-127254000D01*
X115428000Y-125715000D02*
X111335000Y-125715000D01*
X116967000Y-127254000D02*
X115428000Y-125715000D01*
%TO.N,Net-(SW12-Pad3)*%
X122765000Y-143876000D02*
X120127000Y-143876000D01*
X120127000Y-143876000D02*
X117983000Y-141732000D01*
X117983000Y-141732000D02*
X117983000Y-125730000D01*
X115428000Y-123175000D02*
X111335000Y-123175000D01*
X117983000Y-125730000D02*
X115428000Y-123175000D01*
D17*
%TO.N,Net-(SW13-Pad1)*%
X109840000Y-72375000D02*
X111335000Y-72375000D01*
X109601000Y-66548000D02*
X109601000Y-72136000D01*
X109601000Y-72136000D02*
X109840000Y-72375000D01*
X92710000Y-44958000D02*
X105156000Y-44958000D01*
X106520000Y-46322000D02*
X106520000Y-64710000D01*
X105156000Y-44958000D02*
X106520000Y-46322000D01*
D18*
%TO.N,Net-(SW14-Pad2)*%
X71755000Y-73660000D02*
X71755000Y-79248000D01*
X76083401Y-83576401D02*
X98689401Y-83576401D01*
X71755000Y-79248000D02*
X76083401Y-83576401D01*
X98689401Y-83576401D02*
X104013000Y-88900000D01*
X104013000Y-88900000D02*
X104013000Y-114554000D01*
%TO.N,Net-(SW15-Pad2)*%
X110124000Y-115555000D02*
X111335000Y-115555000D01*
X108585000Y-117094000D02*
X110124000Y-115555000D01*
X108585000Y-126746000D02*
X108585000Y-117094000D01*
X75819000Y-139446000D02*
X95885000Y-139446000D01*
X95885000Y-139446000D02*
X108585000Y-126746000D01*
%TO.N,Net-(SW16-Pad2)*%
X144399000Y-130810000D02*
X133985000Y-120396000D01*
X133985000Y-120396000D02*
X117729000Y-120396000D01*
X117729000Y-120396000D02*
X115697000Y-118364000D01*
X115697000Y-118364000D02*
X115697000Y-114300000D01*
X114412000Y-113015000D02*
X111335000Y-113015000D01*
X115697000Y-114300000D02*
X114412000Y-113015000D01*
%TO.N,Net-(SW17-Pad2)*%
X144399000Y-73660000D02*
X144399000Y-97790000D01*
X144399000Y-97790000D02*
X140335000Y-101854000D01*
X140335000Y-101854000D02*
X118491000Y-101854000D01*
X118491000Y-101854000D02*
X115951000Y-104394000D01*
X115951000Y-104394000D02*
X115951000Y-108204000D01*
X113680000Y-110475000D02*
X111335000Y-110475000D01*
X115951000Y-108204000D02*
X113680000Y-110475000D01*
%TO.N,Net-(U1-Pad34)*%
X109347000Y-131826000D02*
X109347000Y-128524000D01*
X109616000Y-128255000D02*
X111335000Y-128255000D01*
X109347000Y-128524000D02*
X109616000Y-128255000D01*
D17*
%TO.N,Net-(SW13-Pad2)*%
X108465000Y-145835000D02*
X108465000Y-139072000D01*
X108465000Y-139072000D02*
X107442000Y-138049000D01*
X107442000Y-138049000D02*
X107442000Y-129159000D01*
X107442000Y-129159000D02*
X109474000Y-127127000D01*
X109474000Y-127127000D02*
X109474000Y-121158000D01*
X109997000Y-120635000D02*
X111335000Y-120635000D01*
X109474000Y-121158000D02*
X109997000Y-120635000D01*
%TD*%
D18*
%TO.N,GND*%
G36*
X170167301Y-161912300D02*
G01*
X44462700Y-161912300D01*
X44462700Y-156695413D01*
X162009192Y-156695413D01*
X162104956Y-156959814D01*
X162394571Y-157100704D01*
X162706108Y-157182384D01*
X163027595Y-157201718D01*
X163346675Y-157157961D01*
X163651088Y-157052795D01*
X163825044Y-156959814D01*
X163920808Y-156695413D01*
X162965000Y-155739605D01*
X162009192Y-156695413D01*
X44462700Y-156695413D01*
X44462700Y-155622595D01*
X161323282Y-155622595D01*
X161367039Y-155941675D01*
X161472205Y-156246088D01*
X161565186Y-156420044D01*
X161829587Y-156515808D01*
X162785395Y-155560000D01*
X163144605Y-155560000D01*
X164100413Y-156515808D01*
X164364814Y-156420044D01*
X164505704Y-156130429D01*
X164587384Y-155818892D01*
X164606718Y-155497405D01*
X164562961Y-155178325D01*
X164457795Y-154873912D01*
X164364814Y-154699956D01*
X164100413Y-154604192D01*
X163144605Y-155560000D01*
X162785395Y-155560000D01*
X161829587Y-154604192D01*
X161565186Y-154699956D01*
X161424296Y-154989571D01*
X161342616Y-155301108D01*
X161323282Y-155622595D01*
X44462700Y-155622595D01*
X44462700Y-153067611D01*
X82569500Y-153067611D01*
X82569500Y-153480389D01*
X82650029Y-153885235D01*
X82807992Y-154266591D01*
X83037319Y-154609803D01*
X83329197Y-154901681D01*
X83672409Y-155131008D01*
X84053765Y-155288971D01*
X84458611Y-155369500D01*
X84871389Y-155369500D01*
X85276235Y-155288971D01*
X85657591Y-155131008D01*
X86000803Y-154901681D01*
X86292681Y-154609803D01*
X86522008Y-154266591D01*
X86679971Y-153885235D01*
X86760500Y-153480389D01*
X86760500Y-153067611D01*
X86679971Y-152662765D01*
X86522008Y-152281409D01*
X86292681Y-151938197D01*
X86000803Y-151646319D01*
X85657591Y-151416992D01*
X85276235Y-151259029D01*
X84871389Y-151178500D01*
X84458611Y-151178500D01*
X84053765Y-151259029D01*
X83672409Y-151416992D01*
X83329197Y-151646319D01*
X83037319Y-151938197D01*
X82807992Y-152281409D01*
X82650029Y-152662765D01*
X82569500Y-153067611D01*
X44462700Y-153067611D01*
X44462700Y-150038529D01*
X83381077Y-150038529D01*
X83532334Y-150350045D01*
X83900393Y-150536910D01*
X84297834Y-150648381D01*
X84709386Y-150680172D01*
X85119231Y-150631063D01*
X85511621Y-150502940D01*
X85797666Y-150350045D01*
X85948923Y-150038529D01*
X84665000Y-148754605D01*
X83381077Y-150038529D01*
X44462700Y-150038529D01*
X44462700Y-148619386D01*
X82559828Y-148619386D01*
X82608937Y-149029231D01*
X82737060Y-149421621D01*
X82889955Y-149707666D01*
X83201471Y-149858923D01*
X84485395Y-148575000D01*
X84844605Y-148575000D01*
X86128529Y-149858923D01*
X86440045Y-149707666D01*
X86626910Y-149339607D01*
X86738381Y-148942166D01*
X86770172Y-148530614D01*
X86721063Y-148120769D01*
X86592940Y-147728379D01*
X86440045Y-147442334D01*
X86128529Y-147291077D01*
X84844605Y-148575000D01*
X84485395Y-148575000D01*
X83201471Y-147291077D01*
X82889955Y-147442334D01*
X82703090Y-147810393D01*
X82591619Y-148207834D01*
X82559828Y-148619386D01*
X44462700Y-148619386D01*
X44462700Y-147111471D01*
X83381077Y-147111471D01*
X84665000Y-148395395D01*
X85948923Y-147111471D01*
X85797666Y-146799955D01*
X85429607Y-146613090D01*
X85032166Y-146501619D01*
X84620614Y-146469828D01*
X84210769Y-146518937D01*
X83818379Y-146647060D01*
X83532334Y-146799955D01*
X83381077Y-147111471D01*
X44462700Y-147111471D01*
X44462700Y-143669611D01*
X82569500Y-143669611D01*
X82569500Y-144082389D01*
X82650029Y-144487235D01*
X82807992Y-144868591D01*
X83037319Y-145211803D01*
X83329197Y-145503681D01*
X83672409Y-145733008D01*
X84053765Y-145890971D01*
X84458611Y-145971500D01*
X84871389Y-145971500D01*
X85276235Y-145890971D01*
X85657591Y-145733008D01*
X85710870Y-145697408D01*
X97924000Y-145697408D01*
X97924000Y-145972592D01*
X97977686Y-146242490D01*
X98082995Y-146496727D01*
X98235880Y-146725535D01*
X98430465Y-146920120D01*
X98659273Y-147073005D01*
X98913510Y-147178314D01*
X99183408Y-147232000D01*
X99458592Y-147232000D01*
X99728490Y-147178314D01*
X99982727Y-147073005D01*
X100211535Y-146920120D01*
X100406120Y-146725535D01*
X100559005Y-146496727D01*
X100664314Y-146242490D01*
X100718000Y-145972592D01*
X100718000Y-145697408D01*
X100664314Y-145427510D01*
X100559005Y-145173273D01*
X100406120Y-144944465D01*
X100211535Y-144749880D01*
X99982727Y-144596995D01*
X99728490Y-144491686D01*
X99458592Y-144438000D01*
X99183408Y-144438000D01*
X98913510Y-144491686D01*
X98659273Y-144596995D01*
X98430465Y-144749880D01*
X98235880Y-144944465D01*
X98082995Y-145173273D01*
X97977686Y-145427510D01*
X97924000Y-145697408D01*
X85710870Y-145697408D01*
X86000803Y-145503681D01*
X86292681Y-145211803D01*
X86522008Y-144868591D01*
X86679971Y-144487235D01*
X86760500Y-144082389D01*
X86760500Y-143669611D01*
X86679971Y-143264765D01*
X86522008Y-142883409D01*
X86292681Y-142540197D01*
X86000803Y-142248319D01*
X85657591Y-142018992D01*
X85276235Y-141861029D01*
X84871389Y-141780500D01*
X84458611Y-141780500D01*
X84053765Y-141861029D01*
X83672409Y-142018992D01*
X83329197Y-142248319D01*
X83037319Y-142540197D01*
X82807992Y-142883409D01*
X82650029Y-143264765D01*
X82569500Y-143669611D01*
X44462700Y-143669611D01*
X44462700Y-135287611D01*
X82569500Y-135287611D01*
X82569500Y-135700389D01*
X82650029Y-136105235D01*
X82807992Y-136486591D01*
X83037319Y-136829803D01*
X83329197Y-137121681D01*
X83672409Y-137351008D01*
X84053765Y-137508971D01*
X84458611Y-137589500D01*
X84871389Y-137589500D01*
X85276235Y-137508971D01*
X85657591Y-137351008D01*
X86000803Y-137121681D01*
X86292681Y-136829803D01*
X86522008Y-136486591D01*
X86679971Y-136105235D01*
X86760500Y-135700389D01*
X86760500Y-135287611D01*
X86679971Y-134882765D01*
X86522008Y-134501409D01*
X86292681Y-134158197D01*
X86000803Y-133866319D01*
X85657591Y-133636992D01*
X85276235Y-133479029D01*
X84871389Y-133398500D01*
X84458611Y-133398500D01*
X84053765Y-133479029D01*
X83672409Y-133636992D01*
X83329197Y-133866319D01*
X83037319Y-134158197D01*
X82807992Y-134501409D01*
X82650029Y-134882765D01*
X82569500Y-135287611D01*
X44462700Y-135287611D01*
X44462700Y-132258529D01*
X83381077Y-132258529D01*
X83532334Y-132570045D01*
X83900393Y-132756910D01*
X84297834Y-132868381D01*
X84709386Y-132900172D01*
X85119231Y-132851063D01*
X85511621Y-132722940D01*
X85797666Y-132570045D01*
X85948923Y-132258529D01*
X84665000Y-130974605D01*
X83381077Y-132258529D01*
X44462700Y-132258529D01*
X44462700Y-130672408D01*
X61214000Y-130672408D01*
X61214000Y-130947592D01*
X61267686Y-131217490D01*
X61372995Y-131471727D01*
X61525880Y-131700535D01*
X61720465Y-131895120D01*
X61949273Y-132048005D01*
X62203510Y-132153314D01*
X62473408Y-132207000D01*
X62748592Y-132207000D01*
X63018490Y-132153314D01*
X63272727Y-132048005D01*
X63501535Y-131895120D01*
X63696120Y-131700535D01*
X63849005Y-131471727D01*
X63954314Y-131217490D01*
X64008000Y-130947592D01*
X64008000Y-130672408D01*
X70358000Y-130672408D01*
X70358000Y-130947592D01*
X70411686Y-131217490D01*
X70516995Y-131471727D01*
X70669880Y-131700535D01*
X70864465Y-131895120D01*
X71093273Y-132048005D01*
X71347510Y-132153314D01*
X71617408Y-132207000D01*
X71892592Y-132207000D01*
X72162490Y-132153314D01*
X72416727Y-132048005D01*
X72645535Y-131895120D01*
X72840120Y-131700535D01*
X72993005Y-131471727D01*
X73098314Y-131217490D01*
X73152000Y-130947592D01*
X73152000Y-130839386D01*
X82559828Y-130839386D01*
X82608937Y-131249231D01*
X82737060Y-131641621D01*
X82889955Y-131927666D01*
X83201471Y-132078923D01*
X84485395Y-130795000D01*
X84844605Y-130795000D01*
X86128529Y-132078923D01*
X86440045Y-131927666D01*
X86626910Y-131559607D01*
X86738381Y-131162166D01*
X86770172Y-130750614D01*
X86721063Y-130340769D01*
X86592940Y-129948379D01*
X86440045Y-129662334D01*
X86128529Y-129511077D01*
X84844605Y-130795000D01*
X84485395Y-130795000D01*
X83201471Y-129511077D01*
X82889955Y-129662334D01*
X82703090Y-130030393D01*
X82591619Y-130427834D01*
X82559828Y-130839386D01*
X73152000Y-130839386D01*
X73152000Y-130672408D01*
X73098314Y-130402510D01*
X72993005Y-130148273D01*
X72840120Y-129919465D01*
X72645535Y-129724880D01*
X72416727Y-129571995D01*
X72162490Y-129466686D01*
X71892592Y-129413000D01*
X71617408Y-129413000D01*
X71347510Y-129466686D01*
X71093273Y-129571995D01*
X70864465Y-129724880D01*
X70669880Y-129919465D01*
X70516995Y-130148273D01*
X70411686Y-130402510D01*
X70358000Y-130672408D01*
X64008000Y-130672408D01*
X63954314Y-130402510D01*
X63849005Y-130148273D01*
X63696120Y-129919465D01*
X63501535Y-129724880D01*
X63272727Y-129571995D01*
X63018490Y-129466686D01*
X62748592Y-129413000D01*
X62473408Y-129413000D01*
X62203510Y-129466686D01*
X61949273Y-129571995D01*
X61720465Y-129724880D01*
X61525880Y-129919465D01*
X61372995Y-130148273D01*
X61267686Y-130402510D01*
X61214000Y-130672408D01*
X44462700Y-130672408D01*
X44462700Y-129331471D01*
X83381077Y-129331471D01*
X84665000Y-130615395D01*
X85948923Y-129331471D01*
X85797666Y-129019955D01*
X85429607Y-128833090D01*
X85032166Y-128721619D01*
X84620614Y-128689828D01*
X84210769Y-128738937D01*
X83818379Y-128867060D01*
X83532334Y-129019955D01*
X83381077Y-129331471D01*
X44462700Y-129331471D01*
X44462700Y-125889611D01*
X82569500Y-125889611D01*
X82569500Y-126302389D01*
X82650029Y-126707235D01*
X82807992Y-127088591D01*
X83037319Y-127431803D01*
X83329197Y-127723681D01*
X83672409Y-127953008D01*
X84053765Y-128110971D01*
X84458611Y-128191500D01*
X84871389Y-128191500D01*
X85276235Y-128110971D01*
X85657591Y-127953008D01*
X86000803Y-127723681D01*
X86292681Y-127431803D01*
X86522008Y-127088591D01*
X86679971Y-126707235D01*
X86760500Y-126302389D01*
X86760500Y-125889611D01*
X86679971Y-125484765D01*
X86522008Y-125103409D01*
X86292681Y-124760197D01*
X86000803Y-124468319D01*
X85657591Y-124238992D01*
X85276235Y-124081029D01*
X84871389Y-124000500D01*
X84458611Y-124000500D01*
X84053765Y-124081029D01*
X83672409Y-124238992D01*
X83329197Y-124468319D01*
X83037319Y-124760197D01*
X82807992Y-125103409D01*
X82650029Y-125484765D01*
X82569500Y-125889611D01*
X44462700Y-125889611D01*
X44462700Y-116237611D01*
X82569500Y-116237611D01*
X82569500Y-116650389D01*
X82650029Y-117055235D01*
X82807992Y-117436591D01*
X83037319Y-117779803D01*
X83329197Y-118071681D01*
X83672409Y-118301008D01*
X84053765Y-118458971D01*
X84458611Y-118539500D01*
X84871389Y-118539500D01*
X85276235Y-118458971D01*
X85657591Y-118301008D01*
X86000803Y-118071681D01*
X86292681Y-117779803D01*
X86522008Y-117436591D01*
X86679971Y-117055235D01*
X86760500Y-116650389D01*
X86760500Y-116237611D01*
X86679971Y-115832765D01*
X86522008Y-115451409D01*
X86292681Y-115108197D01*
X86000803Y-114816319D01*
X85657591Y-114586992D01*
X85276235Y-114429029D01*
X84871389Y-114348500D01*
X84458611Y-114348500D01*
X84053765Y-114429029D01*
X83672409Y-114586992D01*
X83329197Y-114816319D01*
X83037319Y-115108197D01*
X82807992Y-115451409D01*
X82650029Y-115832765D01*
X82569500Y-116237611D01*
X44462700Y-116237611D01*
X44462700Y-113208529D01*
X83381077Y-113208529D01*
X83532334Y-113520045D01*
X83900393Y-113706910D01*
X84297834Y-113818381D01*
X84709386Y-113850172D01*
X85119231Y-113801063D01*
X85511621Y-113672940D01*
X85797666Y-113520045D01*
X85948923Y-113208529D01*
X84665000Y-111924605D01*
X83381077Y-113208529D01*
X44462700Y-113208529D01*
X44462700Y-111789386D01*
X82559828Y-111789386D01*
X82608937Y-112199231D01*
X82737060Y-112591621D01*
X82889955Y-112877666D01*
X83201471Y-113028923D01*
X84485395Y-111745000D01*
X84844605Y-111745000D01*
X86128529Y-113028923D01*
X86440045Y-112877666D01*
X86626910Y-112509607D01*
X86738381Y-112112166D01*
X86770172Y-111700614D01*
X86721063Y-111290769D01*
X86592940Y-110898379D01*
X86440045Y-110612334D01*
X86128529Y-110461077D01*
X84844605Y-111745000D01*
X84485395Y-111745000D01*
X83201471Y-110461077D01*
X82889955Y-110612334D01*
X82703090Y-110980393D01*
X82591619Y-111377834D01*
X82559828Y-111789386D01*
X44462700Y-111789386D01*
X44462700Y-110281471D01*
X83381077Y-110281471D01*
X84665000Y-111565395D01*
X85948923Y-110281471D01*
X85797666Y-109969955D01*
X85429607Y-109783090D01*
X85032166Y-109671619D01*
X84620614Y-109639828D01*
X84210769Y-109688937D01*
X83818379Y-109817060D01*
X83532334Y-109969955D01*
X83381077Y-110281471D01*
X44462700Y-110281471D01*
X44462700Y-106839611D01*
X82569500Y-106839611D01*
X82569500Y-107252389D01*
X82650029Y-107657235D01*
X82807992Y-108038591D01*
X83037319Y-108381803D01*
X83329197Y-108673681D01*
X83672409Y-108903008D01*
X84053765Y-109060971D01*
X84458611Y-109141500D01*
X84871389Y-109141500D01*
X85276235Y-109060971D01*
X85657591Y-108903008D01*
X86000803Y-108673681D01*
X86292681Y-108381803D01*
X86522008Y-108038591D01*
X86679971Y-107657235D01*
X86760500Y-107252389D01*
X86760500Y-106839611D01*
X86679971Y-106434765D01*
X86522008Y-106053409D01*
X86292681Y-105710197D01*
X86000803Y-105418319D01*
X85657591Y-105188992D01*
X85276235Y-105031029D01*
X84871389Y-104950500D01*
X84458611Y-104950500D01*
X84053765Y-105031029D01*
X83672409Y-105188992D01*
X83329197Y-105418319D01*
X83037319Y-105710197D01*
X82807992Y-106053409D01*
X82650029Y-106434765D01*
X82569500Y-106839611D01*
X44462700Y-106839611D01*
X44462700Y-97187611D01*
X82569500Y-97187611D01*
X82569500Y-97600389D01*
X82650029Y-98005235D01*
X82807992Y-98386591D01*
X83037319Y-98729803D01*
X83329197Y-99021681D01*
X83672409Y-99251008D01*
X84053765Y-99408971D01*
X84458611Y-99489500D01*
X84871389Y-99489500D01*
X85276235Y-99408971D01*
X85657591Y-99251008D01*
X86000803Y-99021681D01*
X86292681Y-98729803D01*
X86522008Y-98386591D01*
X86679971Y-98005235D01*
X86760500Y-97600389D01*
X86760500Y-97187611D01*
X86679971Y-96782765D01*
X86522008Y-96401409D01*
X86292681Y-96058197D01*
X86000803Y-95766319D01*
X85657591Y-95536992D01*
X85276235Y-95379029D01*
X84871389Y-95298500D01*
X84458611Y-95298500D01*
X84053765Y-95379029D01*
X83672409Y-95536992D01*
X83329197Y-95766319D01*
X83037319Y-96058197D01*
X82807992Y-96401409D01*
X82650029Y-96782765D01*
X82569500Y-97187611D01*
X44462700Y-97187611D01*
X44462700Y-94158529D01*
X83381077Y-94158529D01*
X83532334Y-94470045D01*
X83900393Y-94656910D01*
X84297834Y-94768381D01*
X84709386Y-94800172D01*
X85119231Y-94751063D01*
X85511621Y-94622940D01*
X85797666Y-94470045D01*
X85948923Y-94158529D01*
X84665000Y-92874605D01*
X83381077Y-94158529D01*
X44462700Y-94158529D01*
X44462700Y-92739386D01*
X82559828Y-92739386D01*
X82608937Y-93149231D01*
X82737060Y-93541621D01*
X82889955Y-93827666D01*
X83201471Y-93978923D01*
X84485395Y-92695000D01*
X84844605Y-92695000D01*
X86128529Y-93978923D01*
X86440045Y-93827666D01*
X86626910Y-93459607D01*
X86738381Y-93062166D01*
X86770172Y-92650614D01*
X86721063Y-92240769D01*
X86592940Y-91848379D01*
X86440045Y-91562334D01*
X86128529Y-91411077D01*
X84844605Y-92695000D01*
X84485395Y-92695000D01*
X83201471Y-91411077D01*
X82889955Y-91562334D01*
X82703090Y-91930393D01*
X82591619Y-92327834D01*
X82559828Y-92739386D01*
X44462700Y-92739386D01*
X44462700Y-91231471D01*
X83381077Y-91231471D01*
X84665000Y-92515395D01*
X85948923Y-91231471D01*
X85797666Y-90919955D01*
X85429607Y-90733090D01*
X85032166Y-90621619D01*
X84620614Y-90589828D01*
X84210769Y-90638937D01*
X83818379Y-90767060D01*
X83532334Y-90919955D01*
X83381077Y-91231471D01*
X44462700Y-91231471D01*
X44462700Y-87789611D01*
X82569500Y-87789611D01*
X82569500Y-88202389D01*
X82650029Y-88607235D01*
X82807992Y-88988591D01*
X83037319Y-89331803D01*
X83329197Y-89623681D01*
X83672409Y-89853008D01*
X84053765Y-90010971D01*
X84458611Y-90091500D01*
X84871389Y-90091500D01*
X85276235Y-90010971D01*
X85657591Y-89853008D01*
X86000803Y-89623681D01*
X86292681Y-89331803D01*
X86522008Y-88988591D01*
X86679971Y-88607235D01*
X86760500Y-88202389D01*
X86760500Y-87789611D01*
X86679971Y-87384765D01*
X86522008Y-87003409D01*
X86292681Y-86660197D01*
X86000803Y-86368319D01*
X85657591Y-86138992D01*
X85276235Y-85981029D01*
X84871389Y-85900500D01*
X84458611Y-85900500D01*
X84053765Y-85981029D01*
X83672409Y-86138992D01*
X83329197Y-86368319D01*
X83037319Y-86660197D01*
X82807992Y-87003409D01*
X82650029Y-87384765D01*
X82569500Y-87789611D01*
X44462700Y-87789611D01*
X44462700Y-73522408D01*
X61214000Y-73522408D01*
X61214000Y-73797592D01*
X61267686Y-74067490D01*
X61372995Y-74321727D01*
X61525880Y-74550535D01*
X61720465Y-74745120D01*
X61949273Y-74898005D01*
X62203510Y-75003314D01*
X62473408Y-75057000D01*
X62748592Y-75057000D01*
X63018490Y-75003314D01*
X63272727Y-74898005D01*
X63501535Y-74745120D01*
X63696120Y-74550535D01*
X63849005Y-74321727D01*
X63954314Y-74067490D01*
X64008000Y-73797592D01*
X64008000Y-73522408D01*
X70358000Y-73522408D01*
X70358000Y-73797592D01*
X70411686Y-74067490D01*
X70516995Y-74321727D01*
X70669880Y-74550535D01*
X70864465Y-74745120D01*
X70993000Y-74831005D01*
X70993001Y-79210567D01*
X70989314Y-79248000D01*
X71004027Y-79397378D01*
X71047599Y-79541015D01*
X71118355Y-79673392D01*
X71189721Y-79760351D01*
X71213579Y-79789422D01*
X71242649Y-79813279D01*
X75518121Y-84088752D01*
X75541979Y-84117823D01*
X75658009Y-84213046D01*
X75790386Y-84283803D01*
X75934023Y-84327375D01*
X76045975Y-84338401D01*
X76045977Y-84338401D01*
X76083400Y-84342087D01*
X76120823Y-84338401D01*
X95029215Y-84338401D01*
X94947031Y-84461398D01*
X94849381Y-84697146D01*
X94799600Y-84947414D01*
X94799600Y-85202586D01*
X94849381Y-85452854D01*
X94947031Y-85688602D01*
X95088797Y-85900769D01*
X95269231Y-86081203D01*
X95481398Y-86222969D01*
X95717146Y-86320619D01*
X95839719Y-86345000D01*
X95717146Y-86369381D01*
X95481398Y-86467031D01*
X95269231Y-86608797D01*
X95088797Y-86789231D01*
X94947031Y-87001398D01*
X94849381Y-87237146D01*
X94799600Y-87487414D01*
X94799600Y-87742586D01*
X94849381Y-87992854D01*
X94947031Y-88228602D01*
X95088797Y-88440769D01*
X95269231Y-88621203D01*
X95481398Y-88762969D01*
X95717146Y-88860619D01*
X95839719Y-88885000D01*
X95717146Y-88909381D01*
X95481398Y-89007031D01*
X95269231Y-89148797D01*
X95088797Y-89329231D01*
X94947031Y-89541398D01*
X94849381Y-89777146D01*
X94799600Y-90027414D01*
X94799600Y-90282586D01*
X94849381Y-90532854D01*
X94947031Y-90768602D01*
X95088797Y-90980769D01*
X95269231Y-91161203D01*
X95481398Y-91302969D01*
X95717146Y-91400619D01*
X95839719Y-91425000D01*
X95717146Y-91449381D01*
X95481398Y-91547031D01*
X95269231Y-91688797D01*
X95088797Y-91869231D01*
X94947031Y-92081398D01*
X94849381Y-92317146D01*
X94799600Y-92567414D01*
X94799600Y-92822586D01*
X94849381Y-93072854D01*
X94947031Y-93308602D01*
X95088797Y-93520769D01*
X95269231Y-93701203D01*
X95481398Y-93842969D01*
X95717146Y-93940619D01*
X95839719Y-93965000D01*
X95717146Y-93989381D01*
X95481398Y-94087031D01*
X95269231Y-94228797D01*
X95088797Y-94409231D01*
X94947031Y-94621398D01*
X94849381Y-94857146D01*
X94799600Y-95107414D01*
X94799600Y-95362586D01*
X94849381Y-95612854D01*
X94947031Y-95848602D01*
X95088797Y-96060769D01*
X95269231Y-96241203D01*
X95481398Y-96382969D01*
X95717146Y-96480619D01*
X95839719Y-96505000D01*
X95717146Y-96529381D01*
X95481398Y-96627031D01*
X95269231Y-96768797D01*
X95088797Y-96949231D01*
X94947031Y-97161398D01*
X94849381Y-97397146D01*
X94799600Y-97647414D01*
X94799600Y-97902586D01*
X94849381Y-98152854D01*
X94947031Y-98388602D01*
X95088797Y-98600769D01*
X95269231Y-98781203D01*
X95481398Y-98922969D01*
X95717146Y-99020619D01*
X95839719Y-99045000D01*
X95717146Y-99069381D01*
X95481398Y-99167031D01*
X95269231Y-99308797D01*
X95088797Y-99489231D01*
X94947031Y-99701398D01*
X94849381Y-99937146D01*
X94799600Y-100187414D01*
X94799600Y-100442586D01*
X94849381Y-100692854D01*
X94947031Y-100928602D01*
X95088797Y-101140769D01*
X95269231Y-101321203D01*
X95481398Y-101462969D01*
X95717146Y-101560619D01*
X95839719Y-101585000D01*
X95717146Y-101609381D01*
X95481398Y-101707031D01*
X95269231Y-101848797D01*
X95088797Y-102029231D01*
X94947031Y-102241398D01*
X94849381Y-102477146D01*
X94799600Y-102727414D01*
X94799600Y-102982586D01*
X94849381Y-103232854D01*
X94947031Y-103468602D01*
X95088797Y-103680769D01*
X95269231Y-103861203D01*
X95481398Y-104002969D01*
X95717146Y-104100619D01*
X95839719Y-104125000D01*
X95717146Y-104149381D01*
X95481398Y-104247031D01*
X95269231Y-104388797D01*
X95088797Y-104569231D01*
X94947031Y-104781398D01*
X94849381Y-105017146D01*
X94799600Y-105267414D01*
X94799600Y-105522586D01*
X94849381Y-105772854D01*
X94947031Y-106008602D01*
X95088797Y-106220769D01*
X95269231Y-106401203D01*
X95481398Y-106542969D01*
X95717146Y-106640619D01*
X95839719Y-106665000D01*
X95717146Y-106689381D01*
X95481398Y-106787031D01*
X95269231Y-106928797D01*
X95088797Y-107109231D01*
X94947031Y-107321398D01*
X94849381Y-107557146D01*
X94799600Y-107807414D01*
X94799600Y-108062586D01*
X94849381Y-108312854D01*
X94947031Y-108548602D01*
X95088797Y-108760769D01*
X95269231Y-108941203D01*
X95481398Y-109082969D01*
X95717146Y-109180619D01*
X95839719Y-109205000D01*
X95717146Y-109229381D01*
X95481398Y-109327031D01*
X95269231Y-109468797D01*
X95088797Y-109649231D01*
X94947031Y-109861398D01*
X94849381Y-110097146D01*
X94799600Y-110347414D01*
X94799600Y-110602586D01*
X94849381Y-110852854D01*
X94947031Y-111088602D01*
X95088797Y-111300769D01*
X95269231Y-111481203D01*
X95481398Y-111622969D01*
X95717146Y-111720619D01*
X95839719Y-111745000D01*
X95717146Y-111769381D01*
X95481398Y-111867031D01*
X95269231Y-112008797D01*
X95088797Y-112189231D01*
X94947031Y-112401398D01*
X94849381Y-112637146D01*
X94799600Y-112887414D01*
X94799600Y-113142586D01*
X94849381Y-113392854D01*
X94947031Y-113628602D01*
X95088797Y-113840769D01*
X95269231Y-114021203D01*
X95481398Y-114162969D01*
X95717146Y-114260619D01*
X95839719Y-114285000D01*
X95717146Y-114309381D01*
X95481398Y-114407031D01*
X95269231Y-114548797D01*
X95088797Y-114729231D01*
X94947031Y-114941398D01*
X94849381Y-115177146D01*
X94799600Y-115427414D01*
X94799600Y-115682586D01*
X94849381Y-115932854D01*
X94947031Y-116168602D01*
X95088797Y-116380769D01*
X95269231Y-116561203D01*
X95481398Y-116702969D01*
X95717146Y-116800619D01*
X95839719Y-116825000D01*
X95717146Y-116849381D01*
X95481398Y-116947031D01*
X95269231Y-117088797D01*
X95088797Y-117269231D01*
X94947031Y-117481398D01*
X94849381Y-117717146D01*
X94799600Y-117967414D01*
X94799600Y-118222586D01*
X94849381Y-118472854D01*
X94947031Y-118708602D01*
X95088797Y-118920769D01*
X95269231Y-119101203D01*
X95481398Y-119242969D01*
X95717146Y-119340619D01*
X95839719Y-119365000D01*
X95717146Y-119389381D01*
X95481398Y-119487031D01*
X95269231Y-119628797D01*
X95088797Y-119809231D01*
X94947031Y-120021398D01*
X94849381Y-120257146D01*
X94799600Y-120507414D01*
X94799600Y-120762586D01*
X94849381Y-121012854D01*
X94947031Y-121248602D01*
X95088797Y-121460769D01*
X95269231Y-121641203D01*
X95481398Y-121782969D01*
X95717146Y-121880619D01*
X95839719Y-121905000D01*
X95717146Y-121929381D01*
X95481398Y-122027031D01*
X95269231Y-122168797D01*
X95088797Y-122349231D01*
X94947031Y-122561398D01*
X94849381Y-122797146D01*
X94799600Y-123047414D01*
X94799600Y-123302586D01*
X94849381Y-123552854D01*
X94947031Y-123788602D01*
X95088797Y-124000769D01*
X95269231Y-124181203D01*
X95481398Y-124322969D01*
X95717146Y-124420619D01*
X95839719Y-124445000D01*
X95717146Y-124469381D01*
X95481398Y-124567031D01*
X95269231Y-124708797D01*
X95088797Y-124889231D01*
X94947031Y-125101398D01*
X94849381Y-125337146D01*
X94799600Y-125587414D01*
X94799600Y-125842586D01*
X94849381Y-126092854D01*
X94947031Y-126328602D01*
X95088797Y-126540769D01*
X95269231Y-126721203D01*
X95481398Y-126862969D01*
X95717146Y-126960619D01*
X95839719Y-126985000D01*
X95717146Y-127009381D01*
X95481398Y-127107031D01*
X95269231Y-127248797D01*
X95088797Y-127429231D01*
X94947031Y-127641398D01*
X94849381Y-127877146D01*
X94799600Y-128127414D01*
X94799600Y-128382586D01*
X94849381Y-128632854D01*
X94947031Y-128868602D01*
X95088797Y-129080769D01*
X95269231Y-129261203D01*
X95481398Y-129402969D01*
X95717146Y-129500619D01*
X95839719Y-129525000D01*
X95717146Y-129549381D01*
X95481398Y-129647031D01*
X95269231Y-129788797D01*
X95088797Y-129969231D01*
X94947031Y-130181398D01*
X94849381Y-130417146D01*
X94799600Y-130667414D01*
X94799600Y-130922586D01*
X94849381Y-131172854D01*
X94947031Y-131408602D01*
X95088797Y-131620769D01*
X95269231Y-131801203D01*
X95481398Y-131942969D01*
X95717146Y-132040619D01*
X95967414Y-132090400D01*
X96222586Y-132090400D01*
X96472854Y-132040619D01*
X96708602Y-131942969D01*
X96920769Y-131801203D01*
X97101203Y-131620769D01*
X97143812Y-131557000D01*
X102212577Y-131557000D01*
X102250000Y-131560686D01*
X102287423Y-131557000D01*
X102287426Y-131557000D01*
X102399378Y-131545974D01*
X102543015Y-131502402D01*
X102675392Y-131431645D01*
X102791422Y-131336422D01*
X102815284Y-131307346D01*
X107823000Y-126299630D01*
X107823000Y-126430369D01*
X95569370Y-138684000D01*
X76493841Y-138684000D01*
X76466662Y-138656821D01*
X76300256Y-138545632D01*
X76115356Y-138469044D01*
X75919067Y-138430000D01*
X75718933Y-138430000D01*
X75522644Y-138469044D01*
X75337744Y-138545632D01*
X75171338Y-138656821D01*
X75029821Y-138798338D01*
X74918632Y-138964744D01*
X74842044Y-139149644D01*
X74803000Y-139345933D01*
X74803000Y-139546067D01*
X74842044Y-139742356D01*
X74918632Y-139927256D01*
X75029821Y-140093662D01*
X75171338Y-140235179D01*
X75337744Y-140346368D01*
X75522644Y-140422956D01*
X75718933Y-140462000D01*
X75919067Y-140462000D01*
X76115356Y-140422956D01*
X76300256Y-140346368D01*
X76466662Y-140235179D01*
X76493841Y-140208000D01*
X95847577Y-140208000D01*
X95885000Y-140211686D01*
X95922423Y-140208000D01*
X95922426Y-140208000D01*
X96034378Y-140196974D01*
X96178015Y-140153402D01*
X96310392Y-140082645D01*
X96426422Y-139987422D01*
X96450284Y-139958346D01*
X106553001Y-129855630D01*
X106553000Y-138005340D01*
X106548700Y-138049000D01*
X106553000Y-138092660D01*
X106553000Y-138092666D01*
X106565864Y-138223273D01*
X106616697Y-138390850D01*
X106699247Y-138545290D01*
X106810341Y-138680659D01*
X106844264Y-138708499D01*
X107576001Y-139440237D01*
X107576000Y-144748854D01*
X107574465Y-144749880D01*
X107379880Y-144944465D01*
X107226995Y-145173273D01*
X107121686Y-145427510D01*
X107068000Y-145697408D01*
X107068000Y-145972592D01*
X107121686Y-146242490D01*
X107226995Y-146496727D01*
X107379880Y-146725535D01*
X107574465Y-146920120D01*
X107803273Y-147073005D01*
X108057510Y-147178314D01*
X108327408Y-147232000D01*
X108602592Y-147232000D01*
X108872490Y-147178314D01*
X109126727Y-147073005D01*
X109355535Y-146920120D01*
X109550120Y-146725535D01*
X109703005Y-146496727D01*
X109808314Y-146242490D01*
X109862000Y-145972592D01*
X109862000Y-145697408D01*
X109808314Y-145427510D01*
X109703005Y-145173273D01*
X109550120Y-144944465D01*
X109355535Y-144749880D01*
X109354000Y-144748854D01*
X109354000Y-139115659D01*
X109358300Y-139071999D01*
X109354000Y-139028339D01*
X109354000Y-139028333D01*
X109341136Y-138897726D01*
X109341136Y-138897724D01*
X109290302Y-138730147D01*
X109271529Y-138695026D01*
X109207753Y-138575709D01*
X109096659Y-138440341D01*
X109062741Y-138412505D01*
X108331000Y-137680765D01*
X108331000Y-131926067D01*
X108370044Y-132122356D01*
X108446632Y-132307256D01*
X108557821Y-132473662D01*
X108699338Y-132615179D01*
X108865744Y-132726368D01*
X109050644Y-132802956D01*
X109246933Y-132842000D01*
X109447067Y-132842000D01*
X109643356Y-132802956D01*
X109828256Y-132726368D01*
X109994662Y-132615179D01*
X110136179Y-132473662D01*
X110247368Y-132307256D01*
X110323956Y-132122356D01*
X110363000Y-131926067D01*
X110363000Y-131725933D01*
X110345380Y-131637352D01*
X110509231Y-131801203D01*
X110721398Y-131942969D01*
X110957146Y-132040619D01*
X111207414Y-132090400D01*
X111462586Y-132090400D01*
X111712854Y-132040619D01*
X111948602Y-131942969D01*
X112160769Y-131801203D01*
X112341203Y-131620769D01*
X112482969Y-131408602D01*
X112580619Y-131172854D01*
X112630400Y-130922586D01*
X112630400Y-130667414D01*
X112580619Y-130417146D01*
X112482969Y-130181398D01*
X112341203Y-129969231D01*
X112160769Y-129788797D01*
X111948602Y-129647031D01*
X111712854Y-129549381D01*
X111590281Y-129525000D01*
X111712854Y-129500619D01*
X111948602Y-129402969D01*
X112160769Y-129261203D01*
X112341203Y-129080769D01*
X112482969Y-128868602D01*
X112580619Y-128632854D01*
X112630400Y-128382586D01*
X112630400Y-128127414D01*
X112580619Y-127877146D01*
X112482969Y-127641398D01*
X112341203Y-127429231D01*
X112160769Y-127248797D01*
X111948602Y-127107031D01*
X111712854Y-127009381D01*
X111590281Y-126985000D01*
X111712854Y-126960619D01*
X111948602Y-126862969D01*
X112160769Y-126721203D01*
X112341203Y-126540769D01*
X112383812Y-126477000D01*
X115112370Y-126477000D01*
X116205001Y-127569631D01*
X116205000Y-147438577D01*
X116201314Y-147476000D01*
X116205000Y-147513423D01*
X116205000Y-147513425D01*
X116216026Y-147625377D01*
X116259598Y-147769014D01*
X116259599Y-147769015D01*
X116330355Y-147901392D01*
X116369983Y-147949678D01*
X116425578Y-148017422D01*
X116454654Y-148041284D01*
X120845543Y-152432174D01*
X120750029Y-152662765D01*
X120669500Y-153067611D01*
X120669500Y-153480389D01*
X120750029Y-153885235D01*
X120907992Y-154266591D01*
X121137319Y-154609803D01*
X121429197Y-154901681D01*
X121772409Y-155131008D01*
X122153765Y-155288971D01*
X122558611Y-155369500D01*
X122971389Y-155369500D01*
X123376235Y-155288971D01*
X123757591Y-155131008D01*
X124100803Y-154901681D01*
X124392681Y-154609803D01*
X124516438Y-154424587D01*
X162009192Y-154424587D01*
X162965000Y-155380395D01*
X163920808Y-154424587D01*
X163825044Y-154160186D01*
X163535429Y-154019296D01*
X163223892Y-153937616D01*
X162902405Y-153918282D01*
X162583325Y-153962039D01*
X162278912Y-154067205D01*
X162104956Y-154160186D01*
X162009192Y-154424587D01*
X124516438Y-154424587D01*
X124622008Y-154266591D01*
X124779971Y-153885235D01*
X124860500Y-153480389D01*
X124860500Y-153067611D01*
X124779971Y-152662765D01*
X124622008Y-152281409D01*
X124392681Y-151938197D01*
X124100803Y-151646319D01*
X123757591Y-151416992D01*
X123376235Y-151259029D01*
X122971389Y-151178500D01*
X122558611Y-151178500D01*
X122153765Y-151259029D01*
X121923174Y-151354543D01*
X120607160Y-150038529D01*
X121481077Y-150038529D01*
X121632334Y-150350045D01*
X122000393Y-150536910D01*
X122397834Y-150648381D01*
X122809386Y-150680172D01*
X123219231Y-150631063D01*
X123611621Y-150502940D01*
X123897666Y-150350045D01*
X123912755Y-150318967D01*
X161330000Y-150318967D01*
X161330000Y-150641033D01*
X161392832Y-150956912D01*
X161516082Y-151254463D01*
X161695013Y-151522252D01*
X161922748Y-151749987D01*
X162190537Y-151928918D01*
X162488088Y-152052168D01*
X162803967Y-152115000D01*
X163126033Y-152115000D01*
X163441912Y-152052168D01*
X163739463Y-151928918D01*
X164007252Y-151749987D01*
X164234987Y-151522252D01*
X164413918Y-151254463D01*
X164537168Y-150956912D01*
X164600000Y-150641033D01*
X164600000Y-150318967D01*
X164537168Y-150003088D01*
X164413918Y-149705537D01*
X164234987Y-149437748D01*
X164007252Y-149210013D01*
X163739463Y-149031082D01*
X163441912Y-148907832D01*
X163126033Y-148845000D01*
X162803967Y-148845000D01*
X162488088Y-148907832D01*
X162190537Y-149031082D01*
X161922748Y-149210013D01*
X161695013Y-149437748D01*
X161516082Y-149705537D01*
X161392832Y-150003088D01*
X161330000Y-150318967D01*
X123912755Y-150318967D01*
X124048923Y-150038529D01*
X122765000Y-148754605D01*
X121481077Y-150038529D01*
X120607160Y-150038529D01*
X119188017Y-148619386D01*
X120659828Y-148619386D01*
X120708937Y-149029231D01*
X120837060Y-149421621D01*
X120989955Y-149707666D01*
X121301471Y-149858923D01*
X122585395Y-148575000D01*
X122944605Y-148575000D01*
X124228529Y-149858923D01*
X124540045Y-149707666D01*
X124726910Y-149339607D01*
X124838381Y-148942166D01*
X124870172Y-148530614D01*
X124821063Y-148120769D01*
X124692940Y-147728379D01*
X124540045Y-147442334D01*
X124228529Y-147291077D01*
X122944605Y-148575000D01*
X122585395Y-148575000D01*
X121301471Y-147291077D01*
X120989955Y-147442334D01*
X120803090Y-147810393D01*
X120691619Y-148207834D01*
X120659828Y-148619386D01*
X119188017Y-148619386D01*
X117729000Y-147160370D01*
X117729000Y-147111471D01*
X121481077Y-147111471D01*
X122765000Y-148395395D01*
X124048923Y-147111471D01*
X123897666Y-146799955D01*
X123529607Y-146613090D01*
X123132166Y-146501619D01*
X122720614Y-146469828D01*
X122310769Y-146518937D01*
X121918379Y-146647060D01*
X121632334Y-146799955D01*
X121481077Y-147111471D01*
X117729000Y-147111471D01*
X117729000Y-142555630D01*
X119561721Y-144388352D01*
X119585578Y-144417422D01*
X119614648Y-144441279D01*
X119701607Y-144512645D01*
X119772364Y-144550465D01*
X119833985Y-144583402D01*
X119977622Y-144626974D01*
X120089574Y-144638000D01*
X120089577Y-144638000D01*
X120127000Y-144641686D01*
X120164423Y-144638000D01*
X120812478Y-144638000D01*
X120907992Y-144868591D01*
X121137319Y-145211803D01*
X121429197Y-145503681D01*
X121772409Y-145733008D01*
X122153765Y-145890971D01*
X122558611Y-145971500D01*
X122971389Y-145971500D01*
X123376235Y-145890971D01*
X123757591Y-145733008D01*
X124100803Y-145503681D01*
X124365517Y-145238967D01*
X161330000Y-145238967D01*
X161330000Y-145561033D01*
X161392832Y-145876912D01*
X161516082Y-146174463D01*
X161695013Y-146442252D01*
X161922748Y-146669987D01*
X162190537Y-146848918D01*
X162488088Y-146972168D01*
X162803967Y-147035000D01*
X163126033Y-147035000D01*
X163441912Y-146972168D01*
X163739463Y-146848918D01*
X164007252Y-146669987D01*
X164234987Y-146442252D01*
X164413918Y-146174463D01*
X164537168Y-145876912D01*
X164600000Y-145561033D01*
X164600000Y-145238967D01*
X164537168Y-144923088D01*
X164413918Y-144625537D01*
X164234987Y-144357748D01*
X164007252Y-144130013D01*
X163739463Y-143951082D01*
X163441912Y-143827832D01*
X163126033Y-143765000D01*
X162803967Y-143765000D01*
X162488088Y-143827832D01*
X162190537Y-143951082D01*
X161922748Y-144130013D01*
X161695013Y-144357748D01*
X161516082Y-144625537D01*
X161392832Y-144923088D01*
X161330000Y-145238967D01*
X124365517Y-145238967D01*
X124392681Y-145211803D01*
X124622008Y-144868591D01*
X124779971Y-144487235D01*
X124860500Y-144082389D01*
X124860500Y-143669611D01*
X124779971Y-143264765D01*
X124622008Y-142883409D01*
X124392681Y-142540197D01*
X124100803Y-142248319D01*
X123757591Y-142018992D01*
X123376235Y-141861029D01*
X122971389Y-141780500D01*
X122558611Y-141780500D01*
X122153765Y-141861029D01*
X121772409Y-142018992D01*
X121429197Y-142248319D01*
X121137319Y-142540197D01*
X120907992Y-142883409D01*
X120812478Y-143114000D01*
X120442631Y-143114000D01*
X118745000Y-141416370D01*
X118745000Y-135287611D01*
X120669500Y-135287611D01*
X120669500Y-135700389D01*
X120750029Y-136105235D01*
X120907992Y-136486591D01*
X121137319Y-136829803D01*
X121429197Y-137121681D01*
X121772409Y-137351008D01*
X122153765Y-137508971D01*
X122558611Y-137589500D01*
X122971389Y-137589500D01*
X123376235Y-137508971D01*
X123757591Y-137351008D01*
X124100803Y-137121681D01*
X124392681Y-136829803D01*
X124622008Y-136486591D01*
X124779971Y-136105235D01*
X124860500Y-135700389D01*
X124860500Y-135287611D01*
X124779971Y-134882765D01*
X124622008Y-134501409D01*
X124392681Y-134158197D01*
X124100803Y-133866319D01*
X123757591Y-133636992D01*
X123376235Y-133479029D01*
X122971389Y-133398500D01*
X122558611Y-133398500D01*
X122153765Y-133479029D01*
X121772409Y-133636992D01*
X121429197Y-133866319D01*
X121137319Y-134158197D01*
X120907992Y-134501409D01*
X120750029Y-134882765D01*
X120669500Y-135287611D01*
X118745000Y-135287611D01*
X118745000Y-132258529D01*
X121481077Y-132258529D01*
X121632334Y-132570045D01*
X122000393Y-132756910D01*
X122397834Y-132868381D01*
X122809386Y-132900172D01*
X123219231Y-132851063D01*
X123611621Y-132722940D01*
X123897666Y-132570045D01*
X124048923Y-132258529D01*
X122765000Y-130974605D01*
X121481077Y-132258529D01*
X118745000Y-132258529D01*
X118745000Y-130839386D01*
X120659828Y-130839386D01*
X120708937Y-131249231D01*
X120837060Y-131641621D01*
X120989955Y-131927666D01*
X121301471Y-132078923D01*
X122585395Y-130795000D01*
X122944605Y-130795000D01*
X124228529Y-132078923D01*
X124540045Y-131927666D01*
X124726910Y-131559607D01*
X124838381Y-131162166D01*
X124870172Y-130750614D01*
X124860802Y-130672408D01*
X133858000Y-130672408D01*
X133858000Y-130947592D01*
X133911686Y-131217490D01*
X134016995Y-131471727D01*
X134169880Y-131700535D01*
X134364465Y-131895120D01*
X134593273Y-132048005D01*
X134847510Y-132153314D01*
X135117408Y-132207000D01*
X135392592Y-132207000D01*
X135662490Y-132153314D01*
X135916727Y-132048005D01*
X136145535Y-131895120D01*
X136340120Y-131700535D01*
X136493005Y-131471727D01*
X136598314Y-131217490D01*
X136652000Y-130947592D01*
X136652000Y-130672408D01*
X136598314Y-130402510D01*
X136493005Y-130148273D01*
X136340120Y-129919465D01*
X136145535Y-129724880D01*
X135916727Y-129571995D01*
X135662490Y-129466686D01*
X135392592Y-129413000D01*
X135117408Y-129413000D01*
X134847510Y-129466686D01*
X134593273Y-129571995D01*
X134364465Y-129724880D01*
X134169880Y-129919465D01*
X134016995Y-130148273D01*
X133911686Y-130402510D01*
X133858000Y-130672408D01*
X124860802Y-130672408D01*
X124821063Y-130340769D01*
X124692940Y-129948379D01*
X124540045Y-129662334D01*
X124228529Y-129511077D01*
X122944605Y-130795000D01*
X122585395Y-130795000D01*
X121301471Y-129511077D01*
X120989955Y-129662334D01*
X120803090Y-130030393D01*
X120691619Y-130427834D01*
X120659828Y-130839386D01*
X118745000Y-130839386D01*
X118745000Y-129331471D01*
X121481077Y-129331471D01*
X122765000Y-130615395D01*
X124048923Y-129331471D01*
X123897666Y-129019955D01*
X123529607Y-128833090D01*
X123132166Y-128721619D01*
X122720614Y-128689828D01*
X122310769Y-128738937D01*
X121918379Y-128867060D01*
X121632334Y-129019955D01*
X121481077Y-129331471D01*
X118745000Y-129331471D01*
X118745000Y-125889611D01*
X120669500Y-125889611D01*
X120669500Y-126302389D01*
X120750029Y-126707235D01*
X120907992Y-127088591D01*
X121137319Y-127431803D01*
X121429197Y-127723681D01*
X121772409Y-127953008D01*
X122153765Y-128110971D01*
X122558611Y-128191500D01*
X122971389Y-128191500D01*
X123376235Y-128110971D01*
X123757591Y-127953008D01*
X124100803Y-127723681D01*
X124392681Y-127431803D01*
X124622008Y-127088591D01*
X124779971Y-126707235D01*
X124860500Y-126302389D01*
X124860500Y-125889611D01*
X124779971Y-125484765D01*
X124622008Y-125103409D01*
X124392681Y-124760197D01*
X124100803Y-124468319D01*
X123757591Y-124238992D01*
X123376235Y-124081029D01*
X122971389Y-124000500D01*
X122558611Y-124000500D01*
X122153765Y-124081029D01*
X121772409Y-124238992D01*
X121429197Y-124468319D01*
X121137319Y-124760197D01*
X120907992Y-125103409D01*
X120750029Y-125484765D01*
X120669500Y-125889611D01*
X118745000Y-125889611D01*
X118745000Y-125767423D01*
X118748686Y-125730000D01*
X118745000Y-125692574D01*
X118733974Y-125580622D01*
X118690402Y-125436985D01*
X118637037Y-125337146D01*
X118619645Y-125304607D01*
X118584857Y-125262219D01*
X118524422Y-125188578D01*
X118495346Y-125164716D01*
X115993284Y-122662654D01*
X115969422Y-122633578D01*
X115853392Y-122538355D01*
X115721015Y-122467598D01*
X115577378Y-122424026D01*
X115465426Y-122413000D01*
X115465423Y-122413000D01*
X115428000Y-122409314D01*
X115390577Y-122413000D01*
X112383812Y-122413000D01*
X112341203Y-122349231D01*
X112160769Y-122168797D01*
X111948602Y-122027031D01*
X111712854Y-121929381D01*
X111590281Y-121905000D01*
X111712854Y-121880619D01*
X111948602Y-121782969D01*
X112160769Y-121641203D01*
X112341203Y-121460769D01*
X112482969Y-121248602D01*
X112580619Y-121012854D01*
X112630400Y-120762586D01*
X112630400Y-120507414D01*
X112580619Y-120257146D01*
X112482969Y-120021398D01*
X112341203Y-119809231D01*
X112160769Y-119628797D01*
X111948602Y-119487031D01*
X111712854Y-119389381D01*
X111590281Y-119365000D01*
X111712854Y-119340619D01*
X111948602Y-119242969D01*
X112160769Y-119101203D01*
X112341203Y-118920769D01*
X112482969Y-118708602D01*
X112580619Y-118472854D01*
X112630400Y-118222586D01*
X112630400Y-117967414D01*
X112580619Y-117717146D01*
X112482969Y-117481398D01*
X112341203Y-117269231D01*
X112160769Y-117088797D01*
X111948602Y-116947031D01*
X111712854Y-116849381D01*
X111590281Y-116825000D01*
X111712854Y-116800619D01*
X111948602Y-116702969D01*
X112160769Y-116561203D01*
X112341203Y-116380769D01*
X112482969Y-116168602D01*
X112580619Y-115932854D01*
X112630400Y-115682586D01*
X112630400Y-115427414D01*
X112580619Y-115177146D01*
X112482969Y-114941398D01*
X112341203Y-114729231D01*
X112160769Y-114548797D01*
X111948602Y-114407031D01*
X111712854Y-114309381D01*
X111590281Y-114285000D01*
X111712854Y-114260619D01*
X111948602Y-114162969D01*
X112160769Y-114021203D01*
X112341203Y-113840769D01*
X112383812Y-113777000D01*
X114096370Y-113777000D01*
X114935001Y-114615632D01*
X114935000Y-118326577D01*
X114931314Y-118364000D01*
X114935000Y-118401423D01*
X114935000Y-118401425D01*
X114946026Y-118513377D01*
X114989598Y-118657014D01*
X115017172Y-118708602D01*
X115060355Y-118789392D01*
X115083342Y-118817401D01*
X115155578Y-118905422D01*
X115184654Y-118929284D01*
X117163720Y-120908351D01*
X117187578Y-120937422D01*
X117216648Y-120961279D01*
X117303607Y-121032645D01*
X117355519Y-121060392D01*
X117435985Y-121103402D01*
X117579622Y-121146974D01*
X117691574Y-121158000D01*
X117691577Y-121158000D01*
X117729000Y-121161686D01*
X117766423Y-121158000D01*
X133669370Y-121158000D01*
X143032159Y-130520790D01*
X143002000Y-130672408D01*
X143002000Y-130947592D01*
X143055686Y-131217490D01*
X143160995Y-131471727D01*
X143313880Y-131700535D01*
X143508465Y-131895120D01*
X143737273Y-132048005D01*
X143991510Y-132153314D01*
X144261408Y-132207000D01*
X144536592Y-132207000D01*
X144806490Y-132153314D01*
X145060727Y-132048005D01*
X145289535Y-131895120D01*
X145484120Y-131700535D01*
X145637005Y-131471727D01*
X145742314Y-131217490D01*
X145796000Y-130947592D01*
X145796000Y-130672408D01*
X145742314Y-130402510D01*
X145637005Y-130148273D01*
X145484120Y-129919465D01*
X145289535Y-129724880D01*
X145060727Y-129571995D01*
X144806490Y-129466686D01*
X144536592Y-129413000D01*
X144261408Y-129413000D01*
X144109790Y-129443159D01*
X134550284Y-119883654D01*
X134526422Y-119854578D01*
X134410392Y-119759355D01*
X134278015Y-119688598D01*
X134134378Y-119645026D01*
X134022426Y-119634000D01*
X134022423Y-119634000D01*
X133985000Y-119630314D01*
X133947577Y-119634000D01*
X118044631Y-119634000D01*
X116459000Y-118048370D01*
X116459000Y-116237611D01*
X120669500Y-116237611D01*
X120669500Y-116650389D01*
X120750029Y-117055235D01*
X120907992Y-117436591D01*
X121137319Y-117779803D01*
X121429197Y-118071681D01*
X121772409Y-118301008D01*
X122153765Y-118458971D01*
X122558611Y-118539500D01*
X122971389Y-118539500D01*
X123376235Y-118458971D01*
X123757591Y-118301008D01*
X124100803Y-118071681D01*
X124392681Y-117779803D01*
X124622008Y-117436591D01*
X124779971Y-117055235D01*
X124860500Y-116650389D01*
X124860500Y-116237611D01*
X124779971Y-115832765D01*
X124622008Y-115451409D01*
X124392681Y-115108197D01*
X124100803Y-114816319D01*
X123757591Y-114586992D01*
X123376235Y-114429029D01*
X122971389Y-114348500D01*
X122558611Y-114348500D01*
X122153765Y-114429029D01*
X121772409Y-114586992D01*
X121429197Y-114816319D01*
X121137319Y-115108197D01*
X120907992Y-115451409D01*
X120750029Y-115832765D01*
X120669500Y-116237611D01*
X116459000Y-116237611D01*
X116459000Y-114337422D01*
X116462686Y-114299999D01*
X116454971Y-114221670D01*
X116447974Y-114150622D01*
X116404402Y-114006985D01*
X116333645Y-113874608D01*
X116238422Y-113758578D01*
X116209352Y-113734721D01*
X115683160Y-113208529D01*
X121481077Y-113208529D01*
X121632334Y-113520045D01*
X122000393Y-113706910D01*
X122397834Y-113818381D01*
X122809386Y-113850172D01*
X123219231Y-113801063D01*
X123611621Y-113672940D01*
X123897666Y-113520045D01*
X124048923Y-113208529D01*
X122765000Y-111924605D01*
X121481077Y-113208529D01*
X115683160Y-113208529D01*
X114977284Y-112502654D01*
X114953422Y-112473578D01*
X114837392Y-112378355D01*
X114705015Y-112307598D01*
X114561378Y-112264026D01*
X114449426Y-112253000D01*
X114449423Y-112253000D01*
X114412000Y-112249314D01*
X114374577Y-112253000D01*
X112383812Y-112253000D01*
X112341203Y-112189231D01*
X112160769Y-112008797D01*
X111948602Y-111867031D01*
X111761151Y-111789386D01*
X120659828Y-111789386D01*
X120708937Y-112199231D01*
X120837060Y-112591621D01*
X120989955Y-112877666D01*
X121301471Y-113028923D01*
X122585395Y-111745000D01*
X122944605Y-111745000D01*
X124228529Y-113028923D01*
X124540045Y-112877666D01*
X124726910Y-112509607D01*
X124838381Y-112112166D01*
X124870172Y-111700614D01*
X124821063Y-111290769D01*
X124692940Y-110898379D01*
X124540045Y-110612334D01*
X124228529Y-110461077D01*
X122944605Y-111745000D01*
X122585395Y-111745000D01*
X121301471Y-110461077D01*
X120989955Y-110612334D01*
X120803090Y-110980393D01*
X120691619Y-111377834D01*
X120659828Y-111789386D01*
X111761151Y-111789386D01*
X111712854Y-111769381D01*
X111590281Y-111745000D01*
X111712854Y-111720619D01*
X111948602Y-111622969D01*
X112160769Y-111481203D01*
X112341203Y-111300769D01*
X112383812Y-111237000D01*
X113642577Y-111237000D01*
X113680000Y-111240686D01*
X113717423Y-111237000D01*
X113717426Y-111237000D01*
X113829378Y-111225974D01*
X113973015Y-111182402D01*
X114105392Y-111111645D01*
X114221422Y-111016422D01*
X114245284Y-110987346D01*
X114951159Y-110281471D01*
X121481077Y-110281471D01*
X122765000Y-111565395D01*
X124048923Y-110281471D01*
X123897666Y-109969955D01*
X123529607Y-109783090D01*
X123132166Y-109671619D01*
X122720614Y-109639828D01*
X122310769Y-109688937D01*
X121918379Y-109817060D01*
X121632334Y-109969955D01*
X121481077Y-110281471D01*
X114951159Y-110281471D01*
X116463352Y-108769279D01*
X116492422Y-108745422D01*
X116551298Y-108673681D01*
X116587645Y-108629393D01*
X116658401Y-108497016D01*
X116658402Y-108497015D01*
X116701974Y-108353378D01*
X116713000Y-108241426D01*
X116713000Y-108241424D01*
X116716686Y-108204001D01*
X116713000Y-108166578D01*
X116713000Y-106839611D01*
X120669500Y-106839611D01*
X120669500Y-107252389D01*
X120750029Y-107657235D01*
X120907992Y-108038591D01*
X121137319Y-108381803D01*
X121429197Y-108673681D01*
X121772409Y-108903008D01*
X122153765Y-109060971D01*
X122558611Y-109141500D01*
X122971389Y-109141500D01*
X123376235Y-109060971D01*
X123757591Y-108903008D01*
X124100803Y-108673681D01*
X124392681Y-108381803D01*
X124622008Y-108038591D01*
X124779971Y-107657235D01*
X124860500Y-107252389D01*
X124860500Y-106839611D01*
X124779971Y-106434765D01*
X124622008Y-106053409D01*
X124392681Y-105710197D01*
X124100803Y-105418319D01*
X123757591Y-105188992D01*
X123376235Y-105031029D01*
X122971389Y-104950500D01*
X122558611Y-104950500D01*
X122153765Y-105031029D01*
X121772409Y-105188992D01*
X121429197Y-105418319D01*
X121137319Y-105710197D01*
X120907992Y-106053409D01*
X120750029Y-106434765D01*
X120669500Y-106839611D01*
X116713000Y-106839611D01*
X116713000Y-104709630D01*
X118806631Y-102616000D01*
X140297577Y-102616000D01*
X140335000Y-102619686D01*
X140372423Y-102616000D01*
X140372426Y-102616000D01*
X140484378Y-102604974D01*
X140628015Y-102561402D01*
X140760392Y-102490645D01*
X140876422Y-102395422D01*
X140900284Y-102366346D01*
X144911352Y-98355279D01*
X144940422Y-98331422D01*
X144967772Y-98298096D01*
X145035645Y-98215393D01*
X145106401Y-98083016D01*
X145106402Y-98083015D01*
X145149974Y-97939378D01*
X145161000Y-97827426D01*
X145161000Y-97827423D01*
X145164686Y-97790000D01*
X145161000Y-97752577D01*
X145161000Y-74831005D01*
X145289535Y-74745120D01*
X145484120Y-74550535D01*
X145637005Y-74321727D01*
X145742314Y-74067490D01*
X145796000Y-73797592D01*
X145796000Y-73522408D01*
X145742314Y-73252510D01*
X145637005Y-72998273D01*
X145484120Y-72769465D01*
X145289535Y-72574880D01*
X145060727Y-72421995D01*
X144806490Y-72316686D01*
X144536592Y-72263000D01*
X144261408Y-72263000D01*
X143991510Y-72316686D01*
X143737273Y-72421995D01*
X143508465Y-72574880D01*
X143313880Y-72769465D01*
X143160995Y-72998273D01*
X143055686Y-73252510D01*
X143002000Y-73522408D01*
X143002000Y-73797592D01*
X143055686Y-74067490D01*
X143160995Y-74321727D01*
X143313880Y-74550535D01*
X143508465Y-74745120D01*
X143637000Y-74831005D01*
X143637001Y-97474368D01*
X140019370Y-101092000D01*
X118528422Y-101092000D01*
X118490999Y-101088314D01*
X118453576Y-101092000D01*
X118453574Y-101092000D01*
X118341622Y-101103026D01*
X118197985Y-101146598D01*
X118065608Y-101217355D01*
X117949578Y-101312578D01*
X117925721Y-101341648D01*
X115438654Y-103828716D01*
X115409578Y-103852578D01*
X115353983Y-103920322D01*
X115314355Y-103968608D01*
X115295989Y-104002969D01*
X115243598Y-104100986D01*
X115200026Y-104244623D01*
X115189000Y-104356574D01*
X115185314Y-104394000D01*
X115189000Y-104431423D01*
X115189001Y-107888368D01*
X113364370Y-109713000D01*
X112383812Y-109713000D01*
X112341203Y-109649231D01*
X112160769Y-109468797D01*
X111948602Y-109327031D01*
X111712854Y-109229381D01*
X111593475Y-109205635D01*
X111663092Y-109194641D01*
X111902532Y-109106431D01*
X111993706Y-109057697D01*
X112048358Y-108827963D01*
X111335000Y-108114605D01*
X110621642Y-108827963D01*
X110676294Y-109057697D01*
X110907978Y-109164632D01*
X111077569Y-109205428D01*
X110957146Y-109229381D01*
X110721398Y-109327031D01*
X110509231Y-109468797D01*
X110328797Y-109649231D01*
X110187031Y-109861398D01*
X110089381Y-110097146D01*
X110039600Y-110347414D01*
X110039600Y-110602586D01*
X110089381Y-110852854D01*
X110187031Y-111088602D01*
X110328797Y-111300769D01*
X110509231Y-111481203D01*
X110721398Y-111622969D01*
X110957146Y-111720619D01*
X111079719Y-111745000D01*
X110957146Y-111769381D01*
X110721398Y-111867031D01*
X110509231Y-112008797D01*
X110328797Y-112189231D01*
X110187031Y-112401398D01*
X110089381Y-112637146D01*
X110039600Y-112887414D01*
X110039600Y-113142586D01*
X110089381Y-113392854D01*
X110187031Y-113628602D01*
X110328797Y-113840769D01*
X110509231Y-114021203D01*
X110721398Y-114162969D01*
X110957146Y-114260619D01*
X111079719Y-114285000D01*
X110957146Y-114309381D01*
X110721398Y-114407031D01*
X110509231Y-114548797D01*
X110328797Y-114729231D01*
X110286188Y-114793000D01*
X110161423Y-114793000D01*
X110124000Y-114789314D01*
X110086577Y-114793000D01*
X110086574Y-114793000D01*
X109974622Y-114804026D01*
X109830985Y-114847598D01*
X109769364Y-114880535D01*
X109698607Y-114918355D01*
X109670530Y-114941398D01*
X109582578Y-115013578D01*
X109558716Y-115042654D01*
X108077000Y-116524370D01*
X108077000Y-108011044D01*
X110035554Y-108011044D01*
X110075359Y-108263092D01*
X110163569Y-108502532D01*
X110212303Y-108593706D01*
X110442037Y-108648358D01*
X111155395Y-107935000D01*
X111514605Y-107935000D01*
X112227963Y-108648358D01*
X112457697Y-108593706D01*
X112564632Y-108362022D01*
X112624312Y-108113927D01*
X112634446Y-107858956D01*
X112594641Y-107606908D01*
X112506431Y-107367468D01*
X112457697Y-107276294D01*
X112227963Y-107221642D01*
X111514605Y-107935000D01*
X111155395Y-107935000D01*
X110442037Y-107221642D01*
X110212303Y-107276294D01*
X110105368Y-107507978D01*
X110045688Y-107756073D01*
X110035554Y-108011044D01*
X108077000Y-108011044D01*
X108077000Y-68746841D01*
X108104179Y-68719662D01*
X108215368Y-68553256D01*
X108291956Y-68368356D01*
X108331000Y-68172067D01*
X108331000Y-67971933D01*
X108291956Y-67775644D01*
X108215368Y-67590744D01*
X108104179Y-67424338D01*
X107962662Y-67282821D01*
X107796256Y-67171632D01*
X107611356Y-67095044D01*
X107415067Y-67056000D01*
X107214933Y-67056000D01*
X107018644Y-67095044D01*
X106960448Y-67119150D01*
X106945368Y-67082744D01*
X106834179Y-66916338D01*
X106692662Y-66774821D01*
X106526256Y-66663632D01*
X106341356Y-66587044D01*
X106145067Y-66548000D01*
X105944933Y-66548000D01*
X105748644Y-66587044D01*
X105563744Y-66663632D01*
X105397338Y-66774821D01*
X105255821Y-66916338D01*
X105144632Y-67082744D01*
X105068044Y-67267644D01*
X105029000Y-67463933D01*
X105029000Y-67664067D01*
X105068044Y-67860356D01*
X105144632Y-68045256D01*
X105255821Y-68211662D01*
X105283000Y-68238841D01*
X105283001Y-124144368D01*
X101934370Y-127493000D01*
X97143812Y-127493000D01*
X97101203Y-127429231D01*
X96920769Y-127248797D01*
X96708602Y-127107031D01*
X96472854Y-127009381D01*
X96350281Y-126985000D01*
X96472854Y-126960619D01*
X96708602Y-126862969D01*
X96920769Y-126721203D01*
X97101203Y-126540769D01*
X97242969Y-126328602D01*
X97340619Y-126092854D01*
X97390400Y-125842586D01*
X97390400Y-125587414D01*
X97340619Y-125337146D01*
X97242969Y-125101398D01*
X97101203Y-124889231D01*
X96920769Y-124708797D01*
X96708602Y-124567031D01*
X96472854Y-124469381D01*
X96350281Y-124445000D01*
X96472854Y-124420619D01*
X96708602Y-124322969D01*
X96920769Y-124181203D01*
X97101203Y-124000769D01*
X97242969Y-123788602D01*
X97340619Y-123552854D01*
X97390400Y-123302586D01*
X97390400Y-123047414D01*
X97340619Y-122797146D01*
X97242969Y-122561398D01*
X97101203Y-122349231D01*
X96920769Y-122168797D01*
X96708602Y-122027031D01*
X96472854Y-121929381D01*
X96350281Y-121905000D01*
X96472854Y-121880619D01*
X96708602Y-121782969D01*
X96920769Y-121641203D01*
X97101203Y-121460769D01*
X97143812Y-121397000D01*
X97640577Y-121397000D01*
X97678000Y-121400686D01*
X97715423Y-121397000D01*
X97715426Y-121397000D01*
X97827378Y-121385974D01*
X97971015Y-121342402D01*
X98103392Y-121271645D01*
X98219422Y-121176422D01*
X98243284Y-121147346D01*
X99248631Y-120142000D01*
X99287067Y-120142000D01*
X99483356Y-120102956D01*
X99668256Y-120026368D01*
X99834662Y-119915179D01*
X99976179Y-119773662D01*
X100087368Y-119607256D01*
X100163956Y-119422356D01*
X100203000Y-119226067D01*
X100203000Y-119025933D01*
X100163956Y-118829644D01*
X100087368Y-118644744D01*
X99976179Y-118478338D01*
X99834662Y-118336821D01*
X99668256Y-118225632D01*
X99483356Y-118149044D01*
X99287067Y-118110000D01*
X99086933Y-118110000D01*
X98890644Y-118149044D01*
X98705744Y-118225632D01*
X98539338Y-118336821D01*
X98397821Y-118478338D01*
X98286632Y-118644744D01*
X98210044Y-118829644D01*
X98171000Y-119025933D01*
X98171000Y-119064369D01*
X97362370Y-119873000D01*
X97143812Y-119873000D01*
X97101203Y-119809231D01*
X96920769Y-119628797D01*
X96708602Y-119487031D01*
X96472854Y-119389381D01*
X96350281Y-119365000D01*
X96472854Y-119340619D01*
X96708602Y-119242969D01*
X96920769Y-119101203D01*
X97101203Y-118920769D01*
X97143812Y-118857000D01*
X97640577Y-118857000D01*
X97678000Y-118860686D01*
X97715423Y-118857000D01*
X97715426Y-118857000D01*
X97827378Y-118845974D01*
X97971015Y-118802402D01*
X98103392Y-118731645D01*
X98219422Y-118636422D01*
X98243284Y-118607346D01*
X99248631Y-117602000D01*
X99287067Y-117602000D01*
X99483356Y-117562956D01*
X99668256Y-117486368D01*
X99834662Y-117375179D01*
X99976179Y-117233662D01*
X100087368Y-117067256D01*
X100163956Y-116882356D01*
X100203000Y-116686067D01*
X100203000Y-116485933D01*
X100163956Y-116289644D01*
X100087368Y-116104744D01*
X99976179Y-115938338D01*
X99936236Y-115898395D01*
X100711001Y-115123631D01*
X100711000Y-115657159D01*
X100683821Y-115684338D01*
X100572632Y-115850744D01*
X100496044Y-116035644D01*
X100457000Y-116231933D01*
X100457000Y-116432067D01*
X100496044Y-116628356D01*
X100572632Y-116813256D01*
X100683821Y-116979662D01*
X100825338Y-117121179D01*
X100991744Y-117232368D01*
X101176644Y-117308956D01*
X101372933Y-117348000D01*
X101573067Y-117348000D01*
X101769356Y-117308956D01*
X101954256Y-117232368D01*
X102120662Y-117121179D01*
X102262179Y-116979662D01*
X102373368Y-116813256D01*
X102449956Y-116628356D01*
X102489000Y-116432067D01*
X102489000Y-116231933D01*
X102449956Y-116035644D01*
X102373368Y-115850744D01*
X102262179Y-115684338D01*
X102235000Y-115657159D01*
X102235000Y-115285381D01*
X102388933Y-115316000D01*
X102589067Y-115316000D01*
X102785356Y-115276956D01*
X102970256Y-115200368D01*
X103136662Y-115089179D01*
X103143856Y-115081985D01*
X103223821Y-115201662D01*
X103365338Y-115343179D01*
X103531744Y-115454368D01*
X103716644Y-115530956D01*
X103912933Y-115570000D01*
X104113067Y-115570000D01*
X104309356Y-115530956D01*
X104494256Y-115454368D01*
X104660662Y-115343179D01*
X104802179Y-115201662D01*
X104913368Y-115035256D01*
X104989956Y-114850356D01*
X105029000Y-114654067D01*
X105029000Y-114453933D01*
X104989956Y-114257644D01*
X104913368Y-114072744D01*
X104802179Y-113906338D01*
X104775000Y-113879159D01*
X104775000Y-88937423D01*
X104778686Y-88900000D01*
X104774707Y-88859600D01*
X104763974Y-88750622D01*
X104720402Y-88606985D01*
X104649646Y-88474609D01*
X104649645Y-88474607D01*
X104578279Y-88387648D01*
X104554422Y-88358578D01*
X104525353Y-88334722D01*
X99254685Y-83064055D01*
X99230823Y-83034979D01*
X99114793Y-82939756D01*
X98982416Y-82868999D01*
X98838779Y-82825427D01*
X98726827Y-82814401D01*
X98726824Y-82814401D01*
X98689401Y-82810715D01*
X98651978Y-82814401D01*
X97360202Y-82814401D01*
X97390400Y-82662586D01*
X97390400Y-82407414D01*
X97340619Y-82157146D01*
X97242969Y-81921398D01*
X97101203Y-81709231D01*
X96920769Y-81528797D01*
X96708602Y-81387031D01*
X96472854Y-81289381D01*
X96350281Y-81265000D01*
X96472854Y-81240619D01*
X96708602Y-81142969D01*
X96920769Y-81001203D01*
X97101203Y-80820769D01*
X97242969Y-80608602D01*
X97340619Y-80372854D01*
X97390400Y-80122586D01*
X97390400Y-79867414D01*
X97340619Y-79617146D01*
X97242969Y-79381398D01*
X97101203Y-79169231D01*
X96920769Y-78988797D01*
X96708602Y-78847031D01*
X96472854Y-78749381D01*
X96350281Y-78725000D01*
X96472854Y-78700619D01*
X96708602Y-78602969D01*
X96920769Y-78461203D01*
X97101203Y-78280769D01*
X97242969Y-78068602D01*
X97340619Y-77832854D01*
X97390400Y-77582586D01*
X97390400Y-77327414D01*
X97340619Y-77077146D01*
X97242969Y-76841398D01*
X97101203Y-76629231D01*
X96920769Y-76448797D01*
X96708602Y-76307031D01*
X96472854Y-76209381D01*
X96350281Y-76185000D01*
X96472854Y-76160619D01*
X96708602Y-76062969D01*
X96920769Y-75921203D01*
X97101203Y-75740769D01*
X97242969Y-75528602D01*
X97340619Y-75292854D01*
X97390400Y-75042586D01*
X97390400Y-74787414D01*
X97340619Y-74537146D01*
X97242969Y-74301398D01*
X97101203Y-74089231D01*
X96920769Y-73908797D01*
X96708602Y-73767031D01*
X96472854Y-73669381D01*
X96353475Y-73645635D01*
X96423092Y-73634641D01*
X96662532Y-73546431D01*
X96753706Y-73497697D01*
X96808358Y-73267963D01*
X96095000Y-72554605D01*
X95381642Y-73267963D01*
X95436294Y-73497697D01*
X95667978Y-73604632D01*
X95837569Y-73645428D01*
X95717146Y-73669381D01*
X95481398Y-73767031D01*
X95269231Y-73908797D01*
X95088797Y-74089231D01*
X94947031Y-74301398D01*
X94849381Y-74537146D01*
X94799600Y-74787414D01*
X94799600Y-75042586D01*
X94849381Y-75292854D01*
X94947031Y-75528602D01*
X95088797Y-75740769D01*
X95269231Y-75921203D01*
X95481398Y-76062969D01*
X95717146Y-76160619D01*
X95839719Y-76185000D01*
X95717146Y-76209381D01*
X95481398Y-76307031D01*
X95269231Y-76448797D01*
X95088797Y-76629231D01*
X94947031Y-76841398D01*
X94849381Y-77077146D01*
X94799600Y-77327414D01*
X94799600Y-77582586D01*
X94849381Y-77832854D01*
X94947031Y-78068602D01*
X95088797Y-78280769D01*
X95269231Y-78461203D01*
X95481398Y-78602969D01*
X95717146Y-78700619D01*
X95839719Y-78725000D01*
X95717146Y-78749381D01*
X95481398Y-78847031D01*
X95269231Y-78988797D01*
X95088797Y-79169231D01*
X94947031Y-79381398D01*
X94849381Y-79617146D01*
X94799600Y-79867414D01*
X94799600Y-80122586D01*
X94849381Y-80372854D01*
X94947031Y-80608602D01*
X95088797Y-80820769D01*
X95269231Y-81001203D01*
X95481398Y-81142969D01*
X95717146Y-81240619D01*
X95839719Y-81265000D01*
X95717146Y-81289381D01*
X95481398Y-81387031D01*
X95269231Y-81528797D01*
X95088797Y-81709231D01*
X94947031Y-81921398D01*
X94849381Y-82157146D01*
X94799600Y-82407414D01*
X94799600Y-82662586D01*
X94829798Y-82814401D01*
X76399032Y-82814401D01*
X72517000Y-78932370D01*
X72517000Y-78137611D01*
X82569500Y-78137611D01*
X82569500Y-78550389D01*
X82650029Y-78955235D01*
X82807992Y-79336591D01*
X83037319Y-79679803D01*
X83329197Y-79971681D01*
X83672409Y-80201008D01*
X84053765Y-80358971D01*
X84458611Y-80439500D01*
X84871389Y-80439500D01*
X85276235Y-80358971D01*
X85657591Y-80201008D01*
X86000803Y-79971681D01*
X86292681Y-79679803D01*
X86522008Y-79336591D01*
X86679971Y-78955235D01*
X86760500Y-78550389D01*
X86760500Y-78137611D01*
X86679971Y-77732765D01*
X86522008Y-77351409D01*
X86292681Y-77008197D01*
X86000803Y-76716319D01*
X85657591Y-76486992D01*
X85276235Y-76329029D01*
X84871389Y-76248500D01*
X84458611Y-76248500D01*
X84053765Y-76329029D01*
X83672409Y-76486992D01*
X83329197Y-76716319D01*
X83037319Y-77008197D01*
X82807992Y-77351409D01*
X82650029Y-77732765D01*
X82569500Y-78137611D01*
X72517000Y-78137611D01*
X72517000Y-75108529D01*
X83381077Y-75108529D01*
X83532334Y-75420045D01*
X83900393Y-75606910D01*
X84297834Y-75718381D01*
X84709386Y-75750172D01*
X85119231Y-75701063D01*
X85511621Y-75572940D01*
X85797666Y-75420045D01*
X85948923Y-75108529D01*
X84665000Y-73824605D01*
X83381077Y-75108529D01*
X72517000Y-75108529D01*
X72517000Y-74831005D01*
X72645535Y-74745120D01*
X72840120Y-74550535D01*
X72993005Y-74321727D01*
X73098314Y-74067490D01*
X73152000Y-73797592D01*
X73152000Y-73689386D01*
X82559828Y-73689386D01*
X82608937Y-74099231D01*
X82737060Y-74491621D01*
X82889955Y-74777666D01*
X83201471Y-74928923D01*
X84485395Y-73645000D01*
X84844605Y-73645000D01*
X86128529Y-74928923D01*
X86440045Y-74777666D01*
X86626910Y-74409607D01*
X86738381Y-74012166D01*
X86770172Y-73600614D01*
X86721063Y-73190769D01*
X86592940Y-72798379D01*
X86440045Y-72512334D01*
X86313818Y-72451044D01*
X94795554Y-72451044D01*
X94835359Y-72703092D01*
X94923569Y-72942532D01*
X94972303Y-73033706D01*
X95202037Y-73088358D01*
X95915395Y-72375000D01*
X96274605Y-72375000D01*
X96987963Y-73088358D01*
X97217697Y-73033706D01*
X97324632Y-72802022D01*
X97384312Y-72553927D01*
X97394446Y-72298956D01*
X97354641Y-72046908D01*
X97266431Y-71807468D01*
X97217697Y-71716294D01*
X96987963Y-71661642D01*
X96274605Y-72375000D01*
X95915395Y-72375000D01*
X95202037Y-71661642D01*
X94972303Y-71716294D01*
X94865368Y-71947978D01*
X94805688Y-72196073D01*
X94795554Y-72451044D01*
X86313818Y-72451044D01*
X86128529Y-72361077D01*
X84844605Y-73645000D01*
X84485395Y-73645000D01*
X83201471Y-72361077D01*
X82889955Y-72512334D01*
X82703090Y-72880393D01*
X82591619Y-73277834D01*
X82559828Y-73689386D01*
X73152000Y-73689386D01*
X73152000Y-73522408D01*
X73098314Y-73252510D01*
X72993005Y-72998273D01*
X72840120Y-72769465D01*
X72645535Y-72574880D01*
X72416727Y-72421995D01*
X72162490Y-72316686D01*
X71892592Y-72263000D01*
X71617408Y-72263000D01*
X71347510Y-72316686D01*
X71093273Y-72421995D01*
X70864465Y-72574880D01*
X70669880Y-72769465D01*
X70516995Y-72998273D01*
X70411686Y-73252510D01*
X70358000Y-73522408D01*
X64008000Y-73522408D01*
X63954314Y-73252510D01*
X63849005Y-72998273D01*
X63696120Y-72769465D01*
X63501535Y-72574880D01*
X63272727Y-72421995D01*
X63018490Y-72316686D01*
X62748592Y-72263000D01*
X62473408Y-72263000D01*
X62203510Y-72316686D01*
X61949273Y-72421995D01*
X61720465Y-72574880D01*
X61525880Y-72769465D01*
X61372995Y-72998273D01*
X61267686Y-73252510D01*
X61214000Y-73522408D01*
X44462700Y-73522408D01*
X44462700Y-72181471D01*
X83381077Y-72181471D01*
X84665000Y-73465395D01*
X85948923Y-72181471D01*
X85797666Y-71869955D01*
X85429607Y-71683090D01*
X85032166Y-71571619D01*
X84620614Y-71539828D01*
X84210769Y-71588937D01*
X83818379Y-71717060D01*
X83532334Y-71869955D01*
X83381077Y-72181471D01*
X44462700Y-72181471D01*
X44462700Y-71482037D01*
X95381642Y-71482037D01*
X96095000Y-72195395D01*
X96808358Y-71482037D01*
X96753706Y-71252303D01*
X96522022Y-71145368D01*
X96273927Y-71085688D01*
X96018956Y-71075554D01*
X95766908Y-71115359D01*
X95527468Y-71203569D01*
X95436294Y-71252303D01*
X95381642Y-71482037D01*
X44462700Y-71482037D01*
X44462700Y-68739611D01*
X82569500Y-68739611D01*
X82569500Y-69152389D01*
X82650029Y-69557235D01*
X82807992Y-69938591D01*
X83037319Y-70281803D01*
X83329197Y-70573681D01*
X83672409Y-70803008D01*
X84053765Y-70960971D01*
X84458611Y-71041500D01*
X84871389Y-71041500D01*
X85276235Y-70960971D01*
X85657591Y-70803008D01*
X86000803Y-70573681D01*
X86292681Y-70281803D01*
X86522008Y-69938591D01*
X86679971Y-69557235D01*
X86760500Y-69152389D01*
X86760500Y-68739611D01*
X86679971Y-68334765D01*
X86522008Y-67953409D01*
X86292681Y-67610197D01*
X86000803Y-67318319D01*
X85657591Y-67088992D01*
X85276235Y-66931029D01*
X84871389Y-66850500D01*
X84458611Y-66850500D01*
X84053765Y-66931029D01*
X83672409Y-67088992D01*
X83329197Y-67318319D01*
X83037319Y-67610197D01*
X82807992Y-67953409D01*
X82650029Y-68334765D01*
X82569500Y-68739611D01*
X44462700Y-68739611D01*
X44462700Y-66447933D01*
X108585000Y-66447933D01*
X108585000Y-66648067D01*
X108624044Y-66844356D01*
X108700632Y-67029256D01*
X108712000Y-67046270D01*
X108712001Y-72092330D01*
X108707700Y-72136000D01*
X108724864Y-72310274D01*
X108775698Y-72477852D01*
X108858248Y-72632291D01*
X108927646Y-72716852D01*
X108969342Y-72767659D01*
X109003259Y-72795494D01*
X109180501Y-72972736D01*
X109208341Y-73006659D01*
X109343709Y-73117753D01*
X109498149Y-73200303D01*
X109611243Y-73234609D01*
X109665725Y-73251136D01*
X109679676Y-73252510D01*
X109796333Y-73264000D01*
X109796339Y-73264000D01*
X109839999Y-73268300D01*
X109883659Y-73264000D01*
X110392028Y-73264000D01*
X110509231Y-73381203D01*
X110721398Y-73522969D01*
X110957146Y-73620619D01*
X111079719Y-73645000D01*
X110957146Y-73669381D01*
X110721398Y-73767031D01*
X110509231Y-73908797D01*
X110328797Y-74089231D01*
X110187031Y-74301398D01*
X110089381Y-74537146D01*
X110039600Y-74787414D01*
X110039600Y-75042586D01*
X110089381Y-75292854D01*
X110187031Y-75528602D01*
X110328797Y-75740769D01*
X110509231Y-75921203D01*
X110721398Y-76062969D01*
X110957146Y-76160619D01*
X111079719Y-76185000D01*
X110957146Y-76209381D01*
X110721398Y-76307031D01*
X110509231Y-76448797D01*
X110328797Y-76629231D01*
X110187031Y-76841398D01*
X110089381Y-77077146D01*
X110039600Y-77327414D01*
X110039600Y-77582586D01*
X110089381Y-77832854D01*
X110187031Y-78068602D01*
X110328797Y-78280769D01*
X110509231Y-78461203D01*
X110721398Y-78602969D01*
X110957146Y-78700619D01*
X111079719Y-78725000D01*
X110957146Y-78749381D01*
X110721398Y-78847031D01*
X110509231Y-78988797D01*
X110328797Y-79169231D01*
X110187031Y-79381398D01*
X110089381Y-79617146D01*
X110039600Y-79867414D01*
X110039600Y-80122586D01*
X110089381Y-80372854D01*
X110187031Y-80608602D01*
X110328797Y-80820769D01*
X110509231Y-81001203D01*
X110721398Y-81142969D01*
X110957146Y-81240619D01*
X111079719Y-81265000D01*
X110957146Y-81289381D01*
X110721398Y-81387031D01*
X110509231Y-81528797D01*
X110328797Y-81709231D01*
X110187031Y-81921398D01*
X110089381Y-82157146D01*
X110039600Y-82407414D01*
X110039600Y-82662586D01*
X110089381Y-82912854D01*
X110187031Y-83148602D01*
X110328797Y-83360769D01*
X110509231Y-83541203D01*
X110721398Y-83682969D01*
X110957146Y-83780619D01*
X111079719Y-83805000D01*
X110957146Y-83829381D01*
X110721398Y-83927031D01*
X110509231Y-84068797D01*
X110328797Y-84249231D01*
X110187031Y-84461398D01*
X110089381Y-84697146D01*
X110039600Y-84947414D01*
X110039600Y-85202586D01*
X110089381Y-85452854D01*
X110187031Y-85688602D01*
X110328797Y-85900769D01*
X110509231Y-86081203D01*
X110721398Y-86222969D01*
X110957146Y-86320619D01*
X111079719Y-86345000D01*
X110957146Y-86369381D01*
X110721398Y-86467031D01*
X110509231Y-86608797D01*
X110328797Y-86789231D01*
X110187031Y-87001398D01*
X110089381Y-87237146D01*
X110039600Y-87487414D01*
X110039600Y-87742586D01*
X110089381Y-87992854D01*
X110187031Y-88228602D01*
X110328797Y-88440769D01*
X110509231Y-88621203D01*
X110721398Y-88762969D01*
X110957146Y-88860619D01*
X111079719Y-88885000D01*
X110957146Y-88909381D01*
X110721398Y-89007031D01*
X110509231Y-89148797D01*
X110328797Y-89329231D01*
X110187031Y-89541398D01*
X110089381Y-89777146D01*
X110039600Y-90027414D01*
X110039600Y-90282586D01*
X110089381Y-90532854D01*
X110187031Y-90768602D01*
X110328797Y-90980769D01*
X110509231Y-91161203D01*
X110721398Y-91302969D01*
X110957146Y-91400619D01*
X111079719Y-91425000D01*
X110957146Y-91449381D01*
X110721398Y-91547031D01*
X110509231Y-91688797D01*
X110328797Y-91869231D01*
X110187031Y-92081398D01*
X110089381Y-92317146D01*
X110039600Y-92567414D01*
X110039600Y-92822586D01*
X110089381Y-93072854D01*
X110187031Y-93308602D01*
X110328797Y-93520769D01*
X110509231Y-93701203D01*
X110721398Y-93842969D01*
X110957146Y-93940619D01*
X111079719Y-93965000D01*
X110957146Y-93989381D01*
X110721398Y-94087031D01*
X110509231Y-94228797D01*
X110328797Y-94409231D01*
X110187031Y-94621398D01*
X110089381Y-94857146D01*
X110039600Y-95107414D01*
X110039600Y-95362586D01*
X110089381Y-95612854D01*
X110187031Y-95848602D01*
X110328797Y-96060769D01*
X110509231Y-96241203D01*
X110721398Y-96382969D01*
X110957146Y-96480619D01*
X111079719Y-96505000D01*
X110957146Y-96529381D01*
X110721398Y-96627031D01*
X110509231Y-96768797D01*
X110328797Y-96949231D01*
X110187031Y-97161398D01*
X110089381Y-97397146D01*
X110039600Y-97647414D01*
X110039600Y-97902586D01*
X110089381Y-98152854D01*
X110187031Y-98388602D01*
X110328797Y-98600769D01*
X110509231Y-98781203D01*
X110721398Y-98922969D01*
X110957146Y-99020619D01*
X111079719Y-99045000D01*
X110957146Y-99069381D01*
X110721398Y-99167031D01*
X110509231Y-99308797D01*
X110328797Y-99489231D01*
X110187031Y-99701398D01*
X110089381Y-99937146D01*
X110039600Y-100187414D01*
X110039600Y-100442586D01*
X110089381Y-100692854D01*
X110187031Y-100928602D01*
X110328797Y-101140769D01*
X110509231Y-101321203D01*
X110721398Y-101462969D01*
X110957146Y-101560619D01*
X111079719Y-101585000D01*
X110957146Y-101609381D01*
X110721398Y-101707031D01*
X110509231Y-101848797D01*
X110328797Y-102029231D01*
X110187031Y-102241398D01*
X110089381Y-102477146D01*
X110039600Y-102727414D01*
X110039600Y-102982586D01*
X110089381Y-103232854D01*
X110187031Y-103468602D01*
X110328797Y-103680769D01*
X110509231Y-103861203D01*
X110721398Y-104002969D01*
X110957146Y-104100619D01*
X111079719Y-104125000D01*
X110957146Y-104149381D01*
X110721398Y-104247031D01*
X110509231Y-104388797D01*
X110328797Y-104569231D01*
X110187031Y-104781398D01*
X110089381Y-105017146D01*
X110039600Y-105267414D01*
X110039600Y-105522586D01*
X110089381Y-105772854D01*
X110187031Y-106008602D01*
X110328797Y-106220769D01*
X110509231Y-106401203D01*
X110721398Y-106542969D01*
X110957146Y-106640619D01*
X111076525Y-106664365D01*
X111006908Y-106675359D01*
X110767468Y-106763569D01*
X110676294Y-106812303D01*
X110621642Y-107042037D01*
X111335000Y-107755395D01*
X112048358Y-107042037D01*
X111993706Y-106812303D01*
X111762022Y-106705368D01*
X111592431Y-106664572D01*
X111712854Y-106640619D01*
X111948602Y-106542969D01*
X112160769Y-106401203D01*
X112341203Y-106220769D01*
X112482969Y-106008602D01*
X112580619Y-105772854D01*
X112630400Y-105522586D01*
X112630400Y-105267414D01*
X112580619Y-105017146D01*
X112482969Y-104781398D01*
X112341203Y-104569231D01*
X112160769Y-104388797D01*
X111948602Y-104247031D01*
X111712854Y-104149381D01*
X111590281Y-104125000D01*
X111712854Y-104100619D01*
X111948602Y-104002969D01*
X112160769Y-103861203D01*
X112341203Y-103680769D01*
X112482969Y-103468602D01*
X112580619Y-103232854D01*
X112630400Y-102982586D01*
X112630400Y-102727414D01*
X112580619Y-102477146D01*
X112482969Y-102241398D01*
X112341203Y-102029231D01*
X112160769Y-101848797D01*
X111948602Y-101707031D01*
X111712854Y-101609381D01*
X111590281Y-101585000D01*
X111712854Y-101560619D01*
X111948602Y-101462969D01*
X112160769Y-101321203D01*
X112341203Y-101140769D01*
X112482969Y-100928602D01*
X112580619Y-100692854D01*
X112630400Y-100442586D01*
X112630400Y-100187414D01*
X112580619Y-99937146D01*
X112482969Y-99701398D01*
X112341203Y-99489231D01*
X112160769Y-99308797D01*
X111948602Y-99167031D01*
X111712854Y-99069381D01*
X111590281Y-99045000D01*
X111712854Y-99020619D01*
X111948602Y-98922969D01*
X112160769Y-98781203D01*
X112341203Y-98600769D01*
X112482969Y-98388602D01*
X112580619Y-98152854D01*
X112630400Y-97902586D01*
X112630400Y-97647414D01*
X112580619Y-97397146D01*
X112493827Y-97187611D01*
X120669500Y-97187611D01*
X120669500Y-97600389D01*
X120750029Y-98005235D01*
X120907992Y-98386591D01*
X121137319Y-98729803D01*
X121429197Y-99021681D01*
X121772409Y-99251008D01*
X122153765Y-99408971D01*
X122558611Y-99489500D01*
X122971389Y-99489500D01*
X123376235Y-99408971D01*
X123757591Y-99251008D01*
X124100803Y-99021681D01*
X124392681Y-98729803D01*
X124622008Y-98386591D01*
X124779971Y-98005235D01*
X124860500Y-97600389D01*
X124860500Y-97187611D01*
X124779971Y-96782765D01*
X124622008Y-96401409D01*
X124392681Y-96058197D01*
X124100803Y-95766319D01*
X123757591Y-95536992D01*
X123376235Y-95379029D01*
X122971389Y-95298500D01*
X122558611Y-95298500D01*
X122153765Y-95379029D01*
X121772409Y-95536992D01*
X121429197Y-95766319D01*
X121137319Y-96058197D01*
X120907992Y-96401409D01*
X120750029Y-96782765D01*
X120669500Y-97187611D01*
X112493827Y-97187611D01*
X112482969Y-97161398D01*
X112341203Y-96949231D01*
X112160769Y-96768797D01*
X111948602Y-96627031D01*
X111712854Y-96529381D01*
X111590281Y-96505000D01*
X111712854Y-96480619D01*
X111948602Y-96382969D01*
X112160769Y-96241203D01*
X112341203Y-96060769D01*
X112482969Y-95848602D01*
X112580619Y-95612854D01*
X112630400Y-95362586D01*
X112630400Y-95107414D01*
X112580619Y-94857146D01*
X112482969Y-94621398D01*
X112341203Y-94409231D01*
X112160769Y-94228797D01*
X112055606Y-94158529D01*
X121481077Y-94158529D01*
X121632334Y-94470045D01*
X122000393Y-94656910D01*
X122397834Y-94768381D01*
X122809386Y-94800172D01*
X123219231Y-94751063D01*
X123611621Y-94622940D01*
X123897666Y-94470045D01*
X124048923Y-94158529D01*
X122765000Y-92874605D01*
X121481077Y-94158529D01*
X112055606Y-94158529D01*
X111948602Y-94087031D01*
X111712854Y-93989381D01*
X111590281Y-93965000D01*
X111712854Y-93940619D01*
X111948602Y-93842969D01*
X112160769Y-93701203D01*
X112341203Y-93520769D01*
X112482969Y-93308602D01*
X112580619Y-93072854D01*
X112630400Y-92822586D01*
X112630400Y-92739386D01*
X120659828Y-92739386D01*
X120708937Y-93149231D01*
X120837060Y-93541621D01*
X120989955Y-93827666D01*
X121301471Y-93978923D01*
X122585395Y-92695000D01*
X122944605Y-92695000D01*
X124228529Y-93978923D01*
X124540045Y-93827666D01*
X124726910Y-93459607D01*
X124838381Y-93062166D01*
X124870172Y-92650614D01*
X124821063Y-92240769D01*
X124692940Y-91848379D01*
X124540045Y-91562334D01*
X124228529Y-91411077D01*
X122944605Y-92695000D01*
X122585395Y-92695000D01*
X121301471Y-91411077D01*
X120989955Y-91562334D01*
X120803090Y-91930393D01*
X120691619Y-92327834D01*
X120659828Y-92739386D01*
X112630400Y-92739386D01*
X112630400Y-92567414D01*
X112580619Y-92317146D01*
X112482969Y-92081398D01*
X112341203Y-91869231D01*
X112160769Y-91688797D01*
X111948602Y-91547031D01*
X111712854Y-91449381D01*
X111590281Y-91425000D01*
X111712854Y-91400619D01*
X111948602Y-91302969D01*
X112055605Y-91231471D01*
X121481077Y-91231471D01*
X122765000Y-92515395D01*
X124048923Y-91231471D01*
X123897666Y-90919955D01*
X123529607Y-90733090D01*
X123132166Y-90621619D01*
X122720614Y-90589828D01*
X122310769Y-90638937D01*
X121918379Y-90767060D01*
X121632334Y-90919955D01*
X121481077Y-91231471D01*
X112055605Y-91231471D01*
X112160769Y-91161203D01*
X112341203Y-90980769D01*
X112482969Y-90768602D01*
X112580619Y-90532854D01*
X112630400Y-90282586D01*
X112630400Y-90027414D01*
X112580619Y-89777146D01*
X112482969Y-89541398D01*
X112341203Y-89329231D01*
X112160769Y-89148797D01*
X111948602Y-89007031D01*
X111712854Y-88909381D01*
X111590281Y-88885000D01*
X111712854Y-88860619D01*
X111948602Y-88762969D01*
X112160769Y-88621203D01*
X112341203Y-88440769D01*
X112482969Y-88228602D01*
X112580619Y-87992854D01*
X112621046Y-87789611D01*
X120669500Y-87789611D01*
X120669500Y-88202389D01*
X120750029Y-88607235D01*
X120907992Y-88988591D01*
X121137319Y-89331803D01*
X121429197Y-89623681D01*
X121772409Y-89853008D01*
X122153765Y-90010971D01*
X122558611Y-90091500D01*
X122971389Y-90091500D01*
X123376235Y-90010971D01*
X123757591Y-89853008D01*
X124100803Y-89623681D01*
X124392681Y-89331803D01*
X124622008Y-88988591D01*
X124779971Y-88607235D01*
X124860500Y-88202389D01*
X124860500Y-87789611D01*
X124779971Y-87384765D01*
X124622008Y-87003409D01*
X124392681Y-86660197D01*
X124100803Y-86368319D01*
X123757591Y-86138992D01*
X123376235Y-85981029D01*
X122971389Y-85900500D01*
X122558611Y-85900500D01*
X122153765Y-85981029D01*
X121772409Y-86138992D01*
X121429197Y-86368319D01*
X121137319Y-86660197D01*
X120907992Y-87003409D01*
X120750029Y-87384765D01*
X120669500Y-87789611D01*
X112621046Y-87789611D01*
X112630400Y-87742586D01*
X112630400Y-87487414D01*
X112580619Y-87237146D01*
X112482969Y-87001398D01*
X112341203Y-86789231D01*
X112160769Y-86608797D01*
X111948602Y-86467031D01*
X111712854Y-86369381D01*
X111590281Y-86345000D01*
X111712854Y-86320619D01*
X111948602Y-86222969D01*
X112160769Y-86081203D01*
X112341203Y-85900769D01*
X112482969Y-85688602D01*
X112580619Y-85452854D01*
X112630400Y-85202586D01*
X112630400Y-84947414D01*
X112580619Y-84697146D01*
X112482969Y-84461398D01*
X112341203Y-84249231D01*
X112160769Y-84068797D01*
X111948602Y-83927031D01*
X111712854Y-83829381D01*
X111590281Y-83805000D01*
X111712854Y-83780619D01*
X111948602Y-83682969D01*
X112160769Y-83541203D01*
X112341203Y-83360769D01*
X112482969Y-83148602D01*
X112580619Y-82912854D01*
X112630400Y-82662586D01*
X112630400Y-82407414D01*
X112580619Y-82157146D01*
X112482969Y-81921398D01*
X112341203Y-81709231D01*
X112160769Y-81528797D01*
X111948602Y-81387031D01*
X111712854Y-81289381D01*
X111590281Y-81265000D01*
X111712854Y-81240619D01*
X111948602Y-81142969D01*
X112160769Y-81001203D01*
X112341203Y-80820769D01*
X112482969Y-80608602D01*
X112580619Y-80372854D01*
X112630400Y-80122586D01*
X112630400Y-79867414D01*
X112580619Y-79617146D01*
X112482969Y-79381398D01*
X112341203Y-79169231D01*
X112160769Y-78988797D01*
X111948602Y-78847031D01*
X111712854Y-78749381D01*
X111590281Y-78725000D01*
X111712854Y-78700619D01*
X111948602Y-78602969D01*
X112160769Y-78461203D01*
X112341203Y-78280769D01*
X112436858Y-78137611D01*
X120669500Y-78137611D01*
X120669500Y-78550389D01*
X120750029Y-78955235D01*
X120907992Y-79336591D01*
X121137319Y-79679803D01*
X121429197Y-79971681D01*
X121772409Y-80201008D01*
X122153765Y-80358971D01*
X122558611Y-80439500D01*
X122971389Y-80439500D01*
X123376235Y-80358971D01*
X123757591Y-80201008D01*
X124100803Y-79971681D01*
X124392681Y-79679803D01*
X124622008Y-79336591D01*
X124779971Y-78955235D01*
X124860500Y-78550389D01*
X124860500Y-78137611D01*
X124779971Y-77732765D01*
X124622008Y-77351409D01*
X124392681Y-77008197D01*
X124100803Y-76716319D01*
X123757591Y-76486992D01*
X123376235Y-76329029D01*
X122971389Y-76248500D01*
X122558611Y-76248500D01*
X122153765Y-76329029D01*
X121772409Y-76486992D01*
X121429197Y-76716319D01*
X121137319Y-77008197D01*
X120907992Y-77351409D01*
X120750029Y-77732765D01*
X120669500Y-78137611D01*
X112436858Y-78137611D01*
X112482969Y-78068602D01*
X112580619Y-77832854D01*
X112630400Y-77582586D01*
X112630400Y-77327414D01*
X112580619Y-77077146D01*
X112482969Y-76841398D01*
X112341203Y-76629231D01*
X112160769Y-76448797D01*
X111948602Y-76307031D01*
X111712854Y-76209381D01*
X111590281Y-76185000D01*
X111712854Y-76160619D01*
X111948602Y-76062969D01*
X112160769Y-75921203D01*
X112341203Y-75740769D01*
X112482969Y-75528602D01*
X112580619Y-75292854D01*
X112617283Y-75108529D01*
X121481077Y-75108529D01*
X121632334Y-75420045D01*
X122000393Y-75606910D01*
X122397834Y-75718381D01*
X122809386Y-75750172D01*
X123219231Y-75701063D01*
X123611621Y-75572940D01*
X123897666Y-75420045D01*
X124048923Y-75108529D01*
X122765000Y-73824605D01*
X121481077Y-75108529D01*
X112617283Y-75108529D01*
X112630400Y-75042586D01*
X112630400Y-74787414D01*
X112580619Y-74537146D01*
X112482969Y-74301398D01*
X112341203Y-74089231D01*
X112160769Y-73908797D01*
X111948602Y-73767031D01*
X111761151Y-73689386D01*
X120659828Y-73689386D01*
X120708937Y-74099231D01*
X120837060Y-74491621D01*
X120989955Y-74777666D01*
X121301471Y-74928923D01*
X122585395Y-73645000D01*
X122944605Y-73645000D01*
X124228529Y-74928923D01*
X124540045Y-74777666D01*
X124726910Y-74409607D01*
X124838381Y-74012166D01*
X124870172Y-73600614D01*
X124860802Y-73522408D01*
X133858000Y-73522408D01*
X133858000Y-73797592D01*
X133911686Y-74067490D01*
X134016995Y-74321727D01*
X134169880Y-74550535D01*
X134364465Y-74745120D01*
X134593273Y-74898005D01*
X134847510Y-75003314D01*
X135117408Y-75057000D01*
X135392592Y-75057000D01*
X135662490Y-75003314D01*
X135916727Y-74898005D01*
X136145535Y-74745120D01*
X136340120Y-74550535D01*
X136493005Y-74321727D01*
X136598314Y-74067490D01*
X136652000Y-73797592D01*
X136652000Y-73522408D01*
X136598314Y-73252510D01*
X136493005Y-72998273D01*
X136340120Y-72769465D01*
X136145535Y-72574880D01*
X135916727Y-72421995D01*
X135662490Y-72316686D01*
X135392592Y-72263000D01*
X135117408Y-72263000D01*
X134847510Y-72316686D01*
X134593273Y-72421995D01*
X134364465Y-72574880D01*
X134169880Y-72769465D01*
X134016995Y-72998273D01*
X133911686Y-73252510D01*
X133858000Y-73522408D01*
X124860802Y-73522408D01*
X124821063Y-73190769D01*
X124692940Y-72798379D01*
X124540045Y-72512334D01*
X124228529Y-72361077D01*
X122944605Y-73645000D01*
X122585395Y-73645000D01*
X121301471Y-72361077D01*
X120989955Y-72512334D01*
X120803090Y-72880393D01*
X120691619Y-73277834D01*
X120659828Y-73689386D01*
X111761151Y-73689386D01*
X111712854Y-73669381D01*
X111590281Y-73645000D01*
X111712854Y-73620619D01*
X111948602Y-73522969D01*
X112160769Y-73381203D01*
X112341203Y-73200769D01*
X112482969Y-72988602D01*
X112580619Y-72752854D01*
X112630400Y-72502586D01*
X112630400Y-72247414D01*
X112617284Y-72181471D01*
X121481077Y-72181471D01*
X122765000Y-73465395D01*
X124048923Y-72181471D01*
X123897666Y-71869955D01*
X123529607Y-71683090D01*
X123132166Y-71571619D01*
X122720614Y-71539828D01*
X122310769Y-71588937D01*
X121918379Y-71717060D01*
X121632334Y-71869955D01*
X121481077Y-72181471D01*
X112617284Y-72181471D01*
X112580619Y-71997146D01*
X112482969Y-71761398D01*
X112341203Y-71549231D01*
X112160769Y-71368797D01*
X111948602Y-71227031D01*
X111712854Y-71129381D01*
X111462586Y-71079600D01*
X111207414Y-71079600D01*
X110957146Y-71129381D01*
X110721398Y-71227031D01*
X110509231Y-71368797D01*
X110490000Y-71388028D01*
X110490000Y-68739611D01*
X120669500Y-68739611D01*
X120669500Y-69152389D01*
X120750029Y-69557235D01*
X120907992Y-69938591D01*
X121137319Y-70281803D01*
X121429197Y-70573681D01*
X121772409Y-70803008D01*
X122153765Y-70960971D01*
X122558611Y-71041500D01*
X122971389Y-71041500D01*
X123376235Y-70960971D01*
X123757591Y-70803008D01*
X124100803Y-70573681D01*
X124392681Y-70281803D01*
X124622008Y-69938591D01*
X124779971Y-69557235D01*
X124860500Y-69152389D01*
X124860500Y-68739611D01*
X124779971Y-68334765D01*
X124622008Y-67953409D01*
X124392681Y-67610197D01*
X124100803Y-67318319D01*
X123757591Y-67088992D01*
X123376235Y-66931029D01*
X122971389Y-66850500D01*
X122558611Y-66850500D01*
X122153765Y-66931029D01*
X121772409Y-67088992D01*
X121429197Y-67318319D01*
X121137319Y-67610197D01*
X120907992Y-67953409D01*
X120750029Y-68334765D01*
X120669500Y-68739611D01*
X110490000Y-68739611D01*
X110490000Y-67046269D01*
X110501368Y-67029256D01*
X110577956Y-66844356D01*
X110617000Y-66648067D01*
X110617000Y-66447933D01*
X110577956Y-66251644D01*
X110501368Y-66066744D01*
X110390179Y-65900338D01*
X110248662Y-65758821D01*
X110082256Y-65647632D01*
X109897356Y-65571044D01*
X109701067Y-65532000D01*
X109500933Y-65532000D01*
X109304644Y-65571044D01*
X109119744Y-65647632D01*
X108953338Y-65758821D01*
X108811821Y-65900338D01*
X108700632Y-66066744D01*
X108624044Y-66251644D01*
X108585000Y-66447933D01*
X44462700Y-66447933D01*
X44462700Y-63710000D01*
X99849428Y-63710000D01*
X99849428Y-65710000D01*
X99861688Y-65834482D01*
X99897998Y-65954180D01*
X99956963Y-66064494D01*
X100036315Y-66161185D01*
X100133006Y-66240537D01*
X100243320Y-66299502D01*
X100363018Y-66335812D01*
X100487500Y-66348072D01*
X102392500Y-66348072D01*
X102516982Y-66335812D01*
X102636680Y-66299502D01*
X102746994Y-66240537D01*
X102843685Y-66161185D01*
X102923037Y-66064494D01*
X102972059Y-65972781D01*
X103113077Y-66085969D01*
X103388906Y-66229571D01*
X103607020Y-66300563D01*
X103853000Y-66180594D01*
X103853000Y-64837000D01*
X103833000Y-64837000D01*
X103833000Y-64583000D01*
X103853000Y-64583000D01*
X103853000Y-63239406D01*
X103607020Y-63119437D01*
X103388906Y-63190429D01*
X103113077Y-63334031D01*
X102972059Y-63447219D01*
X102923037Y-63355506D01*
X102843685Y-63258815D01*
X102746994Y-63179463D01*
X102636680Y-63120498D01*
X102516982Y-63084188D01*
X102392500Y-63071928D01*
X100487500Y-63071928D01*
X100363018Y-63084188D01*
X100243320Y-63120498D01*
X100133006Y-63179463D01*
X100036315Y-63258815D01*
X99956963Y-63355506D01*
X99897998Y-63465820D01*
X99861688Y-63585518D01*
X99849428Y-63710000D01*
X44462700Y-63710000D01*
X44462700Y-59087611D01*
X82569500Y-59087611D01*
X82569500Y-59500389D01*
X82650029Y-59905235D01*
X82807992Y-60286591D01*
X83037319Y-60629803D01*
X83329197Y-60921681D01*
X83672409Y-61151008D01*
X84053765Y-61308971D01*
X84458611Y-61389500D01*
X84871389Y-61389500D01*
X85276235Y-61308971D01*
X85657591Y-61151008D01*
X86000803Y-60921681D01*
X86292681Y-60629803D01*
X86522008Y-60286591D01*
X86679971Y-59905235D01*
X86760500Y-59500389D01*
X86760500Y-59087611D01*
X86679971Y-58682765D01*
X86522008Y-58301409D01*
X86292681Y-57958197D01*
X86000803Y-57666319D01*
X85657591Y-57436992D01*
X85276235Y-57279029D01*
X84871389Y-57198500D01*
X84458611Y-57198500D01*
X84053765Y-57279029D01*
X83672409Y-57436992D01*
X83329197Y-57666319D01*
X83037319Y-57958197D01*
X82807992Y-58301409D01*
X82650029Y-58682765D01*
X82569500Y-59087611D01*
X44462700Y-59087611D01*
X44462700Y-56058529D01*
X83381077Y-56058529D01*
X83532334Y-56370045D01*
X83900393Y-56556910D01*
X84297834Y-56668381D01*
X84709386Y-56700172D01*
X85119231Y-56651063D01*
X85511621Y-56522940D01*
X85797666Y-56370045D01*
X85948923Y-56058529D01*
X84665000Y-54774605D01*
X83381077Y-56058529D01*
X44462700Y-56058529D01*
X44462700Y-54639386D01*
X82559828Y-54639386D01*
X82608937Y-55049231D01*
X82737060Y-55441621D01*
X82889955Y-55727666D01*
X83201471Y-55878923D01*
X84485395Y-54595000D01*
X84844605Y-54595000D01*
X86128529Y-55878923D01*
X86440045Y-55727666D01*
X86626910Y-55359607D01*
X86738381Y-54962166D01*
X86770172Y-54550614D01*
X86721063Y-54140769D01*
X86592940Y-53748379D01*
X86440045Y-53462334D01*
X86128529Y-53311077D01*
X84844605Y-54595000D01*
X84485395Y-54595000D01*
X83201471Y-53311077D01*
X82889955Y-53462334D01*
X82703090Y-53830393D01*
X82591619Y-54227834D01*
X82559828Y-54639386D01*
X44462700Y-54639386D01*
X44462700Y-53131471D01*
X83381077Y-53131471D01*
X84665000Y-54415395D01*
X85948923Y-53131471D01*
X85797666Y-52819955D01*
X85429607Y-52633090D01*
X85032166Y-52521619D01*
X84620614Y-52489828D01*
X84210769Y-52538937D01*
X83818379Y-52667060D01*
X83532334Y-52819955D01*
X83381077Y-53131471D01*
X44462700Y-53131471D01*
X44462700Y-49689611D01*
X82569500Y-49689611D01*
X82569500Y-50102389D01*
X82650029Y-50507235D01*
X82807992Y-50888591D01*
X83037319Y-51231803D01*
X83329197Y-51523681D01*
X83672409Y-51753008D01*
X84053765Y-51910971D01*
X84458611Y-51991500D01*
X84871389Y-51991500D01*
X85276235Y-51910971D01*
X85657591Y-51753008D01*
X86000803Y-51523681D01*
X86292681Y-51231803D01*
X86522008Y-50888591D01*
X86679971Y-50507235D01*
X86760500Y-50102389D01*
X86760500Y-49689611D01*
X86679971Y-49284765D01*
X86522008Y-48903409D01*
X86292681Y-48560197D01*
X86000803Y-48268319D01*
X85657591Y-48038992D01*
X85276235Y-47881029D01*
X84871389Y-47800500D01*
X84458611Y-47800500D01*
X84053765Y-47881029D01*
X83672409Y-48038992D01*
X83329197Y-48268319D01*
X83037319Y-48560197D01*
X82807992Y-48903409D01*
X82650029Y-49284765D01*
X82569500Y-49689611D01*
X44462700Y-49689611D01*
X44462700Y-44857933D01*
X91694000Y-44857933D01*
X91694000Y-45058067D01*
X91733044Y-45254356D01*
X91809632Y-45439256D01*
X91920821Y-45605662D01*
X92062338Y-45747179D01*
X92228744Y-45858368D01*
X92413644Y-45934956D01*
X92609933Y-45974000D01*
X92810067Y-45974000D01*
X93006356Y-45934956D01*
X93191256Y-45858368D01*
X93208269Y-45847000D01*
X104787765Y-45847000D01*
X105631000Y-46690235D01*
X105631000Y-47188101D01*
X105500349Y-47057450D01*
X105109721Y-46796440D01*
X104675679Y-46616654D01*
X104214902Y-46525000D01*
X103745098Y-46525000D01*
X103284321Y-46616654D01*
X102850279Y-46796440D01*
X102459651Y-47057450D01*
X102127450Y-47389651D01*
X101866440Y-47780279D01*
X101686654Y-48214321D01*
X101595000Y-48675098D01*
X101595000Y-49144902D01*
X101686654Y-49605679D01*
X101866440Y-50039721D01*
X102127450Y-50430349D01*
X102459651Y-50762550D01*
X102850279Y-51023560D01*
X103284321Y-51203346D01*
X103745098Y-51295000D01*
X104214902Y-51295000D01*
X104675679Y-51203346D01*
X105109721Y-51023560D01*
X105500349Y-50762550D01*
X105631000Y-50631899D01*
X105631001Y-63338423D01*
X105392037Y-63534537D01*
X105244838Y-63713900D01*
X105089437Y-63528685D01*
X104846923Y-63334031D01*
X104571094Y-63190429D01*
X104352980Y-63119437D01*
X104107000Y-63239406D01*
X104107000Y-64583000D01*
X104127000Y-64583000D01*
X104127000Y-64837000D01*
X104107000Y-64837000D01*
X104107000Y-66180594D01*
X104352980Y-66300563D01*
X104571094Y-66229571D01*
X104846923Y-66085969D01*
X105089437Y-65891315D01*
X105244837Y-65706101D01*
X105392037Y-65885463D01*
X105633766Y-66083845D01*
X105909552Y-66231255D01*
X106208797Y-66322030D01*
X106520000Y-66352681D01*
X106831204Y-66322030D01*
X107130449Y-66231255D01*
X107406235Y-66083845D01*
X107647963Y-65885463D01*
X107846345Y-65643734D01*
X107993755Y-65367948D01*
X108084530Y-65068703D01*
X108107500Y-64835485D01*
X108107500Y-64584514D01*
X108084530Y-64351296D01*
X107993755Y-64052051D01*
X107846345Y-63776265D01*
X107647963Y-63534537D01*
X107409000Y-63338425D01*
X107409000Y-59087611D01*
X120669500Y-59087611D01*
X120669500Y-59500389D01*
X120750029Y-59905235D01*
X120907992Y-60286591D01*
X121137319Y-60629803D01*
X121429197Y-60921681D01*
X121772409Y-61151008D01*
X122153765Y-61308971D01*
X122558611Y-61389500D01*
X122971389Y-61389500D01*
X123376235Y-61308971D01*
X123757591Y-61151008D01*
X124100803Y-60921681D01*
X124392681Y-60629803D01*
X124622008Y-60286591D01*
X124779971Y-59905235D01*
X124860500Y-59500389D01*
X124860500Y-59087611D01*
X124779971Y-58682765D01*
X124622008Y-58301409D01*
X124392681Y-57958197D01*
X124100803Y-57666319D01*
X123757591Y-57436992D01*
X123376235Y-57279029D01*
X122971389Y-57198500D01*
X122558611Y-57198500D01*
X122153765Y-57279029D01*
X121772409Y-57436992D01*
X121429197Y-57666319D01*
X121137319Y-57958197D01*
X120907992Y-58301409D01*
X120750029Y-58682765D01*
X120669500Y-59087611D01*
X107409000Y-59087611D01*
X107409000Y-56058529D01*
X121481077Y-56058529D01*
X121632334Y-56370045D01*
X122000393Y-56556910D01*
X122397834Y-56668381D01*
X122809386Y-56700172D01*
X123219231Y-56651063D01*
X123611621Y-56522940D01*
X123897666Y-56370045D01*
X124048923Y-56058529D01*
X122765000Y-54774605D01*
X121481077Y-56058529D01*
X107409000Y-56058529D01*
X107409000Y-54639386D01*
X120659828Y-54639386D01*
X120708937Y-55049231D01*
X120837060Y-55441621D01*
X120989955Y-55727666D01*
X121301471Y-55878923D01*
X122585395Y-54595000D01*
X122944605Y-54595000D01*
X124228529Y-55878923D01*
X124540045Y-55727666D01*
X124726910Y-55359607D01*
X124838381Y-54962166D01*
X124870172Y-54550614D01*
X124821063Y-54140769D01*
X124692940Y-53748379D01*
X124540045Y-53462334D01*
X124228529Y-53311077D01*
X122944605Y-54595000D01*
X122585395Y-54595000D01*
X121301471Y-53311077D01*
X120989955Y-53462334D01*
X120803090Y-53830393D01*
X120691619Y-54227834D01*
X120659828Y-54639386D01*
X107409000Y-54639386D01*
X107409000Y-53131471D01*
X121481077Y-53131471D01*
X122765000Y-54415395D01*
X124048923Y-53131471D01*
X123897666Y-52819955D01*
X123529607Y-52633090D01*
X123132166Y-52521619D01*
X122720614Y-52489828D01*
X122310769Y-52538937D01*
X121918379Y-52667060D01*
X121632334Y-52819955D01*
X121481077Y-53131471D01*
X107409000Y-53131471D01*
X107409000Y-49689611D01*
X120669500Y-49689611D01*
X120669500Y-50102389D01*
X120750029Y-50507235D01*
X120907992Y-50888591D01*
X121137319Y-51231803D01*
X121429197Y-51523681D01*
X121772409Y-51753008D01*
X122153765Y-51910971D01*
X122558611Y-51991500D01*
X122971389Y-51991500D01*
X123376235Y-51910971D01*
X123757591Y-51753008D01*
X124100803Y-51523681D01*
X124392681Y-51231803D01*
X124622008Y-50888591D01*
X124779971Y-50507235D01*
X124860500Y-50102389D01*
X124860500Y-49689611D01*
X124779971Y-49284765D01*
X124622008Y-48903409D01*
X124392681Y-48560197D01*
X124100803Y-48268319D01*
X123757591Y-48038992D01*
X123376235Y-47881029D01*
X122971389Y-47800500D01*
X122558611Y-47800500D01*
X122153765Y-47881029D01*
X121772409Y-48038992D01*
X121429197Y-48268319D01*
X121137319Y-48560197D01*
X120907992Y-48903409D01*
X120750029Y-49284765D01*
X120669500Y-49689611D01*
X107409000Y-49689611D01*
X107409000Y-46365659D01*
X107413300Y-46321999D01*
X107409000Y-46278334D01*
X107409000Y-46278333D01*
X107396136Y-46147726D01*
X107396136Y-46147724D01*
X107345302Y-45980147D01*
X107341589Y-45973200D01*
X107262753Y-45825709D01*
X107151659Y-45690341D01*
X107117737Y-45662502D01*
X105815499Y-44360264D01*
X105787659Y-44326341D01*
X105652291Y-44215247D01*
X105497851Y-44132697D01*
X105330274Y-44081864D01*
X105199667Y-44069000D01*
X105199660Y-44069000D01*
X105156000Y-44064700D01*
X105112340Y-44069000D01*
X93208269Y-44069000D01*
X93191256Y-44057632D01*
X93006356Y-43981044D01*
X92810067Y-43942000D01*
X92609933Y-43942000D01*
X92413644Y-43981044D01*
X92228744Y-44057632D01*
X92062338Y-44168821D01*
X91920821Y-44310338D01*
X91809632Y-44476744D01*
X91733044Y-44661644D01*
X91694000Y-44857933D01*
X44462700Y-44857933D01*
X44462700Y-36207700D01*
X170167300Y-36207700D01*
X170167301Y-161912300D01*
G37*
X170167301Y-161912300D02*
X44462700Y-161912300D01*
X44462700Y-156695413D01*
X162009192Y-156695413D01*
X162104956Y-156959814D01*
X162394571Y-157100704D01*
X162706108Y-157182384D01*
X163027595Y-157201718D01*
X163346675Y-157157961D01*
X163651088Y-157052795D01*
X163825044Y-156959814D01*
X163920808Y-156695413D01*
X162965000Y-155739605D01*
X162009192Y-156695413D01*
X44462700Y-156695413D01*
X44462700Y-155622595D01*
X161323282Y-155622595D01*
X161367039Y-155941675D01*
X161472205Y-156246088D01*
X161565186Y-156420044D01*
X161829587Y-156515808D01*
X162785395Y-155560000D01*
X163144605Y-155560000D01*
X164100413Y-156515808D01*
X164364814Y-156420044D01*
X164505704Y-156130429D01*
X164587384Y-155818892D01*
X164606718Y-155497405D01*
X164562961Y-155178325D01*
X164457795Y-154873912D01*
X164364814Y-154699956D01*
X164100413Y-154604192D01*
X163144605Y-155560000D01*
X162785395Y-155560000D01*
X161829587Y-154604192D01*
X161565186Y-154699956D01*
X161424296Y-154989571D01*
X161342616Y-155301108D01*
X161323282Y-155622595D01*
X44462700Y-155622595D01*
X44462700Y-153067611D01*
X82569500Y-153067611D01*
X82569500Y-153480389D01*
X82650029Y-153885235D01*
X82807992Y-154266591D01*
X83037319Y-154609803D01*
X83329197Y-154901681D01*
X83672409Y-155131008D01*
X84053765Y-155288971D01*
X84458611Y-155369500D01*
X84871389Y-155369500D01*
X85276235Y-155288971D01*
X85657591Y-155131008D01*
X86000803Y-154901681D01*
X86292681Y-154609803D01*
X86522008Y-154266591D01*
X86679971Y-153885235D01*
X86760500Y-153480389D01*
X86760500Y-153067611D01*
X86679971Y-152662765D01*
X86522008Y-152281409D01*
X86292681Y-151938197D01*
X86000803Y-151646319D01*
X85657591Y-151416992D01*
X85276235Y-151259029D01*
X84871389Y-151178500D01*
X84458611Y-151178500D01*
X84053765Y-151259029D01*
X83672409Y-151416992D01*
X83329197Y-151646319D01*
X83037319Y-151938197D01*
X82807992Y-152281409D01*
X82650029Y-152662765D01*
X82569500Y-153067611D01*
X44462700Y-153067611D01*
X44462700Y-150038529D01*
X83381077Y-150038529D01*
X83532334Y-150350045D01*
X83900393Y-150536910D01*
X84297834Y-150648381D01*
X84709386Y-150680172D01*
X85119231Y-150631063D01*
X85511621Y-150502940D01*
X85797666Y-150350045D01*
X85948923Y-150038529D01*
X84665000Y-148754605D01*
X83381077Y-150038529D01*
X44462700Y-150038529D01*
X44462700Y-148619386D01*
X82559828Y-148619386D01*
X82608937Y-149029231D01*
X82737060Y-149421621D01*
X82889955Y-149707666D01*
X83201471Y-149858923D01*
X84485395Y-148575000D01*
X84844605Y-148575000D01*
X86128529Y-149858923D01*
X86440045Y-149707666D01*
X86626910Y-149339607D01*
X86738381Y-148942166D01*
X86770172Y-148530614D01*
X86721063Y-148120769D01*
X86592940Y-147728379D01*
X86440045Y-147442334D01*
X86128529Y-147291077D01*
X84844605Y-148575000D01*
X84485395Y-148575000D01*
X83201471Y-147291077D01*
X82889955Y-147442334D01*
X82703090Y-147810393D01*
X82591619Y-148207834D01*
X82559828Y-148619386D01*
X44462700Y-148619386D01*
X44462700Y-147111471D01*
X83381077Y-147111471D01*
X84665000Y-148395395D01*
X85948923Y-147111471D01*
X85797666Y-146799955D01*
X85429607Y-146613090D01*
X85032166Y-146501619D01*
X84620614Y-146469828D01*
X84210769Y-146518937D01*
X83818379Y-146647060D01*
X83532334Y-146799955D01*
X83381077Y-147111471D01*
X44462700Y-147111471D01*
X44462700Y-143669611D01*
X82569500Y-143669611D01*
X82569500Y-144082389D01*
X82650029Y-144487235D01*
X82807992Y-144868591D01*
X83037319Y-145211803D01*
X83329197Y-145503681D01*
X83672409Y-145733008D01*
X84053765Y-145890971D01*
X84458611Y-145971500D01*
X84871389Y-145971500D01*
X85276235Y-145890971D01*
X85657591Y-145733008D01*
X85710870Y-145697408D01*
X97924000Y-145697408D01*
X97924000Y-145972592D01*
X97977686Y-146242490D01*
X98082995Y-146496727D01*
X98235880Y-146725535D01*
X98430465Y-146920120D01*
X98659273Y-147073005D01*
X98913510Y-147178314D01*
X99183408Y-147232000D01*
X99458592Y-147232000D01*
X99728490Y-147178314D01*
X99982727Y-147073005D01*
X100211535Y-146920120D01*
X100406120Y-146725535D01*
X100559005Y-146496727D01*
X100664314Y-146242490D01*
X100718000Y-145972592D01*
X100718000Y-145697408D01*
X100664314Y-145427510D01*
X100559005Y-145173273D01*
X100406120Y-144944465D01*
X100211535Y-144749880D01*
X99982727Y-144596995D01*
X99728490Y-144491686D01*
X99458592Y-144438000D01*
X99183408Y-144438000D01*
X98913510Y-144491686D01*
X98659273Y-144596995D01*
X98430465Y-144749880D01*
X98235880Y-144944465D01*
X98082995Y-145173273D01*
X97977686Y-145427510D01*
X97924000Y-145697408D01*
X85710870Y-145697408D01*
X86000803Y-145503681D01*
X86292681Y-145211803D01*
X86522008Y-144868591D01*
X86679971Y-144487235D01*
X86760500Y-144082389D01*
X86760500Y-143669611D01*
X86679971Y-143264765D01*
X86522008Y-142883409D01*
X86292681Y-142540197D01*
X86000803Y-142248319D01*
X85657591Y-142018992D01*
X85276235Y-141861029D01*
X84871389Y-141780500D01*
X84458611Y-141780500D01*
X84053765Y-141861029D01*
X83672409Y-142018992D01*
X83329197Y-142248319D01*
X83037319Y-142540197D01*
X82807992Y-142883409D01*
X82650029Y-143264765D01*
X82569500Y-143669611D01*
X44462700Y-143669611D01*
X44462700Y-135287611D01*
X82569500Y-135287611D01*
X82569500Y-135700389D01*
X82650029Y-136105235D01*
X82807992Y-136486591D01*
X83037319Y-136829803D01*
X83329197Y-137121681D01*
X83672409Y-137351008D01*
X84053765Y-137508971D01*
X84458611Y-137589500D01*
X84871389Y-137589500D01*
X85276235Y-137508971D01*
X85657591Y-137351008D01*
X86000803Y-137121681D01*
X86292681Y-136829803D01*
X86522008Y-136486591D01*
X86679971Y-136105235D01*
X86760500Y-135700389D01*
X86760500Y-135287611D01*
X86679971Y-134882765D01*
X86522008Y-134501409D01*
X86292681Y-134158197D01*
X86000803Y-133866319D01*
X85657591Y-133636992D01*
X85276235Y-133479029D01*
X84871389Y-133398500D01*
X84458611Y-133398500D01*
X84053765Y-133479029D01*
X83672409Y-133636992D01*
X83329197Y-133866319D01*
X83037319Y-134158197D01*
X82807992Y-134501409D01*
X82650029Y-134882765D01*
X82569500Y-135287611D01*
X44462700Y-135287611D01*
X44462700Y-132258529D01*
X83381077Y-132258529D01*
X83532334Y-132570045D01*
X83900393Y-132756910D01*
X84297834Y-132868381D01*
X84709386Y-132900172D01*
X85119231Y-132851063D01*
X85511621Y-132722940D01*
X85797666Y-132570045D01*
X85948923Y-132258529D01*
X84665000Y-130974605D01*
X83381077Y-132258529D01*
X44462700Y-132258529D01*
X44462700Y-130672408D01*
X61214000Y-130672408D01*
X61214000Y-130947592D01*
X61267686Y-131217490D01*
X61372995Y-131471727D01*
X61525880Y-131700535D01*
X61720465Y-131895120D01*
X61949273Y-132048005D01*
X62203510Y-132153314D01*
X62473408Y-132207000D01*
X62748592Y-132207000D01*
X63018490Y-132153314D01*
X63272727Y-132048005D01*
X63501535Y-131895120D01*
X63696120Y-131700535D01*
X63849005Y-131471727D01*
X63954314Y-131217490D01*
X64008000Y-130947592D01*
X64008000Y-130672408D01*
X70358000Y-130672408D01*
X70358000Y-130947592D01*
X70411686Y-131217490D01*
X70516995Y-131471727D01*
X70669880Y-131700535D01*
X70864465Y-131895120D01*
X71093273Y-132048005D01*
X71347510Y-132153314D01*
X71617408Y-132207000D01*
X71892592Y-132207000D01*
X72162490Y-132153314D01*
X72416727Y-132048005D01*
X72645535Y-131895120D01*
X72840120Y-131700535D01*
X72993005Y-131471727D01*
X73098314Y-131217490D01*
X73152000Y-130947592D01*
X73152000Y-130839386D01*
X82559828Y-130839386D01*
X82608937Y-131249231D01*
X82737060Y-131641621D01*
X82889955Y-131927666D01*
X83201471Y-132078923D01*
X84485395Y-130795000D01*
X84844605Y-130795000D01*
X86128529Y-132078923D01*
X86440045Y-131927666D01*
X86626910Y-131559607D01*
X86738381Y-131162166D01*
X86770172Y-130750614D01*
X86721063Y-130340769D01*
X86592940Y-129948379D01*
X86440045Y-129662334D01*
X86128529Y-129511077D01*
X84844605Y-130795000D01*
X84485395Y-130795000D01*
X83201471Y-129511077D01*
X82889955Y-129662334D01*
X82703090Y-130030393D01*
X82591619Y-130427834D01*
X82559828Y-130839386D01*
X73152000Y-130839386D01*
X73152000Y-130672408D01*
X73098314Y-130402510D01*
X72993005Y-130148273D01*
X72840120Y-129919465D01*
X72645535Y-129724880D01*
X72416727Y-129571995D01*
X72162490Y-129466686D01*
X71892592Y-129413000D01*
X71617408Y-129413000D01*
X71347510Y-129466686D01*
X71093273Y-129571995D01*
X70864465Y-129724880D01*
X70669880Y-129919465D01*
X70516995Y-130148273D01*
X70411686Y-130402510D01*
X70358000Y-130672408D01*
X64008000Y-130672408D01*
X63954314Y-130402510D01*
X63849005Y-130148273D01*
X63696120Y-129919465D01*
X63501535Y-129724880D01*
X63272727Y-129571995D01*
X63018490Y-129466686D01*
X62748592Y-129413000D01*
X62473408Y-129413000D01*
X62203510Y-129466686D01*
X61949273Y-129571995D01*
X61720465Y-129724880D01*
X61525880Y-129919465D01*
X61372995Y-130148273D01*
X61267686Y-130402510D01*
X61214000Y-130672408D01*
X44462700Y-130672408D01*
X44462700Y-129331471D01*
X83381077Y-129331471D01*
X84665000Y-130615395D01*
X85948923Y-129331471D01*
X85797666Y-129019955D01*
X85429607Y-128833090D01*
X85032166Y-128721619D01*
X84620614Y-128689828D01*
X84210769Y-128738937D01*
X83818379Y-128867060D01*
X83532334Y-129019955D01*
X83381077Y-129331471D01*
X44462700Y-129331471D01*
X44462700Y-125889611D01*
X82569500Y-125889611D01*
X82569500Y-126302389D01*
X82650029Y-126707235D01*
X82807992Y-127088591D01*
X83037319Y-127431803D01*
X83329197Y-127723681D01*
X83672409Y-127953008D01*
X84053765Y-128110971D01*
X84458611Y-128191500D01*
X84871389Y-128191500D01*
X85276235Y-128110971D01*
X85657591Y-127953008D01*
X86000803Y-127723681D01*
X86292681Y-127431803D01*
X86522008Y-127088591D01*
X86679971Y-126707235D01*
X86760500Y-126302389D01*
X86760500Y-125889611D01*
X86679971Y-125484765D01*
X86522008Y-125103409D01*
X86292681Y-124760197D01*
X86000803Y-124468319D01*
X85657591Y-124238992D01*
X85276235Y-124081029D01*
X84871389Y-124000500D01*
X84458611Y-124000500D01*
X84053765Y-124081029D01*
X83672409Y-124238992D01*
X83329197Y-124468319D01*
X83037319Y-124760197D01*
X82807992Y-125103409D01*
X82650029Y-125484765D01*
X82569500Y-125889611D01*
X44462700Y-125889611D01*
X44462700Y-116237611D01*
X82569500Y-116237611D01*
X82569500Y-116650389D01*
X82650029Y-117055235D01*
X82807992Y-117436591D01*
X83037319Y-117779803D01*
X83329197Y-118071681D01*
X83672409Y-118301008D01*
X84053765Y-118458971D01*
X84458611Y-118539500D01*
X84871389Y-118539500D01*
X85276235Y-118458971D01*
X85657591Y-118301008D01*
X86000803Y-118071681D01*
X86292681Y-117779803D01*
X86522008Y-117436591D01*
X86679971Y-117055235D01*
X86760500Y-116650389D01*
X86760500Y-116237611D01*
X86679971Y-115832765D01*
X86522008Y-115451409D01*
X86292681Y-115108197D01*
X86000803Y-114816319D01*
X85657591Y-114586992D01*
X85276235Y-114429029D01*
X84871389Y-114348500D01*
X84458611Y-114348500D01*
X84053765Y-114429029D01*
X83672409Y-114586992D01*
X83329197Y-114816319D01*
X83037319Y-115108197D01*
X82807992Y-115451409D01*
X82650029Y-115832765D01*
X82569500Y-116237611D01*
X44462700Y-116237611D01*
X44462700Y-113208529D01*
X83381077Y-113208529D01*
X83532334Y-113520045D01*
X83900393Y-113706910D01*
X84297834Y-113818381D01*
X84709386Y-113850172D01*
X85119231Y-113801063D01*
X85511621Y-113672940D01*
X85797666Y-113520045D01*
X85948923Y-113208529D01*
X84665000Y-111924605D01*
X83381077Y-113208529D01*
X44462700Y-113208529D01*
X44462700Y-111789386D01*
X82559828Y-111789386D01*
X82608937Y-112199231D01*
X82737060Y-112591621D01*
X82889955Y-112877666D01*
X83201471Y-113028923D01*
X84485395Y-111745000D01*
X84844605Y-111745000D01*
X86128529Y-113028923D01*
X86440045Y-112877666D01*
X86626910Y-112509607D01*
X86738381Y-112112166D01*
X86770172Y-111700614D01*
X86721063Y-111290769D01*
X86592940Y-110898379D01*
X86440045Y-110612334D01*
X86128529Y-110461077D01*
X84844605Y-111745000D01*
X84485395Y-111745000D01*
X83201471Y-110461077D01*
X82889955Y-110612334D01*
X82703090Y-110980393D01*
X82591619Y-111377834D01*
X82559828Y-111789386D01*
X44462700Y-111789386D01*
X44462700Y-110281471D01*
X83381077Y-110281471D01*
X84665000Y-111565395D01*
X85948923Y-110281471D01*
X85797666Y-109969955D01*
X85429607Y-109783090D01*
X85032166Y-109671619D01*
X84620614Y-109639828D01*
X84210769Y-109688937D01*
X83818379Y-109817060D01*
X83532334Y-109969955D01*
X83381077Y-110281471D01*
X44462700Y-110281471D01*
X44462700Y-106839611D01*
X82569500Y-106839611D01*
X82569500Y-107252389D01*
X82650029Y-107657235D01*
X82807992Y-108038591D01*
X83037319Y-108381803D01*
X83329197Y-108673681D01*
X83672409Y-108903008D01*
X84053765Y-109060971D01*
X84458611Y-109141500D01*
X84871389Y-109141500D01*
X85276235Y-109060971D01*
X85657591Y-108903008D01*
X86000803Y-108673681D01*
X86292681Y-108381803D01*
X86522008Y-108038591D01*
X86679971Y-107657235D01*
X86760500Y-107252389D01*
X86760500Y-106839611D01*
X86679971Y-106434765D01*
X86522008Y-106053409D01*
X86292681Y-105710197D01*
X86000803Y-105418319D01*
X85657591Y-105188992D01*
X85276235Y-105031029D01*
X84871389Y-104950500D01*
X84458611Y-104950500D01*
X84053765Y-105031029D01*
X83672409Y-105188992D01*
X83329197Y-105418319D01*
X83037319Y-105710197D01*
X82807992Y-106053409D01*
X82650029Y-106434765D01*
X82569500Y-106839611D01*
X44462700Y-106839611D01*
X44462700Y-97187611D01*
X82569500Y-97187611D01*
X82569500Y-97600389D01*
X82650029Y-98005235D01*
X82807992Y-98386591D01*
X83037319Y-98729803D01*
X83329197Y-99021681D01*
X83672409Y-99251008D01*
X84053765Y-99408971D01*
X84458611Y-99489500D01*
X84871389Y-99489500D01*
X85276235Y-99408971D01*
X85657591Y-99251008D01*
X86000803Y-99021681D01*
X86292681Y-98729803D01*
X86522008Y-98386591D01*
X86679971Y-98005235D01*
X86760500Y-97600389D01*
X86760500Y-97187611D01*
X86679971Y-96782765D01*
X86522008Y-96401409D01*
X86292681Y-96058197D01*
X86000803Y-95766319D01*
X85657591Y-95536992D01*
X85276235Y-95379029D01*
X84871389Y-95298500D01*
X84458611Y-95298500D01*
X84053765Y-95379029D01*
X83672409Y-95536992D01*
X83329197Y-95766319D01*
X83037319Y-96058197D01*
X82807992Y-96401409D01*
X82650029Y-96782765D01*
X82569500Y-97187611D01*
X44462700Y-97187611D01*
X44462700Y-94158529D01*
X83381077Y-94158529D01*
X83532334Y-94470045D01*
X83900393Y-94656910D01*
X84297834Y-94768381D01*
X84709386Y-94800172D01*
X85119231Y-94751063D01*
X85511621Y-94622940D01*
X85797666Y-94470045D01*
X85948923Y-94158529D01*
X84665000Y-92874605D01*
X83381077Y-94158529D01*
X44462700Y-94158529D01*
X44462700Y-92739386D01*
X82559828Y-92739386D01*
X82608937Y-93149231D01*
X82737060Y-93541621D01*
X82889955Y-93827666D01*
X83201471Y-93978923D01*
X84485395Y-92695000D01*
X84844605Y-92695000D01*
X86128529Y-93978923D01*
X86440045Y-93827666D01*
X86626910Y-93459607D01*
X86738381Y-93062166D01*
X86770172Y-92650614D01*
X86721063Y-92240769D01*
X86592940Y-91848379D01*
X86440045Y-91562334D01*
X86128529Y-91411077D01*
X84844605Y-92695000D01*
X84485395Y-92695000D01*
X83201471Y-91411077D01*
X82889955Y-91562334D01*
X82703090Y-91930393D01*
X82591619Y-92327834D01*
X82559828Y-92739386D01*
X44462700Y-92739386D01*
X44462700Y-91231471D01*
X83381077Y-91231471D01*
X84665000Y-92515395D01*
X85948923Y-91231471D01*
X85797666Y-90919955D01*
X85429607Y-90733090D01*
X85032166Y-90621619D01*
X84620614Y-90589828D01*
X84210769Y-90638937D01*
X83818379Y-90767060D01*
X83532334Y-90919955D01*
X83381077Y-91231471D01*
X44462700Y-91231471D01*
X44462700Y-87789611D01*
X82569500Y-87789611D01*
X82569500Y-88202389D01*
X82650029Y-88607235D01*
X82807992Y-88988591D01*
X83037319Y-89331803D01*
X83329197Y-89623681D01*
X83672409Y-89853008D01*
X84053765Y-90010971D01*
X84458611Y-90091500D01*
X84871389Y-90091500D01*
X85276235Y-90010971D01*
X85657591Y-89853008D01*
X86000803Y-89623681D01*
X86292681Y-89331803D01*
X86522008Y-88988591D01*
X86679971Y-88607235D01*
X86760500Y-88202389D01*
X86760500Y-87789611D01*
X86679971Y-87384765D01*
X86522008Y-87003409D01*
X86292681Y-86660197D01*
X86000803Y-86368319D01*
X85657591Y-86138992D01*
X85276235Y-85981029D01*
X84871389Y-85900500D01*
X84458611Y-85900500D01*
X84053765Y-85981029D01*
X83672409Y-86138992D01*
X83329197Y-86368319D01*
X83037319Y-86660197D01*
X82807992Y-87003409D01*
X82650029Y-87384765D01*
X82569500Y-87789611D01*
X44462700Y-87789611D01*
X44462700Y-73522408D01*
X61214000Y-73522408D01*
X61214000Y-73797592D01*
X61267686Y-74067490D01*
X61372995Y-74321727D01*
X61525880Y-74550535D01*
X61720465Y-74745120D01*
X61949273Y-74898005D01*
X62203510Y-75003314D01*
X62473408Y-75057000D01*
X62748592Y-75057000D01*
X63018490Y-75003314D01*
X63272727Y-74898005D01*
X63501535Y-74745120D01*
X63696120Y-74550535D01*
X63849005Y-74321727D01*
X63954314Y-74067490D01*
X64008000Y-73797592D01*
X64008000Y-73522408D01*
X70358000Y-73522408D01*
X70358000Y-73797592D01*
X70411686Y-74067490D01*
X70516995Y-74321727D01*
X70669880Y-74550535D01*
X70864465Y-74745120D01*
X70993000Y-74831005D01*
X70993001Y-79210567D01*
X70989314Y-79248000D01*
X71004027Y-79397378D01*
X71047599Y-79541015D01*
X71118355Y-79673392D01*
X71189721Y-79760351D01*
X71213579Y-79789422D01*
X71242649Y-79813279D01*
X75518121Y-84088752D01*
X75541979Y-84117823D01*
X75658009Y-84213046D01*
X75790386Y-84283803D01*
X75934023Y-84327375D01*
X76045975Y-84338401D01*
X76045977Y-84338401D01*
X76083400Y-84342087D01*
X76120823Y-84338401D01*
X95029215Y-84338401D01*
X94947031Y-84461398D01*
X94849381Y-84697146D01*
X94799600Y-84947414D01*
X94799600Y-85202586D01*
X94849381Y-85452854D01*
X94947031Y-85688602D01*
X95088797Y-85900769D01*
X95269231Y-86081203D01*
X95481398Y-86222969D01*
X95717146Y-86320619D01*
X95839719Y-86345000D01*
X95717146Y-86369381D01*
X95481398Y-86467031D01*
X95269231Y-86608797D01*
X95088797Y-86789231D01*
X94947031Y-87001398D01*
X94849381Y-87237146D01*
X94799600Y-87487414D01*
X94799600Y-87742586D01*
X94849381Y-87992854D01*
X94947031Y-88228602D01*
X95088797Y-88440769D01*
X95269231Y-88621203D01*
X95481398Y-88762969D01*
X95717146Y-88860619D01*
X95839719Y-88885000D01*
X95717146Y-88909381D01*
X95481398Y-89007031D01*
X95269231Y-89148797D01*
X95088797Y-89329231D01*
X94947031Y-89541398D01*
X94849381Y-89777146D01*
X94799600Y-90027414D01*
X94799600Y-90282586D01*
X94849381Y-90532854D01*
X94947031Y-90768602D01*
X95088797Y-90980769D01*
X95269231Y-91161203D01*
X95481398Y-91302969D01*
X95717146Y-91400619D01*
X95839719Y-91425000D01*
X95717146Y-91449381D01*
X95481398Y-91547031D01*
X95269231Y-91688797D01*
X95088797Y-91869231D01*
X94947031Y-92081398D01*
X94849381Y-92317146D01*
X94799600Y-92567414D01*
X94799600Y-92822586D01*
X94849381Y-93072854D01*
X94947031Y-93308602D01*
X95088797Y-93520769D01*
X95269231Y-93701203D01*
X95481398Y-93842969D01*
X95717146Y-93940619D01*
X95839719Y-93965000D01*
X95717146Y-93989381D01*
X95481398Y-94087031D01*
X95269231Y-94228797D01*
X95088797Y-94409231D01*
X94947031Y-94621398D01*
X94849381Y-94857146D01*
X94799600Y-95107414D01*
X94799600Y-95362586D01*
X94849381Y-95612854D01*
X94947031Y-95848602D01*
X95088797Y-96060769D01*
X95269231Y-96241203D01*
X95481398Y-96382969D01*
X95717146Y-96480619D01*
X95839719Y-96505000D01*
X95717146Y-96529381D01*
X95481398Y-96627031D01*
X95269231Y-96768797D01*
X95088797Y-96949231D01*
X94947031Y-97161398D01*
X94849381Y-97397146D01*
X94799600Y-97647414D01*
X94799600Y-97902586D01*
X94849381Y-98152854D01*
X94947031Y-98388602D01*
X95088797Y-98600769D01*
X95269231Y-98781203D01*
X95481398Y-98922969D01*
X95717146Y-99020619D01*
X95839719Y-99045000D01*
X95717146Y-99069381D01*
X95481398Y-99167031D01*
X95269231Y-99308797D01*
X95088797Y-99489231D01*
X94947031Y-99701398D01*
X94849381Y-99937146D01*
X94799600Y-100187414D01*
X94799600Y-100442586D01*
X94849381Y-100692854D01*
X94947031Y-100928602D01*
X95088797Y-101140769D01*
X95269231Y-101321203D01*
X95481398Y-101462969D01*
X95717146Y-101560619D01*
X95839719Y-101585000D01*
X95717146Y-101609381D01*
X95481398Y-101707031D01*
X95269231Y-101848797D01*
X95088797Y-102029231D01*
X94947031Y-102241398D01*
X94849381Y-102477146D01*
X94799600Y-102727414D01*
X94799600Y-102982586D01*
X94849381Y-103232854D01*
X94947031Y-103468602D01*
X95088797Y-103680769D01*
X95269231Y-103861203D01*
X95481398Y-104002969D01*
X95717146Y-104100619D01*
X95839719Y-104125000D01*
X95717146Y-104149381D01*
X95481398Y-104247031D01*
X95269231Y-104388797D01*
X95088797Y-104569231D01*
X94947031Y-104781398D01*
X94849381Y-105017146D01*
X94799600Y-105267414D01*
X94799600Y-105522586D01*
X94849381Y-105772854D01*
X94947031Y-106008602D01*
X95088797Y-106220769D01*
X95269231Y-106401203D01*
X95481398Y-106542969D01*
X95717146Y-106640619D01*
X95839719Y-106665000D01*
X95717146Y-106689381D01*
X95481398Y-106787031D01*
X95269231Y-106928797D01*
X95088797Y-107109231D01*
X94947031Y-107321398D01*
X94849381Y-107557146D01*
X94799600Y-107807414D01*
X94799600Y-108062586D01*
X94849381Y-108312854D01*
X94947031Y-108548602D01*
X95088797Y-108760769D01*
X95269231Y-108941203D01*
X95481398Y-109082969D01*
X95717146Y-109180619D01*
X95839719Y-109205000D01*
X95717146Y-109229381D01*
X95481398Y-109327031D01*
X95269231Y-109468797D01*
X95088797Y-109649231D01*
X94947031Y-109861398D01*
X94849381Y-110097146D01*
X94799600Y-110347414D01*
X94799600Y-110602586D01*
X94849381Y-110852854D01*
X94947031Y-111088602D01*
X95088797Y-111300769D01*
X95269231Y-111481203D01*
X95481398Y-111622969D01*
X95717146Y-111720619D01*
X95839719Y-111745000D01*
X95717146Y-111769381D01*
X95481398Y-111867031D01*
X95269231Y-112008797D01*
X95088797Y-112189231D01*
X94947031Y-112401398D01*
X94849381Y-112637146D01*
X94799600Y-112887414D01*
X94799600Y-113142586D01*
X94849381Y-113392854D01*
X94947031Y-113628602D01*
X95088797Y-113840769D01*
X95269231Y-114021203D01*
X95481398Y-114162969D01*
X95717146Y-114260619D01*
X95839719Y-114285000D01*
X95717146Y-114309381D01*
X95481398Y-114407031D01*
X95269231Y-114548797D01*
X95088797Y-114729231D01*
X94947031Y-114941398D01*
X94849381Y-115177146D01*
X94799600Y-115427414D01*
X94799600Y-115682586D01*
X94849381Y-115932854D01*
X94947031Y-116168602D01*
X95088797Y-116380769D01*
X95269231Y-116561203D01*
X95481398Y-116702969D01*
X95717146Y-116800619D01*
X95839719Y-116825000D01*
X95717146Y-116849381D01*
X95481398Y-116947031D01*
X95269231Y-117088797D01*
X95088797Y-117269231D01*
X94947031Y-117481398D01*
X94849381Y-117717146D01*
X94799600Y-117967414D01*
X94799600Y-118222586D01*
X94849381Y-118472854D01*
X94947031Y-118708602D01*
X95088797Y-118920769D01*
X95269231Y-119101203D01*
X95481398Y-119242969D01*
X95717146Y-119340619D01*
X95839719Y-119365000D01*
X95717146Y-119389381D01*
X95481398Y-119487031D01*
X95269231Y-119628797D01*
X95088797Y-119809231D01*
X94947031Y-120021398D01*
X94849381Y-120257146D01*
X94799600Y-120507414D01*
X94799600Y-120762586D01*
X94849381Y-121012854D01*
X94947031Y-121248602D01*
X95088797Y-121460769D01*
X95269231Y-121641203D01*
X95481398Y-121782969D01*
X95717146Y-121880619D01*
X95839719Y-121905000D01*
X95717146Y-121929381D01*
X95481398Y-122027031D01*
X95269231Y-122168797D01*
X95088797Y-122349231D01*
X94947031Y-122561398D01*
X94849381Y-122797146D01*
X94799600Y-123047414D01*
X94799600Y-123302586D01*
X94849381Y-123552854D01*
X94947031Y-123788602D01*
X95088797Y-124000769D01*
X95269231Y-124181203D01*
X95481398Y-124322969D01*
X95717146Y-124420619D01*
X95839719Y-124445000D01*
X95717146Y-124469381D01*
X95481398Y-124567031D01*
X95269231Y-124708797D01*
X95088797Y-124889231D01*
X94947031Y-125101398D01*
X94849381Y-125337146D01*
X94799600Y-125587414D01*
X94799600Y-125842586D01*
X94849381Y-126092854D01*
X94947031Y-126328602D01*
X95088797Y-126540769D01*
X95269231Y-126721203D01*
X95481398Y-126862969D01*
X95717146Y-126960619D01*
X95839719Y-126985000D01*
X95717146Y-127009381D01*
X95481398Y-127107031D01*
X95269231Y-127248797D01*
X95088797Y-127429231D01*
X94947031Y-127641398D01*
X94849381Y-127877146D01*
X94799600Y-128127414D01*
X94799600Y-128382586D01*
X94849381Y-128632854D01*
X94947031Y-128868602D01*
X95088797Y-129080769D01*
X95269231Y-129261203D01*
X95481398Y-129402969D01*
X95717146Y-129500619D01*
X95839719Y-129525000D01*
X95717146Y-129549381D01*
X95481398Y-129647031D01*
X95269231Y-129788797D01*
X95088797Y-129969231D01*
X94947031Y-130181398D01*
X94849381Y-130417146D01*
X94799600Y-130667414D01*
X94799600Y-130922586D01*
X94849381Y-131172854D01*
X94947031Y-131408602D01*
X95088797Y-131620769D01*
X95269231Y-131801203D01*
X95481398Y-131942969D01*
X95717146Y-132040619D01*
X95967414Y-132090400D01*
X96222586Y-132090400D01*
X96472854Y-132040619D01*
X96708602Y-131942969D01*
X96920769Y-131801203D01*
X97101203Y-131620769D01*
X97143812Y-131557000D01*
X102212577Y-131557000D01*
X102250000Y-131560686D01*
X102287423Y-131557000D01*
X102287426Y-131557000D01*
X102399378Y-131545974D01*
X102543015Y-131502402D01*
X102675392Y-131431645D01*
X102791422Y-131336422D01*
X102815284Y-131307346D01*
X107823000Y-126299630D01*
X107823000Y-126430369D01*
X95569370Y-138684000D01*
X76493841Y-138684000D01*
X76466662Y-138656821D01*
X76300256Y-138545632D01*
X76115356Y-138469044D01*
X75919067Y-138430000D01*
X75718933Y-138430000D01*
X75522644Y-138469044D01*
X75337744Y-138545632D01*
X75171338Y-138656821D01*
X75029821Y-138798338D01*
X74918632Y-138964744D01*
X74842044Y-139149644D01*
X74803000Y-139345933D01*
X74803000Y-139546067D01*
X74842044Y-139742356D01*
X74918632Y-139927256D01*
X75029821Y-140093662D01*
X75171338Y-140235179D01*
X75337744Y-140346368D01*
X75522644Y-140422956D01*
X75718933Y-140462000D01*
X75919067Y-140462000D01*
X76115356Y-140422956D01*
X76300256Y-140346368D01*
X76466662Y-140235179D01*
X76493841Y-140208000D01*
X95847577Y-140208000D01*
X95885000Y-140211686D01*
X95922423Y-140208000D01*
X95922426Y-140208000D01*
X96034378Y-140196974D01*
X96178015Y-140153402D01*
X96310392Y-140082645D01*
X96426422Y-139987422D01*
X96450284Y-139958346D01*
X106553001Y-129855630D01*
X106553000Y-138005340D01*
X106548700Y-138049000D01*
X106553000Y-138092660D01*
X106553000Y-138092666D01*
X106565864Y-138223273D01*
X106616697Y-138390850D01*
X106699247Y-138545290D01*
X106810341Y-138680659D01*
X106844264Y-138708499D01*
X107576001Y-139440237D01*
X107576000Y-144748854D01*
X107574465Y-144749880D01*
X107379880Y-144944465D01*
X107226995Y-145173273D01*
X107121686Y-145427510D01*
X107068000Y-145697408D01*
X107068000Y-145972592D01*
X107121686Y-146242490D01*
X107226995Y-146496727D01*
X107379880Y-146725535D01*
X107574465Y-146920120D01*
X107803273Y-147073005D01*
X108057510Y-147178314D01*
X108327408Y-147232000D01*
X108602592Y-147232000D01*
X108872490Y-147178314D01*
X109126727Y-147073005D01*
X109355535Y-146920120D01*
X109550120Y-146725535D01*
X109703005Y-146496727D01*
X109808314Y-146242490D01*
X109862000Y-145972592D01*
X109862000Y-145697408D01*
X109808314Y-145427510D01*
X109703005Y-145173273D01*
X109550120Y-144944465D01*
X109355535Y-144749880D01*
X109354000Y-144748854D01*
X109354000Y-139115659D01*
X109358300Y-139071999D01*
X109354000Y-139028339D01*
X109354000Y-139028333D01*
X109341136Y-138897726D01*
X109341136Y-138897724D01*
X109290302Y-138730147D01*
X109271529Y-138695026D01*
X109207753Y-138575709D01*
X109096659Y-138440341D01*
X109062741Y-138412505D01*
X108331000Y-137680765D01*
X108331000Y-131926067D01*
X108370044Y-132122356D01*
X108446632Y-132307256D01*
X108557821Y-132473662D01*
X108699338Y-132615179D01*
X108865744Y-132726368D01*
X109050644Y-132802956D01*
X109246933Y-132842000D01*
X109447067Y-132842000D01*
X109643356Y-132802956D01*
X109828256Y-132726368D01*
X109994662Y-132615179D01*
X110136179Y-132473662D01*
X110247368Y-132307256D01*
X110323956Y-132122356D01*
X110363000Y-131926067D01*
X110363000Y-131725933D01*
X110345380Y-131637352D01*
X110509231Y-131801203D01*
X110721398Y-131942969D01*
X110957146Y-132040619D01*
X111207414Y-132090400D01*
X111462586Y-132090400D01*
X111712854Y-132040619D01*
X111948602Y-131942969D01*
X112160769Y-131801203D01*
X112341203Y-131620769D01*
X112482969Y-131408602D01*
X112580619Y-131172854D01*
X112630400Y-130922586D01*
X112630400Y-130667414D01*
X112580619Y-130417146D01*
X112482969Y-130181398D01*
X112341203Y-129969231D01*
X112160769Y-129788797D01*
X111948602Y-129647031D01*
X111712854Y-129549381D01*
X111590281Y-129525000D01*
X111712854Y-129500619D01*
X111948602Y-129402969D01*
X112160769Y-129261203D01*
X112341203Y-129080769D01*
X112482969Y-128868602D01*
X112580619Y-128632854D01*
X112630400Y-128382586D01*
X112630400Y-128127414D01*
X112580619Y-127877146D01*
X112482969Y-127641398D01*
X112341203Y-127429231D01*
X112160769Y-127248797D01*
X111948602Y-127107031D01*
X111712854Y-127009381D01*
X111590281Y-126985000D01*
X111712854Y-126960619D01*
X111948602Y-126862969D01*
X112160769Y-126721203D01*
X112341203Y-126540769D01*
X112383812Y-126477000D01*
X115112370Y-126477000D01*
X116205001Y-127569631D01*
X116205000Y-147438577D01*
X116201314Y-147476000D01*
X116205000Y-147513423D01*
X116205000Y-147513425D01*
X116216026Y-147625377D01*
X116259598Y-147769014D01*
X116259599Y-147769015D01*
X116330355Y-147901392D01*
X116369983Y-147949678D01*
X116425578Y-148017422D01*
X116454654Y-148041284D01*
X120845543Y-152432174D01*
X120750029Y-152662765D01*
X120669500Y-153067611D01*
X120669500Y-153480389D01*
X120750029Y-153885235D01*
X120907992Y-154266591D01*
X121137319Y-154609803D01*
X121429197Y-154901681D01*
X121772409Y-155131008D01*
X122153765Y-155288971D01*
X122558611Y-155369500D01*
X122971389Y-155369500D01*
X123376235Y-155288971D01*
X123757591Y-155131008D01*
X124100803Y-154901681D01*
X124392681Y-154609803D01*
X124516438Y-154424587D01*
X162009192Y-154424587D01*
X162965000Y-155380395D01*
X163920808Y-154424587D01*
X163825044Y-154160186D01*
X163535429Y-154019296D01*
X163223892Y-153937616D01*
X162902405Y-153918282D01*
X162583325Y-153962039D01*
X162278912Y-154067205D01*
X162104956Y-154160186D01*
X162009192Y-154424587D01*
X124516438Y-154424587D01*
X124622008Y-154266591D01*
X124779971Y-153885235D01*
X124860500Y-153480389D01*
X124860500Y-153067611D01*
X124779971Y-152662765D01*
X124622008Y-152281409D01*
X124392681Y-151938197D01*
X124100803Y-151646319D01*
X123757591Y-151416992D01*
X123376235Y-151259029D01*
X122971389Y-151178500D01*
X122558611Y-151178500D01*
X122153765Y-151259029D01*
X121923174Y-151354543D01*
X120607160Y-150038529D01*
X121481077Y-150038529D01*
X121632334Y-150350045D01*
X122000393Y-150536910D01*
X122397834Y-150648381D01*
X122809386Y-150680172D01*
X123219231Y-150631063D01*
X123611621Y-150502940D01*
X123897666Y-150350045D01*
X123912755Y-150318967D01*
X161330000Y-150318967D01*
X161330000Y-150641033D01*
X161392832Y-150956912D01*
X161516082Y-151254463D01*
X161695013Y-151522252D01*
X161922748Y-151749987D01*
X162190537Y-151928918D01*
X162488088Y-152052168D01*
X162803967Y-152115000D01*
X163126033Y-152115000D01*
X163441912Y-152052168D01*
X163739463Y-151928918D01*
X164007252Y-151749987D01*
X164234987Y-151522252D01*
X164413918Y-151254463D01*
X164537168Y-150956912D01*
X164600000Y-150641033D01*
X164600000Y-150318967D01*
X164537168Y-150003088D01*
X164413918Y-149705537D01*
X164234987Y-149437748D01*
X164007252Y-149210013D01*
X163739463Y-149031082D01*
X163441912Y-148907832D01*
X163126033Y-148845000D01*
X162803967Y-148845000D01*
X162488088Y-148907832D01*
X162190537Y-149031082D01*
X161922748Y-149210013D01*
X161695013Y-149437748D01*
X161516082Y-149705537D01*
X161392832Y-150003088D01*
X161330000Y-150318967D01*
X123912755Y-150318967D01*
X124048923Y-150038529D01*
X122765000Y-148754605D01*
X121481077Y-150038529D01*
X120607160Y-150038529D01*
X119188017Y-148619386D01*
X120659828Y-148619386D01*
X120708937Y-149029231D01*
X120837060Y-149421621D01*
X120989955Y-149707666D01*
X121301471Y-149858923D01*
X122585395Y-148575000D01*
X122944605Y-148575000D01*
X124228529Y-149858923D01*
X124540045Y-149707666D01*
X124726910Y-149339607D01*
X124838381Y-148942166D01*
X124870172Y-148530614D01*
X124821063Y-148120769D01*
X124692940Y-147728379D01*
X124540045Y-147442334D01*
X124228529Y-147291077D01*
X122944605Y-148575000D01*
X122585395Y-148575000D01*
X121301471Y-147291077D01*
X120989955Y-147442334D01*
X120803090Y-147810393D01*
X120691619Y-148207834D01*
X120659828Y-148619386D01*
X119188017Y-148619386D01*
X117729000Y-147160370D01*
X117729000Y-147111471D01*
X121481077Y-147111471D01*
X122765000Y-148395395D01*
X124048923Y-147111471D01*
X123897666Y-146799955D01*
X123529607Y-146613090D01*
X123132166Y-146501619D01*
X122720614Y-146469828D01*
X122310769Y-146518937D01*
X121918379Y-146647060D01*
X121632334Y-146799955D01*
X121481077Y-147111471D01*
X117729000Y-147111471D01*
X117729000Y-142555630D01*
X119561721Y-144388352D01*
X119585578Y-144417422D01*
X119614648Y-144441279D01*
X119701607Y-144512645D01*
X119772364Y-144550465D01*
X119833985Y-144583402D01*
X119977622Y-144626974D01*
X120089574Y-144638000D01*
X120089577Y-144638000D01*
X120127000Y-144641686D01*
X120164423Y-144638000D01*
X120812478Y-144638000D01*
X120907992Y-144868591D01*
X121137319Y-145211803D01*
X121429197Y-145503681D01*
X121772409Y-145733008D01*
X122153765Y-145890971D01*
X122558611Y-145971500D01*
X122971389Y-145971500D01*
X123376235Y-145890971D01*
X123757591Y-145733008D01*
X124100803Y-145503681D01*
X124365517Y-145238967D01*
X161330000Y-145238967D01*
X161330000Y-145561033D01*
X161392832Y-145876912D01*
X161516082Y-146174463D01*
X161695013Y-146442252D01*
X161922748Y-146669987D01*
X162190537Y-146848918D01*
X162488088Y-146972168D01*
X162803967Y-147035000D01*
X163126033Y-147035000D01*
X163441912Y-146972168D01*
X163739463Y-146848918D01*
X164007252Y-146669987D01*
X164234987Y-146442252D01*
X164413918Y-146174463D01*
X164537168Y-145876912D01*
X164600000Y-145561033D01*
X164600000Y-145238967D01*
X164537168Y-144923088D01*
X164413918Y-144625537D01*
X164234987Y-144357748D01*
X164007252Y-144130013D01*
X163739463Y-143951082D01*
X163441912Y-143827832D01*
X163126033Y-143765000D01*
X162803967Y-143765000D01*
X162488088Y-143827832D01*
X162190537Y-143951082D01*
X161922748Y-144130013D01*
X161695013Y-144357748D01*
X161516082Y-144625537D01*
X161392832Y-144923088D01*
X161330000Y-145238967D01*
X124365517Y-145238967D01*
X124392681Y-145211803D01*
X124622008Y-144868591D01*
X124779971Y-144487235D01*
X124860500Y-144082389D01*
X124860500Y-143669611D01*
X124779971Y-143264765D01*
X124622008Y-142883409D01*
X124392681Y-142540197D01*
X124100803Y-142248319D01*
X123757591Y-142018992D01*
X123376235Y-141861029D01*
X122971389Y-141780500D01*
X122558611Y-141780500D01*
X122153765Y-141861029D01*
X121772409Y-142018992D01*
X121429197Y-142248319D01*
X121137319Y-142540197D01*
X120907992Y-142883409D01*
X120812478Y-143114000D01*
X120442631Y-143114000D01*
X118745000Y-141416370D01*
X118745000Y-135287611D01*
X120669500Y-135287611D01*
X120669500Y-135700389D01*
X120750029Y-136105235D01*
X120907992Y-136486591D01*
X121137319Y-136829803D01*
X121429197Y-137121681D01*
X121772409Y-137351008D01*
X122153765Y-137508971D01*
X122558611Y-137589500D01*
X122971389Y-137589500D01*
X123376235Y-137508971D01*
X123757591Y-137351008D01*
X124100803Y-137121681D01*
X124392681Y-136829803D01*
X124622008Y-136486591D01*
X124779971Y-136105235D01*
X124860500Y-135700389D01*
X124860500Y-135287611D01*
X124779971Y-134882765D01*
X124622008Y-134501409D01*
X124392681Y-134158197D01*
X124100803Y-133866319D01*
X123757591Y-133636992D01*
X123376235Y-133479029D01*
X122971389Y-133398500D01*
X122558611Y-133398500D01*
X122153765Y-133479029D01*
X121772409Y-133636992D01*
X121429197Y-133866319D01*
X121137319Y-134158197D01*
X120907992Y-134501409D01*
X120750029Y-134882765D01*
X120669500Y-135287611D01*
X118745000Y-135287611D01*
X118745000Y-132258529D01*
X121481077Y-132258529D01*
X121632334Y-132570045D01*
X122000393Y-132756910D01*
X122397834Y-132868381D01*
X122809386Y-132900172D01*
X123219231Y-132851063D01*
X123611621Y-132722940D01*
X123897666Y-132570045D01*
X124048923Y-132258529D01*
X122765000Y-130974605D01*
X121481077Y-132258529D01*
X118745000Y-132258529D01*
X118745000Y-130839386D01*
X120659828Y-130839386D01*
X120708937Y-131249231D01*
X120837060Y-131641621D01*
X120989955Y-131927666D01*
X121301471Y-132078923D01*
X122585395Y-130795000D01*
X122944605Y-130795000D01*
X124228529Y-132078923D01*
X124540045Y-131927666D01*
X124726910Y-131559607D01*
X124838381Y-131162166D01*
X124870172Y-130750614D01*
X124860802Y-130672408D01*
X133858000Y-130672408D01*
X133858000Y-130947592D01*
X133911686Y-131217490D01*
X134016995Y-131471727D01*
X134169880Y-131700535D01*
X134364465Y-131895120D01*
X134593273Y-132048005D01*
X134847510Y-132153314D01*
X135117408Y-132207000D01*
X135392592Y-132207000D01*
X135662490Y-132153314D01*
X135916727Y-132048005D01*
X136145535Y-131895120D01*
X136340120Y-131700535D01*
X136493005Y-131471727D01*
X136598314Y-131217490D01*
X136652000Y-130947592D01*
X136652000Y-130672408D01*
X136598314Y-130402510D01*
X136493005Y-130148273D01*
X136340120Y-129919465D01*
X136145535Y-129724880D01*
X135916727Y-129571995D01*
X135662490Y-129466686D01*
X135392592Y-129413000D01*
X135117408Y-129413000D01*
X134847510Y-129466686D01*
X134593273Y-129571995D01*
X134364465Y-129724880D01*
X134169880Y-129919465D01*
X134016995Y-130148273D01*
X133911686Y-130402510D01*
X133858000Y-130672408D01*
X124860802Y-130672408D01*
X124821063Y-130340769D01*
X124692940Y-129948379D01*
X124540045Y-129662334D01*
X124228529Y-129511077D01*
X122944605Y-130795000D01*
X122585395Y-130795000D01*
X121301471Y-129511077D01*
X120989955Y-129662334D01*
X120803090Y-130030393D01*
X120691619Y-130427834D01*
X120659828Y-130839386D01*
X118745000Y-130839386D01*
X118745000Y-129331471D01*
X121481077Y-129331471D01*
X122765000Y-130615395D01*
X124048923Y-129331471D01*
X123897666Y-129019955D01*
X123529607Y-128833090D01*
X123132166Y-128721619D01*
X122720614Y-128689828D01*
X122310769Y-128738937D01*
X121918379Y-128867060D01*
X121632334Y-129019955D01*
X121481077Y-129331471D01*
X118745000Y-129331471D01*
X118745000Y-125889611D01*
X120669500Y-125889611D01*
X120669500Y-126302389D01*
X120750029Y-126707235D01*
X120907992Y-127088591D01*
X121137319Y-127431803D01*
X121429197Y-127723681D01*
X121772409Y-127953008D01*
X122153765Y-128110971D01*
X122558611Y-128191500D01*
X122971389Y-128191500D01*
X123376235Y-128110971D01*
X123757591Y-127953008D01*
X124100803Y-127723681D01*
X124392681Y-127431803D01*
X124622008Y-127088591D01*
X124779971Y-126707235D01*
X124860500Y-126302389D01*
X124860500Y-125889611D01*
X124779971Y-125484765D01*
X124622008Y-125103409D01*
X124392681Y-124760197D01*
X124100803Y-124468319D01*
X123757591Y-124238992D01*
X123376235Y-124081029D01*
X122971389Y-124000500D01*
X122558611Y-124000500D01*
X122153765Y-124081029D01*
X121772409Y-124238992D01*
X121429197Y-124468319D01*
X121137319Y-124760197D01*
X120907992Y-125103409D01*
X120750029Y-125484765D01*
X120669500Y-125889611D01*
X118745000Y-125889611D01*
X118745000Y-125767423D01*
X118748686Y-125730000D01*
X118745000Y-125692574D01*
X118733974Y-125580622D01*
X118690402Y-125436985D01*
X118637037Y-125337146D01*
X118619645Y-125304607D01*
X118584857Y-125262219D01*
X118524422Y-125188578D01*
X118495346Y-125164716D01*
X115993284Y-122662654D01*
X115969422Y-122633578D01*
X115853392Y-122538355D01*
X115721015Y-122467598D01*
X115577378Y-122424026D01*
X115465426Y-122413000D01*
X115465423Y-122413000D01*
X115428000Y-122409314D01*
X115390577Y-122413000D01*
X112383812Y-122413000D01*
X112341203Y-122349231D01*
X112160769Y-122168797D01*
X111948602Y-122027031D01*
X111712854Y-121929381D01*
X111590281Y-121905000D01*
X111712854Y-121880619D01*
X111948602Y-121782969D01*
X112160769Y-121641203D01*
X112341203Y-121460769D01*
X112482969Y-121248602D01*
X112580619Y-121012854D01*
X112630400Y-120762586D01*
X112630400Y-120507414D01*
X112580619Y-120257146D01*
X112482969Y-120021398D01*
X112341203Y-119809231D01*
X112160769Y-119628797D01*
X111948602Y-119487031D01*
X111712854Y-119389381D01*
X111590281Y-119365000D01*
X111712854Y-119340619D01*
X111948602Y-119242969D01*
X112160769Y-119101203D01*
X112341203Y-118920769D01*
X112482969Y-118708602D01*
X112580619Y-118472854D01*
X112630400Y-118222586D01*
X112630400Y-117967414D01*
X112580619Y-117717146D01*
X112482969Y-117481398D01*
X112341203Y-117269231D01*
X112160769Y-117088797D01*
X111948602Y-116947031D01*
X111712854Y-116849381D01*
X111590281Y-116825000D01*
X111712854Y-116800619D01*
X111948602Y-116702969D01*
X112160769Y-116561203D01*
X112341203Y-116380769D01*
X112482969Y-116168602D01*
X112580619Y-115932854D01*
X112630400Y-115682586D01*
X112630400Y-115427414D01*
X112580619Y-115177146D01*
X112482969Y-114941398D01*
X112341203Y-114729231D01*
X112160769Y-114548797D01*
X111948602Y-114407031D01*
X111712854Y-114309381D01*
X111590281Y-114285000D01*
X111712854Y-114260619D01*
X111948602Y-114162969D01*
X112160769Y-114021203D01*
X112341203Y-113840769D01*
X112383812Y-113777000D01*
X114096370Y-113777000D01*
X114935001Y-114615632D01*
X114935000Y-118326577D01*
X114931314Y-118364000D01*
X114935000Y-118401423D01*
X114935000Y-118401425D01*
X114946026Y-118513377D01*
X114989598Y-118657014D01*
X115017172Y-118708602D01*
X115060355Y-118789392D01*
X115083342Y-118817401D01*
X115155578Y-118905422D01*
X115184654Y-118929284D01*
X117163720Y-120908351D01*
X117187578Y-120937422D01*
X117216648Y-120961279D01*
X117303607Y-121032645D01*
X117355519Y-121060392D01*
X117435985Y-121103402D01*
X117579622Y-121146974D01*
X117691574Y-121158000D01*
X117691577Y-121158000D01*
X117729000Y-121161686D01*
X117766423Y-121158000D01*
X133669370Y-121158000D01*
X143032159Y-130520790D01*
X143002000Y-130672408D01*
X143002000Y-130947592D01*
X143055686Y-131217490D01*
X143160995Y-131471727D01*
X143313880Y-131700535D01*
X143508465Y-131895120D01*
X143737273Y-132048005D01*
X143991510Y-132153314D01*
X144261408Y-132207000D01*
X144536592Y-132207000D01*
X144806490Y-132153314D01*
X145060727Y-132048005D01*
X145289535Y-131895120D01*
X145484120Y-131700535D01*
X145637005Y-131471727D01*
X145742314Y-131217490D01*
X145796000Y-130947592D01*
X145796000Y-130672408D01*
X145742314Y-130402510D01*
X145637005Y-130148273D01*
X145484120Y-129919465D01*
X145289535Y-129724880D01*
X145060727Y-129571995D01*
X144806490Y-129466686D01*
X144536592Y-129413000D01*
X144261408Y-129413000D01*
X144109790Y-129443159D01*
X134550284Y-119883654D01*
X134526422Y-119854578D01*
X134410392Y-119759355D01*
X134278015Y-119688598D01*
X134134378Y-119645026D01*
X134022426Y-119634000D01*
X134022423Y-119634000D01*
X133985000Y-119630314D01*
X133947577Y-119634000D01*
X118044631Y-119634000D01*
X116459000Y-118048370D01*
X116459000Y-116237611D01*
X120669500Y-116237611D01*
X120669500Y-116650389D01*
X120750029Y-117055235D01*
X120907992Y-117436591D01*
X121137319Y-117779803D01*
X121429197Y-118071681D01*
X121772409Y-118301008D01*
X122153765Y-118458971D01*
X122558611Y-118539500D01*
X122971389Y-118539500D01*
X123376235Y-118458971D01*
X123757591Y-118301008D01*
X124100803Y-118071681D01*
X124392681Y-117779803D01*
X124622008Y-117436591D01*
X124779971Y-117055235D01*
X124860500Y-116650389D01*
X124860500Y-116237611D01*
X124779971Y-115832765D01*
X124622008Y-115451409D01*
X124392681Y-115108197D01*
X124100803Y-114816319D01*
X123757591Y-114586992D01*
X123376235Y-114429029D01*
X122971389Y-114348500D01*
X122558611Y-114348500D01*
X122153765Y-114429029D01*
X121772409Y-114586992D01*
X121429197Y-114816319D01*
X121137319Y-115108197D01*
X120907992Y-115451409D01*
X120750029Y-115832765D01*
X120669500Y-116237611D01*
X116459000Y-116237611D01*
X116459000Y-114337422D01*
X116462686Y-114299999D01*
X116454971Y-114221670D01*
X116447974Y-114150622D01*
X116404402Y-114006985D01*
X116333645Y-113874608D01*
X116238422Y-113758578D01*
X116209352Y-113734721D01*
X115683160Y-113208529D01*
X121481077Y-113208529D01*
X121632334Y-113520045D01*
X122000393Y-113706910D01*
X122397834Y-113818381D01*
X122809386Y-113850172D01*
X123219231Y-113801063D01*
X123611621Y-113672940D01*
X123897666Y-113520045D01*
X124048923Y-113208529D01*
X122765000Y-111924605D01*
X121481077Y-113208529D01*
X115683160Y-113208529D01*
X114977284Y-112502654D01*
X114953422Y-112473578D01*
X114837392Y-112378355D01*
X114705015Y-112307598D01*
X114561378Y-112264026D01*
X114449426Y-112253000D01*
X114449423Y-112253000D01*
X114412000Y-112249314D01*
X114374577Y-112253000D01*
X112383812Y-112253000D01*
X112341203Y-112189231D01*
X112160769Y-112008797D01*
X111948602Y-111867031D01*
X111761151Y-111789386D01*
X120659828Y-111789386D01*
X120708937Y-112199231D01*
X120837060Y-112591621D01*
X120989955Y-112877666D01*
X121301471Y-113028923D01*
X122585395Y-111745000D01*
X122944605Y-111745000D01*
X124228529Y-113028923D01*
X124540045Y-112877666D01*
X124726910Y-112509607D01*
X124838381Y-112112166D01*
X124870172Y-111700614D01*
X124821063Y-111290769D01*
X124692940Y-110898379D01*
X124540045Y-110612334D01*
X124228529Y-110461077D01*
X122944605Y-111745000D01*
X122585395Y-111745000D01*
X121301471Y-110461077D01*
X120989955Y-110612334D01*
X120803090Y-110980393D01*
X120691619Y-111377834D01*
X120659828Y-111789386D01*
X111761151Y-111789386D01*
X111712854Y-111769381D01*
X111590281Y-111745000D01*
X111712854Y-111720619D01*
X111948602Y-111622969D01*
X112160769Y-111481203D01*
X112341203Y-111300769D01*
X112383812Y-111237000D01*
X113642577Y-111237000D01*
X113680000Y-111240686D01*
X113717423Y-111237000D01*
X113717426Y-111237000D01*
X113829378Y-111225974D01*
X113973015Y-111182402D01*
X114105392Y-111111645D01*
X114221422Y-111016422D01*
X114245284Y-110987346D01*
X114951159Y-110281471D01*
X121481077Y-110281471D01*
X122765000Y-111565395D01*
X124048923Y-110281471D01*
X123897666Y-109969955D01*
X123529607Y-109783090D01*
X123132166Y-109671619D01*
X122720614Y-109639828D01*
X122310769Y-109688937D01*
X121918379Y-109817060D01*
X121632334Y-109969955D01*
X121481077Y-110281471D01*
X114951159Y-110281471D01*
X116463352Y-108769279D01*
X116492422Y-108745422D01*
X116551298Y-108673681D01*
X116587645Y-108629393D01*
X116658401Y-108497016D01*
X116658402Y-108497015D01*
X116701974Y-108353378D01*
X116713000Y-108241426D01*
X116713000Y-108241424D01*
X116716686Y-108204001D01*
X116713000Y-108166578D01*
X116713000Y-106839611D01*
X120669500Y-106839611D01*
X120669500Y-107252389D01*
X120750029Y-107657235D01*
X120907992Y-108038591D01*
X121137319Y-108381803D01*
X121429197Y-108673681D01*
X121772409Y-108903008D01*
X122153765Y-109060971D01*
X122558611Y-109141500D01*
X122971389Y-109141500D01*
X123376235Y-109060971D01*
X123757591Y-108903008D01*
X124100803Y-108673681D01*
X124392681Y-108381803D01*
X124622008Y-108038591D01*
X124779971Y-107657235D01*
X124860500Y-107252389D01*
X124860500Y-106839611D01*
X124779971Y-106434765D01*
X124622008Y-106053409D01*
X124392681Y-105710197D01*
X124100803Y-105418319D01*
X123757591Y-105188992D01*
X123376235Y-105031029D01*
X122971389Y-104950500D01*
X122558611Y-104950500D01*
X122153765Y-105031029D01*
X121772409Y-105188992D01*
X121429197Y-105418319D01*
X121137319Y-105710197D01*
X120907992Y-106053409D01*
X120750029Y-106434765D01*
X120669500Y-106839611D01*
X116713000Y-106839611D01*
X116713000Y-104709630D01*
X118806631Y-102616000D01*
X140297577Y-102616000D01*
X140335000Y-102619686D01*
X140372423Y-102616000D01*
X140372426Y-102616000D01*
X140484378Y-102604974D01*
X140628015Y-102561402D01*
X140760392Y-102490645D01*
X140876422Y-102395422D01*
X140900284Y-102366346D01*
X144911352Y-98355279D01*
X144940422Y-98331422D01*
X144967772Y-98298096D01*
X145035645Y-98215393D01*
X145106401Y-98083016D01*
X145106402Y-98083015D01*
X145149974Y-97939378D01*
X145161000Y-97827426D01*
X145161000Y-97827423D01*
X145164686Y-97790000D01*
X145161000Y-97752577D01*
X145161000Y-74831005D01*
X145289535Y-74745120D01*
X145484120Y-74550535D01*
X145637005Y-74321727D01*
X145742314Y-74067490D01*
X145796000Y-73797592D01*
X145796000Y-73522408D01*
X145742314Y-73252510D01*
X145637005Y-72998273D01*
X145484120Y-72769465D01*
X145289535Y-72574880D01*
X145060727Y-72421995D01*
X144806490Y-72316686D01*
X144536592Y-72263000D01*
X144261408Y-72263000D01*
X143991510Y-72316686D01*
X143737273Y-72421995D01*
X143508465Y-72574880D01*
X143313880Y-72769465D01*
X143160995Y-72998273D01*
X143055686Y-73252510D01*
X143002000Y-73522408D01*
X143002000Y-73797592D01*
X143055686Y-74067490D01*
X143160995Y-74321727D01*
X143313880Y-74550535D01*
X143508465Y-74745120D01*
X143637000Y-74831005D01*
X143637001Y-97474368D01*
X140019370Y-101092000D01*
X118528422Y-101092000D01*
X118490999Y-101088314D01*
X118453576Y-101092000D01*
X118453574Y-101092000D01*
X118341622Y-101103026D01*
X118197985Y-101146598D01*
X118065608Y-101217355D01*
X117949578Y-101312578D01*
X117925721Y-101341648D01*
X115438654Y-103828716D01*
X115409578Y-103852578D01*
X115353983Y-103920322D01*
X115314355Y-103968608D01*
X115295989Y-104002969D01*
X115243598Y-104100986D01*
X115200026Y-104244623D01*
X115189000Y-104356574D01*
X115185314Y-104394000D01*
X115189000Y-104431423D01*
X115189001Y-107888368D01*
X113364370Y-109713000D01*
X112383812Y-109713000D01*
X112341203Y-109649231D01*
X112160769Y-109468797D01*
X111948602Y-109327031D01*
X111712854Y-109229381D01*
X111593475Y-109205635D01*
X111663092Y-109194641D01*
X111902532Y-109106431D01*
X111993706Y-109057697D01*
X112048358Y-108827963D01*
X111335000Y-108114605D01*
X110621642Y-108827963D01*
X110676294Y-109057697D01*
X110907978Y-109164632D01*
X111077569Y-109205428D01*
X110957146Y-109229381D01*
X110721398Y-109327031D01*
X110509231Y-109468797D01*
X110328797Y-109649231D01*
X110187031Y-109861398D01*
X110089381Y-110097146D01*
X110039600Y-110347414D01*
X110039600Y-110602586D01*
X110089381Y-110852854D01*
X110187031Y-111088602D01*
X110328797Y-111300769D01*
X110509231Y-111481203D01*
X110721398Y-111622969D01*
X110957146Y-111720619D01*
X111079719Y-111745000D01*
X110957146Y-111769381D01*
X110721398Y-111867031D01*
X110509231Y-112008797D01*
X110328797Y-112189231D01*
X110187031Y-112401398D01*
X110089381Y-112637146D01*
X110039600Y-112887414D01*
X110039600Y-113142586D01*
X110089381Y-113392854D01*
X110187031Y-113628602D01*
X110328797Y-113840769D01*
X110509231Y-114021203D01*
X110721398Y-114162969D01*
X110957146Y-114260619D01*
X111079719Y-114285000D01*
X110957146Y-114309381D01*
X110721398Y-114407031D01*
X110509231Y-114548797D01*
X110328797Y-114729231D01*
X110286188Y-114793000D01*
X110161423Y-114793000D01*
X110124000Y-114789314D01*
X110086577Y-114793000D01*
X110086574Y-114793000D01*
X109974622Y-114804026D01*
X109830985Y-114847598D01*
X109769364Y-114880535D01*
X109698607Y-114918355D01*
X109670530Y-114941398D01*
X109582578Y-115013578D01*
X109558716Y-115042654D01*
X108077000Y-116524370D01*
X108077000Y-108011044D01*
X110035554Y-108011044D01*
X110075359Y-108263092D01*
X110163569Y-108502532D01*
X110212303Y-108593706D01*
X110442037Y-108648358D01*
X111155395Y-107935000D01*
X111514605Y-107935000D01*
X112227963Y-108648358D01*
X112457697Y-108593706D01*
X112564632Y-108362022D01*
X112624312Y-108113927D01*
X112634446Y-107858956D01*
X112594641Y-107606908D01*
X112506431Y-107367468D01*
X112457697Y-107276294D01*
X112227963Y-107221642D01*
X111514605Y-107935000D01*
X111155395Y-107935000D01*
X110442037Y-107221642D01*
X110212303Y-107276294D01*
X110105368Y-107507978D01*
X110045688Y-107756073D01*
X110035554Y-108011044D01*
X108077000Y-108011044D01*
X108077000Y-68746841D01*
X108104179Y-68719662D01*
X108215368Y-68553256D01*
X108291956Y-68368356D01*
X108331000Y-68172067D01*
X108331000Y-67971933D01*
X108291956Y-67775644D01*
X108215368Y-67590744D01*
X108104179Y-67424338D01*
X107962662Y-67282821D01*
X107796256Y-67171632D01*
X107611356Y-67095044D01*
X107415067Y-67056000D01*
X107214933Y-67056000D01*
X107018644Y-67095044D01*
X106960448Y-67119150D01*
X106945368Y-67082744D01*
X106834179Y-66916338D01*
X106692662Y-66774821D01*
X106526256Y-66663632D01*
X106341356Y-66587044D01*
X106145067Y-66548000D01*
X105944933Y-66548000D01*
X105748644Y-66587044D01*
X105563744Y-66663632D01*
X105397338Y-66774821D01*
X105255821Y-66916338D01*
X105144632Y-67082744D01*
X105068044Y-67267644D01*
X105029000Y-67463933D01*
X105029000Y-67664067D01*
X105068044Y-67860356D01*
X105144632Y-68045256D01*
X105255821Y-68211662D01*
X105283000Y-68238841D01*
X105283001Y-124144368D01*
X101934370Y-127493000D01*
X97143812Y-127493000D01*
X97101203Y-127429231D01*
X96920769Y-127248797D01*
X96708602Y-127107031D01*
X96472854Y-127009381D01*
X96350281Y-126985000D01*
X96472854Y-126960619D01*
X96708602Y-126862969D01*
X96920769Y-126721203D01*
X97101203Y-126540769D01*
X97242969Y-126328602D01*
X97340619Y-126092854D01*
X97390400Y-125842586D01*
X97390400Y-125587414D01*
X97340619Y-125337146D01*
X97242969Y-125101398D01*
X97101203Y-124889231D01*
X96920769Y-124708797D01*
X96708602Y-124567031D01*
X96472854Y-124469381D01*
X96350281Y-124445000D01*
X96472854Y-124420619D01*
X96708602Y-124322969D01*
X96920769Y-124181203D01*
X97101203Y-124000769D01*
X97242969Y-123788602D01*
X97340619Y-123552854D01*
X97390400Y-123302586D01*
X97390400Y-123047414D01*
X97340619Y-122797146D01*
X97242969Y-122561398D01*
X97101203Y-122349231D01*
X96920769Y-122168797D01*
X96708602Y-122027031D01*
X96472854Y-121929381D01*
X96350281Y-121905000D01*
X96472854Y-121880619D01*
X96708602Y-121782969D01*
X96920769Y-121641203D01*
X97101203Y-121460769D01*
X97143812Y-121397000D01*
X97640577Y-121397000D01*
X97678000Y-121400686D01*
X97715423Y-121397000D01*
X97715426Y-121397000D01*
X97827378Y-121385974D01*
X97971015Y-121342402D01*
X98103392Y-121271645D01*
X98219422Y-121176422D01*
X98243284Y-121147346D01*
X99248631Y-120142000D01*
X99287067Y-120142000D01*
X99483356Y-120102956D01*
X99668256Y-120026368D01*
X99834662Y-119915179D01*
X99976179Y-119773662D01*
X100087368Y-119607256D01*
X100163956Y-119422356D01*
X100203000Y-119226067D01*
X100203000Y-119025933D01*
X100163956Y-118829644D01*
X100087368Y-118644744D01*
X99976179Y-118478338D01*
X99834662Y-118336821D01*
X99668256Y-118225632D01*
X99483356Y-118149044D01*
X99287067Y-118110000D01*
X99086933Y-118110000D01*
X98890644Y-118149044D01*
X98705744Y-118225632D01*
X98539338Y-118336821D01*
X98397821Y-118478338D01*
X98286632Y-118644744D01*
X98210044Y-118829644D01*
X98171000Y-119025933D01*
X98171000Y-119064369D01*
X97362370Y-119873000D01*
X97143812Y-119873000D01*
X97101203Y-119809231D01*
X96920769Y-119628797D01*
X96708602Y-119487031D01*
X96472854Y-119389381D01*
X96350281Y-119365000D01*
X96472854Y-119340619D01*
X96708602Y-119242969D01*
X96920769Y-119101203D01*
X97101203Y-118920769D01*
X97143812Y-118857000D01*
X97640577Y-118857000D01*
X97678000Y-118860686D01*
X97715423Y-118857000D01*
X97715426Y-118857000D01*
X97827378Y-118845974D01*
X97971015Y-118802402D01*
X98103392Y-118731645D01*
X98219422Y-118636422D01*
X98243284Y-118607346D01*
X99248631Y-117602000D01*
X99287067Y-117602000D01*
X99483356Y-117562956D01*
X99668256Y-117486368D01*
X99834662Y-117375179D01*
X99976179Y-117233662D01*
X100087368Y-117067256D01*
X100163956Y-116882356D01*
X100203000Y-116686067D01*
X100203000Y-116485933D01*
X100163956Y-116289644D01*
X100087368Y-116104744D01*
X99976179Y-115938338D01*
X99936236Y-115898395D01*
X100711001Y-115123631D01*
X100711000Y-115657159D01*
X100683821Y-115684338D01*
X100572632Y-115850744D01*
X100496044Y-116035644D01*
X100457000Y-116231933D01*
X100457000Y-116432067D01*
X100496044Y-116628356D01*
X100572632Y-116813256D01*
X100683821Y-116979662D01*
X100825338Y-117121179D01*
X100991744Y-117232368D01*
X101176644Y-117308956D01*
X101372933Y-117348000D01*
X101573067Y-117348000D01*
X101769356Y-117308956D01*
X101954256Y-117232368D01*
X102120662Y-117121179D01*
X102262179Y-116979662D01*
X102373368Y-116813256D01*
X102449956Y-116628356D01*
X102489000Y-116432067D01*
X102489000Y-116231933D01*
X102449956Y-116035644D01*
X102373368Y-115850744D01*
X102262179Y-115684338D01*
X102235000Y-115657159D01*
X102235000Y-115285381D01*
X102388933Y-115316000D01*
X102589067Y-115316000D01*
X102785356Y-115276956D01*
X102970256Y-115200368D01*
X103136662Y-115089179D01*
X103143856Y-115081985D01*
X103223821Y-115201662D01*
X103365338Y-115343179D01*
X103531744Y-115454368D01*
X103716644Y-115530956D01*
X103912933Y-115570000D01*
X104113067Y-115570000D01*
X104309356Y-115530956D01*
X104494256Y-115454368D01*
X104660662Y-115343179D01*
X104802179Y-115201662D01*
X104913368Y-115035256D01*
X104989956Y-114850356D01*
X105029000Y-114654067D01*
X105029000Y-114453933D01*
X104989956Y-114257644D01*
X104913368Y-114072744D01*
X104802179Y-113906338D01*
X104775000Y-113879159D01*
X104775000Y-88937423D01*
X104778686Y-88900000D01*
X104774707Y-88859600D01*
X104763974Y-88750622D01*
X104720402Y-88606985D01*
X104649646Y-88474609D01*
X104649645Y-88474607D01*
X104578279Y-88387648D01*
X104554422Y-88358578D01*
X104525353Y-88334722D01*
X99254685Y-83064055D01*
X99230823Y-83034979D01*
X99114793Y-82939756D01*
X98982416Y-82868999D01*
X98838779Y-82825427D01*
X98726827Y-82814401D01*
X98726824Y-82814401D01*
X98689401Y-82810715D01*
X98651978Y-82814401D01*
X97360202Y-82814401D01*
X97390400Y-82662586D01*
X97390400Y-82407414D01*
X97340619Y-82157146D01*
X97242969Y-81921398D01*
X97101203Y-81709231D01*
X96920769Y-81528797D01*
X96708602Y-81387031D01*
X96472854Y-81289381D01*
X96350281Y-81265000D01*
X96472854Y-81240619D01*
X96708602Y-81142969D01*
X96920769Y-81001203D01*
X97101203Y-80820769D01*
X97242969Y-80608602D01*
X97340619Y-80372854D01*
X97390400Y-80122586D01*
X97390400Y-79867414D01*
X97340619Y-79617146D01*
X97242969Y-79381398D01*
X97101203Y-79169231D01*
X96920769Y-78988797D01*
X96708602Y-78847031D01*
X96472854Y-78749381D01*
X96350281Y-78725000D01*
X96472854Y-78700619D01*
X96708602Y-78602969D01*
X96920769Y-78461203D01*
X97101203Y-78280769D01*
X97242969Y-78068602D01*
X97340619Y-77832854D01*
X97390400Y-77582586D01*
X97390400Y-77327414D01*
X97340619Y-77077146D01*
X97242969Y-76841398D01*
X97101203Y-76629231D01*
X96920769Y-76448797D01*
X96708602Y-76307031D01*
X96472854Y-76209381D01*
X96350281Y-76185000D01*
X96472854Y-76160619D01*
X96708602Y-76062969D01*
X96920769Y-75921203D01*
X97101203Y-75740769D01*
X97242969Y-75528602D01*
X97340619Y-75292854D01*
X97390400Y-75042586D01*
X97390400Y-74787414D01*
X97340619Y-74537146D01*
X97242969Y-74301398D01*
X97101203Y-74089231D01*
X96920769Y-73908797D01*
X96708602Y-73767031D01*
X96472854Y-73669381D01*
X96353475Y-73645635D01*
X96423092Y-73634641D01*
X96662532Y-73546431D01*
X96753706Y-73497697D01*
X96808358Y-73267963D01*
X96095000Y-72554605D01*
X95381642Y-73267963D01*
X95436294Y-73497697D01*
X95667978Y-73604632D01*
X95837569Y-73645428D01*
X95717146Y-73669381D01*
X95481398Y-73767031D01*
X95269231Y-73908797D01*
X95088797Y-74089231D01*
X94947031Y-74301398D01*
X94849381Y-74537146D01*
X94799600Y-74787414D01*
X94799600Y-75042586D01*
X94849381Y-75292854D01*
X94947031Y-75528602D01*
X95088797Y-75740769D01*
X95269231Y-75921203D01*
X95481398Y-76062969D01*
X95717146Y-76160619D01*
X95839719Y-76185000D01*
X95717146Y-76209381D01*
X95481398Y-76307031D01*
X95269231Y-76448797D01*
X95088797Y-76629231D01*
X94947031Y-76841398D01*
X94849381Y-77077146D01*
X94799600Y-77327414D01*
X94799600Y-77582586D01*
X94849381Y-77832854D01*
X94947031Y-78068602D01*
X95088797Y-78280769D01*
X95269231Y-78461203D01*
X95481398Y-78602969D01*
X95717146Y-78700619D01*
X95839719Y-78725000D01*
X95717146Y-78749381D01*
X95481398Y-78847031D01*
X95269231Y-78988797D01*
X95088797Y-79169231D01*
X94947031Y-79381398D01*
X94849381Y-79617146D01*
X94799600Y-79867414D01*
X94799600Y-80122586D01*
X94849381Y-80372854D01*
X94947031Y-80608602D01*
X95088797Y-80820769D01*
X95269231Y-81001203D01*
X95481398Y-81142969D01*
X95717146Y-81240619D01*
X95839719Y-81265000D01*
X95717146Y-81289381D01*
X95481398Y-81387031D01*
X95269231Y-81528797D01*
X95088797Y-81709231D01*
X94947031Y-81921398D01*
X94849381Y-82157146D01*
X94799600Y-82407414D01*
X94799600Y-82662586D01*
X94829798Y-82814401D01*
X76399032Y-82814401D01*
X72517000Y-78932370D01*
X72517000Y-78137611D01*
X82569500Y-78137611D01*
X82569500Y-78550389D01*
X82650029Y-78955235D01*
X82807992Y-79336591D01*
X83037319Y-79679803D01*
X83329197Y-79971681D01*
X83672409Y-80201008D01*
X84053765Y-80358971D01*
X84458611Y-80439500D01*
X84871389Y-80439500D01*
X85276235Y-80358971D01*
X85657591Y-80201008D01*
X86000803Y-79971681D01*
X86292681Y-79679803D01*
X86522008Y-79336591D01*
X86679971Y-78955235D01*
X86760500Y-78550389D01*
X86760500Y-78137611D01*
X86679971Y-77732765D01*
X86522008Y-77351409D01*
X86292681Y-77008197D01*
X86000803Y-76716319D01*
X85657591Y-76486992D01*
X85276235Y-76329029D01*
X84871389Y-76248500D01*
X84458611Y-76248500D01*
X84053765Y-76329029D01*
X83672409Y-76486992D01*
X83329197Y-76716319D01*
X83037319Y-77008197D01*
X82807992Y-77351409D01*
X82650029Y-77732765D01*
X82569500Y-78137611D01*
X72517000Y-78137611D01*
X72517000Y-75108529D01*
X83381077Y-75108529D01*
X83532334Y-75420045D01*
X83900393Y-75606910D01*
X84297834Y-75718381D01*
X84709386Y-75750172D01*
X85119231Y-75701063D01*
X85511621Y-75572940D01*
X85797666Y-75420045D01*
X85948923Y-75108529D01*
X84665000Y-73824605D01*
X83381077Y-75108529D01*
X72517000Y-75108529D01*
X72517000Y-74831005D01*
X72645535Y-74745120D01*
X72840120Y-74550535D01*
X72993005Y-74321727D01*
X73098314Y-74067490D01*
X73152000Y-73797592D01*
X73152000Y-73689386D01*
X82559828Y-73689386D01*
X82608937Y-74099231D01*
X82737060Y-74491621D01*
X82889955Y-74777666D01*
X83201471Y-74928923D01*
X84485395Y-73645000D01*
X84844605Y-73645000D01*
X86128529Y-74928923D01*
X86440045Y-74777666D01*
X86626910Y-74409607D01*
X86738381Y-74012166D01*
X86770172Y-73600614D01*
X86721063Y-73190769D01*
X86592940Y-72798379D01*
X86440045Y-72512334D01*
X86313818Y-72451044D01*
X94795554Y-72451044D01*
X94835359Y-72703092D01*
X94923569Y-72942532D01*
X94972303Y-73033706D01*
X95202037Y-73088358D01*
X95915395Y-72375000D01*
X96274605Y-72375000D01*
X96987963Y-73088358D01*
X97217697Y-73033706D01*
X97324632Y-72802022D01*
X97384312Y-72553927D01*
X97394446Y-72298956D01*
X97354641Y-72046908D01*
X97266431Y-71807468D01*
X97217697Y-71716294D01*
X96987963Y-71661642D01*
X96274605Y-72375000D01*
X95915395Y-72375000D01*
X95202037Y-71661642D01*
X94972303Y-71716294D01*
X94865368Y-71947978D01*
X94805688Y-72196073D01*
X94795554Y-72451044D01*
X86313818Y-72451044D01*
X86128529Y-72361077D01*
X84844605Y-73645000D01*
X84485395Y-73645000D01*
X83201471Y-72361077D01*
X82889955Y-72512334D01*
X82703090Y-72880393D01*
X82591619Y-73277834D01*
X82559828Y-73689386D01*
X73152000Y-73689386D01*
X73152000Y-73522408D01*
X73098314Y-73252510D01*
X72993005Y-72998273D01*
X72840120Y-72769465D01*
X72645535Y-72574880D01*
X72416727Y-72421995D01*
X72162490Y-72316686D01*
X71892592Y-72263000D01*
X71617408Y-72263000D01*
X71347510Y-72316686D01*
X71093273Y-72421995D01*
X70864465Y-72574880D01*
X70669880Y-72769465D01*
X70516995Y-72998273D01*
X70411686Y-73252510D01*
X70358000Y-73522408D01*
X64008000Y-73522408D01*
X63954314Y-73252510D01*
X63849005Y-72998273D01*
X63696120Y-72769465D01*
X63501535Y-72574880D01*
X63272727Y-72421995D01*
X63018490Y-72316686D01*
X62748592Y-72263000D01*
X62473408Y-72263000D01*
X62203510Y-72316686D01*
X61949273Y-72421995D01*
X61720465Y-72574880D01*
X61525880Y-72769465D01*
X61372995Y-72998273D01*
X61267686Y-73252510D01*
X61214000Y-73522408D01*
X44462700Y-73522408D01*
X44462700Y-72181471D01*
X83381077Y-72181471D01*
X84665000Y-73465395D01*
X85948923Y-72181471D01*
X85797666Y-71869955D01*
X85429607Y-71683090D01*
X85032166Y-71571619D01*
X84620614Y-71539828D01*
X84210769Y-71588937D01*
X83818379Y-71717060D01*
X83532334Y-71869955D01*
X83381077Y-72181471D01*
X44462700Y-72181471D01*
X44462700Y-71482037D01*
X95381642Y-71482037D01*
X96095000Y-72195395D01*
X96808358Y-71482037D01*
X96753706Y-71252303D01*
X96522022Y-71145368D01*
X96273927Y-71085688D01*
X96018956Y-71075554D01*
X95766908Y-71115359D01*
X95527468Y-71203569D01*
X95436294Y-71252303D01*
X95381642Y-71482037D01*
X44462700Y-71482037D01*
X44462700Y-68739611D01*
X82569500Y-68739611D01*
X82569500Y-69152389D01*
X82650029Y-69557235D01*
X82807992Y-69938591D01*
X83037319Y-70281803D01*
X83329197Y-70573681D01*
X83672409Y-70803008D01*
X84053765Y-70960971D01*
X84458611Y-71041500D01*
X84871389Y-71041500D01*
X85276235Y-70960971D01*
X85657591Y-70803008D01*
X86000803Y-70573681D01*
X86292681Y-70281803D01*
X86522008Y-69938591D01*
X86679971Y-69557235D01*
X86760500Y-69152389D01*
X86760500Y-68739611D01*
X86679971Y-68334765D01*
X86522008Y-67953409D01*
X86292681Y-67610197D01*
X86000803Y-67318319D01*
X85657591Y-67088992D01*
X85276235Y-66931029D01*
X84871389Y-66850500D01*
X84458611Y-66850500D01*
X84053765Y-66931029D01*
X83672409Y-67088992D01*
X83329197Y-67318319D01*
X83037319Y-67610197D01*
X82807992Y-67953409D01*
X82650029Y-68334765D01*
X82569500Y-68739611D01*
X44462700Y-68739611D01*
X44462700Y-66447933D01*
X108585000Y-66447933D01*
X108585000Y-66648067D01*
X108624044Y-66844356D01*
X108700632Y-67029256D01*
X108712000Y-67046270D01*
X108712001Y-72092330D01*
X108707700Y-72136000D01*
X108724864Y-72310274D01*
X108775698Y-72477852D01*
X108858248Y-72632291D01*
X108927646Y-72716852D01*
X108969342Y-72767659D01*
X109003259Y-72795494D01*
X109180501Y-72972736D01*
X109208341Y-73006659D01*
X109343709Y-73117753D01*
X109498149Y-73200303D01*
X109611243Y-73234609D01*
X109665725Y-73251136D01*
X109679676Y-73252510D01*
X109796333Y-73264000D01*
X109796339Y-73264000D01*
X109839999Y-73268300D01*
X109883659Y-73264000D01*
X110392028Y-73264000D01*
X110509231Y-73381203D01*
X110721398Y-73522969D01*
X110957146Y-73620619D01*
X111079719Y-73645000D01*
X110957146Y-73669381D01*
X110721398Y-73767031D01*
X110509231Y-73908797D01*
X110328797Y-74089231D01*
X110187031Y-74301398D01*
X110089381Y-74537146D01*
X110039600Y-74787414D01*
X110039600Y-75042586D01*
X110089381Y-75292854D01*
X110187031Y-75528602D01*
X110328797Y-75740769D01*
X110509231Y-75921203D01*
X110721398Y-76062969D01*
X110957146Y-76160619D01*
X111079719Y-76185000D01*
X110957146Y-76209381D01*
X110721398Y-76307031D01*
X110509231Y-76448797D01*
X110328797Y-76629231D01*
X110187031Y-76841398D01*
X110089381Y-77077146D01*
X110039600Y-77327414D01*
X110039600Y-77582586D01*
X110089381Y-77832854D01*
X110187031Y-78068602D01*
X110328797Y-78280769D01*
X110509231Y-78461203D01*
X110721398Y-78602969D01*
X110957146Y-78700619D01*
X111079719Y-78725000D01*
X110957146Y-78749381D01*
X110721398Y-78847031D01*
X110509231Y-78988797D01*
X110328797Y-79169231D01*
X110187031Y-79381398D01*
X110089381Y-79617146D01*
X110039600Y-79867414D01*
X110039600Y-80122586D01*
X110089381Y-80372854D01*
X110187031Y-80608602D01*
X110328797Y-80820769D01*
X110509231Y-81001203D01*
X110721398Y-81142969D01*
X110957146Y-81240619D01*
X111079719Y-81265000D01*
X110957146Y-81289381D01*
X110721398Y-81387031D01*
X110509231Y-81528797D01*
X110328797Y-81709231D01*
X110187031Y-81921398D01*
X110089381Y-82157146D01*
X110039600Y-82407414D01*
X110039600Y-82662586D01*
X110089381Y-82912854D01*
X110187031Y-83148602D01*
X110328797Y-83360769D01*
X110509231Y-83541203D01*
X110721398Y-83682969D01*
X110957146Y-83780619D01*
X111079719Y-83805000D01*
X110957146Y-83829381D01*
X110721398Y-83927031D01*
X110509231Y-84068797D01*
X110328797Y-84249231D01*
X110187031Y-84461398D01*
X110089381Y-84697146D01*
X110039600Y-84947414D01*
X110039600Y-85202586D01*
X110089381Y-85452854D01*
X110187031Y-85688602D01*
X110328797Y-85900769D01*
X110509231Y-86081203D01*
X110721398Y-86222969D01*
X110957146Y-86320619D01*
X111079719Y-86345000D01*
X110957146Y-86369381D01*
X110721398Y-86467031D01*
X110509231Y-86608797D01*
X110328797Y-86789231D01*
X110187031Y-87001398D01*
X110089381Y-87237146D01*
X110039600Y-87487414D01*
X110039600Y-87742586D01*
X110089381Y-87992854D01*
X110187031Y-88228602D01*
X110328797Y-88440769D01*
X110509231Y-88621203D01*
X110721398Y-88762969D01*
X110957146Y-88860619D01*
X111079719Y-88885000D01*
X110957146Y-88909381D01*
X110721398Y-89007031D01*
X110509231Y-89148797D01*
X110328797Y-89329231D01*
X110187031Y-89541398D01*
X110089381Y-89777146D01*
X110039600Y-90027414D01*
X110039600Y-90282586D01*
X110089381Y-90532854D01*
X110187031Y-90768602D01*
X110328797Y-90980769D01*
X110509231Y-91161203D01*
X110721398Y-91302969D01*
X110957146Y-91400619D01*
X111079719Y-91425000D01*
X110957146Y-91449381D01*
X110721398Y-91547031D01*
X110509231Y-91688797D01*
X110328797Y-91869231D01*
X110187031Y-92081398D01*
X110089381Y-92317146D01*
X110039600Y-92567414D01*
X110039600Y-92822586D01*
X110089381Y-93072854D01*
X110187031Y-93308602D01*
X110328797Y-93520769D01*
X110509231Y-93701203D01*
X110721398Y-93842969D01*
X110957146Y-93940619D01*
X111079719Y-93965000D01*
X110957146Y-93989381D01*
X110721398Y-94087031D01*
X110509231Y-94228797D01*
X110328797Y-94409231D01*
X110187031Y-94621398D01*
X110089381Y-94857146D01*
X110039600Y-95107414D01*
X110039600Y-95362586D01*
X110089381Y-95612854D01*
X110187031Y-95848602D01*
X110328797Y-96060769D01*
X110509231Y-96241203D01*
X110721398Y-96382969D01*
X110957146Y-96480619D01*
X111079719Y-96505000D01*
X110957146Y-96529381D01*
X110721398Y-96627031D01*
X110509231Y-96768797D01*
X110328797Y-96949231D01*
X110187031Y-97161398D01*
X110089381Y-97397146D01*
X110039600Y-97647414D01*
X110039600Y-97902586D01*
X110089381Y-98152854D01*
X110187031Y-98388602D01*
X110328797Y-98600769D01*
X110509231Y-98781203D01*
X110721398Y-98922969D01*
X110957146Y-99020619D01*
X111079719Y-99045000D01*
X110957146Y-99069381D01*
X110721398Y-99167031D01*
X110509231Y-99308797D01*
X110328797Y-99489231D01*
X110187031Y-99701398D01*
X110089381Y-99937146D01*
X110039600Y-100187414D01*
X110039600Y-100442586D01*
X110089381Y-100692854D01*
X110187031Y-100928602D01*
X110328797Y-101140769D01*
X110509231Y-101321203D01*
X110721398Y-101462969D01*
X110957146Y-101560619D01*
X111079719Y-101585000D01*
X110957146Y-101609381D01*
X110721398Y-101707031D01*
X110509231Y-101848797D01*
X110328797Y-102029231D01*
X110187031Y-102241398D01*
X110089381Y-102477146D01*
X110039600Y-102727414D01*
X110039600Y-102982586D01*
X110089381Y-103232854D01*
X110187031Y-103468602D01*
X110328797Y-103680769D01*
X110509231Y-103861203D01*
X110721398Y-104002969D01*
X110957146Y-104100619D01*
X111079719Y-104125000D01*
X110957146Y-104149381D01*
X110721398Y-104247031D01*
X110509231Y-104388797D01*
X110328797Y-104569231D01*
X110187031Y-104781398D01*
X110089381Y-105017146D01*
X110039600Y-105267414D01*
X110039600Y-105522586D01*
X110089381Y-105772854D01*
X110187031Y-106008602D01*
X110328797Y-106220769D01*
X110509231Y-106401203D01*
X110721398Y-106542969D01*
X110957146Y-106640619D01*
X111076525Y-106664365D01*
X111006908Y-106675359D01*
X110767468Y-106763569D01*
X110676294Y-106812303D01*
X110621642Y-107042037D01*
X111335000Y-107755395D01*
X112048358Y-107042037D01*
X111993706Y-106812303D01*
X111762022Y-106705368D01*
X111592431Y-106664572D01*
X111712854Y-106640619D01*
X111948602Y-106542969D01*
X112160769Y-106401203D01*
X112341203Y-106220769D01*
X112482969Y-106008602D01*
X112580619Y-105772854D01*
X112630400Y-105522586D01*
X112630400Y-105267414D01*
X112580619Y-105017146D01*
X112482969Y-104781398D01*
X112341203Y-104569231D01*
X112160769Y-104388797D01*
X111948602Y-104247031D01*
X111712854Y-104149381D01*
X111590281Y-104125000D01*
X111712854Y-104100619D01*
X111948602Y-104002969D01*
X112160769Y-103861203D01*
X112341203Y-103680769D01*
X112482969Y-103468602D01*
X112580619Y-103232854D01*
X112630400Y-102982586D01*
X112630400Y-102727414D01*
X112580619Y-102477146D01*
X112482969Y-102241398D01*
X112341203Y-102029231D01*
X112160769Y-101848797D01*
X111948602Y-101707031D01*
X111712854Y-101609381D01*
X111590281Y-101585000D01*
X111712854Y-101560619D01*
X111948602Y-101462969D01*
X112160769Y-101321203D01*
X112341203Y-101140769D01*
X112482969Y-100928602D01*
X112580619Y-100692854D01*
X112630400Y-100442586D01*
X112630400Y-100187414D01*
X112580619Y-99937146D01*
X112482969Y-99701398D01*
X112341203Y-99489231D01*
X112160769Y-99308797D01*
X111948602Y-99167031D01*
X111712854Y-99069381D01*
X111590281Y-99045000D01*
X111712854Y-99020619D01*
X111948602Y-98922969D01*
X112160769Y-98781203D01*
X112341203Y-98600769D01*
X112482969Y-98388602D01*
X112580619Y-98152854D01*
X112630400Y-97902586D01*
X112630400Y-97647414D01*
X112580619Y-97397146D01*
X112493827Y-97187611D01*
X120669500Y-97187611D01*
X120669500Y-97600389D01*
X120750029Y-98005235D01*
X120907992Y-98386591D01*
X121137319Y-98729803D01*
X121429197Y-99021681D01*
X121772409Y-99251008D01*
X122153765Y-99408971D01*
X122558611Y-99489500D01*
X122971389Y-99489500D01*
X123376235Y-99408971D01*
X123757591Y-99251008D01*
X124100803Y-99021681D01*
X124392681Y-98729803D01*
X124622008Y-98386591D01*
X124779971Y-98005235D01*
X124860500Y-97600389D01*
X124860500Y-97187611D01*
X124779971Y-96782765D01*
X124622008Y-96401409D01*
X124392681Y-96058197D01*
X124100803Y-95766319D01*
X123757591Y-95536992D01*
X123376235Y-95379029D01*
X122971389Y-95298500D01*
X122558611Y-95298500D01*
X122153765Y-95379029D01*
X121772409Y-95536992D01*
X121429197Y-95766319D01*
X121137319Y-96058197D01*
X120907992Y-96401409D01*
X120750029Y-96782765D01*
X120669500Y-97187611D01*
X112493827Y-97187611D01*
X112482969Y-97161398D01*
X112341203Y-96949231D01*
X112160769Y-96768797D01*
X111948602Y-96627031D01*
X111712854Y-96529381D01*
X111590281Y-96505000D01*
X111712854Y-96480619D01*
X111948602Y-96382969D01*
X112160769Y-96241203D01*
X112341203Y-96060769D01*
X112482969Y-95848602D01*
X112580619Y-95612854D01*
X112630400Y-95362586D01*
X112630400Y-95107414D01*
X112580619Y-94857146D01*
X112482969Y-94621398D01*
X112341203Y-94409231D01*
X112160769Y-94228797D01*
X112055606Y-94158529D01*
X121481077Y-94158529D01*
X121632334Y-94470045D01*
X122000393Y-94656910D01*
X122397834Y-94768381D01*
X122809386Y-94800172D01*
X123219231Y-94751063D01*
X123611621Y-94622940D01*
X123897666Y-94470045D01*
X124048923Y-94158529D01*
X122765000Y-92874605D01*
X121481077Y-94158529D01*
X112055606Y-94158529D01*
X111948602Y-94087031D01*
X111712854Y-93989381D01*
X111590281Y-93965000D01*
X111712854Y-93940619D01*
X111948602Y-93842969D01*
X112160769Y-93701203D01*
X112341203Y-93520769D01*
X112482969Y-93308602D01*
X112580619Y-93072854D01*
X112630400Y-92822586D01*
X112630400Y-92739386D01*
X120659828Y-92739386D01*
X120708937Y-93149231D01*
X120837060Y-93541621D01*
X120989955Y-93827666D01*
X121301471Y-93978923D01*
X122585395Y-92695000D01*
X122944605Y-92695000D01*
X124228529Y-93978923D01*
X124540045Y-93827666D01*
X124726910Y-93459607D01*
X124838381Y-93062166D01*
X124870172Y-92650614D01*
X124821063Y-92240769D01*
X124692940Y-91848379D01*
X124540045Y-91562334D01*
X124228529Y-91411077D01*
X122944605Y-92695000D01*
X122585395Y-92695000D01*
X121301471Y-91411077D01*
X120989955Y-91562334D01*
X120803090Y-91930393D01*
X120691619Y-92327834D01*
X120659828Y-92739386D01*
X112630400Y-92739386D01*
X112630400Y-92567414D01*
X112580619Y-92317146D01*
X112482969Y-92081398D01*
X112341203Y-91869231D01*
X112160769Y-91688797D01*
X111948602Y-91547031D01*
X111712854Y-91449381D01*
X111590281Y-91425000D01*
X111712854Y-91400619D01*
X111948602Y-91302969D01*
X112055605Y-91231471D01*
X121481077Y-91231471D01*
X122765000Y-92515395D01*
X124048923Y-91231471D01*
X123897666Y-90919955D01*
X123529607Y-90733090D01*
X123132166Y-90621619D01*
X122720614Y-90589828D01*
X122310769Y-90638937D01*
X121918379Y-90767060D01*
X121632334Y-90919955D01*
X121481077Y-91231471D01*
X112055605Y-91231471D01*
X112160769Y-91161203D01*
X112341203Y-90980769D01*
X112482969Y-90768602D01*
X112580619Y-90532854D01*
X112630400Y-90282586D01*
X112630400Y-90027414D01*
X112580619Y-89777146D01*
X112482969Y-89541398D01*
X112341203Y-89329231D01*
X112160769Y-89148797D01*
X111948602Y-89007031D01*
X111712854Y-88909381D01*
X111590281Y-88885000D01*
X111712854Y-88860619D01*
X111948602Y-88762969D01*
X112160769Y-88621203D01*
X112341203Y-88440769D01*
X112482969Y-88228602D01*
X112580619Y-87992854D01*
X112621046Y-87789611D01*
X120669500Y-87789611D01*
X120669500Y-88202389D01*
X120750029Y-88607235D01*
X120907992Y-88988591D01*
X121137319Y-89331803D01*
X121429197Y-89623681D01*
X121772409Y-89853008D01*
X122153765Y-90010971D01*
X122558611Y-90091500D01*
X122971389Y-90091500D01*
X123376235Y-90010971D01*
X123757591Y-89853008D01*
X124100803Y-89623681D01*
X124392681Y-89331803D01*
X124622008Y-88988591D01*
X124779971Y-88607235D01*
X124860500Y-88202389D01*
X124860500Y-87789611D01*
X124779971Y-87384765D01*
X124622008Y-87003409D01*
X124392681Y-86660197D01*
X124100803Y-86368319D01*
X123757591Y-86138992D01*
X123376235Y-85981029D01*
X122971389Y-85900500D01*
X122558611Y-85900500D01*
X122153765Y-85981029D01*
X121772409Y-86138992D01*
X121429197Y-86368319D01*
X121137319Y-86660197D01*
X120907992Y-87003409D01*
X120750029Y-87384765D01*
X120669500Y-87789611D01*
X112621046Y-87789611D01*
X112630400Y-87742586D01*
X112630400Y-87487414D01*
X112580619Y-87237146D01*
X112482969Y-87001398D01*
X112341203Y-86789231D01*
X112160769Y-86608797D01*
X111948602Y-86467031D01*
X111712854Y-86369381D01*
X111590281Y-86345000D01*
X111712854Y-86320619D01*
X111948602Y-86222969D01*
X112160769Y-86081203D01*
X112341203Y-85900769D01*
X112482969Y-85688602D01*
X112580619Y-85452854D01*
X112630400Y-85202586D01*
X112630400Y-84947414D01*
X112580619Y-84697146D01*
X112482969Y-84461398D01*
X112341203Y-84249231D01*
X112160769Y-84068797D01*
X111948602Y-83927031D01*
X111712854Y-83829381D01*
X111590281Y-83805000D01*
X111712854Y-83780619D01*
X111948602Y-83682969D01*
X112160769Y-83541203D01*
X112341203Y-83360769D01*
X112482969Y-83148602D01*
X112580619Y-82912854D01*
X112630400Y-82662586D01*
X112630400Y-82407414D01*
X112580619Y-82157146D01*
X112482969Y-81921398D01*
X112341203Y-81709231D01*
X112160769Y-81528797D01*
X111948602Y-81387031D01*
X111712854Y-81289381D01*
X111590281Y-81265000D01*
X111712854Y-81240619D01*
X111948602Y-81142969D01*
X112160769Y-81001203D01*
X112341203Y-80820769D01*
X112482969Y-80608602D01*
X112580619Y-80372854D01*
X112630400Y-80122586D01*
X112630400Y-79867414D01*
X112580619Y-79617146D01*
X112482969Y-79381398D01*
X112341203Y-79169231D01*
X112160769Y-78988797D01*
X111948602Y-78847031D01*
X111712854Y-78749381D01*
X111590281Y-78725000D01*
X111712854Y-78700619D01*
X111948602Y-78602969D01*
X112160769Y-78461203D01*
X112341203Y-78280769D01*
X112436858Y-78137611D01*
X120669500Y-78137611D01*
X120669500Y-78550389D01*
X120750029Y-78955235D01*
X120907992Y-79336591D01*
X121137319Y-79679803D01*
X121429197Y-79971681D01*
X121772409Y-80201008D01*
X122153765Y-80358971D01*
X122558611Y-80439500D01*
X122971389Y-80439500D01*
X123376235Y-80358971D01*
X123757591Y-80201008D01*
X124100803Y-79971681D01*
X124392681Y-79679803D01*
X124622008Y-79336591D01*
X124779971Y-78955235D01*
X124860500Y-78550389D01*
X124860500Y-78137611D01*
X124779971Y-77732765D01*
X124622008Y-77351409D01*
X124392681Y-77008197D01*
X124100803Y-76716319D01*
X123757591Y-76486992D01*
X123376235Y-76329029D01*
X122971389Y-76248500D01*
X122558611Y-76248500D01*
X122153765Y-76329029D01*
X121772409Y-76486992D01*
X121429197Y-76716319D01*
X121137319Y-77008197D01*
X120907992Y-77351409D01*
X120750029Y-77732765D01*
X120669500Y-78137611D01*
X112436858Y-78137611D01*
X112482969Y-78068602D01*
X112580619Y-77832854D01*
X112630400Y-77582586D01*
X112630400Y-77327414D01*
X112580619Y-77077146D01*
X112482969Y-76841398D01*
X112341203Y-76629231D01*
X112160769Y-76448797D01*
X111948602Y-76307031D01*
X111712854Y-76209381D01*
X111590281Y-76185000D01*
X111712854Y-76160619D01*
X111948602Y-76062969D01*
X112160769Y-75921203D01*
X112341203Y-75740769D01*
X112482969Y-75528602D01*
X112580619Y-75292854D01*
X112617283Y-75108529D01*
X121481077Y-75108529D01*
X121632334Y-75420045D01*
X122000393Y-75606910D01*
X122397834Y-75718381D01*
X122809386Y-75750172D01*
X123219231Y-75701063D01*
X123611621Y-75572940D01*
X123897666Y-75420045D01*
X124048923Y-75108529D01*
X122765000Y-73824605D01*
X121481077Y-75108529D01*
X112617283Y-75108529D01*
X112630400Y-75042586D01*
X112630400Y-74787414D01*
X112580619Y-74537146D01*
X112482969Y-74301398D01*
X112341203Y-74089231D01*
X112160769Y-73908797D01*
X111948602Y-73767031D01*
X111761151Y-73689386D01*
X120659828Y-73689386D01*
X120708937Y-74099231D01*
X120837060Y-74491621D01*
X120989955Y-74777666D01*
X121301471Y-74928923D01*
X122585395Y-73645000D01*
X122944605Y-73645000D01*
X124228529Y-74928923D01*
X124540045Y-74777666D01*
X124726910Y-74409607D01*
X124838381Y-74012166D01*
X124870172Y-73600614D01*
X124860802Y-73522408D01*
X133858000Y-73522408D01*
X133858000Y-73797592D01*
X133911686Y-74067490D01*
X134016995Y-74321727D01*
X134169880Y-74550535D01*
X134364465Y-74745120D01*
X134593273Y-74898005D01*
X134847510Y-75003314D01*
X135117408Y-75057000D01*
X135392592Y-75057000D01*
X135662490Y-75003314D01*
X135916727Y-74898005D01*
X136145535Y-74745120D01*
X136340120Y-74550535D01*
X136493005Y-74321727D01*
X136598314Y-74067490D01*
X136652000Y-73797592D01*
X136652000Y-73522408D01*
X136598314Y-73252510D01*
X136493005Y-72998273D01*
X136340120Y-72769465D01*
X136145535Y-72574880D01*
X135916727Y-72421995D01*
X135662490Y-72316686D01*
X135392592Y-72263000D01*
X135117408Y-72263000D01*
X134847510Y-72316686D01*
X134593273Y-72421995D01*
X134364465Y-72574880D01*
X134169880Y-72769465D01*
X134016995Y-72998273D01*
X133911686Y-73252510D01*
X133858000Y-73522408D01*
X124860802Y-73522408D01*
X124821063Y-73190769D01*
X124692940Y-72798379D01*
X124540045Y-72512334D01*
X124228529Y-72361077D01*
X122944605Y-73645000D01*
X122585395Y-73645000D01*
X121301471Y-72361077D01*
X120989955Y-72512334D01*
X120803090Y-72880393D01*
X120691619Y-73277834D01*
X120659828Y-73689386D01*
X111761151Y-73689386D01*
X111712854Y-73669381D01*
X111590281Y-73645000D01*
X111712854Y-73620619D01*
X111948602Y-73522969D01*
X112160769Y-73381203D01*
X112341203Y-73200769D01*
X112482969Y-72988602D01*
X112580619Y-72752854D01*
X112630400Y-72502586D01*
X112630400Y-72247414D01*
X112617284Y-72181471D01*
X121481077Y-72181471D01*
X122765000Y-73465395D01*
X124048923Y-72181471D01*
X123897666Y-71869955D01*
X123529607Y-71683090D01*
X123132166Y-71571619D01*
X122720614Y-71539828D01*
X122310769Y-71588937D01*
X121918379Y-71717060D01*
X121632334Y-71869955D01*
X121481077Y-72181471D01*
X112617284Y-72181471D01*
X112580619Y-71997146D01*
X112482969Y-71761398D01*
X112341203Y-71549231D01*
X112160769Y-71368797D01*
X111948602Y-71227031D01*
X111712854Y-71129381D01*
X111462586Y-71079600D01*
X111207414Y-71079600D01*
X110957146Y-71129381D01*
X110721398Y-71227031D01*
X110509231Y-71368797D01*
X110490000Y-71388028D01*
X110490000Y-68739611D01*
X120669500Y-68739611D01*
X120669500Y-69152389D01*
X120750029Y-69557235D01*
X120907992Y-69938591D01*
X121137319Y-70281803D01*
X121429197Y-70573681D01*
X121772409Y-70803008D01*
X122153765Y-70960971D01*
X122558611Y-71041500D01*
X122971389Y-71041500D01*
X123376235Y-70960971D01*
X123757591Y-70803008D01*
X124100803Y-70573681D01*
X124392681Y-70281803D01*
X124622008Y-69938591D01*
X124779971Y-69557235D01*
X124860500Y-69152389D01*
X124860500Y-68739611D01*
X124779971Y-68334765D01*
X124622008Y-67953409D01*
X124392681Y-67610197D01*
X124100803Y-67318319D01*
X123757591Y-67088992D01*
X123376235Y-66931029D01*
X122971389Y-66850500D01*
X122558611Y-66850500D01*
X122153765Y-66931029D01*
X121772409Y-67088992D01*
X121429197Y-67318319D01*
X121137319Y-67610197D01*
X120907992Y-67953409D01*
X120750029Y-68334765D01*
X120669500Y-68739611D01*
X110490000Y-68739611D01*
X110490000Y-67046269D01*
X110501368Y-67029256D01*
X110577956Y-66844356D01*
X110617000Y-66648067D01*
X110617000Y-66447933D01*
X110577956Y-66251644D01*
X110501368Y-66066744D01*
X110390179Y-65900338D01*
X110248662Y-65758821D01*
X110082256Y-65647632D01*
X109897356Y-65571044D01*
X109701067Y-65532000D01*
X109500933Y-65532000D01*
X109304644Y-65571044D01*
X109119744Y-65647632D01*
X108953338Y-65758821D01*
X108811821Y-65900338D01*
X108700632Y-66066744D01*
X108624044Y-66251644D01*
X108585000Y-66447933D01*
X44462700Y-66447933D01*
X44462700Y-63710000D01*
X99849428Y-63710000D01*
X99849428Y-65710000D01*
X99861688Y-65834482D01*
X99897998Y-65954180D01*
X99956963Y-66064494D01*
X100036315Y-66161185D01*
X100133006Y-66240537D01*
X100243320Y-66299502D01*
X100363018Y-66335812D01*
X100487500Y-66348072D01*
X102392500Y-66348072D01*
X102516982Y-66335812D01*
X102636680Y-66299502D01*
X102746994Y-66240537D01*
X102843685Y-66161185D01*
X102923037Y-66064494D01*
X102972059Y-65972781D01*
X103113077Y-66085969D01*
X103388906Y-66229571D01*
X103607020Y-66300563D01*
X103853000Y-66180594D01*
X103853000Y-64837000D01*
X103833000Y-64837000D01*
X103833000Y-64583000D01*
X103853000Y-64583000D01*
X103853000Y-63239406D01*
X103607020Y-63119437D01*
X103388906Y-63190429D01*
X103113077Y-63334031D01*
X102972059Y-63447219D01*
X102923037Y-63355506D01*
X102843685Y-63258815D01*
X102746994Y-63179463D01*
X102636680Y-63120498D01*
X102516982Y-63084188D01*
X102392500Y-63071928D01*
X100487500Y-63071928D01*
X100363018Y-63084188D01*
X100243320Y-63120498D01*
X100133006Y-63179463D01*
X100036315Y-63258815D01*
X99956963Y-63355506D01*
X99897998Y-63465820D01*
X99861688Y-63585518D01*
X99849428Y-63710000D01*
X44462700Y-63710000D01*
X44462700Y-59087611D01*
X82569500Y-59087611D01*
X82569500Y-59500389D01*
X82650029Y-59905235D01*
X82807992Y-60286591D01*
X83037319Y-60629803D01*
X83329197Y-60921681D01*
X83672409Y-61151008D01*
X84053765Y-61308971D01*
X84458611Y-61389500D01*
X84871389Y-61389500D01*
X85276235Y-61308971D01*
X85657591Y-61151008D01*
X86000803Y-60921681D01*
X86292681Y-60629803D01*
X86522008Y-60286591D01*
X86679971Y-59905235D01*
X86760500Y-59500389D01*
X86760500Y-59087611D01*
X86679971Y-58682765D01*
X86522008Y-58301409D01*
X86292681Y-57958197D01*
X86000803Y-57666319D01*
X85657591Y-57436992D01*
X85276235Y-57279029D01*
X84871389Y-57198500D01*
X84458611Y-57198500D01*
X84053765Y-57279029D01*
X83672409Y-57436992D01*
X83329197Y-57666319D01*
X83037319Y-57958197D01*
X82807992Y-58301409D01*
X82650029Y-58682765D01*
X82569500Y-59087611D01*
X44462700Y-59087611D01*
X44462700Y-56058529D01*
X83381077Y-56058529D01*
X83532334Y-56370045D01*
X83900393Y-56556910D01*
X84297834Y-56668381D01*
X84709386Y-56700172D01*
X85119231Y-56651063D01*
X85511621Y-56522940D01*
X85797666Y-56370045D01*
X85948923Y-56058529D01*
X84665000Y-54774605D01*
X83381077Y-56058529D01*
X44462700Y-56058529D01*
X44462700Y-54639386D01*
X82559828Y-54639386D01*
X82608937Y-55049231D01*
X82737060Y-55441621D01*
X82889955Y-55727666D01*
X83201471Y-55878923D01*
X84485395Y-54595000D01*
X84844605Y-54595000D01*
X86128529Y-55878923D01*
X86440045Y-55727666D01*
X86626910Y-55359607D01*
X86738381Y-54962166D01*
X86770172Y-54550614D01*
X86721063Y-54140769D01*
X86592940Y-53748379D01*
X86440045Y-53462334D01*
X86128529Y-53311077D01*
X84844605Y-54595000D01*
X84485395Y-54595000D01*
X83201471Y-53311077D01*
X82889955Y-53462334D01*
X82703090Y-53830393D01*
X82591619Y-54227834D01*
X82559828Y-54639386D01*
X44462700Y-54639386D01*
X44462700Y-53131471D01*
X83381077Y-53131471D01*
X84665000Y-54415395D01*
X85948923Y-53131471D01*
X85797666Y-52819955D01*
X85429607Y-52633090D01*
X85032166Y-52521619D01*
X84620614Y-52489828D01*
X84210769Y-52538937D01*
X83818379Y-52667060D01*
X83532334Y-52819955D01*
X83381077Y-53131471D01*
X44462700Y-53131471D01*
X44462700Y-49689611D01*
X82569500Y-49689611D01*
X82569500Y-50102389D01*
X82650029Y-50507235D01*
X82807992Y-50888591D01*
X83037319Y-51231803D01*
X83329197Y-51523681D01*
X83672409Y-51753008D01*
X84053765Y-51910971D01*
X84458611Y-51991500D01*
X84871389Y-51991500D01*
X85276235Y-51910971D01*
X85657591Y-51753008D01*
X86000803Y-51523681D01*
X86292681Y-51231803D01*
X86522008Y-50888591D01*
X86679971Y-50507235D01*
X86760500Y-50102389D01*
X86760500Y-49689611D01*
X86679971Y-49284765D01*
X86522008Y-48903409D01*
X86292681Y-48560197D01*
X86000803Y-48268319D01*
X85657591Y-48038992D01*
X85276235Y-47881029D01*
X84871389Y-47800500D01*
X84458611Y-47800500D01*
X84053765Y-47881029D01*
X83672409Y-48038992D01*
X83329197Y-48268319D01*
X83037319Y-48560197D01*
X82807992Y-48903409D01*
X82650029Y-49284765D01*
X82569500Y-49689611D01*
X44462700Y-49689611D01*
X44462700Y-44857933D01*
X91694000Y-44857933D01*
X91694000Y-45058067D01*
X91733044Y-45254356D01*
X91809632Y-45439256D01*
X91920821Y-45605662D01*
X92062338Y-45747179D01*
X92228744Y-45858368D01*
X92413644Y-45934956D01*
X92609933Y-45974000D01*
X92810067Y-45974000D01*
X93006356Y-45934956D01*
X93191256Y-45858368D01*
X93208269Y-45847000D01*
X104787765Y-45847000D01*
X105631000Y-46690235D01*
X105631000Y-47188101D01*
X105500349Y-47057450D01*
X105109721Y-46796440D01*
X104675679Y-46616654D01*
X104214902Y-46525000D01*
X103745098Y-46525000D01*
X103284321Y-46616654D01*
X102850279Y-46796440D01*
X102459651Y-47057450D01*
X102127450Y-47389651D01*
X101866440Y-47780279D01*
X101686654Y-48214321D01*
X101595000Y-48675098D01*
X101595000Y-49144902D01*
X101686654Y-49605679D01*
X101866440Y-50039721D01*
X102127450Y-50430349D01*
X102459651Y-50762550D01*
X102850279Y-51023560D01*
X103284321Y-51203346D01*
X103745098Y-51295000D01*
X104214902Y-51295000D01*
X104675679Y-51203346D01*
X105109721Y-51023560D01*
X105500349Y-50762550D01*
X105631000Y-50631899D01*
X105631001Y-63338423D01*
X105392037Y-63534537D01*
X105244838Y-63713900D01*
X105089437Y-63528685D01*
X104846923Y-63334031D01*
X104571094Y-63190429D01*
X104352980Y-63119437D01*
X104107000Y-63239406D01*
X104107000Y-64583000D01*
X104127000Y-64583000D01*
X104127000Y-64837000D01*
X104107000Y-64837000D01*
X104107000Y-66180594D01*
X104352980Y-66300563D01*
X104571094Y-66229571D01*
X104846923Y-66085969D01*
X105089437Y-65891315D01*
X105244837Y-65706101D01*
X105392037Y-65885463D01*
X105633766Y-66083845D01*
X105909552Y-66231255D01*
X106208797Y-66322030D01*
X106520000Y-66352681D01*
X106831204Y-66322030D01*
X107130449Y-66231255D01*
X107406235Y-66083845D01*
X107647963Y-65885463D01*
X107846345Y-65643734D01*
X107993755Y-65367948D01*
X108084530Y-65068703D01*
X108107500Y-64835485D01*
X108107500Y-64584514D01*
X108084530Y-64351296D01*
X107993755Y-64052051D01*
X107846345Y-63776265D01*
X107647963Y-63534537D01*
X107409000Y-63338425D01*
X107409000Y-59087611D01*
X120669500Y-59087611D01*
X120669500Y-59500389D01*
X120750029Y-59905235D01*
X120907992Y-60286591D01*
X121137319Y-60629803D01*
X121429197Y-60921681D01*
X121772409Y-61151008D01*
X122153765Y-61308971D01*
X122558611Y-61389500D01*
X122971389Y-61389500D01*
X123376235Y-61308971D01*
X123757591Y-61151008D01*
X124100803Y-60921681D01*
X124392681Y-60629803D01*
X124622008Y-60286591D01*
X124779971Y-59905235D01*
X124860500Y-59500389D01*
X124860500Y-59087611D01*
X124779971Y-58682765D01*
X124622008Y-58301409D01*
X124392681Y-57958197D01*
X124100803Y-57666319D01*
X123757591Y-57436992D01*
X123376235Y-57279029D01*
X122971389Y-57198500D01*
X122558611Y-57198500D01*
X122153765Y-57279029D01*
X121772409Y-57436992D01*
X121429197Y-57666319D01*
X121137319Y-57958197D01*
X120907992Y-58301409D01*
X120750029Y-58682765D01*
X120669500Y-59087611D01*
X107409000Y-59087611D01*
X107409000Y-56058529D01*
X121481077Y-56058529D01*
X121632334Y-56370045D01*
X122000393Y-56556910D01*
X122397834Y-56668381D01*
X122809386Y-56700172D01*
X123219231Y-56651063D01*
X123611621Y-56522940D01*
X123897666Y-56370045D01*
X124048923Y-56058529D01*
X122765000Y-54774605D01*
X121481077Y-56058529D01*
X107409000Y-56058529D01*
X107409000Y-54639386D01*
X120659828Y-54639386D01*
X120708937Y-55049231D01*
X120837060Y-55441621D01*
X120989955Y-55727666D01*
X121301471Y-55878923D01*
X122585395Y-54595000D01*
X122944605Y-54595000D01*
X124228529Y-55878923D01*
X124540045Y-55727666D01*
X124726910Y-55359607D01*
X124838381Y-54962166D01*
X124870172Y-54550614D01*
X124821063Y-54140769D01*
X124692940Y-53748379D01*
X124540045Y-53462334D01*
X124228529Y-53311077D01*
X122944605Y-54595000D01*
X122585395Y-54595000D01*
X121301471Y-53311077D01*
X120989955Y-53462334D01*
X120803090Y-53830393D01*
X120691619Y-54227834D01*
X120659828Y-54639386D01*
X107409000Y-54639386D01*
X107409000Y-53131471D01*
X121481077Y-53131471D01*
X122765000Y-54415395D01*
X124048923Y-53131471D01*
X123897666Y-52819955D01*
X123529607Y-52633090D01*
X123132166Y-52521619D01*
X122720614Y-52489828D01*
X122310769Y-52538937D01*
X121918379Y-52667060D01*
X121632334Y-52819955D01*
X121481077Y-53131471D01*
X107409000Y-53131471D01*
X107409000Y-49689611D01*
X120669500Y-49689611D01*
X120669500Y-50102389D01*
X120750029Y-50507235D01*
X120907992Y-50888591D01*
X121137319Y-51231803D01*
X121429197Y-51523681D01*
X121772409Y-51753008D01*
X122153765Y-51910971D01*
X122558611Y-51991500D01*
X122971389Y-51991500D01*
X123376235Y-51910971D01*
X123757591Y-51753008D01*
X124100803Y-51523681D01*
X124392681Y-51231803D01*
X124622008Y-50888591D01*
X124779971Y-50507235D01*
X124860500Y-50102389D01*
X124860500Y-49689611D01*
X124779971Y-49284765D01*
X124622008Y-48903409D01*
X124392681Y-48560197D01*
X124100803Y-48268319D01*
X123757591Y-48038992D01*
X123376235Y-47881029D01*
X122971389Y-47800500D01*
X122558611Y-47800500D01*
X122153765Y-47881029D01*
X121772409Y-48038992D01*
X121429197Y-48268319D01*
X121137319Y-48560197D01*
X120907992Y-48903409D01*
X120750029Y-49284765D01*
X120669500Y-49689611D01*
X107409000Y-49689611D01*
X107409000Y-46365659D01*
X107413300Y-46321999D01*
X107409000Y-46278334D01*
X107409000Y-46278333D01*
X107396136Y-46147726D01*
X107396136Y-46147724D01*
X107345302Y-45980147D01*
X107341589Y-45973200D01*
X107262753Y-45825709D01*
X107151659Y-45690341D01*
X107117737Y-45662502D01*
X105815499Y-44360264D01*
X105787659Y-44326341D01*
X105652291Y-44215247D01*
X105497851Y-44132697D01*
X105330274Y-44081864D01*
X105199667Y-44069000D01*
X105199660Y-44069000D01*
X105156000Y-44064700D01*
X105112340Y-44069000D01*
X93208269Y-44069000D01*
X93191256Y-44057632D01*
X93006356Y-43981044D01*
X92810067Y-43942000D01*
X92609933Y-43942000D01*
X92413644Y-43981044D01*
X92228744Y-44057632D01*
X92062338Y-44168821D01*
X91920821Y-44310338D01*
X91809632Y-44476744D01*
X91733044Y-44661644D01*
X91694000Y-44857933D01*
X44462700Y-44857933D01*
X44462700Y-36207700D01*
X170167300Y-36207700D01*
X170167301Y-161912300D01*
%TD*%
M02*
