%TF.GenerationSoftware,KiCad,Pcbnew,(5.1.6)-1*%
%TF.CreationDate,2020-09-21T22:47:23-04:00*%
%TF.ProjectId,Launchbox,4c61756e-6368-4626-9f78-2e6b69636164,Launchbox*%
%TF.SameCoordinates,Original*%
%TF.FileFunction,Soldermask,Top*%
%TF.FilePolarity,Negative*%
%FSLAX46Y46*%
G04 Gerber Fmt 4.6, Leading zero omitted, Abs format (unit mm)*
G04 Created by KiCad (PCBNEW (5.1.6)-1) date 2020-09-21 22:47:23*
%MOMM*%
%LPD*%
G01*
G04 APERTURE LIST*
%ADD10C,1.422400*%
%ADD11C,3.022600*%
%ADD12R,9.626600X9.626600*%
%ADD13C,1.625600*%
%ADD14O,3.601600X3.601600*%
%ADD15R,2.006600X2.101600*%
%ADD16O,2.006600X2.101600*%
%ADD17C,2.101600*%
G04 APERTURE END LIST*
D10*
%TO.C,U1*%
X96095000Y-130795000D03*
X96095000Y-128255000D03*
X96095000Y-125715000D03*
X96095000Y-123175000D03*
X96095000Y-120635000D03*
X96095000Y-118095000D03*
X96095000Y-115555000D03*
X96095000Y-113015000D03*
X96095000Y-110475000D03*
X96095000Y-107935000D03*
X96095000Y-105395000D03*
X96095000Y-102855000D03*
X96095000Y-100315000D03*
X96095000Y-97775000D03*
X96095000Y-95235000D03*
X96095000Y-92695000D03*
X96095000Y-90155000D03*
X96095000Y-87615000D03*
X96095000Y-85075000D03*
X96095000Y-82535000D03*
X96095000Y-79995000D03*
X96095000Y-77455000D03*
X96095000Y-74915000D03*
X96095000Y-72375000D03*
X111335000Y-130795000D03*
X111335000Y-128255000D03*
X111335000Y-125715000D03*
X111335000Y-123175000D03*
X111335000Y-120635000D03*
X111335000Y-118095000D03*
X111335000Y-115555000D03*
X111335000Y-113015000D03*
X111335000Y-110475000D03*
X111335000Y-107935000D03*
X111335000Y-105395000D03*
X111335000Y-102855000D03*
X111335000Y-100315000D03*
X111335000Y-97775000D03*
X111335000Y-95235000D03*
X111335000Y-92695000D03*
X111335000Y-90155000D03*
X111335000Y-87615000D03*
X111335000Y-85075000D03*
X111335000Y-82535000D03*
X111335000Y-79995000D03*
X111335000Y-77455000D03*
X111335000Y-74915000D03*
X111335000Y-72375000D03*
%TD*%
D11*
%TO.C,SW10*%
X122765000Y-78344000D03*
X122765000Y-73645000D03*
X122765000Y-68946000D03*
%TD*%
D12*
%TO.C,BT1*%
X54275000Y-46835000D03*
X69515000Y-46835000D03*
%TD*%
D11*
%TO.C,SW1*%
X84665000Y-49896000D03*
X84665000Y-54595000D03*
X84665000Y-59294000D03*
%TD*%
%TO.C,SW2*%
X84665000Y-78344000D03*
X84665000Y-73645000D03*
X84665000Y-68946000D03*
%TD*%
%TO.C,SW3*%
X84665000Y-87996000D03*
X84665000Y-92695000D03*
X84665000Y-97394000D03*
%TD*%
%TO.C,SW4*%
X84665000Y-116444000D03*
X84665000Y-111745000D03*
X84665000Y-107046000D03*
%TD*%
%TO.C,SW5*%
X84665000Y-126096000D03*
X84665000Y-130795000D03*
X84665000Y-135494000D03*
%TD*%
%TO.C,SW6*%
X84665000Y-153274000D03*
X84665000Y-148575000D03*
X84665000Y-143876000D03*
%TD*%
%TO.C,SW7*%
X122765000Y-135494000D03*
X122765000Y-130795000D03*
X122765000Y-126096000D03*
%TD*%
%TO.C,SW8*%
X122765000Y-107046000D03*
X122765000Y-111745000D03*
X122765000Y-116444000D03*
%TD*%
%TO.C,SW9*%
X122765000Y-87996000D03*
X122765000Y-92695000D03*
X122765000Y-97394000D03*
%TD*%
%TO.C,SW11*%
X122765000Y-49896000D03*
X122765000Y-54595000D03*
X122765000Y-59294000D03*
%TD*%
%TO.C,SW12*%
X122765000Y-143876000D03*
X122765000Y-148575000D03*
X122765000Y-153274000D03*
%TD*%
D13*
%TO.C,SW13*%
X99321000Y-145835000D03*
X108465000Y-145835000D03*
%TD*%
%TO.C,SW14*%
X62611000Y-73660000D03*
X71755000Y-73660000D03*
%TD*%
%TO.C,SW15*%
X71755000Y-130810000D03*
X62611000Y-130810000D03*
%TD*%
%TO.C,SW16*%
X144399000Y-130810000D03*
X135255000Y-130810000D03*
%TD*%
%TO.C,SW17*%
X135255000Y-73660000D03*
X144399000Y-73660000D03*
%TD*%
D14*
%TO.C,U2*%
X103980000Y-48910000D03*
D15*
X101440000Y-64710000D03*
D16*
X103980000Y-64710000D03*
X106520000Y-64710000D03*
%TD*%
D17*
%TO.C,U3*%
X162965000Y-145400000D03*
X162965000Y-150480000D03*
X162965000Y-155560000D03*
%TD*%
M02*
